  0
SECTION
  2
BLOCKS
  0
ENDSEC
  0
SECTION
  2
ENTITIES
  0
LINE
  8
0
 10
22.4656
 20
-6.24402
 11
23.2077
 21
-6.11317
  0
LINE
  8
0
 10
23.2077
 20
-6.11317
 11
123.249
 21
14.5731
  0
LINE
  8
0
 10
123.249
 20
14.5731
 11
123.969
 21
14.7959
  0
LINE
  8
0
 10
123.969
 20
14.7959
 11
124.655
 21
15.1072
  0
LINE
  8
0
 10
124.655
 20
15.1072
 11
125.297
 21
15.502
  0
LINE
  8
0
 10
125.297
 20
15.502
 11
125.884
 21
15.9742
  0
LINE
  8
0
 10
125.884
 20
15.9742
 11
126.408
 21
16.5162
  0
LINE
  8
0
 10
126.408
 20
16.5162
 11
126.859
 21
17.1195
  0
LINE
  8
0
 10
126.859
 20
17.1195
 11
127.231
 21
17.7747
  0
LINE
  8
0
 10
127.231
 20
17.7747
 11
127.518
 21
18.4713
  0
LINE
  8
0
 10
127.518
 20
18.4713
 11
127.716
 21
19.1984
  0
LINE
  8
0
 10
127.716
 20
19.1984
 11
127.821
 21
19.9446
  0
LINE
  8
0
 10
127.821
 20
19.9446
 11
127.831
 21
20.698
  0
LINE
  8
0
 10
127.831
 20
20.698
 11
127.747
 21
21.4468
  0
LINE
  8
0
 10
127.747
 20
21.4468
 11
113.315
 21
103.298
  0
LINE
  8
0
 10
113.315
 20
103.298
 11
113.138
 21
104.03
  0
LINE
  8
0
 10
113.138
 20
104.03
 11
112.87
 21
104.735
  0
LINE
  8
0
 10
112.87
 20
104.735
 11
112.516
 21
105.4
  0
LINE
  8
0
 10
112.516
 20
105.4
 11
112.082
 21
106.016
  0
LINE
  8
0
 10
112.082
 20
106.016
 11
111.574
 21
106.572
  0
LINE
  8
0
 10
111.574
 20
106.572
 11
111
 21
107.061
  0
LINE
  8
0
 10
111
 20
107.061
 11
110.37
 21
107.473
  0
LINE
  8
0
 10
110.37
 20
107.473
 11
109.692
 21
107.803
  0
LINE
  8
0
 10
109.692
 20
107.803
 11
108.979
 21
108.046
  0
LINE
  8
0
 10
108.979
 20
108.046
 11
108.241
 21
108.198
  0
LINE
  8
0
 10
108.241
 20
108.198
 11
107.49
 21
108.256
  0
LINE
  8
0
 10
107.49
 20
108.256
 11
5
 21
108.256
  0
LINE
  8
0
 10
5
 20
108.256
 11
5
 21
99
  0
LINE
  8
0
 10
5
 20
99
 11
10
 21
99
  0
LINE
  8
0
 10
10
 20
99
 11
10
 21
49
  0
LINE
  8
0
 10
10
 20
49
 11
-10
 21
49
  0
LINE
  8
0
 10
-10
 20
49
 11
-10
 21
99
  0
LINE
  8
0
 10
-10
 20
99
 11
-5
 21
99
  0
LINE
  8
0
 10
-5
 20
99
 11
-5
 21
108.256
  0
LINE
  8
0
 10
-5
 20
108.256
 11
-107.49
 21
108.256
  0
LINE
  8
0
 10
-107.49
 20
108.256
 11
-108.241
 21
108.198
  0
LINE
  8
0
 10
-108.241
 20
108.198
 11
-108.979
 21
108.046
  0
LINE
  8
0
 10
-108.979
 20
108.046
 11
-109.692
 21
107.803
  0
LINE
  8
0
 10
-109.692
 20
107.803
 11
-110.37
 21
107.473
  0
LINE
  8
0
 10
-110.37
 20
107.473
 11
-111
 21
107.061
  0
LINE
  8
0
 10
-111
 20
107.061
 11
-111.574
 21
106.572
  0
LINE
  8
0
 10
-111.574
 20
106.572
 11
-112.082
 21
106.016
  0
LINE
  8
0
 10
-112.082
 20
106.016
 11
-112.516
 21
105.4
  0
LINE
  8
0
 10
-112.516
 20
105.4
 11
-112.87
 21
104.735
  0
LINE
  8
0
 10
-112.87
 20
104.735
 11
-113.138
 21
104.03
  0
LINE
  8
0
 10
-113.138
 20
104.03
 11
-113.315
 21
103.298
  0
LINE
  8
0
 10
-113.315
 20
103.298
 11
-127.747
 21
21.4468
  0
LINE
  8
0
 10
-127.747
 20
21.4468
 11
-127.831
 21
20.698
  0
LINE
  8
0
 10
-127.831
 20
20.698
 11
-127.821
 21
19.9446
  0
LINE
  8
0
 10
-127.821
 20
19.9446
 11
-127.716
 21
19.1984
  0
LINE
  8
0
 10
-127.716
 20
19.1984
 11
-127.518
 21
18.4713
  0
LINE
  8
0
 10
-127.518
 20
18.4713
 11
-127.231
 21
17.7747
  0
LINE
  8
0
 10
-127.231
 20
17.7747
 11
-126.859
 21
17.1195
  0
LINE
  8
0
 10
-126.859
 20
17.1195
 11
-126.408
 21
16.5162
  0
LINE
  8
0
 10
-126.408
 20
16.5162
 11
-125.884
 21
15.9742
  0
LINE
  8
0
 10
-125.884
 20
15.9742
 11
-125.297
 21
15.502
  0
LINE
  8
0
 10
-125.297
 20
15.502
 11
-124.655
 21
15.1072
  0
LINE
  8
0
 10
-124.655
 20
15.1072
 11
-123.969
 21
14.7959
  0
LINE
  8
0
 10
-123.969
 20
14.7959
 11
-123.249
 21
14.5731
  0
LINE
  8
0
 10
-123.249
 20
14.5731
 11
-23.2077
 21
-6.11317
  0
LINE
  8
0
 10
-23.2077
 20
-6.11317
 11
-22.4656
 21
-6.24402
  0
LINE
  8
0
 10
-22.4656
 20
-6.24402
 11
-21.713
 21
-6.28082
  0
LINE
  8
0
 10
-21.713
 20
-6.28082
 11
21.713
 21
-6.28082
  0
LINE
  8
0
 10
21.713
 20
-6.28082
 11
22.4656
 21
-6.24402
  0
LINE
  8
0
 10
107.197
 20
100.771
 11
107.013
 21
100.809
  0
LINE
  8
0
 10
107.013
 20
100.809
 11
106.834
 21
100.869
  0
LINE
  8
0
 10
106.834
 20
100.869
 11
106.665
 21
100.952
  0
LINE
  8
0
 10
106.665
 20
100.952
 11
106.507
 21
101.055
  0
LINE
  8
0
 10
106.507
 20
101.055
 11
106.364
 21
101.177
  0
LINE
  8
0
 10
106.364
 20
101.177
 11
106.237
 21
101.316
  0
LINE
  8
0
 10
106.237
 20
101.316
 11
106.128
 21
101.47
  0
LINE
  8
0
 10
106.128
 20
101.47
 11
106.04
 21
101.637
  0
LINE
  8
0
 10
106.04
 20
101.637
 11
105.973
 21
101.813
  0
LINE
  8
0
 10
105.973
 20
101.813
 11
105.929
 21
101.996
  0
LINE
  8
0
 10
105.929
 20
101.996
 11
105.908
 21
102.183
  0
LINE
  8
0
 10
105.908
 20
102.183
 11
105.91
 21
102.371
  0
LINE
  8
0
 10
105.91
 20
102.371
 11
105.937
 21
102.558
  0
LINE
  8
0
 10
105.937
 20
102.558
 11
105.986
 21
102.74
  0
LINE
  8
0
 10
105.986
 20
102.74
 11
106.058
 21
102.914
  0
LINE
  8
0
 10
106.058
 20
102.914
 11
106.151
 21
103.077
  0
LINE
  8
0
 10
106.151
 20
103.077
 11
106.264
 21
103.228
  0
LINE
  8
0
 10
106.264
 20
103.228
 11
106.394
 21
103.364
  0
LINE
  8
0
 10
106.394
 20
103.364
 11
106.541
 21
103.482
  0
LINE
  8
0
 10
106.541
 20
103.482
 11
106.702
 21
103.581
  0
LINE
  8
0
 10
106.702
 20
103.581
 11
106.873
 21
103.658
  0
LINE
  8
0
 10
106.873
 20
103.658
 11
107.053
 21
103.714
  0
LINE
  8
0
 10
107.053
 20
103.714
 11
107.239
 21
103.747
  0
LINE
  8
0
 10
107.239
 20
103.747
 11
107.427
 21
103.756
  0
LINE
  8
0
 10
107.427
 20
103.756
 11
107.615
 21
103.742
  0
LINE
  8
0
 10
107.615
 20
103.742
 11
107.799
 21
103.704
  0
LINE
  8
0
 10
107.799
 20
103.704
 11
107.978
 21
103.643
  0
LINE
  8
0
 10
107.978
 20
103.643
 11
108.147
 21
103.56
  0
LINE
  8
0
 10
108.147
 20
103.56
 11
108.304
 21
103.457
  0
LINE
  8
0
 10
108.304
 20
103.457
 11
108.448
 21
103.335
  0
LINE
  8
0
 10
108.448
 20
103.335
 11
108.575
 21
103.196
  0
LINE
  8
0
 10
108.575
 20
103.196
 11
108.684
 21
103.042
  0
LINE
  8
0
 10
108.684
 20
103.042
 11
108.772
 21
102.876
  0
LINE
  8
0
 10
108.772
 20
102.876
 11
108.839
 21
102.7
  0
LINE
  8
0
 10
108.839
 20
102.7
 11
108.883
 21
102.517
  0
LINE
  8
0
 10
108.883
 20
102.517
 11
108.904
 21
102.329
  0
LINE
  8
0
 10
108.904
 20
102.329
 11
108.901
 21
102.141
  0
LINE
  8
0
 10
108.901
 20
102.141
 11
108.875
 21
101.955
  0
LINE
  8
0
 10
108.875
 20
101.955
 11
108.826
 21
101.773
  0
LINE
  8
0
 10
108.826
 20
101.773
 11
108.754
 21
101.599
  0
LINE
  8
0
 10
108.754
 20
101.599
 11
108.661
 21
101.435
  0
LINE
  8
0
 10
108.661
 20
101.435
 11
108.548
 21
101.284
  0
LINE
  8
0
 10
108.548
 20
101.284
 11
108.417
 21
101.148
  0
LINE
  8
0
 10
108.417
 20
101.148
 11
108.271
 21
101.03
  0
LINE
  8
0
 10
108.271
 20
101.03
 11
108.11
 21
100.932
  0
LINE
  8
0
 10
108.11
 20
100.932
 11
107.939
 21
100.854
  0
LINE
  8
0
 10
107.939
 20
100.854
 11
107.759
 21
100.798
  0
LINE
  8
0
 10
107.759
 20
100.798
 11
107.573
 21
100.766
  0
LINE
  8
0
 10
107.573
 20
100.766
 11
107.385
 21
100.756
  0
LINE
  8
0
 10
107.385
 20
100.756
 11
107.197
 21
100.771
  0
LINE
  8
0
 10
-7.59978
 20
100.766
 11
-7.78529
 21
100.798
  0
LINE
  8
0
 10
-7.78529
 20
100.798
 11
-7.96524
 21
100.854
  0
LINE
  8
0
 10
-7.96524
 20
100.854
 11
-8.13678
 21
100.932
  0
LINE
  8
0
 10
-8.13678
 20
100.932
 11
-8.29723
 21
101.03
  0
LINE
  8
0
 10
-8.29723
 20
101.03
 11
-8.44403
 21
101.148
  0
LINE
  8
0
 10
-8.44403
 20
101.148
 11
-8.57487
 21
101.284
  0
LINE
  8
0
 10
-8.57487
 20
101.284
 11
-8.68773
 21
101.435
  0
LINE
  8
0
 10
-8.68773
 20
101.435
 11
-8.78076
 21
101.599
  0
LINE
  8
0
 10
-8.78076
 20
101.599
 11
-8.85255
 21
101.773
  0
LINE
  8
0
 10
-8.85255
 20
101.773
 11
-8.90193
 21
101.955
  0
LINE
  8
0
 10
-8.90193
 20
101.955
 11
-8.92816
 21
102.141
  0
LINE
  8
0
 10
-8.92816
 20
102.141
 11
-8.93079
 21
102.329
  0
LINE
  8
0
 10
-8.93079
 20
102.329
 11
-8.90979
 21
102.517
  0
LINE
  8
0
 10
-8.90979
 20
102.517
 11
-8.86549
 21
102.7
  0
LINE
  8
0
 10
-8.86549
 20
102.7
 11
-8.7986
 21
102.876
  0
LINE
  8
0
 10
-8.7986
 20
102.876
 11
-8.71016
 21
103.042
  0
LINE
  8
0
 10
-8.71016
 20
103.042
 11
-8.60158
 21
103.196
  0
LINE
  8
0
 10
-8.60158
 20
103.196
 11
-8.47456
 21
103.335
  0
LINE
  8
0
 10
-8.47456
 20
103.335
 11
-8.33112
 21
103.457
  0
LINE
  8
0
 10
-8.33112
 20
103.457
 11
-8.17349
 21
103.56
  0
LINE
  8
0
 10
-8.17349
 20
103.56
 11
-8.00418
 21
103.643
  0
LINE
  8
0
 10
-8.00418
 20
103.643
 11
-7.82585
 21
103.704
  0
LINE
  8
0
 10
-7.82585
 20
103.704
 11
-7.64134
 21
103.742
  0
LINE
  8
0
 10
-7.64134
 20
103.742
 11
-7.45352
 21
103.756
  0
LINE
  8
0
 10
-7.45352
 20
103.756
 11
-7.26537
 21
103.747
  0
LINE
  8
0
 10
-7.26537
 20
103.747
 11
-7.07986
 21
103.714
  0
LINE
  8
0
 10
-7.07986
 20
103.714
 11
-6.89992
 21
103.658
  0
LINE
  8
0
 10
-6.89992
 20
103.658
 11
-6.72836
 21
103.581
  0
LINE
  8
0
 10
-6.72836
 20
103.581
 11
-6.56793
 21
103.482
  0
LINE
  8
0
 10
-6.56793
 20
103.482
 11
-6.42113
 21
103.364
  0
LINE
  8
0
 10
-6.42113
 20
103.364
 11
-6.29027
 21
103.228
  0
LINE
  8
0
 10
-6.29027
 20
103.228
 11
-6.17743
 21
103.078
  0
LINE
  8
0
 10
-6.17743
 20
103.078
 11
-6.08438
 21
102.914
  0
LINE
  8
0
 10
-6.08438
 20
102.914
 11
-6.0126
 21
102.74
  0
LINE
  8
0
 10
-6.0126
 20
102.74
 11
-5.96321
 21
102.558
  0
LINE
  8
0
 10
-5.96321
 20
102.558
 11
-5.937
 21
102.371
  0
LINE
  8
0
 10
-5.937
 20
102.371
 11
-5.93437
 21
102.183
  0
LINE
  8
0
 10
-5.93437
 20
102.183
 11
-5.95537
 21
101.996
  0
LINE
  8
0
 10
-5.95537
 20
101.996
 11
-5.99966
 21
101.813
  0
LINE
  8
0
 10
-5.99966
 20
101.813
 11
-6.06654
 21
101.637
  0
LINE
  8
0
 10
-6.06654
 20
101.637
 11
-6.15498
 21
101.47
  0
LINE
  8
0
 10
-6.15498
 20
101.47
 11
-6.26357
 21
101.316
  0
LINE
  8
0
 10
-6.26357
 20
101.316
 11
-6.39059
 21
101.177
  0
LINE
  8
0
 10
-6.39059
 20
101.177
 11
-6.53404
 21
101.055
  0
LINE
  8
0
 10
-6.53404
 20
101.055
 11
-6.69167
 21
100.952
  0
LINE
  8
0
 10
-6.69167
 20
100.952
 11
-6.86096
 21
100.869
  0
LINE
  8
0
 10
-6.86096
 20
100.869
 11
-7.03929
 21
100.809
  0
LINE
  8
0
 10
-7.03929
 20
100.809
 11
-7.22382
 21
100.771
  0
LINE
  8
0
 10
-7.22382
 20
100.771
 11
-7.41164
 21
100.756
  0
LINE
  8
0
 10
-7.41164
 20
100.756
 11
-7.59978
 21
100.766
  0
LINE
  8
0
 10
-107.573
 20
100.766
 11
-107.759
 21
100.798
  0
LINE
  8
0
 10
-107.759
 20
100.798
 11
-107.939
 21
100.854
  0
LINE
  8
0
 10
-107.939
 20
100.854
 11
-108.11
 21
100.932
  0
LINE
  8
0
 10
-108.11
 20
100.932
 11
-108.271
 21
101.03
  0
LINE
  8
0
 10
-108.271
 20
101.03
 11
-108.417
 21
101.148
  0
LINE
  8
0
 10
-108.417
 20
101.148
 11
-108.548
 21
101.284
  0
LINE
  8
0
 10
-108.548
 20
101.284
 11
-108.661
 21
101.435
  0
LINE
  8
0
 10
-108.661
 20
101.435
 11
-108.754
 21
101.599
  0
LINE
  8
0
 10
-108.754
 20
101.599
 11
-108.826
 21
101.773
  0
LINE
  8
0
 10
-108.826
 20
101.773
 11
-108.875
 21
101.955
  0
LINE
  8
0
 10
-108.875
 20
101.955
 11
-108.901
 21
102.141
  0
LINE
  8
0
 10
-108.901
 20
102.141
 11
-108.904
 21
102.329
  0
LINE
  8
0
 10
-108.904
 20
102.329
 11
-108.883
 21
102.517
  0
LINE
  8
0
 10
-108.883
 20
102.517
 11
-108.839
 21
102.7
  0
LINE
  8
0
 10
-108.839
 20
102.7
 11
-108.772
 21
102.876
  0
LINE
  8
0
 10
-108.772
 20
102.876
 11
-108.684
 21
103.042
  0
LINE
  8
0
 10
-108.684
 20
103.042
 11
-108.575
 21
103.196
  0
LINE
  8
0
 10
-108.575
 20
103.196
 11
-108.448
 21
103.335
  0
LINE
  8
0
 10
-108.448
 20
103.335
 11
-108.304
 21
103.457
  0
LINE
  8
0
 10
-108.304
 20
103.457
 11
-108.147
 21
103.56
  0
LINE
  8
0
 10
-108.147
 20
103.56
 11
-107.978
 21
103.643
  0
LINE
  8
0
 10
-107.978
 20
103.643
 11
-107.799
 21
103.704
  0
LINE
  8
0
 10
-107.799
 20
103.704
 11
-107.615
 21
103.742
  0
LINE
  8
0
 10
-107.615
 20
103.742
 11
-107.427
 21
103.756
  0
LINE
  8
0
 10
-107.427
 20
103.756
 11
-107.239
 21
103.747
  0
LINE
  8
0
 10
-107.239
 20
103.747
 11
-107.053
 21
103.714
  0
LINE
  8
0
 10
-107.053
 20
103.714
 11
-106.873
 21
103.658
  0
LINE
  8
0
 10
-106.873
 20
103.658
 11
-106.702
 21
103.581
  0
LINE
  8
0
 10
-106.702
 20
103.581
 11
-106.541
 21
103.482
  0
LINE
  8
0
 10
-106.541
 20
103.482
 11
-106.394
 21
103.364
  0
LINE
  8
0
 10
-106.394
 20
103.364
 11
-106.264
 21
103.228
  0
LINE
  8
0
 10
-106.264
 20
103.228
 11
-106.151
 21
103.077
  0
LINE
  8
0
 10
-106.151
 20
103.077
 11
-106.058
 21
102.914
  0
LINE
  8
0
 10
-106.058
 20
102.914
 11
-105.986
 21
102.74
  0
LINE
  8
0
 10
-105.986
 20
102.74
 11
-105.937
 21
102.558
  0
LINE
  8
0
 10
-105.937
 20
102.558
 11
-105.91
 21
102.371
  0
LINE
  8
0
 10
-105.91
 20
102.371
 11
-105.908
 21
102.183
  0
LINE
  8
0
 10
-105.908
 20
102.183
 11
-105.929
 21
101.996
  0
LINE
  8
0
 10
-105.929
 20
101.996
 11
-105.973
 21
101.813
  0
LINE
  8
0
 10
-105.973
 20
101.813
 11
-106.04
 21
101.637
  0
LINE
  8
0
 10
-106.04
 20
101.637
 11
-106.128
 21
101.47
  0
LINE
  8
0
 10
-106.128
 20
101.47
 11
-106.237
 21
101.316
  0
LINE
  8
0
 10
-106.237
 20
101.316
 11
-106.364
 21
101.177
  0
LINE
  8
0
 10
-106.364
 20
101.177
 11
-106.507
 21
101.055
  0
LINE
  8
0
 10
-106.507
 20
101.055
 11
-106.665
 21
100.952
  0
LINE
  8
0
 10
-106.665
 20
100.952
 11
-106.834
 21
100.869
  0
LINE
  8
0
 10
-106.834
 20
100.869
 11
-107.013
 21
100.809
  0
LINE
  8
0
 10
-107.013
 20
100.809
 11
-107.197
 21
100.771
  0
LINE
  8
0
 10
-107.197
 20
100.771
 11
-107.385
 21
100.756
  0
LINE
  8
0
 10
-107.385
 20
100.756
 11
-107.573
 21
100.766
  0
LINE
  8
0
 10
7.22382
 20
100.771
 11
7.03929
 21
100.809
  0
LINE
  8
0
 10
7.03929
 20
100.809
 11
6.86096
 21
100.869
  0
LINE
  8
0
 10
6.86096
 20
100.869
 11
6.69167
 21
100.952
  0
LINE
  8
0
 10
6.69167
 20
100.952
 11
6.53404
 21
101.055
  0
LINE
  8
0
 10
6.53404
 20
101.055
 11
6.39059
 21
101.177
  0
LINE
  8
0
 10
6.39059
 20
101.177
 11
6.26357
 21
101.316
  0
LINE
  8
0
 10
6.26357
 20
101.316
 11
6.15498
 21
101.47
  0
LINE
  8
0
 10
6.15498
 20
101.47
 11
6.06654
 21
101.637
  0
LINE
  8
0
 10
6.06654
 20
101.637
 11
5.99966
 21
101.813
  0
LINE
  8
0
 10
5.99966
 20
101.813
 11
5.95537
 21
101.996
  0
LINE
  8
0
 10
5.95537
 20
101.996
 11
5.93437
 21
102.183
  0
LINE
  8
0
 10
5.93437
 20
102.183
 11
5.937
 21
102.371
  0
LINE
  8
0
 10
5.937
 20
102.371
 11
5.96321
 21
102.558
  0
LINE
  8
0
 10
5.96321
 20
102.558
 11
6.0126
 21
102.74
  0
LINE
  8
0
 10
6.0126
 20
102.74
 11
6.08438
 21
102.914
  0
LINE
  8
0
 10
6.08438
 20
102.914
 11
6.17743
 21
103.078
  0
LINE
  8
0
 10
6.17743
 20
103.078
 11
6.29027
 21
103.228
  0
LINE
  8
0
 10
6.29027
 20
103.228
 11
6.42113
 21
103.364
  0
LINE
  8
0
 10
6.42113
 20
103.364
 11
6.56793
 21
103.482
  0
LINE
  8
0
 10
6.56793
 20
103.482
 11
6.72836
 21
103.581
  0
LINE
  8
0
 10
6.72836
 20
103.581
 11
6.89992
 21
103.658
  0
LINE
  8
0
 10
6.89992
 20
103.658
 11
7.07986
 21
103.714
  0
LINE
  8
0
 10
7.07986
 20
103.714
 11
7.26537
 21
103.747
  0
LINE
  8
0
 10
7.26537
 20
103.747
 11
7.45352
 21
103.756
  0
LINE
  8
0
 10
7.45352
 20
103.756
 11
7.64134
 21
103.742
  0
LINE
  8
0
 10
7.64134
 20
103.742
 11
7.82585
 21
103.704
  0
LINE
  8
0
 10
7.82585
 20
103.704
 11
8.00418
 21
103.643
  0
LINE
  8
0
 10
8.00418
 20
103.643
 11
8.17349
 21
103.56
  0
LINE
  8
0
 10
8.17349
 20
103.56
 11
8.33112
 21
103.457
  0
LINE
  8
0
 10
8.33112
 20
103.457
 11
8.47456
 21
103.335
  0
LINE
  8
0
 10
8.47456
 20
103.335
 11
8.60158
 21
103.196
  0
LINE
  8
0
 10
8.60158
 20
103.196
 11
8.71016
 21
103.042
  0
LINE
  8
0
 10
8.71016
 20
103.042
 11
8.7986
 21
102.876
  0
LINE
  8
0
 10
8.7986
 20
102.876
 11
8.86549
 21
102.7
  0
LINE
  8
0
 10
8.86549
 20
102.7
 11
8.90979
 21
102.517
  0
LINE
  8
0
 10
8.90979
 20
102.517
 11
8.93079
 21
102.329
  0
LINE
  8
0
 10
8.93079
 20
102.329
 11
8.92816
 21
102.141
  0
LINE
  8
0
 10
8.92816
 20
102.141
 11
8.90193
 21
101.955
  0
LINE
  8
0
 10
8.90193
 20
101.955
 11
8.85255
 21
101.773
  0
LINE
  8
0
 10
8.85255
 20
101.773
 11
8.78076
 21
101.599
  0
LINE
  8
0
 10
8.78076
 20
101.599
 11
8.68773
 21
101.435
  0
LINE
  8
0
 10
8.68773
 20
101.435
 11
8.57487
 21
101.284
  0
LINE
  8
0
 10
8.57487
 20
101.284
 11
8.44403
 21
101.148
  0
LINE
  8
0
 10
8.44403
 20
101.148
 11
8.29723
 21
101.03
  0
LINE
  8
0
 10
8.29723
 20
101.03
 11
8.13678
 21
100.932
  0
LINE
  8
0
 10
8.13678
 20
100.932
 11
7.96524
 21
100.854
  0
LINE
  8
0
 10
7.96524
 20
100.854
 11
7.78529
 21
100.798
  0
LINE
  8
0
 10
7.78529
 20
100.798
 11
7.59978
 21
100.766
  0
LINE
  8
0
 10
7.59978
 20
100.766
 11
7.41164
 21
100.756
  0
LINE
  8
0
 10
7.41164
 20
100.756
 11
7.22382
 21
100.771
  0
LINE
  8
0
 10
-20.0942
 20
96.5029
 11
-20.2811
 21
96.5266
  0
LINE
  8
0
 10
-20.2811
 20
96.5266
 11
-20.4635
 21
96.5734
  0
LINE
  8
0
 10
-20.4635
 20
96.5734
 11
-20.6387
 21
96.6427
  0
LINE
  8
0
 10
-20.6387
 20
96.6427
 11
-20.8037
 21
96.7335
  0
LINE
  8
0
 10
-20.8037
 20
96.7335
 11
-20.9561
 21
96.8442
  0
LINE
  8
0
 10
-20.9561
 20
96.8442
 11
-21.0934
 21
96.9732
  0
LINE
  8
0
 10
-21.0934
 20
96.9732
 11
-21.2135
 21
97.1183
  0
LINE
  8
0
 10
-21.2135
 20
97.1183
 11
-21.3145
 21
97.2774
  0
LINE
  8
0
 10
-21.3145
 20
97.2774
 11
-21.3947
 21
97.4478
  0
LINE
  8
0
 10
-21.3947
 20
97.4478
 11
-21.4529
 21
97.627
  0
LINE
  8
0
 10
-21.4529
 20
97.627
 11
-21.4882
 21
97.812
  0
LINE
  8
0
 10
-21.4882
 20
97.812
 11
-21.5
 21
98
  0
LINE
  8
0
 10
-21.5
 20
98
 11
-21.4882
 21
98.188
  0
LINE
  8
0
 10
-21.4882
 20
98.188
 11
-21.4529
 21
98.373
  0
LINE
  8
0
 10
-21.4529
 20
98.373
 11
-21.3947
 21
98.5522
  0
LINE
  8
0
 10
-21.3947
 20
98.5522
 11
-21.3145
 21
98.7226
  0
LINE
  8
0
 10
-21.3145
 20
98.7226
 11
-21.2135
 21
98.8817
  0
LINE
  8
0
 10
-21.2135
 20
98.8817
 11
-21.0934
 21
99.0268
  0
LINE
  8
0
 10
-21.0934
 20
99.0268
 11
-20.9561
 21
99.1558
  0
LINE
  8
0
 10
-20.9561
 20
99.1558
 11
-20.8037
 21
99.2665
  0
LINE
  8
0
 10
-20.8037
 20
99.2665
 11
-20.6387
 21
99.3572
  0
LINE
  8
0
 10
-20.6387
 20
99.3572
 11
-20.4635
 21
99.4266
  0
LINE
  8
0
 10
-20.4635
 20
99.4266
 11
-20.2811
 21
99.4734
  0
LINE
  8
0
 10
-20.2811
 20
99.4734
 11
-20.0942
 21
99.497
  0
LINE
  8
0
 10
-20.0942
 20
99.497
 11
-19.9058
 21
99.497
  0
LINE
  8
0
 10
-19.9058
 20
99.497
 11
-19.7189
 21
99.4734
  0
LINE
  8
0
 10
-19.7189
 20
99.4734
 11
-19.5365
 21
99.4266
  0
LINE
  8
0
 10
-19.5365
 20
99.4266
 11
-19.3613
 21
99.3572
  0
LINE
  8
0
 10
-19.3613
 20
99.3572
 11
-19.1963
 21
99.2665
  0
LINE
  8
0
 10
-19.1963
 20
99.2665
 11
-19.0439
 21
99.1558
  0
LINE
  8
0
 10
-19.0439
 20
99.1558
 11
-18.9065
 21
99.0268
  0
LINE
  8
0
 10
-18.9065
 20
99.0268
 11
-18.7865
 21
98.8817
  0
LINE
  8
0
 10
-18.7865
 20
98.8817
 11
-18.6855
 21
98.7226
  0
LINE
  8
0
 10
-18.6855
 20
98.7226
 11
-18.6053
 21
98.5522
  0
LINE
  8
0
 10
-18.6053
 20
98.5522
 11
-18.5471
 21
98.373
  0
LINE
  8
0
 10
-18.5471
 20
98.373
 11
-18.5118
 21
98.188
  0
LINE
  8
0
 10
-18.5118
 20
98.188
 11
-18.5
 21
98
  0
LINE
  8
0
 10
-18.5
 20
98
 11
-18.5118
 21
97.812
  0
LINE
  8
0
 10
-18.5118
 20
97.812
 11
-18.5471
 21
97.627
  0
LINE
  8
0
 10
-18.5471
 20
97.627
 11
-18.6053
 21
97.4478
  0
LINE
  8
0
 10
-18.6053
 20
97.4478
 11
-18.6855
 21
97.2774
  0
LINE
  8
0
 10
-18.6855
 20
97.2774
 11
-18.7865
 21
97.1183
  0
LINE
  8
0
 10
-18.7865
 20
97.1183
 11
-18.9065
 21
96.9732
  0
LINE
  8
0
 10
-18.9065
 20
96.9732
 11
-19.0439
 21
96.8442
  0
LINE
  8
0
 10
-19.0439
 20
96.8442
 11
-19.1963
 21
96.7335
  0
LINE
  8
0
 10
-19.1963
 20
96.7335
 11
-19.3613
 21
96.6427
  0
LINE
  8
0
 10
-19.3613
 20
96.6427
 11
-19.5365
 21
96.5734
  0
LINE
  8
0
 10
-19.5365
 20
96.5734
 11
-19.7189
 21
96.5266
  0
LINE
  8
0
 10
-19.7189
 20
96.5266
 11
-19.9058
 21
96.5029
  0
LINE
  8
0
 10
-19.9058
 20
96.5029
 11
-20.0942
 21
96.5029
  0
LINE
  8
0
 10
19.9058
 20
96.5029
 11
19.7189
 21
96.5266
  0
LINE
  8
0
 10
19.7189
 20
96.5266
 11
19.5365
 21
96.5734
  0
LINE
  8
0
 10
19.5365
 20
96.5734
 11
19.3613
 21
96.6427
  0
LINE
  8
0
 10
19.3613
 20
96.6427
 11
19.1963
 21
96.7335
  0
LINE
  8
0
 10
19.1963
 20
96.7335
 11
19.0439
 21
96.8442
  0
LINE
  8
0
 10
19.0439
 20
96.8442
 11
18.9065
 21
96.9732
  0
LINE
  8
0
 10
18.9065
 20
96.9732
 11
18.7865
 21
97.1183
  0
LINE
  8
0
 10
18.7865
 20
97.1183
 11
18.6855
 21
97.2774
  0
LINE
  8
0
 10
18.6855
 20
97.2774
 11
18.6053
 21
97.4478
  0
LINE
  8
0
 10
18.6053
 20
97.4478
 11
18.5471
 21
97.627
  0
LINE
  8
0
 10
18.5471
 20
97.627
 11
18.5118
 21
97.812
  0
LINE
  8
0
 10
18.5118
 20
97.812
 11
18.5
 21
98
  0
LINE
  8
0
 10
18.5
 20
98
 11
18.5118
 21
98.188
  0
LINE
  8
0
 10
18.5118
 20
98.188
 11
18.5471
 21
98.373
  0
LINE
  8
0
 10
18.5471
 20
98.373
 11
18.6053
 21
98.5522
  0
LINE
  8
0
 10
18.6053
 20
98.5522
 11
18.6855
 21
98.7226
  0
LINE
  8
0
 10
18.6855
 20
98.7226
 11
18.7865
 21
98.8817
  0
LINE
  8
0
 10
18.7865
 20
98.8817
 11
18.9065
 21
99.0268
  0
LINE
  8
0
 10
18.9065
 20
99.0268
 11
19.0439
 21
99.1558
  0
LINE
  8
0
 10
19.0439
 20
99.1558
 11
19.1963
 21
99.2665
  0
LINE
  8
0
 10
19.1963
 20
99.2665
 11
19.3613
 21
99.3572
  0
LINE
  8
0
 10
19.3613
 20
99.3572
 11
19.5365
 21
99.4266
  0
LINE
  8
0
 10
19.5365
 20
99.4266
 11
19.7189
 21
99.4734
  0
LINE
  8
0
 10
19.7189
 20
99.4734
 11
19.9058
 21
99.497
  0
LINE
  8
0
 10
19.9058
 20
99.497
 11
20.0942
 21
99.497
  0
LINE
  8
0
 10
20.0942
 20
99.497
 11
20.2811
 21
99.4734
  0
LINE
  8
0
 10
20.2811
 20
99.4734
 11
20.4635
 21
99.4266
  0
LINE
  8
0
 10
20.4635
 20
99.4266
 11
20.6387
 21
99.3572
  0
LINE
  8
0
 10
20.6387
 20
99.3572
 11
20.8037
 21
99.2665
  0
LINE
  8
0
 10
20.8037
 20
99.2665
 11
20.9561
 21
99.1558
  0
LINE
  8
0
 10
20.9561
 20
99.1558
 11
21.0934
 21
99.0268
  0
LINE
  8
0
 10
21.0934
 20
99.0268
 11
21.2135
 21
98.8817
  0
LINE
  8
0
 10
21.2135
 20
98.8817
 11
21.3145
 21
98.7226
  0
LINE
  8
0
 10
21.3145
 20
98.7226
 11
21.3947
 21
98.5522
  0
LINE
  8
0
 10
21.3947
 20
98.5522
 11
21.4529
 21
98.373
  0
LINE
  8
0
 10
21.4529
 20
98.373
 11
21.4882
 21
98.188
  0
LINE
  8
0
 10
21.4882
 20
98.188
 11
21.5
 21
98
  0
LINE
  8
0
 10
21.5
 20
98
 11
21.4882
 21
97.812
  0
LINE
  8
0
 10
21.4882
 20
97.812
 11
21.4529
 21
97.627
  0
LINE
  8
0
 10
21.4529
 20
97.627
 11
21.3947
 21
97.4478
  0
LINE
  8
0
 10
21.3947
 20
97.4478
 11
21.3145
 21
97.2774
  0
LINE
  8
0
 10
21.3145
 20
97.2774
 11
21.2135
 21
97.1183
  0
LINE
  8
0
 10
21.2135
 20
97.1183
 11
21.0934
 21
96.9732
  0
LINE
  8
0
 10
21.0934
 20
96.9732
 11
20.9561
 21
96.8442
  0
LINE
  8
0
 10
20.9561
 20
96.8442
 11
20.8037
 21
96.7335
  0
LINE
  8
0
 10
20.8037
 20
96.7335
 11
20.6387
 21
96.6427
  0
LINE
  8
0
 10
20.6387
 20
96.6427
 11
20.4635
 21
96.5734
  0
LINE
  8
0
 10
20.4635
 20
96.5734
 11
20.2811
 21
96.5266
  0
LINE
  8
0
 10
20.2811
 20
96.5266
 11
20.0942
 21
96.5029
  0
LINE
  8
0
 10
20.0942
 20
96.5029
 11
19.9058
 21
96.5029
  0
LINE
  8
0
 10
-66.0945
 20
82.7441
 11
-63.6687
 21
96.5019
  0
LINE
  8
0
 10
-63.6687
 20
96.5019
 11
-49.9109
 21
94.076
  0
LINE
  8
0
 10
-49.9109
 20
94.076
 11
-52.3368
 21
80.3183
  0
LINE
  8
0
 10
-52.3368
 20
80.3183
 11
-66.0945
 21
82.7441
  0
LINE
  8
0
 10
49.9109
 20
94.076
 11
63.6687
 21
96.5019
  0
LINE
  8
0
 10
63.6687
 20
96.5019
 11
66.0945
 21
82.7441
  0
LINE
  8
0
 10
66.0945
 20
82.7441
 11
52.3368
 21
80.3183
  0
LINE
  8
0
 10
52.3368
 20
80.3183
 11
49.9109
 21
94.076
  0
LINE
  8
0
 10
88.7228
 20
92.7962
 11
102.481
 21
95.222
  0
LINE
  8
0
 10
102.481
 20
95.222
 11
104.906
 21
81.4643
  0
LINE
  8
0
 10
104.906
 20
81.4643
 11
91.1487
 21
79.0384
  0
LINE
  8
0
 10
91.1487
 20
79.0384
 11
88.7228
 21
92.7962
  0
LINE
  8
0
 10
-104.906
 20
81.4643
 11
-102.481
 21
95.222
  0
LINE
  8
0
 10
-102.481
 20
95.222
 11
-88.7228
 21
92.7962
  0
LINE
  8
0
 10
-88.7228
 20
92.7962
 11
-91.1487
 21
79.0384
  0
LINE
  8
0
 10
-91.1487
 20
79.0384
 11
-104.906
 21
81.4643
  0
LINE
  8
0
 10
69.4905
 20
92.4513
 11
83.2483
 21
94.8771
  0
LINE
  8
0
 10
83.2483
 20
94.8771
 11
85.6741
 21
81.1194
  0
LINE
  8
0
 10
85.6741
 20
81.1194
 11
71.9164
 21
78.6935
  0
LINE
  8
0
 10
71.9164
 20
78.6935
 11
69.4905
 21
92.4513
  0
LINE
  8
0
 10
-85.6741
 20
81.1194
 11
-83.2483
 21
94.8771
  0
LINE
  8
0
 10
-83.2483
 20
94.8771
 11
-69.4905
 21
92.4513
  0
LINE
  8
0
 10
-69.4905
 20
92.4513
 11
-71.9164
 21
78.6935
  0
LINE
  8
0
 10
-71.9164
 20
78.6935
 11
-85.6741
 21
81.1194
  0
LINE
  8
0
 10
32.2415
 20
84.8678
 11
45.9992
 21
87.2937
  0
LINE
  8
0
 10
45.9992
 20
87.2937
 11
48.4251
 21
73.5359
  0
LINE
  8
0
 10
48.4251
 20
73.5359
 11
34.6673
 21
71.1101
  0
LINE
  8
0
 10
34.6673
 20
71.1101
 11
32.2415
 21
84.8678
  0
LINE
  8
0
 10
-48.4251
 20
73.5359
 11
-45.9992
 21
87.2937
  0
LINE
  8
0
 10
-45.9992
 20
87.2937
 11
-32.2415
 21
84.8678
  0
LINE
  8
0
 10
-32.2415
 20
84.8678
 11
-34.6673
 21
71.1101
  0
LINE
  8
0
 10
-34.6673
 20
71.1101
 11
-48.4251
 21
73.5359
  0
LINE
  8
0
 10
14.3984
 20
76.6445
 11
28.1561
 21
79.0703
  0
LINE
  8
0
 10
28.1561
 20
79.0703
 11
30.582
 21
65.3126
  0
LINE
  8
0
 10
30.582
 20
65.3126
 11
16.8242
 21
62.8867
  0
LINE
  8
0
 10
16.8242
 20
62.8867
 11
14.3984
 21
76.6445
  0
LINE
  8
0
 10
-30.582
 20
65.3126
 11
-28.1561
 21
79.0703
  0
LINE
  8
0
 10
-28.1561
 20
79.0703
 11
-14.3984
 21
76.6445
  0
LINE
  8
0
 10
-14.3984
 20
76.6445
 11
-16.8242
 21
62.8867
  0
LINE
  8
0
 10
-16.8242
 20
62.8867
 11
-30.582
 21
65.3126
  0
LINE
  8
0
 10
53.2103
 20
75.3647
 11
66.968
 21
77.7905
  0
LINE
  8
0
 10
66.968
 20
77.7905
 11
69.3938
 21
64.0328
  0
LINE
  8
0
 10
69.3938
 20
64.0328
 11
55.6361
 21
61.6069
  0
LINE
  8
0
 10
55.6361
 20
61.6069
 11
53.2103
 21
75.3647
  0
LINE
  8
0
 10
-69.3938
 20
64.0328
 11
-66.968
 21
77.7905
  0
LINE
  8
0
 10
-66.968
 20
77.7905
 11
-53.2103
 21
75.3647
  0
LINE
  8
0
 10
-53.2103
 20
75.3647
 11
-55.6361
 21
61.6069
  0
LINE
  8
0
 10
-55.6361
 20
61.6069
 11
-69.3938
 21
64.0328
  0
LINE
  8
0
 10
92.0221
 20
74.0848
 11
105.78
 21
76.5107
  0
LINE
  8
0
 10
105.78
 20
76.5107
 11
108.206
 21
62.7529
  0
LINE
  8
0
 10
108.206
 20
62.7529
 11
94.448
 21
60.3271
  0
LINE
  8
0
 10
94.448
 20
60.3271
 11
92.0221
 21
74.0848
  0
LINE
  8
0
 10
-108.206
 20
62.7529
 11
-105.78
 21
76.5107
  0
LINE
  8
0
 10
-105.78
 20
76.5107
 11
-92.0221
 21
74.0848
  0
LINE
  8
0
 10
-92.0221
 20
74.0848
 11
-94.448
 21
60.3271
  0
LINE
  8
0
 10
-94.448
 20
60.3271
 11
-108.206
 21
62.7529
  0
LINE
  8
0
 10
-88.9734
 20
62.4081
 11
-86.5476
 21
76.1658
  0
LINE
  8
0
 10
-86.5476
 20
76.1658
 11
-72.7898
 21
73.7399
  0
LINE
  8
0
 10
-72.7898
 20
73.7399
 11
-75.2157
 21
59.9822
  0
LINE
  8
0
 10
-75.2157
 20
59.9822
 11
-88.9734
 21
62.4081
  0
LINE
  8
0
 10
72.7898
 20
73.7399
 11
86.5476
 21
76.1658
  0
LINE
  8
0
 10
86.5476
 20
76.1658
 11
88.9734
 21
62.4081
  0
LINE
  8
0
 10
88.9734
 20
62.4081
 11
75.2157
 21
59.9822
  0
LINE
  8
0
 10
75.2157
 20
59.9822
 11
72.7898
 21
73.7399
  0
LINE
  8
0
 10
-51.7244
 20
54.8246
 11
-49.2985
 21
68.5824
  0
LINE
  8
0
 10
-49.2985
 20
68.5824
 11
-35.5408
 21
66.1565
  0
LINE
  8
0
 10
-35.5408
 20
66.1565
 11
-37.9667
 21
52.3987
  0
LINE
  8
0
 10
-37.9667
 20
52.3987
 11
-51.7244
 21
54.8246
  0
LINE
  8
0
 10
35.5408
 20
66.1565
 11
49.2985
 21
68.5824
  0
LINE
  8
0
 10
49.2985
 20
68.5824
 11
51.7244
 21
54.8246
  0
LINE
  8
0
 10
51.7244
 20
54.8246
 11
37.9667
 21
52.3987
  0
LINE
  8
0
 10
37.9667
 20
52.3987
 11
35.5408
 21
66.1565
  0
LINE
  8
0
 10
-33.8813
 20
46.6013
 11
-31.4554
 21
60.359
  0
LINE
  8
0
 10
-31.4554
 20
60.359
 11
-17.6977
 21
57.9331
  0
LINE
  8
0
 10
-17.6977
 20
57.9331
 11
-20.1236
 21
44.1754
  0
LINE
  8
0
 10
-20.1236
 20
44.1754
 11
-33.8813
 21
46.6013
  0
LINE
  8
0
 10
17.6977
 20
57.9331
 11
31.4554
 21
60.359
  0
LINE
  8
0
 10
31.4554
 20
60.359
 11
33.8813
 21
46.6013
  0
LINE
  8
0
 10
33.8813
 20
46.6013
 11
20.1236
 21
44.1754
  0
LINE
  8
0
 10
20.1236
 20
44.1754
 11
17.6977
 21
57.9331
  0
LINE
  8
0
 10
-72.6932
 20
45.3214
 11
-70.2673
 21
59.0792
  0
LINE
  8
0
 10
-70.2673
 20
59.0792
 11
-56.5096
 21
56.6533
  0
LINE
  8
0
 10
-56.5096
 20
56.6533
 11
-58.9354
 21
42.8956
  0
LINE
  8
0
 10
-58.9354
 20
42.8956
 11
-72.6932
 21
45.3214
  0
LINE
  8
0
 10
56.5096
 20
56.6533
 11
70.2673
 21
59.0792
  0
LINE
  8
0
 10
70.2673
 20
59.0792
 11
72.6932
 21
45.3214
  0
LINE
  8
0
 10
72.6932
 20
45.3214
 11
58.9354
 21
42.8956
  0
LINE
  8
0
 10
58.9354
 20
42.8956
 11
56.5096
 21
56.6533
  0
LINE
  8
0
 10
-111.505
 20
44.0416
 11
-109.079
 21
57.7993
  0
LINE
  8
0
 10
-109.079
 20
57.7993
 11
-95.3214
 21
55.3735
  0
LINE
  8
0
 10
-95.3214
 20
55.3735
 11
-97.7473
 21
41.6157
  0
LINE
  8
0
 10
-97.7473
 20
41.6157
 11
-111.505
 21
44.0416
  0
LINE
  8
0
 10
95.3214
 20
55.3735
 11
109.079
 21
57.7993
  0
LINE
  8
0
 10
109.079
 20
57.7993
 11
111.505
 21
44.0416
  0
LINE
  8
0
 10
111.505
 20
44.0416
 11
97.7473
 21
41.6157
  0
LINE
  8
0
 10
97.7473
 20
41.6157
 11
95.3214
 21
55.3735
  0
LINE
  8
0
 10
-92.2728
 20
43.6967
 11
-89.8469
 21
57.4545
  0
LINE
  8
0
 10
-89.8469
 20
57.4545
 11
-76.0892
 21
55.0286
  0
LINE
  8
0
 10
-76.0892
 20
55.0286
 11
-78.515
 21
41.2708
  0
LINE
  8
0
 10
-78.515
 20
41.2708
 11
-92.2728
 21
43.6967
  0
LINE
  8
0
 10
76.0892
 20
55.0286
 11
89.8469
 21
57.4545
  0
LINE
  8
0
 10
89.8469
 20
57.4545
 11
92.2728
 21
43.6967
  0
LINE
  8
0
 10
92.2728
 20
43.6967
 11
78.515
 21
41.2708
  0
LINE
  8
0
 10
78.515
 20
41.2708
 11
76.0892
 21
55.0286
  0
LINE
  8
0
 10
-55.0237
 20
36.1133
 11
-52.5978
 21
49.871
  0
LINE
  8
0
 10
-52.5978
 20
49.871
 11
-38.8401
 21
47.4451
  0
LINE
  8
0
 10
-38.8401
 20
47.4451
 11
-41.266
 21
33.6874
  0
LINE
  8
0
 10
-41.266
 20
33.6874
 11
-55.0237
 21
36.1133
  0
LINE
  8
0
 10
38.8401
 20
47.4451
 11
52.5978
 21
49.871
  0
LINE
  8
0
 10
52.5978
 20
49.871
 11
55.0237
 21
36.1133
  0
LINE
  8
0
 10
55.0237
 20
36.1133
 11
41.266
 21
33.6874
  0
LINE
  8
0
 10
41.266
 20
33.6874
 11
38.8401
 21
47.4451
  0
LINE
  8
0
 10
-37.1806
 20
27.8899
 11
-34.7547
 21
41.6477
  0
LINE
  8
0
 10
-34.7547
 20
41.6477
 11
-20.997
 21
39.2218
  0
LINE
  8
0
 10
-20.997
 20
39.2218
 11
-23.4229
 21
25.4641
  0
LINE
  8
0
 10
-23.4229
 20
25.4641
 11
-37.1806
 21
27.8899
  0
LINE
  8
0
 10
20.997
 20
39.2218
 11
34.7547
 21
41.6477
  0
LINE
  8
0
 10
34.7547
 20
41.6477
 11
37.1806
 21
27.8899
  0
LINE
  8
0
 10
37.1806
 20
27.8899
 11
23.4229
 21
25.4641
  0
LINE
  8
0
 10
23.4229
 20
25.4641
 11
20.997
 21
39.2218
  0
LINE
  8
0
 10
59.8089
 20
37.942
 11
73.5666
 21
40.3678
  0
LINE
  8
0
 10
73.5666
 20
40.3678
 11
75.9925
 21
26.6101
  0
LINE
  8
0
 10
75.9925
 20
26.6101
 11
62.2347
 21
24.1842
  0
LINE
  8
0
 10
62.2347
 20
24.1842
 11
59.8089
 21
37.942
  0
LINE
  8
0
 10
-75.9925
 20
26.6101
 11
-73.5666
 21
40.3678
  0
LINE
  8
0
 10
-73.5666
 20
40.3678
 11
-59.8089
 21
37.942
  0
LINE
  8
0
 10
-59.8089
 20
37.942
 11
-62.2347
 21
24.1842
  0
LINE
  8
0
 10
-62.2347
 20
24.1842
 11
-75.9925
 21
26.6101
  0
LINE
  8
0
 10
-114.804
 20
25.3303
 11
-112.378
 21
39.088
  0
LINE
  8
0
 10
-112.378
 20
39.088
 11
-98.6208
 21
36.6621
  0
LINE
  8
0
 10
-98.6208
 20
36.6621
 11
-101.047
 21
22.9044
  0
LINE
  8
0
 10
-101.047
 20
22.9044
 11
-114.804
 21
25.3303
  0
LINE
  8
0
 10
98.6208
 20
36.6621
 11
112.378
 21
39.088
  0
LINE
  8
0
 10
112.378
 20
39.088
 11
114.804
 21
25.3303
  0
LINE
  8
0
 10
114.804
 20
25.3303
 11
101.047
 21
22.9044
  0
LINE
  8
0
 10
101.047
 20
22.9044
 11
98.6208
 21
36.6621
  0
LINE
  8
0
 10
-95.5721
 20
24.9854
 11
-93.1462
 21
38.7431
  0
LINE
  8
0
 10
-93.1462
 20
38.7431
 11
-79.3885
 21
36.3172
  0
LINE
  8
0
 10
-79.3885
 20
36.3172
 11
-81.8143
 21
22.5595
  0
LINE
  8
0
 10
-81.8143
 20
22.5595
 11
-95.5721
 21
24.9854
  0
LINE
  8
0
 10
79.3885
 20
36.3172
 11
93.1462
 21
38.7431
  0
LINE
  8
0
 10
93.1462
 20
38.7431
 11
95.5721
 21
24.9854
  0
LINE
  8
0
 10
95.5721
 20
24.9854
 11
81.8143
 21
22.5595
  0
LINE
  8
0
 10
81.8143
 20
22.5595
 11
79.3885
 21
36.3172
  0
LINE
  8
0
 10
-58.323
 20
17.4019
 11
-55.8972
 21
31.1597
  0
LINE
  8
0
 10
-55.8972
 20
31.1597
 11
-42.1394
 21
28.7338
  0
LINE
  8
0
 10
-42.1394
 20
28.7338
 11
-44.5653
 21
14.9761
  0
LINE
  8
0
 10
-44.5653
 20
14.9761
 11
-58.323
 21
17.4019
  0
LINE
  8
0
 10
42.1394
 20
28.7338
 11
55.8972
 21
31.1597
  0
LINE
  8
0
 10
55.8972
 20
31.1597
 11
58.323
 21
17.4019
  0
LINE
  8
0
 10
58.323
 20
17.4019
 11
44.5653
 21
14.9761
  0
LINE
  8
0
 10
44.5653
 20
14.9761
 11
42.1394
 21
28.7338
  0
LINE
  8
0
 10
-40.4799
 20
9.17857
 11
-38.054
 21
22.9363
  0
LINE
  8
0
 10
-38.054
 20
22.9363
 11
-24.2963
 21
20.5105
  0
LINE
  8
0
 10
-24.2963
 20
20.5105
 11
-26.7222
 21
6.75272
  0
LINE
  8
0
 10
-26.7222
 20
6.75272
 11
-40.4799
 21
9.17857
  0
LINE
  8
0
 10
24.2963
 20
20.5105
 11
38.054
 21
22.9363
  0
LINE
  8
0
 10
38.054
 20
22.9363
 11
40.4799
 21
9.17857
  0
LINE
  8
0
 10
40.4799
 20
9.17857
 11
26.7222
 21
6.75272
  0
LINE
  8
0
 10
26.7222
 20
6.75272
 11
24.2963
 21
20.5105
  0
LINE
  8
0
 10
5.06401
 20
20.1656
 11
18.8218
 21
22.5914
  0
LINE
  8
0
 10
18.8218
 20
22.5914
 11
21.2476
 21
8.83366
  0
LINE
  8
0
 10
21.2476
 20
8.83366
 11
7.48987
 21
6.40781
  0
LINE
  8
0
 10
7.48987
 20
6.40781
 11
5.06401
 21
20.1656
  0
LINE
  8
0
 10
-21.2476
 20
8.83366
 11
-18.8218
 21
22.5914
  0
LINE
  8
0
 10
-18.8218
 20
22.5914
 11
-5.06401
 21
20.1656
  0
LINE
  8
0
 10
-5.06401
 20
20.1656
 11
-7.48987
 21
6.40781
  0
LINE
  8
0
 10
-7.48987
 20
6.40781
 11
-21.2476
 21
8.83366
  0
LINE
  8
0
 10
121.63
 20
18.9195
 11
121.445
 21
18.9574
  0
LINE
  8
0
 10
121.445
 20
18.9574
 11
121.267
 21
19.0181
  0
LINE
  8
0
 10
121.267
 20
19.0181
 11
121.098
 21
19.1007
  0
LINE
  8
0
 10
121.098
 20
19.1007
 11
120.94
 21
19.2038
  0
LINE
  8
0
 10
120.94
 20
19.2038
 11
120.796
 21
19.3259
  0
LINE
  8
0
 10
120.796
 20
19.3259
 11
120.669
 21
19.465
  0
LINE
  8
0
 10
120.669
 20
19.465
 11
120.561
 21
19.6189
  0
LINE
  8
0
 10
120.561
 20
19.6189
 11
120.472
 21
19.7852
  0
LINE
  8
0
 10
120.472
 20
19.7852
 11
120.406
 21
19.9613
  0
LINE
  8
0
 10
120.406
 20
19.9613
 11
120.361
 21
20.1444
  0
LINE
  8
0
 10
120.361
 20
20.1444
 11
120.34
 21
20.3316
  0
LINE
  8
0
 10
120.34
 20
20.3316
 11
120.343
 21
20.52
  0
LINE
  8
0
 10
120.343
 20
20.52
 11
120.369
 21
20.7065
  0
LINE
  8
0
 10
120.369
 20
20.7065
 11
120.419
 21
20.8883
  0
LINE
  8
0
 10
120.419
 20
20.8883
 11
120.49
 21
21.0625
  0
LINE
  8
0
 10
120.49
 20
21.0625
 11
120.583
 21
21.2262
  0
LINE
  8
0
 10
120.583
 20
21.2262
 11
120.696
 21
21.3771
  0
LINE
  8
0
 10
120.696
 20
21.3771
 11
120.827
 21
21.5126
  0
LINE
  8
0
 10
120.827
 20
21.5126
 11
120.974
 21
21.6306
  0
LINE
  8
0
 10
120.974
 20
21.6306
 11
121.134
 21
21.7293
  0
LINE
  8
0
 10
121.134
 20
21.7293
 11
121.306
 21
21.8071
  0
LINE
  8
0
 10
121.306
 20
21.8071
 11
121.486
 21
21.8628
  0
LINE
  8
0
 10
121.486
 20
21.8628
 11
121.671
 21
21.8955
  0
LINE
  8
0
 10
121.671
 20
21.8955
 11
121.859
 21
21.9047
  0
LINE
  8
0
 10
121.859
 20
21.9047
 11
122.047
 21
21.8903
  0
LINE
  8
0
 10
122.047
 20
21.8903
 11
122.232
 21
21.8524
  0
LINE
  8
0
 10
122.232
 20
21.8524
 11
122.41
 21
21.7917
  0
LINE
  8
0
 10
122.41
 20
21.7917
 11
122.579
 21
21.7091
  0
LINE
  8
0
 10
122.579
 20
21.7091
 11
122.737
 21
21.606
  0
LINE
  8
0
 10
122.737
 20
21.606
 11
122.88
 21
21.4839
  0
LINE
  8
0
 10
122.88
 20
21.4839
 11
123.007
 21
21.3448
  0
LINE
  8
0
 10
123.007
 20
21.3448
 11
123.116
 21
21.1909
  0
LINE
  8
0
 10
123.116
 20
21.1909
 11
123.205
 21
21.0246
  0
LINE
  8
0
 10
123.205
 20
21.0246
 11
123.271
 21
20.8485
  0
LINE
  8
0
 10
123.271
 20
20.8485
 11
123.316
 21
20.6654
  0
LINE
  8
0
 10
123.316
 20
20.6654
 11
123.337
 21
20.4782
  0
LINE
  8
0
 10
123.337
 20
20.4782
 11
123.334
 21
20.2898
  0
LINE
  8
0
 10
123.334
 20
20.2898
 11
123.308
 21
20.1033
  0
LINE
  8
0
 10
123.308
 20
20.1033
 11
123.258
 21
19.9215
  0
LINE
  8
0
 10
123.258
 20
19.9215
 11
123.187
 21
19.7474
  0
LINE
  8
0
 10
123.187
 20
19.7474
 11
123.094
 21
19.5836
  0
LINE
  8
0
 10
123.094
 20
19.5836
 11
122.981
 21
19.4327
  0
LINE
  8
0
 10
122.981
 20
19.4327
 11
122.85
 21
19.2972
  0
LINE
  8
0
 10
122.85
 20
19.2972
 11
122.703
 21
19.1792
  0
LINE
  8
0
 10
122.703
 20
19.1792
 11
122.543
 21
19.0805
  0
LINE
  8
0
 10
122.543
 20
19.0805
 11
122.371
 21
19.0027
  0
LINE
  8
0
 10
122.371
 20
19.0027
 11
122.191
 21
18.947
  0
LINE
  8
0
 10
122.191
 20
18.947
 11
122.006
 21
18.9142
  0
LINE
  8
0
 10
122.006
 20
18.9142
 11
121.818
 21
18.905
  0
LINE
  8
0
 10
121.818
 20
18.905
 11
121.63
 21
18.9195
  0
LINE
  8
0
 10
-122.006
 20
18.9142
 11
-122.191
 21
18.947
  0
LINE
  8
0
 10
-122.191
 20
18.947
 11
-122.371
 21
19.0027
  0
LINE
  8
0
 10
-122.371
 20
19.0027
 11
-122.543
 21
19.0805
  0
LINE
  8
0
 10
-122.543
 20
19.0805
 11
-122.703
 21
19.1792
  0
LINE
  8
0
 10
-122.703
 20
19.1792
 11
-122.85
 21
19.2972
  0
LINE
  8
0
 10
-122.85
 20
19.2972
 11
-122.981
 21
19.4327
  0
LINE
  8
0
 10
-122.981
 20
19.4327
 11
-123.094
 21
19.5836
  0
LINE
  8
0
 10
-123.094
 20
19.5836
 11
-123.187
 21
19.7474
  0
LINE
  8
0
 10
-123.187
 20
19.7474
 11
-123.258
 21
19.9215
  0
LINE
  8
0
 10
-123.258
 20
19.9215
 11
-123.308
 21
20.1033
  0
LINE
  8
0
 10
-123.308
 20
20.1033
 11
-123.334
 21
20.2898
  0
LINE
  8
0
 10
-123.334
 20
20.2898
 11
-123.337
 21
20.4782
  0
LINE
  8
0
 10
-123.337
 20
20.4782
 11
-123.316
 21
20.6654
  0
LINE
  8
0
 10
-123.316
 20
20.6654
 11
-123.271
 21
20.8485
  0
LINE
  8
0
 10
-123.271
 20
20.8485
 11
-123.205
 21
21.0246
  0
LINE
  8
0
 10
-123.205
 20
21.0246
 11
-123.116
 21
21.1909
  0
LINE
  8
0
 10
-123.116
 20
21.1909
 11
-123.007
 21
21.3448
  0
LINE
  8
0
 10
-123.007
 20
21.3448
 11
-122.88
 21
21.4839
  0
LINE
  8
0
 10
-122.88
 20
21.4839
 11
-122.737
 21
21.606
  0
LINE
  8
0
 10
-122.737
 20
21.606
 11
-122.579
 21
21.7091
  0
LINE
  8
0
 10
-122.579
 20
21.7091
 11
-122.41
 21
21.7917
  0
LINE
  8
0
 10
-122.41
 20
21.7917
 11
-122.232
 21
21.8524
  0
LINE
  8
0
 10
-122.232
 20
21.8524
 11
-122.047
 21
21.8903
  0
LINE
  8
0
 10
-122.047
 20
21.8903
 11
-121.859
 21
21.9047
  0
LINE
  8
0
 10
-121.859
 20
21.9047
 11
-121.671
 21
21.8955
  0
LINE
  8
0
 10
-121.671
 20
21.8955
 11
-121.486
 21
21.8628
  0
LINE
  8
0
 10
-121.486
 20
21.8628
 11
-121.306
 21
21.8071
  0
LINE
  8
0
 10
-121.306
 20
21.8071
 11
-121.134
 21
21.7293
  0
LINE
  8
0
 10
-121.134
 20
21.7293
 11
-120.974
 21
21.6306
  0
LINE
  8
0
 10
-120.974
 20
21.6306
 11
-120.827
 21
21.5126
  0
LINE
  8
0
 10
-120.827
 20
21.5126
 11
-120.696
 21
21.3771
  0
LINE
  8
0
 10
-120.696
 20
21.3771
 11
-120.583
 21
21.2262
  0
LINE
  8
0
 10
-120.583
 20
21.2262
 11
-120.49
 21
21.0625
  0
LINE
  8
0
 10
-120.49
 20
21.0625
 11
-120.419
 21
20.8883
  0
LINE
  8
0
 10
-120.419
 20
20.8883
 11
-120.369
 21
20.7065
  0
LINE
  8
0
 10
-120.369
 20
20.7065
 11
-120.343
 21
20.52
  0
LINE
  8
0
 10
-120.343
 20
20.52
 11
-120.34
 21
20.3316
  0
LINE
  8
0
 10
-120.34
 20
20.3316
 11
-120.361
 21
20.1444
  0
LINE
  8
0
 10
-120.361
 20
20.1444
 11
-120.406
 21
19.9613
  0
LINE
  8
0
 10
-120.406
 20
19.9613
 11
-120.472
 21
19.7852
  0
LINE
  8
0
 10
-120.472
 20
19.7852
 11
-120.561
 21
19.6189
  0
LINE
  8
0
 10
-120.561
 20
19.6189
 11
-120.669
 21
19.465
  0
LINE
  8
0
 10
-120.669
 20
19.465
 11
-120.796
 21
19.3259
  0
LINE
  8
0
 10
-120.796
 20
19.3259
 11
-120.94
 21
19.2038
  0
LINE
  8
0
 10
-120.94
 20
19.2038
 11
-121.098
 21
19.1007
  0
LINE
  8
0
 10
-121.098
 20
19.1007
 11
-121.267
 21
19.0181
  0
LINE
  8
0
 10
-121.267
 20
19.0181
 11
-121.445
 21
18.9574
  0
LINE
  8
0
 10
-121.445
 20
18.9574
 11
-121.63
 21
18.9195
  0
LINE
  8
0
 10
-121.63
 20
18.9195
 11
-121.818
 21
18.905
  0
LINE
  8
0
 10
-121.818
 20
18.905
 11
-122.006
 21
18.9142
  0
LINE
  8
0
 10
-21.964
 20
-1.77206
 11
-22.1495
 21
-1.73935
  0
LINE
  8
0
 10
-22.1495
 20
-1.73935
 11
-22.3295
 21
-1.68365
  0
LINE
  8
0
 10
-22.3295
 20
-1.68365
 11
-22.501
 21
-1.60582
  0
LINE
  8
0
 10
-22.501
 20
-1.60582
 11
-22.6615
 21
-1.50713
  0
LINE
  8
0
 10
-22.6615
 20
-1.50713
 11
-22.8083
 21
-1.3891
  0
LINE
  8
0
 10
-22.8083
 20
-1.3891
 11
-22.9391
 21
-1.25359
  0
LINE
  8
0
 10
-22.9391
 20
-1.25359
 11
-23.052
 21
-1.10274
  0
LINE
  8
0
 10
-23.052
 20
-1.10274
 11
-23.145
 21
-0.93895
  0
LINE
  8
0
 10
-23.145
 20
-0.93895
 11
-23.2168
 21
-0.764801
  0
LINE
  8
0
 10
-23.2168
 20
-0.764801
 11
-23.2662
 21
-0.583023
  0
LINE
  8
0
 10
-23.2662
 20
-0.583023
 11
-23.2924
 21
-0.396484
  0
LINE
  8
0
 10
-23.2924
 20
-0.396484
 11
-23.295
 21
-0.20813
  0
LINE
  8
0
 10
-23.295
 20
-0.20813
 11
-23.274
 21
-0.0209351
  0
LINE
  8
0
 10
-23.274
 20
-0.0209351
 11
-23.2297
 21
0.16214
  0
LINE
  8
0
 10
-23.2297
 20
0.16214
 11
-23.1628
 21
0.338226
  0
LINE
  8
0
 10
-23.1628
 20
0.338226
 11
-23.0744
 21
0.504547
  0
LINE
  8
0
 10
-23.0744
 20
0.504547
 11
-22.9658
 21
0.658493
  0
LINE
  8
0
 10
-22.9658
 20
0.658493
 11
-22.8388
 21
0.797592
  0
LINE
  8
0
 10
-22.8388
 20
0.797592
 11
-22.6954
 21
0.919678
  0
LINE
  8
0
 10
-22.6954
 20
0.919678
 11
-22.5377
 21
1.02283
  0
LINE
  8
0
 10
-22.5377
 20
1.02283
 11
-22.3684
 21
1.10539
  0
LINE
  8
0
 10
-22.3684
 20
1.10539
 11
-22.1901
 21
1.16611
  0
LINE
  8
0
 10
-22.1901
 20
1.16611
 11
-22.0056
 21
1.20398
  0
LINE
  8
0
 10
-22.0056
 20
1.20398
 11
-21.8178
 21
1.21843
  0
LINE
  8
0
 10
-21.8178
 20
1.21843
 11
-21.6296
 21
1.20923
  0
LINE
  8
0
 10
-21.6296
 20
1.20923
 11
-21.4441
 21
1.17651
  0
LINE
  8
0
 10
-21.4441
 20
1.17651
 11
-21.2642
 21
1.12082
  0
LINE
  8
0
 10
-21.2642
 20
1.12082
 11
-21.0926
 21
1.043
  0
LINE
  8
0
 10
-21.0926
 20
1.043
 11
-20.9322
 21
0.94429
  0
LINE
  8
0
 10
-20.9322
 20
0.94429
 11
-20.7854
 21
0.826263
  0
LINE
  8
0
 10
-20.7854
 20
0.826263
 11
-20.6545
 21
0.690765
  0
LINE
  8
0
 10
-20.6545
 20
0.690765
 11
-20.5417
 21
0.539932
  0
LINE
  8
0
 10
-20.5417
 20
0.539932
 11
-20.4486
 21
0.376144
  0
LINE
  8
0
 10
-20.4486
 20
0.376144
 11
-20.3768
 21
0.201981
  0
LINE
  8
0
 10
-20.3768
 20
0.201981
 11
-20.3275
 21
0.0201874
  0
LINE
  8
0
 10
-20.3275
 20
0.0201874
 11
-20.3012
 21
-0.166336
  0
LINE
  8
0
 10
-20.3012
 20
-0.166336
 11
-20.2986
 21
-0.354675
  0
LINE
  8
0
 10
-20.2986
 20
-0.354675
 11
-20.3196
 21
-0.541885
  0
LINE
  8
0
 10
-20.3196
 20
-0.541885
 11
-20.3639
 21
-0.724976
  0
LINE
  8
0
 10
-20.3639
 20
-0.724976
 11
-20.4308
 21
-0.901062
  0
LINE
  8
0
 10
-20.4308
 20
-0.901062
 11
-20.5192
 21
-1.06738
  0
LINE
  8
0
 10
-20.5192
 20
-1.06738
 11
-20.6278
 21
-1.22131
  0
LINE
  8
0
 10
-20.6278
 20
-1.22131
 11
-20.7548
 21
-1.36041
  0
LINE
  8
0
 10
-20.7548
 20
-1.36041
 11
-20.8983
 21
-1.4825
  0
LINE
  8
0
 10
-20.8983
 20
-1.4825
 11
-21.0559
 21
-1.58565
  0
LINE
  8
0
 10
-21.0559
 20
-1.58565
 11
-21.2252
 21
-1.66823
  0
LINE
  8
0
 10
-21.2252
 20
-1.66823
 11
-21.4035
 21
-1.72893
  0
LINE
  8
0
 10
-21.4035
 20
-1.72893
 11
-21.5881
 21
-1.7668
  0
LINE
  8
0
 10
-21.5881
 20
-1.7668
 11
-21.7759
 21
-1.78127
  0
LINE
  8
0
 10
-21.7759
 20
-1.78127
 11
-21.964
 21
-1.77206
  0
LINE
  8
0
 10
21.5881
 20
-1.7668
 11
21.4035
 21
-1.72893
  0
LINE
  8
0
 10
21.4035
 20
-1.72893
 11
21.2252
 21
-1.66823
  0
LINE
  8
0
 10
21.2252
 20
-1.66823
 11
21.0559
 21
-1.58565
  0
LINE
  8
0
 10
21.0559
 20
-1.58565
 11
20.8983
 21
-1.4825
  0
LINE
  8
0
 10
20.8983
 20
-1.4825
 11
20.7548
 21
-1.36041
  0
LINE
  8
0
 10
20.7548
 20
-1.36041
 11
20.6278
 21
-1.22131
  0
LINE
  8
0
 10
20.6278
 20
-1.22131
 11
20.5192
 21
-1.06738
  0
LINE
  8
0
 10
20.5192
 20
-1.06738
 11
20.4308
 21
-0.901062
  0
LINE
  8
0
 10
20.4308
 20
-0.901062
 11
20.3639
 21
-0.724976
  0
LINE
  8
0
 10
20.3639
 20
-0.724976
 11
20.3196
 21
-0.541885
  0
LINE
  8
0
 10
20.3196
 20
-0.541885
 11
20.2986
 21
-0.354675
  0
LINE
  8
0
 10
20.2986
 20
-0.354675
 11
20.3012
 21
-0.166336
  0
LINE
  8
0
 10
20.3012
 20
-0.166336
 11
20.3275
 21
0.0201874
  0
LINE
  8
0
 10
20.3275
 20
0.0201874
 11
20.3768
 21
0.201981
  0
LINE
  8
0
 10
20.3768
 20
0.201981
 11
20.4486
 21
0.376144
  0
LINE
  8
0
 10
20.4486
 20
0.376144
 11
20.5417
 21
0.539932
  0
LINE
  8
0
 10
20.5417
 20
0.539932
 11
20.6545
 21
0.690765
  0
LINE
  8
0
 10
20.6545
 20
0.690765
 11
20.7854
 21
0.826263
  0
LINE
  8
0
 10
20.7854
 20
0.826263
 11
20.9322
 21
0.94429
  0
LINE
  8
0
 10
20.9322
 20
0.94429
 11
21.0926
 21
1.043
  0
LINE
  8
0
 10
21.0926
 20
1.043
 11
21.2642
 21
1.12082
  0
LINE
  8
0
 10
21.2642
 20
1.12082
 11
21.4441
 21
1.17651
  0
LINE
  8
0
 10
21.4441
 20
1.17651
 11
21.6296
 21
1.20923
  0
LINE
  8
0
 10
21.6296
 20
1.20923
 11
21.8178
 21
1.21843
  0
LINE
  8
0
 10
21.8178
 20
1.21843
 11
22.0056
 21
1.20398
  0
LINE
  8
0
 10
22.0056
 20
1.20398
 11
22.1901
 21
1.16611
  0
LINE
  8
0
 10
22.1901
 20
1.16611
 11
22.3684
 21
1.10539
  0
LINE
  8
0
 10
22.3684
 20
1.10539
 11
22.5377
 21
1.02283
  0
LINE
  8
0
 10
22.5377
 20
1.02283
 11
22.6954
 21
0.919678
  0
LINE
  8
0
 10
22.6954
 20
0.919678
 11
22.8388
 21
0.797592
  0
LINE
  8
0
 10
22.8388
 20
0.797592
 11
22.9658
 21
0.658493
  0
LINE
  8
0
 10
22.9658
 20
0.658493
 11
23.0744
 21
0.504547
  0
LINE
  8
0
 10
23.0744
 20
0.504547
 11
23.1628
 21
0.338226
  0
LINE
  8
0
 10
23.1628
 20
0.338226
 11
23.2297
 21
0.16214
  0
LINE
  8
0
 10
23.2297
 20
0.16214
 11
23.274
 21
-0.0209351
  0
LINE
  8
0
 10
23.274
 20
-0.0209351
 11
23.295
 21
-0.20813
  0
LINE
  8
0
 10
23.295
 20
-0.20813
 11
23.2924
 21
-0.396484
  0
LINE
  8
0
 10
23.2924
 20
-0.396484
 11
23.2662
 21
-0.583023
  0
LINE
  8
0
 10
23.2662
 20
-0.583023
 11
23.2168
 21
-0.764801
  0
LINE
  8
0
 10
23.2168
 20
-0.764801
 11
23.145
 21
-0.93895
  0
LINE
  8
0
 10
23.145
 20
-0.93895
 11
23.052
 21
-1.10274
  0
LINE
  8
0
 10
23.052
 20
-1.10274
 11
22.9391
 21
-1.25359
  0
LINE
  8
0
 10
22.9391
 20
-1.25359
 11
22.8083
 21
-1.3891
  0
LINE
  8
0
 10
22.8083
 20
-1.3891
 11
22.6615
 21
-1.50713
  0
LINE
  8
0
 10
22.6615
 20
-1.50713
 11
22.501
 21
-1.60582
  0
LINE
  8
0
 10
22.501
 20
-1.60582
 11
22.3295
 21
-1.68365
  0
LINE
  8
0
 10
22.3295
 20
-1.68365
 11
22.1495
 21
-1.73935
  0
LINE
  8
0
 10
22.1495
 20
-1.73935
 11
21.964
 21
-1.77206
  0
LINE
  8
0
 10
21.964
 20
-1.77206
 11
21.7759
 21
-1.78127
  0
LINE
  8
0
 10
21.7759
 20
-1.78127
 11
21.5881
 21
-1.7668
  0
ENDSEC
  0
SECTION
  2
OBJECTS
  0
DICTIONARY
  0
ENDSEC
  0
EOF
