  0
SECTION
  2
BLOCKS
  0
ENDSEC
  0
SECTION
  2
ENTITIES
  0
LINE
  8
0
 10
26.0317
 20
120.684
 11
26.4027
 21
120.75
  0
LINE
  8
0
 10
26.4027
 20
120.75
 11
119.439
 21
140.201
  0
LINE
  8
0
 10
119.439
 20
140.201
 11
119.798
 21
140.312
  0
LINE
  8
0
 10
119.798
 20
140.312
 11
120.141
 21
140.468
  0
LINE
  8
0
 10
120.141
 20
140.468
 11
120.462
 21
140.665
  0
LINE
  8
0
 10
120.462
 20
140.665
 11
120.756
 21
140.901
  0
LINE
  8
0
 10
120.756
 20
140.901
 11
121.018
 21
141.172
  0
LINE
  8
0
 10
121.018
 20
141.172
 11
121.243
 21
141.474
  0
LINE
  8
0
 10
121.243
 20
141.474
 11
121.429
 21
141.801
  0
LINE
  8
0
 10
121.429
 20
141.801
 11
121.573
 21
142.15
  0
LINE
  8
0
 10
121.573
 20
142.15
 11
121.672
 21
142.513
  0
LINE
  8
0
 10
121.672
 20
142.513
 11
121.724
 21
142.886
  0
LINE
  8
0
 10
121.724
 20
142.886
 11
121.729
 21
143.263
  0
LINE
  8
0
 10
121.729
 20
143.263
 11
121.688
 21
143.637
  0
LINE
  8
0
 10
121.688
 20
143.637
 11
108.49
 21
218.483
  0
LINE
  8
0
 10
108.49
 20
218.483
 11
108.402
 21
218.849
  0
LINE
  8
0
 10
108.402
 20
218.849
 11
108.268
 21
219.201
  0
LINE
  8
0
 10
108.268
 20
219.201
 11
108.091
 21
219.534
  0
LINE
  8
0
 10
108.091
 20
219.534
 11
107.874
 21
219.842
  0
LINE
  8
0
 10
107.874
 20
219.842
 11
107.62
 21
220.12
  0
LINE
  8
0
 10
107.62
 20
220.12
 11
107.333
 21
220.364
  0
LINE
  8
0
 10
107.333
 20
220.364
 11
107.018
 21
220.57
  0
LINE
  8
0
 10
107.018
 20
220.57
 11
106.679
 21
220.736
  0
LINE
  8
0
 10
106.679
 20
220.736
 11
106.322
 21
220.857
  0
LINE
  8
0
 10
106.322
 20
220.857
 11
105.953
 21
220.933
  0
LINE
  8
0
 10
105.953
 20
220.933
 11
105.578
 21
220.962
  0
LINE
  8
0
 10
105.578
 20
220.962
 11
-105.578
 21
220.962
  0
LINE
  8
0
 10
-105.578
 20
220.962
 11
-105.953
 21
220.933
  0
LINE
  8
0
 10
-105.953
 20
220.933
 11
-106.322
 21
220.857
  0
LINE
  8
0
 10
-106.322
 20
220.857
 11
-106.679
 21
220.736
  0
LINE
  8
0
 10
-106.679
 20
220.736
 11
-107.018
 21
220.57
  0
LINE
  8
0
 10
-107.018
 20
220.57
 11
-107.333
 21
220.364
  0
LINE
  8
0
 10
-107.333
 20
220.364
 11
-107.62
 21
220.12
  0
LINE
  8
0
 10
-107.62
 20
220.12
 11
-107.874
 21
219.842
  0
LINE
  8
0
 10
-107.874
 20
219.842
 11
-108.091
 21
219.534
  0
LINE
  8
0
 10
-108.091
 20
219.534
 11
-108.268
 21
219.201
  0
LINE
  8
0
 10
-108.268
 20
219.201
 11
-108.402
 21
218.849
  0
LINE
  8
0
 10
-108.402
 20
218.849
 11
-108.49
 21
218.483
  0
LINE
  8
0
 10
-108.49
 20
218.483
 11
-121.688
 21
143.637
  0
LINE
  8
0
 10
-121.688
 20
143.637
 11
-121.729
 21
143.263
  0
LINE
  8
0
 10
-121.729
 20
143.263
 11
-121.724
 21
142.886
  0
LINE
  8
0
 10
-121.724
 20
142.886
 11
-121.672
 21
142.513
  0
LINE
  8
0
 10
-121.672
 20
142.513
 11
-121.573
 21
142.15
  0
LINE
  8
0
 10
-121.573
 20
142.15
 11
-121.429
 21
141.801
  0
LINE
  8
0
 10
-121.429
 20
141.801
 11
-121.243
 21
141.474
  0
LINE
  8
0
 10
-121.243
 20
141.474
 11
-121.018
 21
141.172
  0
LINE
  8
0
 10
-121.018
 20
141.172
 11
-120.756
 21
140.901
  0
LINE
  8
0
 10
-120.756
 20
140.901
 11
-120.462
 21
140.665
  0
LINE
  8
0
 10
-120.462
 20
140.665
 11
-120.141
 21
140.468
  0
LINE
  8
0
 10
-120.141
 20
140.468
 11
-119.798
 21
140.312
  0
LINE
  8
0
 10
-119.798
 20
140.312
 11
-119.439
 21
140.201
  0
LINE
  8
0
 10
-119.439
 20
140.201
 11
-26.4027
 21
120.75
  0
LINE
  8
0
 10
-26.4027
 20
120.75
 11
-26.0317
 21
120.684
  0
LINE
  8
0
 10
-26.0317
 20
120.684
 11
-25.6554
 21
120.666
  0
LINE
  8
0
 10
-25.6554
 20
120.666
 11
25.6554
 21
120.666
  0
LINE
  8
0
 10
25.6554
 20
120.666
 11
26.0317
 21
120.684
  0
LINE
  8
0
 10
19.9058
 20
216.503
 11
19.7189
 21
216.527
  0
LINE
  8
0
 10
19.7189
 20
216.527
 11
19.5365
 21
216.573
  0
LINE
  8
0
 10
19.5365
 20
216.573
 11
19.3613
 21
216.643
  0
LINE
  8
0
 10
19.3613
 20
216.643
 11
19.1963
 21
216.734
  0
LINE
  8
0
 10
19.1963
 20
216.734
 11
19.0439
 21
216.844
  0
LINE
  8
0
 10
19.0439
 20
216.844
 11
18.9065
 21
216.973
  0
LINE
  8
0
 10
18.9065
 20
216.973
 11
18.7865
 21
217.118
  0
LINE
  8
0
 10
18.7865
 20
217.118
 11
18.6855
 21
217.277
  0
LINE
  8
0
 10
18.6855
 20
217.277
 11
18.6053
 21
217.448
  0
LINE
  8
0
 10
18.6053
 20
217.448
 11
18.5471
 21
217.627
  0
LINE
  8
0
 10
18.5471
 20
217.627
 11
18.5118
 21
217.812
  0
LINE
  8
0
 10
18.5118
 20
217.812
 11
18.5
 21
218
  0
LINE
  8
0
 10
18.5
 20
218
 11
18.5118
 21
218.188
  0
LINE
  8
0
 10
18.5118
 20
218.188
 11
18.5471
 21
218.373
  0
LINE
  8
0
 10
18.5471
 20
218.373
 11
18.6053
 21
218.552
  0
LINE
  8
0
 10
18.6053
 20
218.552
 11
18.6855
 21
218.723
  0
LINE
  8
0
 10
18.6855
 20
218.723
 11
18.7865
 21
218.882
  0
LINE
  8
0
 10
18.7865
 20
218.882
 11
18.9065
 21
219.027
  0
LINE
  8
0
 10
18.9065
 20
219.027
 11
19.0439
 21
219.156
  0
LINE
  8
0
 10
19.0439
 20
219.156
 11
19.1963
 21
219.266
  0
LINE
  8
0
 10
19.1963
 20
219.266
 11
19.3613
 21
219.357
  0
LINE
  8
0
 10
19.3613
 20
219.357
 11
19.5365
 21
219.427
  0
LINE
  8
0
 10
19.5365
 20
219.427
 11
19.7189
 21
219.473
  0
LINE
  8
0
 10
19.7189
 20
219.473
 11
19.9058
 21
219.497
  0
LINE
  8
0
 10
19.9058
 20
219.497
 11
20.0942
 21
219.497
  0
LINE
  8
0
 10
20.0942
 20
219.497
 11
20.2811
 21
219.473
  0
LINE
  8
0
 10
20.2811
 20
219.473
 11
20.4635
 21
219.427
  0
LINE
  8
0
 10
20.4635
 20
219.427
 11
20.6387
 21
219.357
  0
LINE
  8
0
 10
20.6387
 20
219.357
 11
20.8037
 21
219.266
  0
LINE
  8
0
 10
20.8037
 20
219.266
 11
20.9561
 21
219.156
  0
LINE
  8
0
 10
20.9561
 20
219.156
 11
21.0934
 21
219.027
  0
LINE
  8
0
 10
21.0934
 20
219.027
 11
21.2135
 21
218.882
  0
LINE
  8
0
 10
21.2135
 20
218.882
 11
21.3145
 21
218.723
  0
LINE
  8
0
 10
21.3145
 20
218.723
 11
21.3947
 21
218.552
  0
LINE
  8
0
 10
21.3947
 20
218.552
 11
21.4529
 21
218.373
  0
LINE
  8
0
 10
21.4529
 20
218.373
 11
21.4882
 21
218.188
  0
LINE
  8
0
 10
21.4882
 20
218.188
 11
21.5
 21
218
  0
LINE
  8
0
 10
21.5
 20
218
 11
21.4882
 21
217.812
  0
LINE
  8
0
 10
21.4882
 20
217.812
 11
21.4529
 21
217.627
  0
LINE
  8
0
 10
21.4529
 20
217.627
 11
21.3947
 21
217.448
  0
LINE
  8
0
 10
21.3947
 20
217.448
 11
21.3145
 21
217.277
  0
LINE
  8
0
 10
21.3145
 20
217.277
 11
21.2135
 21
217.118
  0
LINE
  8
0
 10
21.2135
 20
217.118
 11
21.0934
 21
216.973
  0
LINE
  8
0
 10
21.0934
 20
216.973
 11
20.9561
 21
216.844
  0
LINE
  8
0
 10
20.9561
 20
216.844
 11
20.8037
 21
216.734
  0
LINE
  8
0
 10
20.8037
 20
216.734
 11
20.6387
 21
216.643
  0
LINE
  8
0
 10
20.6387
 20
216.643
 11
20.4635
 21
216.573
  0
LINE
  8
0
 10
20.4635
 20
216.573
 11
20.2811
 21
216.527
  0
LINE
  8
0
 10
20.2811
 20
216.527
 11
20.0942
 21
216.503
  0
LINE
  8
0
 10
20.0942
 20
216.503
 11
19.9058
 21
216.503
  0
LINE
  8
0
 10
-20.0942
 20
216.503
 11
-20.2811
 21
216.527
  0
LINE
  8
0
 10
-20.2811
 20
216.527
 11
-20.4635
 21
216.573
  0
LINE
  8
0
 10
-20.4635
 20
216.573
 11
-20.6387
 21
216.643
  0
LINE
  8
0
 10
-20.6387
 20
216.643
 11
-20.8037
 21
216.734
  0
LINE
  8
0
 10
-20.8037
 20
216.734
 11
-20.9561
 21
216.844
  0
LINE
  8
0
 10
-20.9561
 20
216.844
 11
-21.0934
 21
216.973
  0
LINE
  8
0
 10
-21.0934
 20
216.973
 11
-21.2135
 21
217.118
  0
LINE
  8
0
 10
-21.2135
 20
217.118
 11
-21.3145
 21
217.277
  0
LINE
  8
0
 10
-21.3145
 20
217.277
 11
-21.3947
 21
217.448
  0
LINE
  8
0
 10
-21.3947
 20
217.448
 11
-21.4529
 21
217.627
  0
LINE
  8
0
 10
-21.4529
 20
217.627
 11
-21.4882
 21
217.812
  0
LINE
  8
0
 10
-21.4882
 20
217.812
 11
-21.5
 21
218
  0
LINE
  8
0
 10
-21.5
 20
218
 11
-21.4882
 21
218.188
  0
LINE
  8
0
 10
-21.4882
 20
218.188
 11
-21.4529
 21
218.373
  0
LINE
  8
0
 10
-21.4529
 20
218.373
 11
-21.3947
 21
218.552
  0
LINE
  8
0
 10
-21.3947
 20
218.552
 11
-21.3145
 21
218.723
  0
LINE
  8
0
 10
-21.3145
 20
218.723
 11
-21.2135
 21
218.882
  0
LINE
  8
0
 10
-21.2135
 20
218.882
 11
-21.0934
 21
219.027
  0
LINE
  8
0
 10
-21.0934
 20
219.027
 11
-20.9561
 21
219.156
  0
LINE
  8
0
 10
-20.9561
 20
219.156
 11
-20.8037
 21
219.266
  0
LINE
  8
0
 10
-20.8037
 20
219.266
 11
-20.6387
 21
219.357
  0
LINE
  8
0
 10
-20.6387
 20
219.357
 11
-20.4635
 21
219.427
  0
LINE
  8
0
 10
-20.4635
 20
219.427
 11
-20.2811
 21
219.473
  0
LINE
  8
0
 10
-20.2811
 20
219.473
 11
-20.0942
 21
219.497
  0
LINE
  8
0
 10
-20.0942
 20
219.497
 11
-19.9058
 21
219.497
  0
LINE
  8
0
 10
-19.9058
 20
219.497
 11
-19.7189
 21
219.473
  0
LINE
  8
0
 10
-19.7189
 20
219.473
 11
-19.5365
 21
219.427
  0
LINE
  8
0
 10
-19.5365
 20
219.427
 11
-19.3613
 21
219.357
  0
LINE
  8
0
 10
-19.3613
 20
219.357
 11
-19.1963
 21
219.266
  0
LINE
  8
0
 10
-19.1963
 20
219.266
 11
-19.0439
 21
219.156
  0
LINE
  8
0
 10
-19.0439
 20
219.156
 11
-18.9065
 21
219.027
  0
LINE
  8
0
 10
-18.9065
 20
219.027
 11
-18.7865
 21
218.882
  0
LINE
  8
0
 10
-18.7865
 20
218.882
 11
-18.6855
 21
218.723
  0
LINE
  8
0
 10
-18.6855
 20
218.723
 11
-18.6053
 21
218.552
  0
LINE
  8
0
 10
-18.6053
 20
218.552
 11
-18.5471
 21
218.373
  0
LINE
  8
0
 10
-18.5471
 20
218.373
 11
-18.5118
 21
218.188
  0
LINE
  8
0
 10
-18.5118
 20
218.188
 11
-18.5
 21
218
  0
LINE
  8
0
 10
-18.5
 20
218
 11
-18.5118
 21
217.812
  0
LINE
  8
0
 10
-18.5118
 20
217.812
 11
-18.5471
 21
217.627
  0
LINE
  8
0
 10
-18.5471
 20
217.627
 11
-18.6053
 21
217.448
  0
LINE
  8
0
 10
-18.6053
 20
217.448
 11
-18.6855
 21
217.277
  0
LINE
  8
0
 10
-18.6855
 20
217.277
 11
-18.7865
 21
217.118
  0
LINE
  8
0
 10
-18.7865
 20
217.118
 11
-18.9065
 21
216.973
  0
LINE
  8
0
 10
-18.9065
 20
216.973
 11
-19.0439
 21
216.844
  0
LINE
  8
0
 10
-19.0439
 20
216.844
 11
-19.1963
 21
216.734
  0
LINE
  8
0
 10
-19.1963
 20
216.734
 11
-19.3613
 21
216.643
  0
LINE
  8
0
 10
-19.3613
 20
216.643
 11
-19.5365
 21
216.573
  0
LINE
  8
0
 10
-19.5365
 20
216.573
 11
-19.7189
 21
216.527
  0
LINE
  8
0
 10
-19.7189
 20
216.527
 11
-19.9058
 21
216.503
  0
LINE
  8
0
 10
-19.9058
 20
216.503
 11
-20.0942
 21
216.503
  0
LINE
  8
0
 10
-1.72969
 20
216.471
 11
-1.91521
 21
216.504
  0
LINE
  8
0
 10
-1.91521
 20
216.504
 11
-2.09515
 21
216.56
  0
LINE
  8
0
 10
-2.09515
 20
216.56
 11
-2.26669
 21
216.637
  0
LINE
  8
0
 10
-2.26669
 20
216.637
 11
-2.42714
 21
216.736
  0
LINE
  8
0
 10
-2.42714
 20
216.736
 11
-2.57394
 21
216.854
  0
LINE
  8
0
 10
-2.57394
 20
216.854
 11
-2.7048
 21
216.99
  0
LINE
  8
0
 10
-2.7048
 20
216.99
 11
-2.81764
 21
217.141
  0
LINE
  8
0
 10
-2.81764
 20
217.141
 11
-2.91068
 21
217.304
  0
LINE
  8
0
 10
-2.91068
 20
217.304
 11
-2.98247
 21
217.479
  0
LINE
  8
0
 10
-2.98247
 20
217.479
 11
-3.03185
 21
217.66
  0
LINE
  8
0
 10
-3.03185
 20
217.66
 11
-3.05807
 21
217.847
  0
LINE
  8
0
 10
-3.05807
 20
217.847
 11
-3.0607
 21
218.035
  0
LINE
  8
0
 10
-3.0607
 20
218.035
 11
-3.0397
 21
218.222
  0
LINE
  8
0
 10
-3.0397
 20
218.222
 11
-2.99541
 21
218.405
  0
LINE
  8
0
 10
-2.99541
 20
218.405
 11
-2.92851
 21
218.582
  0
LINE
  8
0
 10
-2.92851
 20
218.582
 11
-2.84007
 21
218.748
  0
LINE
  8
0
 10
-2.84007
 20
218.748
 11
-2.73149
 21
218.902
  0
LINE
  8
0
 10
-2.73149
 20
218.902
 11
-2.60448
 21
219.041
  0
LINE
  8
0
 10
-2.60448
 20
219.041
 11
-2.46103
 21
219.163
  0
LINE
  8
0
 10
-2.46103
 20
219.163
 11
-2.30341
 21
219.266
  0
LINE
  8
0
 10
-2.30341
 20
219.266
 11
-2.13409
 21
219.349
  0
LINE
  8
0
 10
-2.13409
 20
219.349
 11
-1.95576
 21
219.409
  0
LINE
  8
0
 10
-1.95576
 20
219.409
 11
-1.77126
 21
219.447
  0
LINE
  8
0
 10
-1.77126
 20
219.447
 11
-1.58344
 21
219.462
  0
LINE
  8
0
 10
-1.58344
 20
219.462
 11
-1.39528
 21
219.453
  0
LINE
  8
0
 10
-1.39528
 20
219.453
 11
-1.20978
 21
219.42
  0
LINE
  8
0
 10
-1.20978
 20
219.42
 11
-1.02983
 21
219.364
  0
LINE
  8
0
 10
-1.02983
 20
219.364
 11
-0.858276
 21
219.286
  0
LINE
  8
0
 10
-0.858276
 20
219.286
 11
-0.697845
 21
219.188
  0
LINE
  8
0
 10
-0.697845
 20
219.188
 11
-0.551041
 21
219.07
  0
LINE
  8
0
 10
-0.551041
 20
219.07
 11
-0.420181
 21
218.934
  0
LINE
  8
0
 10
-0.420181
 20
218.934
 11
-0.307343
 21
218.783
  0
LINE
  8
0
 10
-0.307343
 20
218.783
 11
-0.214294
 21
218.619
  0
LINE
  8
0
 10
-0.214294
 20
218.619
 11
-0.142517
 21
218.445
  0
LINE
  8
0
 10
-0.142517
 20
218.445
 11
-0.0931244
 21
218.264
  0
LINE
  8
0
 10
-0.0931244
 20
218.264
 11
-0.0669098
 21
218.077
  0
LINE
  8
0
 10
-0.0669098
 20
218.077
 11
-0.0642853
 21
217.889
  0
LINE
  8
0
 10
-0.0642853
 20
217.889
 11
-0.0852814
 21
217.701
  0
LINE
  8
0
 10
-0.0852814
 20
217.701
 11
-0.129578
 21
217.518
  0
LINE
  8
0
 10
-0.129578
 20
217.518
 11
-0.196457
 21
217.342
  0
LINE
  8
0
 10
-0.196457
 20
217.342
 11
-0.284897
 21
217.176
  0
LINE
  8
0
 10
-0.284897
 20
217.176
 11
-0.393478
 21
217.022
  0
LINE
  8
0
 10
-0.393478
 20
217.022
 11
-0.520508
 21
216.883
  0
LINE
  8
0
 10
-0.520508
 20
216.883
 11
-0.663956
 21
216.761
  0
LINE
  8
0
 10
-0.663956
 20
216.761
 11
-0.821579
 21
216.658
  0
LINE
  8
0
 10
-0.821579
 20
216.658
 11
-0.990891
 21
216.575
  0
LINE
  8
0
 10
-0.990891
 20
216.575
 11
-1.1692
 21
216.514
  0
LINE
  8
0
 10
-1.1692
 20
216.514
 11
-1.35373
 21
216.477
  0
LINE
  8
0
 10
-1.35373
 20
216.477
 11
-1.54155
 21
216.462
  0
LINE
  8
0
 10
-1.54155
 20
216.462
 11
-1.72969
 21
216.471
  0
LINE
  8
0
 10
1.35373
 20
216.477
 11
1.1692
 21
216.514
  0
LINE
  8
0
 10
1.1692
 20
216.514
 11
0.990891
 21
216.575
  0
LINE
  8
0
 10
0.990891
 20
216.575
 11
0.821579
 21
216.658
  0
LINE
  8
0
 10
0.821579
 20
216.658
 11
0.663956
 21
216.761
  0
LINE
  8
0
 10
0.663956
 20
216.761
 11
0.520508
 21
216.883
  0
LINE
  8
0
 10
0.520508
 20
216.883
 11
0.393478
 21
217.022
  0
LINE
  8
0
 10
0.393478
 20
217.022
 11
0.284897
 21
217.176
  0
LINE
  8
0
 10
0.284897
 20
217.176
 11
0.196457
 21
217.342
  0
LINE
  8
0
 10
0.196457
 20
217.342
 11
0.129578
 21
217.518
  0
LINE
  8
0
 10
0.129578
 20
217.518
 11
0.0852814
 21
217.701
  0
LINE
  8
0
 10
0.0852814
 20
217.701
 11
0.0642853
 21
217.889
  0
LINE
  8
0
 10
0.0642853
 20
217.889
 11
0.0669098
 21
218.077
  0
LINE
  8
0
 10
0.0669098
 20
218.077
 11
0.0931244
 21
218.264
  0
LINE
  8
0
 10
0.0931244
 20
218.264
 11
0.142517
 21
218.445
  0
LINE
  8
0
 10
0.142517
 20
218.445
 11
0.214294
 21
218.619
  0
LINE
  8
0
 10
0.214294
 20
218.619
 11
0.307343
 21
218.783
  0
LINE
  8
0
 10
0.307343
 20
218.783
 11
0.420181
 21
218.934
  0
LINE
  8
0
 10
0.420181
 20
218.934
 11
0.551041
 21
219.07
  0
LINE
  8
0
 10
0.551041
 20
219.07
 11
0.697845
 21
219.188
  0
LINE
  8
0
 10
0.697845
 20
219.188
 11
0.858276
 21
219.286
  0
LINE
  8
0
 10
0.858276
 20
219.286
 11
1.02983
 21
219.364
  0
LINE
  8
0
 10
1.02983
 20
219.364
 11
1.20978
 21
219.42
  0
LINE
  8
0
 10
1.20978
 20
219.42
 11
1.39528
 21
219.453
  0
LINE
  8
0
 10
1.39528
 20
219.453
 11
1.58344
 21
219.462
  0
LINE
  8
0
 10
1.58344
 20
219.462
 11
1.77126
 21
219.447
  0
LINE
  8
0
 10
1.77126
 20
219.447
 11
1.95576
 21
219.409
  0
LINE
  8
0
 10
1.95576
 20
219.409
 11
2.13409
 21
219.349
  0
LINE
  8
0
 10
2.13409
 20
219.349
 11
2.30341
 21
219.266
  0
LINE
  8
0
 10
2.30341
 20
219.266
 11
2.46103
 21
219.163
  0
LINE
  8
0
 10
2.46103
 20
219.163
 11
2.60448
 21
219.041
  0
LINE
  8
0
 10
2.60448
 20
219.041
 11
2.73149
 21
218.902
  0
LINE
  8
0
 10
2.73149
 20
218.902
 11
2.84007
 21
218.748
  0
LINE
  8
0
 10
2.84007
 20
218.748
 11
2.92851
 21
218.582
  0
LINE
  8
0
 10
2.92851
 20
218.582
 11
2.99541
 21
218.405
  0
LINE
  8
0
 10
2.99541
 20
218.405
 11
3.0397
 21
218.222
  0
LINE
  8
0
 10
3.0397
 20
218.222
 11
3.0607
 21
218.035
  0
LINE
  8
0
 10
3.0607
 20
218.035
 11
3.05807
 21
217.847
  0
LINE
  8
0
 10
3.05807
 20
217.847
 11
3.03185
 21
217.66
  0
LINE
  8
0
 10
3.03185
 20
217.66
 11
2.98247
 21
217.479
  0
LINE
  8
0
 10
2.98247
 20
217.479
 11
2.91068
 21
217.304
  0
LINE
  8
0
 10
2.91068
 20
217.304
 11
2.81764
 21
217.141
  0
LINE
  8
0
 10
2.81764
 20
217.141
 11
2.7048
 21
216.99
  0
LINE
  8
0
 10
2.7048
 20
216.99
 11
2.57394
 21
216.854
  0
LINE
  8
0
 10
2.57394
 20
216.854
 11
2.42714
 21
216.736
  0
LINE
  8
0
 10
2.42714
 20
216.736
 11
2.26669
 21
216.637
  0
LINE
  8
0
 10
2.26669
 20
216.637
 11
2.09515
 21
216.56
  0
LINE
  8
0
 10
2.09515
 20
216.56
 11
1.91521
 21
216.504
  0
LINE
  8
0
 10
1.91521
 20
216.504
 11
1.72969
 21
216.471
  0
LINE
  8
0
 10
1.72969
 20
216.471
 11
1.54155
 21
216.462
  0
LINE
  8
0
 10
1.54155
 20
216.462
 11
1.35373
 21
216.477
  0
LINE
  8
0
 10
-105.703
 20
216.471
 11
-105.889
 21
216.504
  0
LINE
  8
0
 10
-105.889
 20
216.504
 11
-106.068
 21
216.56
  0
LINE
  8
0
 10
-106.068
 20
216.56
 11
-106.24
 21
216.637
  0
LINE
  8
0
 10
-106.24
 20
216.637
 11
-106.4
 21
216.736
  0
LINE
  8
0
 10
-106.4
 20
216.736
 11
-106.547
 21
216.854
  0
LINE
  8
0
 10
-106.547
 20
216.854
 11
-106.678
 21
216.99
  0
LINE
  8
0
 10
-106.678
 20
216.99
 11
-106.791
 21
217.141
  0
LINE
  8
0
 10
-106.791
 20
217.141
 11
-106.884
 21
217.304
  0
LINE
  8
0
 10
-106.884
 20
217.304
 11
-106.956
 21
217.479
  0
LINE
  8
0
 10
-106.956
 20
217.479
 11
-107.005
 21
217.66
  0
LINE
  8
0
 10
-107.005
 20
217.66
 11
-107.031
 21
217.847
  0
LINE
  8
0
 10
-107.031
 20
217.847
 11
-107.034
 21
218.035
  0
LINE
  8
0
 10
-107.034
 20
218.035
 11
-107.013
 21
218.222
  0
LINE
  8
0
 10
-107.013
 20
218.222
 11
-106.969
 21
218.405
  0
LINE
  8
0
 10
-106.969
 20
218.405
 11
-106.902
 21
218.582
  0
LINE
  8
0
 10
-106.902
 20
218.582
 11
-106.813
 21
218.748
  0
LINE
  8
0
 10
-106.813
 20
218.748
 11
-106.705
 21
218.902
  0
LINE
  8
0
 10
-106.705
 20
218.902
 11
-106.578
 21
219.041
  0
LINE
  8
0
 10
-106.578
 20
219.041
 11
-106.434
 21
219.163
  0
LINE
  8
0
 10
-106.434
 20
219.163
 11
-106.277
 21
219.266
  0
LINE
  8
0
 10
-106.277
 20
219.266
 11
-106.107
 21
219.349
  0
LINE
  8
0
 10
-106.107
 20
219.349
 11
-105.929
 21
219.409
  0
LINE
  8
0
 10
-105.929
 20
219.409
 11
-105.745
 21
219.447
  0
LINE
  8
0
 10
-105.745
 20
219.447
 11
-105.557
 21
219.462
  0
LINE
  8
0
 10
-105.557
 20
219.462
 11
-105.369
 21
219.453
  0
LINE
  8
0
 10
-105.369
 20
219.453
 11
-105.183
 21
219.42
  0
LINE
  8
0
 10
-105.183
 20
219.42
 11
-105.003
 21
219.364
  0
LINE
  8
0
 10
-105.003
 20
219.364
 11
-104.832
 21
219.286
  0
LINE
  8
0
 10
-104.832
 20
219.286
 11
-104.671
 21
219.188
  0
LINE
  8
0
 10
-104.671
 20
219.188
 11
-104.524
 21
219.07
  0
LINE
  8
0
 10
-104.524
 20
219.07
 11
-104.394
 21
218.934
  0
LINE
  8
0
 10
-104.394
 20
218.934
 11
-104.281
 21
218.783
  0
LINE
  8
0
 10
-104.281
 20
218.783
 11
-104.188
 21
218.619
  0
LINE
  8
0
 10
-104.188
 20
218.619
 11
-104.116
 21
218.445
  0
LINE
  8
0
 10
-104.116
 20
218.445
 11
-104.066
 21
218.264
  0
LINE
  8
0
 10
-104.066
 20
218.264
 11
-104.04
 21
218.077
  0
LINE
  8
0
 10
-104.04
 20
218.077
 11
-104.038
 21
217.889
  0
LINE
  8
0
 10
-104.038
 20
217.889
 11
-104.059
 21
217.701
  0
LINE
  8
0
 10
-104.059
 20
217.701
 11
-104.103
 21
217.518
  0
LINE
  8
0
 10
-104.103
 20
217.518
 11
-104.17
 21
217.342
  0
LINE
  8
0
 10
-104.17
 20
217.342
 11
-104.258
 21
217.176
  0
LINE
  8
0
 10
-104.258
 20
217.176
 11
-104.367
 21
217.022
  0
LINE
  8
0
 10
-104.367
 20
217.022
 11
-104.494
 21
216.883
  0
LINE
  8
0
 10
-104.494
 20
216.883
 11
-104.637
 21
216.761
  0
LINE
  8
0
 10
-104.637
 20
216.761
 11
-104.795
 21
216.658
  0
LINE
  8
0
 10
-104.795
 20
216.658
 11
-104.964
 21
216.575
  0
LINE
  8
0
 10
-104.964
 20
216.575
 11
-105.143
 21
216.514
  0
LINE
  8
0
 10
-105.143
 20
216.514
 11
-105.327
 21
216.477
  0
LINE
  8
0
 10
-105.327
 20
216.477
 11
-105.515
 21
216.462
  0
LINE
  8
0
 10
-105.515
 20
216.462
 11
-105.703
 21
216.471
  0
LINE
  8
0
 10
105.327
 20
216.477
 11
105.143
 21
216.514
  0
LINE
  8
0
 10
105.143
 20
216.514
 11
104.964
 21
216.575
  0
LINE
  8
0
 10
104.964
 20
216.575
 11
104.795
 21
216.658
  0
LINE
  8
0
 10
104.795
 20
216.658
 11
104.637
 21
216.761
  0
LINE
  8
0
 10
104.637
 20
216.761
 11
104.494
 21
216.883
  0
LINE
  8
0
 10
104.494
 20
216.883
 11
104.367
 21
217.022
  0
LINE
  8
0
 10
104.367
 20
217.022
 11
104.258
 21
217.176
  0
LINE
  8
0
 10
104.258
 20
217.176
 11
104.17
 21
217.342
  0
LINE
  8
0
 10
104.17
 20
217.342
 11
104.103
 21
217.518
  0
LINE
  8
0
 10
104.103
 20
217.518
 11
104.059
 21
217.701
  0
LINE
  8
0
 10
104.059
 20
217.701
 11
104.038
 21
217.889
  0
LINE
  8
0
 10
104.038
 20
217.889
 11
104.04
 21
218.077
  0
LINE
  8
0
 10
104.04
 20
218.077
 11
104.066
 21
218.264
  0
LINE
  8
0
 10
104.066
 20
218.264
 11
104.116
 21
218.445
  0
LINE
  8
0
 10
104.116
 20
218.445
 11
104.188
 21
218.619
  0
LINE
  8
0
 10
104.188
 20
218.619
 11
104.281
 21
218.783
  0
LINE
  8
0
 10
104.281
 20
218.783
 11
104.394
 21
218.934
  0
LINE
  8
0
 10
104.394
 20
218.934
 11
104.524
 21
219.07
  0
LINE
  8
0
 10
104.524
 20
219.07
 11
104.671
 21
219.188
  0
LINE
  8
0
 10
104.671
 20
219.188
 11
104.832
 21
219.286
  0
LINE
  8
0
 10
104.832
 20
219.286
 11
105.003
 21
219.364
  0
LINE
  8
0
 10
105.003
 20
219.364
 11
105.183
 21
219.42
  0
LINE
  8
0
 10
105.183
 20
219.42
 11
105.369
 21
219.453
  0
LINE
  8
0
 10
105.369
 20
219.453
 11
105.557
 21
219.462
  0
LINE
  8
0
 10
105.557
 20
219.462
 11
105.745
 21
219.447
  0
LINE
  8
0
 10
105.745
 20
219.447
 11
105.929
 21
219.409
  0
LINE
  8
0
 10
105.929
 20
219.409
 11
106.107
 21
219.349
  0
LINE
  8
0
 10
106.107
 20
219.349
 11
106.277
 21
219.266
  0
LINE
  8
0
 10
106.277
 20
219.266
 11
106.434
 21
219.163
  0
LINE
  8
0
 10
106.434
 20
219.163
 11
106.578
 21
219.041
  0
LINE
  8
0
 10
106.578
 20
219.041
 11
106.705
 21
218.902
  0
LINE
  8
0
 10
106.705
 20
218.902
 11
106.813
 21
218.748
  0
LINE
  8
0
 10
106.813
 20
218.748
 11
106.902
 21
218.582
  0
LINE
  8
0
 10
106.902
 20
218.582
 11
106.969
 21
218.405
  0
LINE
  8
0
 10
106.969
 20
218.405
 11
107.013
 21
218.222
  0
LINE
  8
0
 10
107.013
 20
218.222
 11
107.034
 21
218.035
  0
LINE
  8
0
 10
107.034
 20
218.035
 11
107.031
 21
217.847
  0
LINE
  8
0
 10
107.031
 20
217.847
 11
107.005
 21
217.66
  0
LINE
  8
0
 10
107.005
 20
217.66
 11
106.956
 21
217.479
  0
LINE
  8
0
 10
106.956
 20
217.479
 11
106.884
 21
217.304
  0
LINE
  8
0
 10
106.884
 20
217.304
 11
106.791
 21
217.141
  0
LINE
  8
0
 10
106.791
 20
217.141
 11
106.678
 21
216.99
  0
LINE
  8
0
 10
106.678
 20
216.99
 11
106.547
 21
216.854
  0
LINE
  8
0
 10
106.547
 20
216.854
 11
106.4
 21
216.736
  0
LINE
  8
0
 10
106.4
 20
216.736
 11
106.24
 21
216.637
  0
LINE
  8
0
 10
106.24
 20
216.637
 11
106.068
 21
216.56
  0
LINE
  8
0
 10
106.068
 20
216.56
 11
105.889
 21
216.504
  0
LINE
  8
0
 10
105.889
 20
216.504
 11
105.703
 21
216.471
  0
LINE
  8
0
 10
105.703
 20
216.471
 11
105.515
 21
216.462
  0
LINE
  8
0
 10
105.515
 20
216.462
 11
105.327
 21
216.477
  0
LINE
  8
0
 10
-118.9
 20
141.626
 11
-119.086
 21
141.659
  0
LINE
  8
0
 10
-119.086
 20
141.659
 11
-119.266
 21
141.714
  0
LINE
  8
0
 10
-119.266
 20
141.714
 11
-119.437
 21
141.792
  0
LINE
  8
0
 10
-119.437
 20
141.792
 11
-119.598
 21
141.891
  0
LINE
  8
0
 10
-119.598
 20
141.891
 11
-119.745
 21
142.009
  0
LINE
  8
0
 10
-119.745
 20
142.009
 11
-119.875
 21
142.144
  0
LINE
  8
0
 10
-119.875
 20
142.144
 11
-119.988
 21
142.295
  0
LINE
  8
0
 10
-119.988
 20
142.295
 11
-120.081
 21
142.459
  0
LINE
  8
0
 10
-120.081
 20
142.459
 11
-120.153
 21
142.633
  0
LINE
  8
0
 10
-120.153
 20
142.633
 11
-120.202
 21
142.815
  0
LINE
  8
0
 10
-120.202
 20
142.815
 11
-120.229
 21
143.001
  0
LINE
  8
0
 10
-120.229
 20
143.001
 11
-120.231
 21
143.19
  0
LINE
  8
0
 10
-120.231
 20
143.19
 11
-120.21
 21
143.377
  0
LINE
  8
0
 10
-120.21
 20
143.377
 11
-120.166
 21
143.56
  0
LINE
  8
0
 10
-120.166
 20
143.56
 11
-120.099
 21
143.736
  0
LINE
  8
0
 10
-120.099
 20
143.736
 11
-120.011
 21
143.903
  0
LINE
  8
0
 10
-120.011
 20
143.903
 11
-119.902
 21
144.056
  0
LINE
  8
0
 10
-119.902
 20
144.056
 11
-119.775
 21
144.196
  0
LINE
  8
0
 10
-119.775
 20
144.196
 11
-119.632
 21
144.318
  0
LINE
  8
0
 10
-119.632
 20
144.318
 11
-119.474
 21
144.421
  0
LINE
  8
0
 10
-119.474
 20
144.421
 11
-119.305
 21
144.503
  0
LINE
  8
0
 10
-119.305
 20
144.503
 11
-119.126
 21
144.564
  0
LINE
  8
0
 10
-119.126
 20
144.564
 11
-118.942
 21
144.602
  0
LINE
  8
0
 10
-118.942
 20
144.602
 11
-118.754
 21
144.616
  0
LINE
  8
0
 10
-118.754
 20
144.616
 11
-118.566
 21
144.607
  0
LINE
  8
0
 10
-118.566
 20
144.607
 11
-118.38
 21
144.574
  0
LINE
  8
0
 10
-118.38
 20
144.574
 11
-118.2
 21
144.519
  0
LINE
  8
0
 10
-118.2
 20
144.519
 11
-118.029
 21
144.441
  0
LINE
  8
0
 10
-118.029
 20
144.441
 11
-117.868
 21
144.342
  0
LINE
  8
0
 10
-117.868
 20
144.342
 11
-117.722
 21
144.224
  0
LINE
  8
0
 10
-117.722
 20
144.224
 11
-117.591
 21
144.089
  0
LINE
  8
0
 10
-117.591
 20
144.089
 11
-117.478
 21
143.938
  0
LINE
  8
0
 10
-117.478
 20
143.938
 11
-117.385
 21
143.774
  0
LINE
  8
0
 10
-117.385
 20
143.774
 11
-117.313
 21
143.6
  0
LINE
  8
0
 10
-117.313
 20
143.6
 11
-117.264
 21
143.418
  0
LINE
  8
0
 10
-117.264
 20
143.418
 11
-117.238
 21
143.232
  0
LINE
  8
0
 10
-117.238
 20
143.232
 11
-117.235
 21
143.043
  0
LINE
  8
0
 10
-117.235
 20
143.043
 11
-117.256
 21
142.856
  0
LINE
  8
0
 10
-117.256
 20
142.856
 11
-117.3
 21
142.673
  0
LINE
  8
0
 10
-117.3
 20
142.673
 11
-117.367
 21
142.497
  0
LINE
  8
0
 10
-117.367
 20
142.497
 11
-117.455
 21
142.331
  0
LINE
  8
0
 10
-117.455
 20
142.331
 11
-117.564
 21
142.177
  0
LINE
  8
0
 10
-117.564
 20
142.177
 11
-117.691
 21
142.038
  0
LINE
  8
0
 10
-117.691
 20
142.038
 11
-117.835
 21
141.915
  0
LINE
  8
0
 10
-117.835
 20
141.915
 11
-117.992
 21
141.812
  0
LINE
  8
0
 10
-117.992
 20
141.812
 11
-118.161
 21
141.73
  0
LINE
  8
0
 10
-118.161
 20
141.73
 11
-118.34
 21
141.669
  0
LINE
  8
0
 10
-118.34
 20
141.669
 11
-118.524
 21
141.631
  0
LINE
  8
0
 10
-118.524
 20
141.631
 11
-118.712
 21
141.617
  0
LINE
  8
0
 10
-118.712
 20
141.617
 11
-118.9
 21
141.626
  0
LINE
  8
0
 10
118.524
 20
141.631
 11
118.34
 21
141.669
  0
LINE
  8
0
 10
118.34
 20
141.669
 11
118.161
 21
141.73
  0
LINE
  8
0
 10
118.161
 20
141.73
 11
117.992
 21
141.812
  0
LINE
  8
0
 10
117.992
 20
141.812
 11
117.835
 21
141.915
  0
LINE
  8
0
 10
117.835
 20
141.915
 11
117.691
 21
142.038
  0
LINE
  8
0
 10
117.691
 20
142.038
 11
117.564
 21
142.177
  0
LINE
  8
0
 10
117.564
 20
142.177
 11
117.455
 21
142.331
  0
LINE
  8
0
 10
117.455
 20
142.331
 11
117.367
 21
142.497
  0
LINE
  8
0
 10
117.367
 20
142.497
 11
117.3
 21
142.673
  0
LINE
  8
0
 10
117.3
 20
142.673
 11
117.256
 21
142.856
  0
LINE
  8
0
 10
117.256
 20
142.856
 11
117.235
 21
143.043
  0
LINE
  8
0
 10
117.235
 20
143.043
 11
117.238
 21
143.232
  0
LINE
  8
0
 10
117.238
 20
143.232
 11
117.264
 21
143.418
  0
LINE
  8
0
 10
117.264
 20
143.418
 11
117.313
 21
143.6
  0
LINE
  8
0
 10
117.313
 20
143.6
 11
117.385
 21
143.774
  0
LINE
  8
0
 10
117.385
 20
143.774
 11
117.478
 21
143.938
  0
LINE
  8
0
 10
117.478
 20
143.938
 11
117.591
 21
144.089
  0
LINE
  8
0
 10
117.591
 20
144.089
 11
117.722
 21
144.224
  0
LINE
  8
0
 10
117.722
 20
144.224
 11
117.868
 21
144.342
  0
LINE
  8
0
 10
117.868
 20
144.342
 11
118.029
 21
144.441
  0
LINE
  8
0
 10
118.029
 20
144.441
 11
118.2
 21
144.519
  0
LINE
  8
0
 10
118.2
 20
144.519
 11
118.38
 21
144.574
  0
LINE
  8
0
 10
118.38
 20
144.574
 11
118.566
 21
144.607
  0
LINE
  8
0
 10
118.566
 20
144.607
 11
118.754
 21
144.616
  0
LINE
  8
0
 10
118.754
 20
144.616
 11
118.942
 21
144.602
  0
LINE
  8
0
 10
118.942
 20
144.602
 11
119.126
 21
144.564
  0
LINE
  8
0
 10
119.126
 20
144.564
 11
119.305
 21
144.503
  0
LINE
  8
0
 10
119.305
 20
144.503
 11
119.474
 21
144.421
  0
LINE
  8
0
 10
119.474
 20
144.421
 11
119.632
 21
144.318
  0
LINE
  8
0
 10
119.632
 20
144.318
 11
119.775
 21
144.196
  0
LINE
  8
0
 10
119.775
 20
144.196
 11
119.902
 21
144.056
  0
LINE
  8
0
 10
119.902
 20
144.056
 11
120.011
 21
143.903
  0
LINE
  8
0
 10
120.011
 20
143.903
 11
120.099
 21
143.736
  0
LINE
  8
0
 10
120.099
 20
143.736
 11
120.166
 21
143.56
  0
LINE
  8
0
 10
120.166
 20
143.56
 11
120.21
 21
143.377
  0
LINE
  8
0
 10
120.21
 20
143.377
 11
120.231
 21
143.19
  0
LINE
  8
0
 10
120.231
 20
143.19
 11
120.229
 21
143.001
  0
LINE
  8
0
 10
120.229
 20
143.001
 11
120.202
 21
142.815
  0
LINE
  8
0
 10
120.202
 20
142.815
 11
120.153
 21
142.633
  0
LINE
  8
0
 10
120.153
 20
142.633
 11
120.081
 21
142.459
  0
LINE
  8
0
 10
120.081
 20
142.459
 11
119.988
 21
142.295
  0
LINE
  8
0
 10
119.988
 20
142.295
 11
119.875
 21
142.144
  0
LINE
  8
0
 10
119.875
 20
142.144
 11
119.745
 21
142.009
  0
LINE
  8
0
 10
119.745
 20
142.009
 11
119.598
 21
141.891
  0
LINE
  8
0
 10
119.598
 20
141.891
 11
119.437
 21
141.792
  0
LINE
  8
0
 10
119.437
 20
141.792
 11
119.266
 21
141.714
  0
LINE
  8
0
 10
119.266
 20
141.714
 11
119.086
 21
141.659
  0
LINE
  8
0
 10
119.086
 20
141.659
 11
118.9
 21
141.626
  0
LINE
  8
0
 10
118.9
 20
141.626
 11
118.712
 21
141.617
  0
LINE
  8
0
 10
118.712
 20
141.617
 11
118.524
 21
141.631
  0
LINE
  8
0
 10
-25.8645
 20
122.175
 11
-26.05
 21
122.208
  0
LINE
  8
0
 10
-26.05
 20
122.208
 11
-26.2299
 21
122.263
  0
LINE
  8
0
 10
-26.2299
 20
122.263
 11
-26.4015
 21
122.341
  0
LINE
  8
0
 10
-26.4015
 20
122.341
 11
-26.562
 21
122.44
  0
LINE
  8
0
 10
-26.562
 20
122.44
 11
-26.7087
 21
122.558
  0
LINE
  8
0
 10
-26.7087
 20
122.558
 11
-26.8396
 21
122.693
  0
LINE
  8
0
 10
-26.8396
 20
122.693
 11
-26.9524
 21
122.844
  0
LINE
  8
0
 10
-26.9524
 20
122.844
 11
-27.0455
 21
123.008
  0
LINE
  8
0
 10
-27.0455
 20
123.008
 11
-27.1173
 21
123.182
  0
LINE
  8
0
 10
-27.1173
 20
123.182
 11
-27.1666
 21
123.364
  0
LINE
  8
0
 10
-27.1666
 20
123.364
 11
-27.1929
 21
123.55
  0
LINE
  8
0
 10
-27.1929
 20
123.55
 11
-27.1955
 21
123.739
  0
LINE
  8
0
 10
-27.1955
 20
123.739
 11
-27.1745
 21
123.926
  0
LINE
  8
0
 10
-27.1745
 20
123.926
 11
-27.1302
 21
124.109
  0
LINE
  8
0
 10
-27.1302
 20
124.109
 11
-27.0633
 21
124.285
  0
LINE
  8
0
 10
-27.0633
 20
124.285
 11
-26.9749
 21
124.452
  0
LINE
  8
0
 10
-26.9749
 20
124.452
 11
-26.8663
 21
124.605
  0
LINE
  8
0
 10
-26.8663
 20
124.605
 11
-26.7393
 21
124.745
  0
LINE
  8
0
 10
-26.7393
 20
124.745
 11
-26.5958
 21
124.867
  0
LINE
  8
0
 10
-26.5958
 20
124.867
 11
-26.4382
 21
124.97
  0
LINE
  8
0
 10
-26.4382
 20
124.97
 11
-26.2689
 21
125.052
  0
LINE
  8
0
 10
-26.2689
 20
125.052
 11
-26.0906
 21
125.113
  0
LINE
  8
0
 10
-26.0906
 20
125.113
 11
-25.9061
 21
125.151
  0
LINE
  8
0
 10
-25.9061
 20
125.151
 11
-25.7182
 21
125.165
  0
LINE
  8
0
 10
-25.7182
 20
125.165
 11
-25.5301
 21
125.156
  0
LINE
  8
0
 10
-25.5301
 20
125.156
 11
-25.3446
 21
125.123
  0
LINE
  8
0
 10
-25.3446
 20
125.123
 11
-25.1646
 21
125.068
  0
LINE
  8
0
 10
-25.1646
 20
125.068
 11
-24.9931
 21
124.99
  0
LINE
  8
0
 10
-24.9931
 20
124.99
 11
-24.8326
 21
124.891
  0
LINE
  8
0
 10
-24.8326
 20
124.891
 11
-24.6858
 21
124.773
  0
LINE
  8
0
 10
-24.6858
 20
124.773
 11
-24.555
 21
124.638
  0
LINE
  8
0
 10
-24.555
 20
124.638
 11
-24.4421
 21
124.487
  0
LINE
  8
0
 10
-24.4421
 20
124.487
 11
-24.3491
 21
124.323
  0
LINE
  8
0
 10
-24.3491
 20
124.323
 11
-24.2773
 21
124.149
  0
LINE
  8
0
 10
-24.2773
 20
124.149
 11
-24.2279
 21
123.967
  0
LINE
  8
0
 10
-24.2279
 20
123.967
 11
-24.2017
 21
123.781
  0
LINE
  8
0
 10
-24.2017
 20
123.781
 11
-24.1991
 21
123.592
  0
LINE
  8
0
 10
-24.1991
 20
123.592
 11
-24.2201
 21
123.405
  0
LINE
  8
0
 10
-24.2201
 20
123.405
 11
-24.2644
 21
123.222
  0
LINE
  8
0
 10
-24.2644
 20
123.222
 11
-24.3313
 21
123.046
  0
LINE
  8
0
 10
-24.3313
 20
123.046
 11
-24.4197
 21
122.88
  0
LINE
  8
0
 10
-24.4197
 20
122.88
 11
-24.5283
 21
122.726
  0
LINE
  8
0
 10
-24.5283
 20
122.726
 11
-24.6553
 21
122.587
  0
LINE
  8
0
 10
-24.6553
 20
122.587
 11
-24.7988
 21
122.464
  0
LINE
  8
0
 10
-24.7988
 20
122.464
 11
-24.9564
 21
122.361
  0
LINE
  8
0
 10
-24.9564
 20
122.361
 11
-25.1257
 21
122.279
  0
LINE
  8
0
 10
-25.1257
 20
122.279
 11
-25.304
 21
122.218
  0
LINE
  8
0
 10
-25.304
 20
122.218
 11
-25.4885
 21
122.18
  0
LINE
  8
0
 10
-25.4885
 20
122.18
 11
-25.6763
 21
122.166
  0
LINE
  8
0
 10
-25.6763
 20
122.166
 11
-25.8645
 21
122.175
  0
LINE
  8
0
 10
25.4885
 20
122.18
 11
25.304
 21
122.218
  0
LINE
  8
0
 10
25.304
 20
122.218
 11
25.1257
 21
122.279
  0
LINE
  8
0
 10
25.1257
 20
122.279
 11
24.9564
 21
122.361
  0
LINE
  8
0
 10
24.9564
 20
122.361
 11
24.7988
 21
122.464
  0
LINE
  8
0
 10
24.7988
 20
122.464
 11
24.6553
 21
122.587
  0
LINE
  8
0
 10
24.6553
 20
122.587
 11
24.5283
 21
122.726
  0
LINE
  8
0
 10
24.5283
 20
122.726
 11
24.4197
 21
122.88
  0
LINE
  8
0
 10
24.4197
 20
122.88
 11
24.3313
 21
123.046
  0
LINE
  8
0
 10
24.3313
 20
123.046
 11
24.2644
 21
123.222
  0
LINE
  8
0
 10
24.2644
 20
123.222
 11
24.2201
 21
123.405
  0
LINE
  8
0
 10
24.2201
 20
123.405
 11
24.1991
 21
123.592
  0
LINE
  8
0
 10
24.1991
 20
123.592
 11
24.2017
 21
123.781
  0
LINE
  8
0
 10
24.2017
 20
123.781
 11
24.2279
 21
123.967
  0
LINE
  8
0
 10
24.2279
 20
123.967
 11
24.2773
 21
124.149
  0
LINE
  8
0
 10
24.2773
 20
124.149
 11
24.3491
 21
124.323
  0
LINE
  8
0
 10
24.3491
 20
124.323
 11
24.4421
 21
124.487
  0
LINE
  8
0
 10
24.4421
 20
124.487
 11
24.555
 21
124.638
  0
LINE
  8
0
 10
24.555
 20
124.638
 11
24.6858
 21
124.773
  0
LINE
  8
0
 10
24.6858
 20
124.773
 11
24.8326
 21
124.891
  0
LINE
  8
0
 10
24.8326
 20
124.891
 11
24.9931
 21
124.99
  0
LINE
  8
0
 10
24.9931
 20
124.99
 11
25.1646
 21
125.068
  0
LINE
  8
0
 10
25.1646
 20
125.068
 11
25.3446
 21
125.123
  0
LINE
  8
0
 10
25.3446
 20
125.123
 11
25.5301
 21
125.156
  0
LINE
  8
0
 10
25.5301
 20
125.156
 11
25.7182
 21
125.165
  0
LINE
  8
0
 10
25.7182
 20
125.165
 11
25.9061
 21
125.151
  0
LINE
  8
0
 10
25.9061
 20
125.151
 11
26.0906
 21
125.113
  0
LINE
  8
0
 10
26.0906
 20
125.113
 11
26.2689
 21
125.052
  0
LINE
  8
0
 10
26.2689
 20
125.052
 11
26.4382
 21
124.97
  0
LINE
  8
0
 10
26.4382
 20
124.97
 11
26.5958
 21
124.867
  0
LINE
  8
0
 10
26.5958
 20
124.867
 11
26.7393
 21
124.745
  0
LINE
  8
0
 10
26.7393
 20
124.745
 11
26.8663
 21
124.605
  0
LINE
  8
0
 10
26.8663
 20
124.605
 11
26.9749
 21
124.452
  0
LINE
  8
0
 10
26.9749
 20
124.452
 11
27.0633
 21
124.285
  0
LINE
  8
0
 10
27.0633
 20
124.285
 11
27.1302
 21
124.109
  0
LINE
  8
0
 10
27.1302
 20
124.109
 11
27.1745
 21
123.926
  0
LINE
  8
0
 10
27.1745
 20
123.926
 11
27.1955
 21
123.739
  0
LINE
  8
0
 10
27.1955
 20
123.739
 11
27.1929
 21
123.55
  0
LINE
  8
0
 10
27.1929
 20
123.55
 11
27.1666
 21
123.364
  0
LINE
  8
0
 10
27.1666
 20
123.364
 11
27.1173
 21
123.182
  0
LINE
  8
0
 10
27.1173
 20
123.182
 11
27.0455
 21
123.008
  0
LINE
  8
0
 10
27.0455
 20
123.008
 11
26.9524
 21
122.844
  0
LINE
  8
0
 10
26.9524
 20
122.844
 11
26.8396
 21
122.693
  0
LINE
  8
0
 10
26.8396
 20
122.693
 11
26.7087
 21
122.558
  0
LINE
  8
0
 10
26.7087
 20
122.558
 11
26.562
 21
122.44
  0
LINE
  8
0
 10
26.562
 20
122.44
 11
26.4015
 21
122.341
  0
LINE
  8
0
 10
26.4015
 20
122.341
 11
26.2299
 21
122.263
  0
LINE
  8
0
 10
26.2299
 20
122.263
 11
26.05
 21
122.208
  0
LINE
  8
0
 10
26.05
 20
122.208
 11
25.8645
 21
122.175
  0
LINE
  8
0
 10
25.8645
 20
122.175
 11
25.6763
 21
122.166
  0
LINE
  8
0
 10
25.6763
 20
122.166
 11
25.4885
 21
122.18
  0
LINE
  8
0
 10
26.0317
 20
0.684235
 11
26.4027
 21
0.749649
  0
LINE
  8
0
 10
26.4027
 20
0.749649
 11
119.439
 21
20.2006
  0
LINE
  8
0
 10
119.439
 20
20.2006
 11
119.798
 21
20.312
  0
LINE
  8
0
 10
119.798
 20
20.312
 11
120.141
 21
20.4677
  0
LINE
  8
0
 10
120.141
 20
20.4677
 11
120.462
 21
20.6651
  0
LINE
  8
0
 10
120.462
 20
20.6651
 11
120.756
 21
20.9012
  0
LINE
  8
0
 10
120.756
 20
20.9012
 11
121.018
 21
21.1721
  0
LINE
  8
0
 10
121.018
 20
21.1721
 11
121.243
 21
21.4738
  0
LINE
  8
0
 10
121.243
 20
21.4738
 11
121.429
 21
21.8014
  0
LINE
  8
0
 10
121.429
 20
21.8014
 11
121.573
 21
22.1497
  0
LINE
  8
0
 10
121.573
 20
22.1497
 11
121.672
 21
22.5133
  0
LINE
  8
0
 10
121.672
 20
22.5133
 11
121.724
 21
22.8864
  0
LINE
  8
0
 10
121.724
 20
22.8864
 11
121.729
 21
23.2631
  0
LINE
  8
0
 10
121.729
 20
23.2631
 11
121.688
 21
23.6375
  0
LINE
  8
0
 10
121.688
 20
23.6375
 11
108.49
 21
98.4829
  0
LINE
  8
0
 10
108.49
 20
98.4829
 11
108.402
 21
98.849
  0
LINE
  8
0
 10
108.402
 20
98.849
 11
108.268
 21
99.2012
  0
LINE
  8
0
 10
108.268
 20
99.2012
 11
108.091
 21
99.5339
  0
LINE
  8
0
 10
108.091
 20
99.5339
 11
107.874
 21
99.8417
  0
LINE
  8
0
 10
107.874
 20
99.8417
 11
107.62
 21
100.12
  0
LINE
  8
0
 10
107.62
 20
100.12
 11
107.333
 21
100.364
  0
LINE
  8
0
 10
107.333
 20
100.364
 11
107.018
 21
100.57
  0
LINE
  8
0
 10
107.018
 20
100.57
 11
106.679
 21
100.736
  0
LINE
  8
0
 10
106.679
 20
100.736
 11
106.322
 21
100.857
  0
LINE
  8
0
 10
106.322
 20
100.857
 11
105.953
 21
100.933
  0
LINE
  8
0
 10
105.953
 20
100.933
 11
105.578
 21
100.962
  0
LINE
  8
0
 10
105.578
 20
100.962
 11
10
 21
100.962
  0
LINE
  8
0
 10
10
 20
100.962
 11
10
 21
49
  0
LINE
  8
0
 10
10
 20
49
 11
-10
 21
49
  0
LINE
  8
0
 10
-10
 20
49
 11
-10
 21
100.962
  0
LINE
  8
0
 10
-10
 20
100.962
 11
-105.578
 21
100.962
  0
LINE
  8
0
 10
-105.578
 20
100.962
 11
-105.953
 21
100.933
  0
LINE
  8
0
 10
-105.953
 20
100.933
 11
-106.322
 21
100.857
  0
LINE
  8
0
 10
-106.322
 20
100.857
 11
-106.679
 21
100.736
  0
LINE
  8
0
 10
-106.679
 20
100.736
 11
-107.018
 21
100.57
  0
LINE
  8
0
 10
-107.018
 20
100.57
 11
-107.333
 21
100.364
  0
LINE
  8
0
 10
-107.333
 20
100.364
 11
-107.62
 21
100.12
  0
LINE
  8
0
 10
-107.62
 20
100.12
 11
-107.874
 21
99.8417
  0
LINE
  8
0
 10
-107.874
 20
99.8417
 11
-108.091
 21
99.5339
  0
LINE
  8
0
 10
-108.091
 20
99.5339
 11
-108.268
 21
99.2012
  0
LINE
  8
0
 10
-108.268
 20
99.2012
 11
-108.402
 21
98.849
  0
LINE
  8
0
 10
-108.402
 20
98.849
 11
-108.49
 21
98.4829
  0
LINE
  8
0
 10
-108.49
 20
98.4829
 11
-121.688
 21
23.6375
  0
LINE
  8
0
 10
-121.688
 20
23.6375
 11
-121.729
 21
23.2631
  0
LINE
  8
0
 10
-121.729
 20
23.2631
 11
-121.724
 21
22.8864
  0
LINE
  8
0
 10
-121.724
 20
22.8864
 11
-121.672
 21
22.5133
  0
LINE
  8
0
 10
-121.672
 20
22.5133
 11
-121.573
 21
22.1497
  0
LINE
  8
0
 10
-121.573
 20
22.1497
 11
-121.429
 21
21.8014
  0
LINE
  8
0
 10
-121.429
 20
21.8014
 11
-121.243
 21
21.4738
  0
LINE
  8
0
 10
-121.243
 20
21.4738
 11
-121.018
 21
21.1721
  0
LINE
  8
0
 10
-121.018
 20
21.1721
 11
-120.756
 21
20.9012
  0
LINE
  8
0
 10
-120.756
 20
20.9012
 11
-120.462
 21
20.6651
  0
LINE
  8
0
 10
-120.462
 20
20.6651
 11
-120.141
 21
20.4677
  0
LINE
  8
0
 10
-120.141
 20
20.4677
 11
-119.798
 21
20.312
  0
LINE
  8
0
 10
-119.798
 20
20.312
 11
-119.439
 21
20.2006
  0
LINE
  8
0
 10
-119.439
 20
20.2006
 11
-26.4027
 21
0.749649
  0
LINE
  8
0
 10
-26.4027
 20
0.749649
 11
-26.0317
 21
0.684235
  0
LINE
  8
0
 10
-26.0317
 20
0.684235
 11
-25.6554
 21
0.665833
  0
LINE
  8
0
 10
-25.6554
 20
0.665833
 11
25.6554
 21
0.665833
  0
LINE
  8
0
 10
25.6554
 20
0.665833
 11
26.0317
 21
0.684235
  0
LINE
  8
0
 10
-20.0942
 20
96.5029
 11
-20.2811
 21
96.5266
  0
LINE
  8
0
 10
-20.2811
 20
96.5266
 11
-20.4635
 21
96.5734
  0
LINE
  8
0
 10
-20.4635
 20
96.5734
 11
-20.6387
 21
96.6427
  0
LINE
  8
0
 10
-20.6387
 20
96.6427
 11
-20.8037
 21
96.7335
  0
LINE
  8
0
 10
-20.8037
 20
96.7335
 11
-20.9561
 21
96.8442
  0
LINE
  8
0
 10
-20.9561
 20
96.8442
 11
-21.0934
 21
96.9732
  0
LINE
  8
0
 10
-21.0934
 20
96.9732
 11
-21.2135
 21
97.1183
  0
LINE
  8
0
 10
-21.2135
 20
97.1183
 11
-21.3145
 21
97.2774
  0
LINE
  8
0
 10
-21.3145
 20
97.2774
 11
-21.3947
 21
97.4478
  0
LINE
  8
0
 10
-21.3947
 20
97.4478
 11
-21.4529
 21
97.627
  0
LINE
  8
0
 10
-21.4529
 20
97.627
 11
-21.4882
 21
97.812
  0
LINE
  8
0
 10
-21.4882
 20
97.812
 11
-21.5
 21
98
  0
LINE
  8
0
 10
-21.5
 20
98
 11
-21.4882
 21
98.188
  0
LINE
  8
0
 10
-21.4882
 20
98.188
 11
-21.4529
 21
98.373
  0
LINE
  8
0
 10
-21.4529
 20
98.373
 11
-21.3947
 21
98.5522
  0
LINE
  8
0
 10
-21.3947
 20
98.5522
 11
-21.3145
 21
98.7226
  0
LINE
  8
0
 10
-21.3145
 20
98.7226
 11
-21.2135
 21
98.8817
  0
LINE
  8
0
 10
-21.2135
 20
98.8817
 11
-21.0934
 21
99.0268
  0
LINE
  8
0
 10
-21.0934
 20
99.0268
 11
-20.9561
 21
99.1558
  0
LINE
  8
0
 10
-20.9561
 20
99.1558
 11
-20.8037
 21
99.2665
  0
LINE
  8
0
 10
-20.8037
 20
99.2665
 11
-20.6387
 21
99.3572
  0
LINE
  8
0
 10
-20.6387
 20
99.3572
 11
-20.4635
 21
99.4266
  0
LINE
  8
0
 10
-20.4635
 20
99.4266
 11
-20.2811
 21
99.4734
  0
LINE
  8
0
 10
-20.2811
 20
99.4734
 11
-20.0942
 21
99.497
  0
LINE
  8
0
 10
-20.0942
 20
99.497
 11
-19.9058
 21
99.497
  0
LINE
  8
0
 10
-19.9058
 20
99.497
 11
-19.7189
 21
99.4734
  0
LINE
  8
0
 10
-19.7189
 20
99.4734
 11
-19.5365
 21
99.4266
  0
LINE
  8
0
 10
-19.5365
 20
99.4266
 11
-19.3613
 21
99.3572
  0
LINE
  8
0
 10
-19.3613
 20
99.3572
 11
-19.1963
 21
99.2665
  0
LINE
  8
0
 10
-19.1963
 20
99.2665
 11
-19.0439
 21
99.1558
  0
LINE
  8
0
 10
-19.0439
 20
99.1558
 11
-18.9065
 21
99.0268
  0
LINE
  8
0
 10
-18.9065
 20
99.0268
 11
-18.7865
 21
98.8817
  0
LINE
  8
0
 10
-18.7865
 20
98.8817
 11
-18.6855
 21
98.7226
  0
LINE
  8
0
 10
-18.6855
 20
98.7226
 11
-18.6053
 21
98.5522
  0
LINE
  8
0
 10
-18.6053
 20
98.5522
 11
-18.5471
 21
98.373
  0
LINE
  8
0
 10
-18.5471
 20
98.373
 11
-18.5118
 21
98.188
  0
LINE
  8
0
 10
-18.5118
 20
98.188
 11
-18.5
 21
98
  0
LINE
  8
0
 10
-18.5
 20
98
 11
-18.5118
 21
97.812
  0
LINE
  8
0
 10
-18.5118
 20
97.812
 11
-18.5471
 21
97.627
  0
LINE
  8
0
 10
-18.5471
 20
97.627
 11
-18.6053
 21
97.4478
  0
LINE
  8
0
 10
-18.6053
 20
97.4478
 11
-18.6855
 21
97.2774
  0
LINE
  8
0
 10
-18.6855
 20
97.2774
 11
-18.7865
 21
97.1183
  0
LINE
  8
0
 10
-18.7865
 20
97.1183
 11
-18.9065
 21
96.9732
  0
LINE
  8
0
 10
-18.9065
 20
96.9732
 11
-19.0439
 21
96.8442
  0
LINE
  8
0
 10
-19.0439
 20
96.8442
 11
-19.1963
 21
96.7335
  0
LINE
  8
0
 10
-19.1963
 20
96.7335
 11
-19.3613
 21
96.6427
  0
LINE
  8
0
 10
-19.3613
 20
96.6427
 11
-19.5365
 21
96.5734
  0
LINE
  8
0
 10
-19.5365
 20
96.5734
 11
-19.7189
 21
96.5266
  0
LINE
  8
0
 10
-19.7189
 20
96.5266
 11
-19.9058
 21
96.5029
  0
LINE
  8
0
 10
-19.9058
 20
96.5029
 11
-20.0942
 21
96.5029
  0
LINE
  8
0
 10
19.9058
 20
96.5029
 11
19.7189
 21
96.5266
  0
LINE
  8
0
 10
19.7189
 20
96.5266
 11
19.5365
 21
96.5734
  0
LINE
  8
0
 10
19.5365
 20
96.5734
 11
19.3613
 21
96.6427
  0
LINE
  8
0
 10
19.3613
 20
96.6427
 11
19.1963
 21
96.7335
  0
LINE
  8
0
 10
19.1963
 20
96.7335
 11
19.0439
 21
96.8442
  0
LINE
  8
0
 10
19.0439
 20
96.8442
 11
18.9065
 21
96.9732
  0
LINE
  8
0
 10
18.9065
 20
96.9732
 11
18.7865
 21
97.1183
  0
LINE
  8
0
 10
18.7865
 20
97.1183
 11
18.6855
 21
97.2774
  0
LINE
  8
0
 10
18.6855
 20
97.2774
 11
18.6053
 21
97.4478
  0
LINE
  8
0
 10
18.6053
 20
97.4478
 11
18.5471
 21
97.627
  0
LINE
  8
0
 10
18.5471
 20
97.627
 11
18.5118
 21
97.812
  0
LINE
  8
0
 10
18.5118
 20
97.812
 11
18.5
 21
98
  0
LINE
  8
0
 10
18.5
 20
98
 11
18.5118
 21
98.188
  0
LINE
  8
0
 10
18.5118
 20
98.188
 11
18.5471
 21
98.373
  0
LINE
  8
0
 10
18.5471
 20
98.373
 11
18.6053
 21
98.5522
  0
LINE
  8
0
 10
18.6053
 20
98.5522
 11
18.6855
 21
98.7226
  0
LINE
  8
0
 10
18.6855
 20
98.7226
 11
18.7865
 21
98.8817
  0
LINE
  8
0
 10
18.7865
 20
98.8817
 11
18.9065
 21
99.0268
  0
LINE
  8
0
 10
18.9065
 20
99.0268
 11
19.0439
 21
99.1558
  0
LINE
  8
0
 10
19.0439
 20
99.1558
 11
19.1963
 21
99.2665
  0
LINE
  8
0
 10
19.1963
 20
99.2665
 11
19.3613
 21
99.3572
  0
LINE
  8
0
 10
19.3613
 20
99.3572
 11
19.5365
 21
99.4266
  0
LINE
  8
0
 10
19.5365
 20
99.4266
 11
19.7189
 21
99.4734
  0
LINE
  8
0
 10
19.7189
 20
99.4734
 11
19.9058
 21
99.497
  0
LINE
  8
0
 10
19.9058
 20
99.497
 11
20.0942
 21
99.497
  0
LINE
  8
0
 10
20.0942
 20
99.497
 11
20.2811
 21
99.4734
  0
LINE
  8
0
 10
20.2811
 20
99.4734
 11
20.4635
 21
99.4266
  0
LINE
  8
0
 10
20.4635
 20
99.4266
 11
20.6387
 21
99.3572
  0
LINE
  8
0
 10
20.6387
 20
99.3572
 11
20.8037
 21
99.2665
  0
LINE
  8
0
 10
20.8037
 20
99.2665
 11
20.9561
 21
99.1558
  0
LINE
  8
0
 10
20.9561
 20
99.1558
 11
21.0934
 21
99.0268
  0
LINE
  8
0
 10
21.0934
 20
99.0268
 11
21.2135
 21
98.8817
  0
LINE
  8
0
 10
21.2135
 20
98.8817
 11
21.3145
 21
98.7226
  0
LINE
  8
0
 10
21.3145
 20
98.7226
 11
21.3947
 21
98.5522
  0
LINE
  8
0
 10
21.3947
 20
98.5522
 11
21.4529
 21
98.373
  0
LINE
  8
0
 10
21.4529
 20
98.373
 11
21.4882
 21
98.188
  0
LINE
  8
0
 10
21.4882
 20
98.188
 11
21.5
 21
98
  0
LINE
  8
0
 10
21.5
 20
98
 11
21.4882
 21
97.812
  0
LINE
  8
0
 10
21.4882
 20
97.812
 11
21.4529
 21
97.627
  0
LINE
  8
0
 10
21.4529
 20
97.627
 11
21.3947
 21
97.4478
  0
LINE
  8
0
 10
21.3947
 20
97.4478
 11
21.3145
 21
97.2774
  0
LINE
  8
0
 10
21.3145
 20
97.2774
 11
21.2135
 21
97.1183
  0
LINE
  8
0
 10
21.2135
 20
97.1183
 11
21.0934
 21
96.9732
  0
LINE
  8
0
 10
21.0934
 20
96.9732
 11
20.9561
 21
96.8442
  0
LINE
  8
0
 10
20.9561
 20
96.8442
 11
20.8037
 21
96.7335
  0
LINE
  8
0
 10
20.8037
 20
96.7335
 11
20.6387
 21
96.6427
  0
LINE
  8
0
 10
20.6387
 20
96.6427
 11
20.4635
 21
96.5734
  0
LINE
  8
0
 10
20.4635
 20
96.5734
 11
20.2811
 21
96.5266
  0
LINE
  8
0
 10
20.2811
 20
96.5266
 11
20.0942
 21
96.5029
  0
LINE
  8
0
 10
20.0942
 20
96.5029
 11
19.9058
 21
96.5029
  0
LINE
  8
0
 10
-105.703
 20
96.4713
 11
-105.889
 21
96.504
  0
LINE
  8
0
 10
-105.889
 20
96.504
 11
-106.068
 21
96.5597
  0
LINE
  8
0
 10
-106.068
 20
96.5597
 11
-106.24
 21
96.6375
  0
LINE
  8
0
 10
-106.24
 20
96.6375
 11
-106.4
 21
96.7362
  0
LINE
  8
0
 10
-106.4
 20
96.7362
 11
-106.547
 21
96.8542
  0
LINE
  8
0
 10
-106.547
 20
96.8542
 11
-106.678
 21
96.9897
  0
LINE
  8
0
 10
-106.678
 20
96.9897
 11
-106.791
 21
97.1406
  0
LINE
  8
0
 10
-106.791
 20
97.1406
 11
-106.884
 21
97.3044
  0
LINE
  8
0
 10
-106.884
 20
97.3044
 11
-106.956
 21
97.4785
  0
LINE
  8
0
 10
-106.956
 20
97.4785
 11
-107.005
 21
97.6603
  0
LINE
  8
0
 10
-107.005
 20
97.6603
 11
-107.031
 21
97.8468
  0
LINE
  8
0
 10
-107.031
 20
97.8468
 11
-107.034
 21
98.0352
  0
LINE
  8
0
 10
-107.034
 20
98.0352
 11
-107.013
 21
98.2224
  0
LINE
  8
0
 10
-107.013
 20
98.2224
 11
-106.969
 21
98.4055
  0
LINE
  8
0
 10
-106.969
 20
98.4055
 11
-106.902
 21
98.5816
  0
LINE
  8
0
 10
-106.902
 20
98.5816
 11
-106.813
 21
98.7479
  0
LINE
  8
0
 10
-106.813
 20
98.7479
 11
-106.705
 21
98.9018
  0
LINE
  8
0
 10
-106.705
 20
98.9018
 11
-106.578
 21
99.0409
  0
LINE
  8
0
 10
-106.578
 20
99.0409
 11
-106.434
 21
99.163
  0
LINE
  8
0
 10
-106.434
 20
99.163
 11
-106.277
 21
99.2662
  0
LINE
  8
0
 10
-106.277
 20
99.2662
 11
-106.107
 21
99.3487
  0
LINE
  8
0
 10
-106.107
 20
99.3487
 11
-105.929
 21
99.4094
  0
LINE
  8
0
 10
-105.929
 20
99.4094
 11
-105.745
 21
99.4473
  0
LINE
  8
0
 10
-105.745
 20
99.4473
 11
-105.557
 21
99.4618
  0
LINE
  8
0
 10
-105.557
 20
99.4618
 11
-105.369
 21
99.4526
  0
LINE
  8
0
 10
-105.369
 20
99.4526
 11
-105.183
 21
99.4199
  0
LINE
  8
0
 10
-105.183
 20
99.4199
 11
-105.003
 21
99.3642
  0
LINE
  8
0
 10
-105.003
 20
99.3642
 11
-104.832
 21
99.2863
  0
LINE
  8
0
 10
-104.832
 20
99.2863
 11
-104.671
 21
99.1876
  0
LINE
  8
0
 10
-104.671
 20
99.1876
 11
-104.524
 21
99.0696
  0
LINE
  8
0
 10
-104.524
 20
99.0696
 11
-104.394
 21
98.9341
  0
LINE
  8
0
 10
-104.394
 20
98.9341
 11
-104.281
 21
98.7832
  0
LINE
  8
0
 10
-104.281
 20
98.7832
 11
-104.188
 21
98.6195
  0
LINE
  8
0
 10
-104.188
 20
98.6195
 11
-104.116
 21
98.4453
  0
LINE
  8
0
 10
-104.116
 20
98.4453
 11
-104.066
 21
98.2635
  0
LINE
  8
0
 10
-104.066
 20
98.2635
 11
-104.04
 21
98.077
  0
LINE
  8
0
 10
-104.04
 20
98.077
 11
-104.038
 21
97.8886
  0
LINE
  8
0
 10
-104.038
 20
97.8886
 11
-104.059
 21
97.7014
  0
LINE
  8
0
 10
-104.059
 20
97.7014
 11
-104.103
 21
97.5184
  0
LINE
  8
0
 10
-104.103
 20
97.5184
 11
-104.17
 21
97.3423
  0
LINE
  8
0
 10
-104.17
 20
97.3423
 11
-104.258
 21
97.1759
  0
LINE
  8
0
 10
-104.258
 20
97.1759
 11
-104.367
 21
97.022
  0
LINE
  8
0
 10
-104.367
 20
97.022
 11
-104.494
 21
96.8829
  0
LINE
  8
0
 10
-104.494
 20
96.8829
 11
-104.637
 21
96.7608
  0
LINE
  8
0
 10
-104.637
 20
96.7608
 11
-104.795
 21
96.6577
  0
LINE
  8
0
 10
-104.795
 20
96.6577
 11
-104.964
 21
96.5751
  0
LINE
  8
0
 10
-104.964
 20
96.5751
 11
-105.143
 21
96.5144
  0
LINE
  8
0
 10
-105.143
 20
96.5144
 11
-105.327
 21
96.4765
  0
LINE
  8
0
 10
-105.327
 20
96.4765
 11
-105.515
 21
96.4621
  0
LINE
  8
0
 10
-105.515
 20
96.4621
 11
-105.703
 21
96.4713
  0
LINE
  8
0
 10
105.327
 20
96.4765
 11
105.143
 21
96.5144
  0
LINE
  8
0
 10
105.143
 20
96.5144
 11
104.964
 21
96.5751
  0
LINE
  8
0
 10
104.964
 20
96.5751
 11
104.795
 21
96.6577
  0
LINE
  8
0
 10
104.795
 20
96.6577
 11
104.637
 21
96.7608
  0
LINE
  8
0
 10
104.637
 20
96.7608
 11
104.494
 21
96.8829
  0
LINE
  8
0
 10
104.494
 20
96.8829
 11
104.367
 21
97.022
  0
LINE
  8
0
 10
104.367
 20
97.022
 11
104.258
 21
97.1759
  0
LINE
  8
0
 10
104.258
 20
97.1759
 11
104.17
 21
97.3423
  0
LINE
  8
0
 10
104.17
 20
97.3423
 11
104.103
 21
97.5184
  0
LINE
  8
0
 10
104.103
 20
97.5184
 11
104.059
 21
97.7014
  0
LINE
  8
0
 10
104.059
 20
97.7014
 11
104.038
 21
97.8886
  0
LINE
  8
0
 10
104.038
 20
97.8886
 11
104.04
 21
98.077
  0
LINE
  8
0
 10
104.04
 20
98.077
 11
104.066
 21
98.2635
  0
LINE
  8
0
 10
104.066
 20
98.2635
 11
104.116
 21
98.4453
  0
LINE
  8
0
 10
104.116
 20
98.4453
 11
104.188
 21
98.6195
  0
LINE
  8
0
 10
104.188
 20
98.6195
 11
104.281
 21
98.7832
  0
LINE
  8
0
 10
104.281
 20
98.7832
 11
104.394
 21
98.9341
  0
LINE
  8
0
 10
104.394
 20
98.9341
 11
104.524
 21
99.0696
  0
LINE
  8
0
 10
104.524
 20
99.0696
 11
104.671
 21
99.1876
  0
LINE
  8
0
 10
104.671
 20
99.1876
 11
104.832
 21
99.2863
  0
LINE
  8
0
 10
104.832
 20
99.2863
 11
105.003
 21
99.3642
  0
LINE
  8
0
 10
105.003
 20
99.3642
 11
105.183
 21
99.4199
  0
LINE
  8
0
 10
105.183
 20
99.4199
 11
105.369
 21
99.4526
  0
LINE
  8
0
 10
105.369
 20
99.4526
 11
105.557
 21
99.4618
  0
LINE
  8
0
 10
105.557
 20
99.4618
 11
105.745
 21
99.4473
  0
LINE
  8
0
 10
105.745
 20
99.4473
 11
105.929
 21
99.4094
  0
LINE
  8
0
 10
105.929
 20
99.4094
 11
106.107
 21
99.3487
  0
LINE
  8
0
 10
106.107
 20
99.3487
 11
106.277
 21
99.2662
  0
LINE
  8
0
 10
106.277
 20
99.2662
 11
106.434
 21
99.163
  0
LINE
  8
0
 10
106.434
 20
99.163
 11
106.578
 21
99.0409
  0
LINE
  8
0
 10
106.578
 20
99.0409
 11
106.705
 21
98.9018
  0
LINE
  8
0
 10
106.705
 20
98.9018
 11
106.813
 21
98.7479
  0
LINE
  8
0
 10
106.813
 20
98.7479
 11
106.902
 21
98.5816
  0
LINE
  8
0
 10
106.902
 20
98.5816
 11
106.969
 21
98.4055
  0
LINE
  8
0
 10
106.969
 20
98.4055
 11
107.013
 21
98.2224
  0
LINE
  8
0
 10
107.013
 20
98.2224
 11
107.034
 21
98.0352
  0
LINE
  8
0
 10
107.034
 20
98.0352
 11
107.031
 21
97.8468
  0
LINE
  8
0
 10
107.031
 20
97.8468
 11
107.005
 21
97.6603
  0
LINE
  8
0
 10
107.005
 20
97.6603
 11
106.956
 21
97.4785
  0
LINE
  8
0
 10
106.956
 20
97.4785
 11
106.884
 21
97.3044
  0
LINE
  8
0
 10
106.884
 20
97.3044
 11
106.791
 21
97.1406
  0
LINE
  8
0
 10
106.791
 20
97.1406
 11
106.678
 21
96.9897
  0
LINE
  8
0
 10
106.678
 20
96.9897
 11
106.547
 21
96.8542
  0
LINE
  8
0
 10
106.547
 20
96.8542
 11
106.4
 21
96.7362
  0
LINE
  8
0
 10
106.4
 20
96.7362
 11
106.24
 21
96.6375
  0
LINE
  8
0
 10
106.24
 20
96.6375
 11
106.068
 21
96.5597
  0
LINE
  8
0
 10
106.068
 20
96.5597
 11
105.889
 21
96.504
  0
LINE
  8
0
 10
105.889
 20
96.504
 11
105.703
 21
96.4713
  0
LINE
  8
0
 10
105.703
 20
96.4713
 11
105.515
 21
96.4621
  0
LINE
  8
0
 10
105.515
 20
96.4621
 11
105.327
 21
96.4765
  0
LINE
  8
0
 10
50.9261
 20
93.9024
 11
64.6839
 21
96.3282
  0
LINE
  8
0
 10
64.6839
 20
96.3282
 11
67.1097
 21
82.5705
  0
LINE
  8
0
 10
67.1097
 20
82.5705
 11
53.352
 21
80.1446
  0
LINE
  8
0
 10
53.352
 20
80.1446
 11
50.9261
 21
93.9024
  0
LINE
  8
0
 10
-67.1097
 20
82.5705
 11
-64.6839
 21
96.3282
  0
LINE
  8
0
 10
-64.6839
 20
96.3282
 11
-50.9261
 21
93.9024
  0
LINE
  8
0
 10
-50.9261
 20
93.9024
 11
-53.352
 21
80.1446
  0
LINE
  8
0
 10
-53.352
 20
80.1446
 11
-67.1097
 21
82.5705
  0
LINE
  8
0
 10
89.738
 20
92.6225
 11
103.496
 21
95.0484
  0
LINE
  8
0
 10
103.496
 20
95.0484
 11
105.922
 21
81.2906
  0
LINE
  8
0
 10
105.922
 20
81.2906
 11
92.1639
 21
78.8648
  0
LINE
  8
0
 10
92.1639
 20
78.8648
 11
89.738
 21
92.6225
  0
LINE
  8
0
 10
-105.922
 20
81.2906
 11
-103.496
 21
95.0484
  0
LINE
  8
0
 10
-103.496
 20
95.0484
 11
-89.738
 21
92.6225
  0
LINE
  8
0
 10
-89.738
 20
92.6225
 11
-92.1639
 21
78.8648
  0
LINE
  8
0
 10
-92.1639
 20
78.8648
 11
-105.922
 21
81.2906
  0
LINE
  8
0
 10
70.5057
 20
92.2776
 11
84.2635
 21
94.7035
  0
LINE
  8
0
 10
84.2635
 20
94.7035
 11
86.6893
 21
80.9457
  0
LINE
  8
0
 10
86.6893
 20
80.9457
 11
72.9316
 21
78.5199
  0
LINE
  8
0
 10
72.9316
 20
78.5199
 11
70.5057
 21
92.2776
  0
LINE
  8
0
 10
-86.6893
 20
80.9457
 11
-84.2635
 21
94.7035
  0
LINE
  8
0
 10
-84.2635
 20
94.7035
 11
-70.5057
 21
92.2776
  0
LINE
  8
0
 10
-70.5057
 20
92.2776
 11
-72.9316
 21
78.5199
  0
LINE
  8
0
 10
-72.9316
 20
78.5199
 11
-86.6893
 21
80.9457
  0
LINE
  8
0
 10
33.2567
 20
84.6942
 11
47.0144
 21
87.1201
  0
LINE
  8
0
 10
47.0144
 20
87.1201
 11
49.4403
 21
73.3623
  0
LINE
  8
0
 10
49.4403
 20
73.3623
 11
35.6825
 21
70.9364
  0
LINE
  8
0
 10
35.6825
 20
70.9364
 11
33.2567
 21
84.6942
  0
LINE
  8
0
 10
-49.4403
 20
73.3623
 11
-47.0144
 21
87.1201
  0
LINE
  8
0
 10
-47.0144
 20
87.1201
 11
-33.2567
 21
84.6942
  0
LINE
  8
0
 10
-33.2567
 20
84.6942
 11
-35.6825
 21
70.9364
  0
LINE
  8
0
 10
-35.6825
 20
70.9364
 11
-49.4403
 21
73.3623
  0
LINE
  8
0
 10
-31.5972
 20
65.1389
 11
-29.1713
 21
78.8967
  0
LINE
  8
0
 10
-29.1713
 20
78.8967
 11
-15.4136
 21
76.4708
  0
LINE
  8
0
 10
-15.4136
 20
76.4708
 11
-17.8394
 21
62.7131
  0
LINE
  8
0
 10
-17.8394
 20
62.7131
 11
-31.5972
 21
65.1389
  0
LINE
  8
0
 10
15.4136
 20
76.4708
 11
29.1713
 21
78.8967
  0
LINE
  8
0
 10
29.1713
 20
78.8967
 11
31.5972
 21
65.1389
  0
LINE
  8
0
 10
31.5972
 20
65.1389
 11
17.8394
 21
62.7131
  0
LINE
  8
0
 10
17.8394
 20
62.7131
 11
15.4136
 21
76.4708
  0
LINE
  8
0
 10
-70.409
 20
63.8591
 11
-67.9832
 21
77.6169
  0
LINE
  8
0
 10
-67.9832
 20
77.6169
 11
-54.2254
 21
75.191
  0
LINE
  8
0
 10
-54.2254
 20
75.191
 11
-56.6513
 21
61.4333
  0
LINE
  8
0
 10
-56.6513
 20
61.4333
 11
-70.409
 21
63.8591
  0
LINE
  8
0
 10
54.2254
 20
75.191
 11
67.9832
 21
77.6169
  0
LINE
  8
0
 10
67.9832
 20
77.6169
 11
70.409
 21
63.8591
  0
LINE
  8
0
 10
70.409
 20
63.8591
 11
56.6513
 21
61.4333
  0
LINE
  8
0
 10
56.6513
 20
61.4333
 11
54.2254
 21
75.191
  0
LINE
  8
0
 10
93.0373
 20
73.9112
 11
106.795
 21
76.337
  0
LINE
  8
0
 10
106.795
 20
76.337
 11
109.221
 21
62.5793
  0
LINE
  8
0
 10
109.221
 20
62.5793
 11
95.4632
 21
60.1534
  0
LINE
  8
0
 10
95.4632
 20
60.1534
 11
93.0373
 21
73.9112
  0
LINE
  8
0
 10
-109.221
 20
62.5793
 11
-106.795
 21
76.337
  0
LINE
  8
0
 10
-106.795
 20
76.337
 11
-93.0373
 21
73.9112
  0
LINE
  8
0
 10
-93.0373
 20
73.9112
 11
-95.4632
 21
60.1534
  0
LINE
  8
0
 10
-95.4632
 20
60.1534
 11
-109.221
 21
62.5793
  0
LINE
  8
0
 10
73.805
 20
73.5663
 11
87.5628
 21
75.9921
  0
LINE
  8
0
 10
87.5628
 20
75.9921
 11
89.9886
 21
62.2344
  0
LINE
  8
0
 10
89.9886
 20
62.2344
 11
76.2309
 21
59.8085
  0
LINE
  8
0
 10
76.2309
 20
59.8085
 11
73.805
 21
73.5663
  0
LINE
  8
0
 10
-89.9886
 20
62.2344
 11
-87.5628
 21
75.9921
  0
LINE
  8
0
 10
-87.5628
 20
75.9921
 11
-73.805
 21
73.5663
  0
LINE
  8
0
 10
-73.805
 20
73.5663
 11
-76.2309
 21
59.8085
  0
LINE
  8
0
 10
-76.2309
 20
59.8085
 11
-89.9886
 21
62.2344
  0
LINE
  8
0
 10
36.556
 20
65.9828
 11
50.3137
 21
68.4087
  0
LINE
  8
0
 10
50.3137
 20
68.4087
 11
52.7396
 21
54.651
  0
LINE
  8
0
 10
52.7396
 20
54.651
 11
38.9818
 21
52.2251
  0
LINE
  8
0
 10
38.9818
 20
52.2251
 11
36.556
 21
65.9828
  0
LINE
  8
0
 10
-52.7396
 20
54.651
 11
-50.3137
 21
68.4087
  0
LINE
  8
0
 10
-50.3137
 20
68.4087
 11
-36.556
 21
65.9828
  0
LINE
  8
0
 10
-36.556
 20
65.9828
 11
-38.9818
 21
52.2251
  0
LINE
  8
0
 10
-38.9818
 20
52.2251
 11
-52.7396
 21
54.651
  0
LINE
  8
0
 10
-34.8965
 20
46.4276
 11
-32.4706
 21
60.1853
  0
LINE
  8
0
 10
-32.4706
 20
60.1853
 11
-18.7129
 21
57.7595
  0
LINE
  8
0
 10
-18.7129
 20
57.7595
 11
-21.1387
 21
44.0017
  0
LINE
  8
0
 10
-21.1387
 20
44.0017
 11
-34.8965
 21
46.4276
  0
LINE
  8
0
 10
18.7129
 20
57.7595
 11
32.4706
 21
60.1853
  0
LINE
  8
0
 10
32.4706
 20
60.1853
 11
34.8965
 21
46.4276
  0
LINE
  8
0
 10
34.8965
 20
46.4276
 11
21.1387
 21
44.0017
  0
LINE
  8
0
 10
21.1387
 20
44.0017
 11
18.7129
 21
57.7595
  0
LINE
  8
0
 10
-73.7084
 20
45.1478
 11
-71.2825
 21
58.9055
  0
LINE
  8
0
 10
-71.2825
 20
58.9055
 11
-57.5248
 21
56.4797
  0
LINE
  8
0
 10
-57.5248
 20
56.4797
 11
-59.9506
 21
42.7219
  0
LINE
  8
0
 10
-59.9506
 20
42.7219
 11
-73.7084
 21
45.1478
  0
LINE
  8
0
 10
57.5248
 20
56.4797
 11
71.2825
 21
58.9055
  0
LINE
  8
0
 10
71.2825
 20
58.9055
 11
73.7084
 21
45.1478
  0
LINE
  8
0
 10
73.7084
 20
45.1478
 11
59.9506
 21
42.7219
  0
LINE
  8
0
 10
59.9506
 20
42.7219
 11
57.5248
 21
56.4797
  0
LINE
  8
0
 10
-112.52
 20
43.8679
 11
-110.094
 21
57.6257
  0
LINE
  8
0
 10
-110.094
 20
57.6257
 11
-96.3366
 21
55.1998
  0
LINE
  8
0
 10
-96.3366
 20
55.1998
 11
-98.7625
 21
41.4421
  0
LINE
  8
0
 10
-98.7625
 20
41.4421
 11
-112.52
 21
43.8679
  0
LINE
  8
0
 10
96.3366
 20
55.1998
 11
110.094
 21
57.6257
  0
LINE
  8
0
 10
110.094
 20
57.6257
 11
112.52
 21
43.8679
  0
LINE
  8
0
 10
112.52
 20
43.8679
 11
98.7625
 21
41.4421
  0
LINE
  8
0
 10
98.7625
 20
41.4421
 11
96.3366
 21
55.1998
  0
LINE
  8
0
 10
-93.2879
 20
43.5231
 11
-90.8621
 21
57.2808
  0
LINE
  8
0
 10
-90.8621
 20
57.2808
 11
-77.1044
 21
54.8549
  0
LINE
  8
0
 10
-77.1044
 20
54.8549
 11
-79.5302
 21
41.0972
  0
LINE
  8
0
 10
-79.5302
 20
41.0972
 11
-93.2879
 21
43.5231
  0
LINE
  8
0
 10
77.1044
 20
54.8549
 11
90.8621
 21
57.2808
  0
LINE
  8
0
 10
90.8621
 20
57.2808
 11
93.2879
 21
43.5231
  0
LINE
  8
0
 10
93.2879
 20
43.5231
 11
79.5302
 21
41.0972
  0
LINE
  8
0
 10
79.5302
 20
41.0972
 11
77.1044
 21
54.8549
  0
LINE
  8
0
 10
39.8553
 20
47.2715
 11
53.613
 21
49.6974
  0
LINE
  8
0
 10
53.613
 20
49.6974
 11
56.0389
 21
35.9396
  0
LINE
  8
0
 10
56.0389
 20
35.9396
 11
42.2812
 21
33.5137
  0
LINE
  8
0
 10
42.2812
 20
33.5137
 11
39.8553
 21
47.2715
  0
LINE
  8
0
 10
-56.0389
 20
35.9396
 11
-53.613
 21
49.6974
  0
LINE
  8
0
 10
-53.613
 20
49.6974
 11
-39.8553
 21
47.2715
  0
LINE
  8
0
 10
-39.8553
 20
47.2715
 11
-42.2812
 21
33.5137
  0
LINE
  8
0
 10
-42.2812
 20
33.5137
 11
-56.0389
 21
35.9396
  0
LINE
  8
0
 10
22.0122
 20
39.0481
 11
35.7699
 21
41.474
  0
LINE
  8
0
 10
35.7699
 20
41.474
 11
38.1958
 21
27.7163
  0
LINE
  8
0
 10
38.1958
 20
27.7163
 11
24.4381
 21
25.2904
  0
LINE
  8
0
 10
24.4381
 20
25.2904
 11
22.0122
 21
39.0481
  0
LINE
  8
0
 10
-38.1958
 20
27.7163
 11
-35.7699
 21
41.474
  0
LINE
  8
0
 10
-35.7699
 20
41.474
 11
-22.0122
 21
39.0481
  0
LINE
  8
0
 10
-22.0122
 20
39.0481
 11
-24.4381
 21
25.2904
  0
LINE
  8
0
 10
-24.4381
 20
25.2904
 11
-38.1958
 21
27.7163
  0
LINE
  8
0
 10
60.8241
 20
37.7683
 11
74.5818
 21
40.1942
  0
LINE
  8
0
 10
74.5818
 20
40.1942
 11
77.0077
 21
26.4364
  0
LINE
  8
0
 10
77.0077
 20
26.4364
 11
63.2499
 21
24.0106
  0
LINE
  8
0
 10
63.2499
 20
24.0106
 11
60.8241
 21
37.7683
  0
LINE
  8
0
 10
-77.0077
 20
26.4364
 11
-74.5818
 21
40.1942
  0
LINE
  8
0
 10
-74.5818
 20
40.1942
 11
-60.8241
 21
37.7683
  0
LINE
  8
0
 10
-60.8241
 20
37.7683
 11
-63.2499
 21
24.0106
  0
LINE
  8
0
 10
-63.2499
 20
24.0106
 11
-77.0077
 21
26.4364
  0
LINE
  8
0
 10
-19.3108
 20
25.4017
 11
-16.8849
 21
39.1595
  0
LINE
  8
0
 10
-16.8849
 20
39.1595
 11
-3.12718
 21
36.7336
  0
LINE
  8
0
 10
-3.12718
 20
36.7336
 11
-5.55305
 21
22.9759
  0
LINE
  8
0
 10
-5.55305
 20
22.9759
 11
-19.3108
 21
25.4017
  0
LINE
  8
0
 10
3.12718
 20
36.7336
 11
16.8849
 21
39.1595
  0
LINE
  8
0
 10
16.8849
 20
39.1595
 11
19.3108
 21
25.4017
  0
LINE
  8
0
 10
19.3108
 20
25.4017
 11
5.55305
 21
22.9759
  0
LINE
  8
0
 10
5.55305
 20
22.9759
 11
3.12718
 21
36.7336
  0
LINE
  8
0
 10
-115.82
 20
25.1566
 11
-113.394
 21
38.9143
  0
LINE
  8
0
 10
-113.394
 20
38.9143
 11
-99.636
 21
36.4885
  0
LINE
  8
0
 10
-99.636
 20
36.4885
 11
-102.062
 21
22.7307
  0
LINE
  8
0
 10
-102.062
 20
22.7307
 11
-115.82
 21
25.1566
  0
LINE
  8
0
 10
99.636
 20
36.4885
 11
113.394
 21
38.9143
  0
LINE
  8
0
 10
113.394
 20
38.9143
 11
115.82
 21
25.1566
  0
LINE
  8
0
 10
115.82
 20
25.1566
 11
102.062
 21
22.7307
  0
LINE
  8
0
 10
102.062
 20
22.7307
 11
99.636
 21
36.4885
  0
LINE
  8
0
 10
80.4037
 20
36.1436
 11
94.1614
 21
38.5695
  0
LINE
  8
0
 10
94.1614
 20
38.5695
 11
96.5873
 21
24.8117
  0
LINE
  8
0
 10
96.5873
 20
24.8117
 11
82.8295
 21
22.3859
  0
LINE
  8
0
 10
82.8295
 20
22.3859
 11
80.4037
 21
36.1436
  0
LINE
  8
0
 10
-96.5873
 20
24.8117
 11
-94.1614
 21
38.5695
  0
LINE
  8
0
 10
-94.1614
 20
38.5695
 11
-80.4037
 21
36.1436
  0
LINE
  8
0
 10
-80.4037
 20
36.1436
 11
-82.8295
 21
22.3859
  0
LINE
  8
0
 10
-82.8295
 20
22.3859
 11
-96.5873
 21
24.8117
  0
LINE
  8
0
 10
-59.3382
 20
17.2283
 11
-56.9124
 21
30.986
  0
LINE
  8
0
 10
-56.9124
 20
30.986
 11
-43.1546
 21
28.5602
  0
LINE
  8
0
 10
-43.1546
 20
28.5602
 11
-45.5805
 21
14.8024
  0
LINE
  8
0
 10
-45.5805
 20
14.8024
 11
-59.3382
 21
17.2283
  0
LINE
  8
0
 10
43.1546
 20
28.5602
 11
56.9124
 21
30.986
  0
LINE
  8
0
 10
56.9124
 20
30.986
 11
59.3382
 21
17.2283
  0
LINE
  8
0
 10
59.3382
 20
17.2283
 11
45.5805
 21
14.8024
  0
LINE
  8
0
 10
45.5805
 20
14.8024
 11
43.1546
 21
28.5602
  0
LINE
  8
0
 10
-118.9
 20
21.6259
 11
-119.086
 21
21.6586
  0
LINE
  8
0
 10
-119.086
 20
21.6586
 11
-119.266
 21
21.7143
  0
LINE
  8
0
 10
-119.266
 20
21.7143
 11
-119.437
 21
21.7921
  0
LINE
  8
0
 10
-119.437
 20
21.7921
 11
-119.598
 21
21.8908
  0
LINE
  8
0
 10
-119.598
 20
21.8908
 11
-119.745
 21
22.0089
  0
LINE
  8
0
 10
-119.745
 20
22.0089
 11
-119.875
 21
22.1443
  0
LINE
  8
0
 10
-119.875
 20
22.1443
 11
-119.988
 21
22.2952
  0
LINE
  8
0
 10
-119.988
 20
22.2952
 11
-120.081
 21
22.459
  0
LINE
  8
0
 10
-120.081
 20
22.459
 11
-120.153
 21
22.6331
  0
LINE
  8
0
 10
-120.153
 20
22.6331
 11
-120.202
 21
22.8149
  0
LINE
  8
0
 10
-120.202
 20
22.8149
 11
-120.229
 21
23.0014
  0
LINE
  8
0
 10
-120.229
 20
23.0014
 11
-120.231
 21
23.1898
  0
LINE
  8
0
 10
-120.231
 20
23.1898
 11
-120.21
 21
23.377
  0
LINE
  8
0
 10
-120.21
 20
23.377
 11
-120.166
 21
23.5601
  0
LINE
  8
0
 10
-120.166
 20
23.5601
 11
-120.099
 21
23.7362
  0
LINE
  8
0
 10
-120.099
 20
23.7362
 11
-120.011
 21
23.9025
  0
LINE
  8
0
 10
-120.011
 20
23.9025
 11
-119.902
 21
24.0564
  0
LINE
  8
0
 10
-119.902
 20
24.0564
 11
-119.775
 21
24.1955
  0
LINE
  8
0
 10
-119.775
 20
24.1955
 11
-119.632
 21
24.3176
  0
LINE
  8
0
 10
-119.632
 20
24.3176
 11
-119.474
 21
24.4208
  0
LINE
  8
0
 10
-119.474
 20
24.4208
 11
-119.305
 21
24.5033
  0
LINE
  8
0
 10
-119.305
 20
24.5033
 11
-119.126
 21
24.5641
  0
LINE
  8
0
 10
-119.126
 20
24.5641
 11
-118.942
 21
24.6019
  0
LINE
  8
0
 10
-118.942
 20
24.6019
 11
-118.754
 21
24.6164
  0
LINE
  8
0
 10
-118.754
 20
24.6164
 11
-118.566
 21
24.6072
  0
LINE
  8
0
 10
-118.566
 20
24.6072
 11
-118.38
 21
24.5745
  0
LINE
  8
0
 10
-118.38
 20
24.5745
 11
-118.2
 21
24.5188
  0
LINE
  8
0
 10
-118.2
 20
24.5188
 11
-118.029
 21
24.4409
  0
LINE
  8
0
 10
-118.029
 20
24.4409
 11
-117.868
 21
24.3422
  0
LINE
  8
0
 10
-117.868
 20
24.3422
 11
-117.722
 21
24.2242
  0
LINE
  8
0
 10
-117.722
 20
24.2242
 11
-117.591
 21
24.0887
  0
LINE
  8
0
 10
-117.591
 20
24.0887
 11
-117.478
 21
23.9379
  0
LINE
  8
0
 10
-117.478
 20
23.9379
 11
-117.385
 21
23.7741
  0
LINE
  8
0
 10
-117.385
 20
23.7741
 11
-117.313
 21
23.5999
  0
LINE
  8
0
 10
-117.313
 20
23.5999
 11
-117.264
 21
23.4182
  0
LINE
  8
0
 10
-117.264
 20
23.4182
 11
-117.238
 21
23.2316
  0
LINE
  8
0
 10
-117.238
 20
23.2316
 11
-117.235
 21
23.0432
  0
LINE
  8
0
 10
-117.235
 20
23.0432
 11
-117.256
 21
22.8561
  0
LINE
  8
0
 10
-117.256
 20
22.8561
 11
-117.3
 21
22.673
  0
LINE
  8
0
 10
-117.3
 20
22.673
 11
-117.367
 21
22.4969
  0
LINE
  8
0
 10
-117.367
 20
22.4969
 11
-117.455
 21
22.3305
  0
LINE
  8
0
 10
-117.455
 20
22.3305
 11
-117.564
 21
22.1766
  0
LINE
  8
0
 10
-117.564
 20
22.1766
 11
-117.691
 21
22.0375
  0
LINE
  8
0
 10
-117.691
 20
22.0375
 11
-117.835
 21
21.9154
  0
LINE
  8
0
 10
-117.835
 20
21.9154
 11
-117.992
 21
21.8123
  0
LINE
  8
0
 10
-117.992
 20
21.8123
 11
-118.161
 21
21.7297
  0
LINE
  8
0
 10
-118.161
 20
21.7297
 11
-118.34
 21
21.669
  0
LINE
  8
0
 10
-118.34
 20
21.669
 11
-118.524
 21
21.6311
  0
LINE
  8
0
 10
-118.524
 20
21.6311
 11
-118.712
 21
21.6167
  0
LINE
  8
0
 10
-118.712
 20
21.6167
 11
-118.9
 21
21.6259
  0
LINE
  8
0
 10
118.524
 20
21.6311
 11
118.34
 21
21.669
  0
LINE
  8
0
 10
118.34
 20
21.669
 11
118.161
 21
21.7297
  0
LINE
  8
0
 10
118.161
 20
21.7297
 11
117.992
 21
21.8123
  0
LINE
  8
0
 10
117.992
 20
21.8123
 11
117.835
 21
21.9154
  0
LINE
  8
0
 10
117.835
 20
21.9154
 11
117.691
 21
22.0375
  0
LINE
  8
0
 10
117.691
 20
22.0375
 11
117.564
 21
22.1766
  0
LINE
  8
0
 10
117.564
 20
22.1766
 11
117.455
 21
22.3305
  0
LINE
  8
0
 10
117.455
 20
22.3305
 11
117.367
 21
22.4969
  0
LINE
  8
0
 10
117.367
 20
22.4969
 11
117.3
 21
22.673
  0
LINE
  8
0
 10
117.3
 20
22.673
 11
117.256
 21
22.8561
  0
LINE
  8
0
 10
117.256
 20
22.8561
 11
117.235
 21
23.0432
  0
LINE
  8
0
 10
117.235
 20
23.0432
 11
117.238
 21
23.2316
  0
LINE
  8
0
 10
117.238
 20
23.2316
 11
117.264
 21
23.4182
  0
LINE
  8
0
 10
117.264
 20
23.4182
 11
117.313
 21
23.5999
  0
LINE
  8
0
 10
117.313
 20
23.5999
 11
117.385
 21
23.7741
  0
LINE
  8
0
 10
117.385
 20
23.7741
 11
117.478
 21
23.9379
  0
LINE
  8
0
 10
117.478
 20
23.9379
 11
117.591
 21
24.0887
  0
LINE
  8
0
 10
117.591
 20
24.0887
 11
117.722
 21
24.2242
  0
LINE
  8
0
 10
117.722
 20
24.2242
 11
117.868
 21
24.3422
  0
LINE
  8
0
 10
117.868
 20
24.3422
 11
118.029
 21
24.4409
  0
LINE
  8
0
 10
118.029
 20
24.4409
 11
118.2
 21
24.5188
  0
LINE
  8
0
 10
118.2
 20
24.5188
 11
118.38
 21
24.5745
  0
LINE
  8
0
 10
118.38
 20
24.5745
 11
118.566
 21
24.6072
  0
LINE
  8
0
 10
118.566
 20
24.6072
 11
118.754
 21
24.6164
  0
LINE
  8
0
 10
118.754
 20
24.6164
 11
118.942
 21
24.6019
  0
LINE
  8
0
 10
118.942
 20
24.6019
 11
119.126
 21
24.5641
  0
LINE
  8
0
 10
119.126
 20
24.5641
 11
119.305
 21
24.5033
  0
LINE
  8
0
 10
119.305
 20
24.5033
 11
119.474
 21
24.4208
  0
LINE
  8
0
 10
119.474
 20
24.4208
 11
119.632
 21
24.3176
  0
LINE
  8
0
 10
119.632
 20
24.3176
 11
119.775
 21
24.1955
  0
LINE
  8
0
 10
119.775
 20
24.1955
 11
119.902
 21
24.0564
  0
LINE
  8
0
 10
119.902
 20
24.0564
 11
120.011
 21
23.9025
  0
LINE
  8
0
 10
120.011
 20
23.9025
 11
120.099
 21
23.7362
  0
LINE
  8
0
 10
120.099
 20
23.7362
 11
120.166
 21
23.5601
  0
LINE
  8
0
 10
120.166
 20
23.5601
 11
120.21
 21
23.377
  0
LINE
  8
0
 10
120.21
 20
23.377
 11
120.231
 21
23.1898
  0
LINE
  8
0
 10
120.231
 20
23.1898
 11
120.229
 21
23.0014
  0
LINE
  8
0
 10
120.229
 20
23.0014
 11
120.202
 21
22.8149
  0
LINE
  8
0
 10
120.202
 20
22.8149
 11
120.153
 21
22.6331
  0
LINE
  8
0
 10
120.153
 20
22.6331
 11
120.081
 21
22.459
  0
LINE
  8
0
 10
120.081
 20
22.459
 11
119.988
 21
22.2952
  0
LINE
  8
0
 10
119.988
 20
22.2952
 11
119.875
 21
22.1443
  0
LINE
  8
0
 10
119.875
 20
22.1443
 11
119.745
 21
22.0089
  0
LINE
  8
0
 10
119.745
 20
22.0089
 11
119.598
 21
21.8908
  0
LINE
  8
0
 10
119.598
 20
21.8908
 11
119.437
 21
21.7921
  0
LINE
  8
0
 10
119.437
 20
21.7921
 11
119.266
 21
21.7143
  0
LINE
  8
0
 10
119.266
 20
21.7143
 11
119.086
 21
21.6586
  0
LINE
  8
0
 10
119.086
 20
21.6586
 11
118.9
 21
21.6259
  0
LINE
  8
0
 10
118.9
 20
21.6259
 11
118.712
 21
21.6167
  0
LINE
  8
0
 10
118.712
 20
21.6167
 11
118.524
 21
21.6311
  0
LINE
  8
0
 10
25.3115
 20
20.3368
 11
39.0692
 21
22.7627
  0
LINE
  8
0
 10
39.0692
 20
22.7627
 11
41.4951
 21
9.00493
  0
LINE
  8
0
 10
41.4951
 20
9.00493
 11
27.7374
 21
6.57907
  0
LINE
  8
0
 10
27.7374
 20
6.57907
 11
25.3115
 21
20.3368
  0
LINE
  8
0
 10
-41.4951
 20
9.00493
 11
-39.0692
 21
22.7627
  0
LINE
  8
0
 10
-39.0692
 20
22.7627
 11
-25.3115
 21
20.3368
  0
LINE
  8
0
 10
-25.3115
 20
20.3368
 11
-27.7374
 21
6.57907
  0
LINE
  8
0
 10
-27.7374
 20
6.57907
 11
-41.4951
 21
9.00493
  0
LINE
  8
0
 10
-22.6101
 20
6.6904
 11
-20.1842
 21
20.4482
  0
LINE
  8
0
 10
-20.1842
 20
20.4482
 11
-6.4265
 21
18.0223
  0
LINE
  8
0
 10
-6.4265
 20
18.0223
 11
-8.85236
 21
4.26454
  0
LINE
  8
0
 10
-8.85236
 20
4.26454
 11
-22.6101
 21
6.6904
  0
LINE
  8
0
 10
6.4265
 20
18.0223
 11
20.1842
 21
20.4482
  0
LINE
  8
0
 10
20.1842
 20
20.4482
 11
22.6101
 21
6.6904
  0
LINE
  8
0
 10
22.6101
 20
6.6904
 11
8.85236
 21
4.26454
  0
LINE
  8
0
 10
8.85236
 20
4.26454
 11
6.4265
 21
18.0223
  0
LINE
  8
0
 10
25.4885
 20
2.18015
 11
25.304
 21
2.218
  0
LINE
  8
0
 10
25.304
 20
2.218
 11
25.1257
 21
2.27872
  0
LINE
  8
0
 10
25.1257
 20
2.27872
 11
24.9564
 21
2.3613
  0
LINE
  8
0
 10
24.9564
 20
2.3613
 11
24.7988
 21
2.46445
  0
LINE
  8
0
 10
24.7988
 20
2.46445
 11
24.6553
 21
2.58653
  0
LINE
  8
0
 10
24.6553
 20
2.58653
 11
24.5283
 21
2.72563
  0
LINE
  8
0
 10
24.5283
 20
2.72563
 11
24.4197
 21
2.87955
  0
LINE
  8
0
 10
24.4197
 20
2.87955
 11
24.3313
 21
3.04588
  0
LINE
  8
0
 10
24.3313
 20
3.04588
 11
24.2644
 21
3.22198
  0
LINE
  8
0
 10
24.2644
 20
3.22198
 11
24.2201
 21
3.40506
  0
LINE
  8
0
 10
24.2201
 20
3.40506
 11
24.1991
 21
3.59224
  0
LINE
  8
0
 10
24.1991
 20
3.59224
 11
24.2017
 21
3.78061
  0
LINE
  8
0
 10
24.2017
 20
3.78061
 11
24.2279
 21
3.96715
  0
LINE
  8
0
 10
24.2279
 20
3.96715
 11
24.2773
 21
4.14893
  0
LINE
  8
0
 10
24.2773
 20
4.14893
 11
24.3491
 21
4.32307
  0
LINE
  8
0
 10
24.3491
 20
4.32307
 11
24.4421
 21
4.48686
  0
LINE
  8
0
 10
24.4421
 20
4.48686
 11
24.555
 21
4.6377
  0
LINE
  8
0
 10
24.555
 20
4.6377
 11
24.6858
 21
4.77321
  0
LINE
  8
0
 10
24.6858
 20
4.77321
 11
24.8326
 21
4.89125
  0
LINE
  8
0
 10
24.8326
 20
4.89125
 11
24.9931
 21
4.98994
  0
LINE
  8
0
 10
24.9931
 20
4.98994
 11
25.1646
 21
5.06775
  0
LINE
  8
0
 10
25.1646
 20
5.06775
 11
25.3446
 21
5.12347
  0
LINE
  8
0
 10
25.3446
 20
5.12347
 11
25.5301
 21
5.15617
  0
LINE
  8
0
 10
25.5301
 20
5.15617
 11
25.7182
 21
5.16537
  0
LINE
  8
0
 10
25.7182
 20
5.16537
 11
25.9061
 21
5.15092
  0
LINE
  8
0
 10
25.9061
 20
5.15092
 11
26.0906
 21
5.11305
  0
LINE
  8
0
 10
26.0906
 20
5.11305
 11
26.2689
 21
5.05234
  0
LINE
  8
0
 10
26.2689
 20
5.05234
 11
26.4382
 21
4.96976
  0
LINE
  8
0
 10
26.4382
 20
4.96976
 11
26.5958
 21
4.86662
  0
LINE
  8
0
 10
26.5958
 20
4.86662
 11
26.7393
 21
4.74452
  0
LINE
  8
0
 10
26.7393
 20
4.74452
 11
26.8663
 21
4.60544
  0
LINE
  8
0
 10
26.8663
 20
4.60544
 11
26.9749
 21
4.45151
  0
LINE
  8
0
 10
26.9749
 20
4.45151
 11
27.0633
 21
4.28519
  0
LINE
  8
0
 10
27.0633
 20
4.28519
 11
27.1302
 21
4.10909
  0
LINE
  8
0
 10
27.1302
 20
4.10909
 11
27.1745
 21
3.92601
  0
LINE
  8
0
 10
27.1745
 20
3.92601
 11
27.1955
 21
3.73882
  0
LINE
  8
0
 10
27.1955
 20
3.73882
 11
27.1929
 21
3.55046
  0
LINE
  8
0
 10
27.1929
 20
3.55046
 11
27.1666
 21
3.36391
  0
LINE
  8
0
 10
27.1666
 20
3.36391
 11
27.1173
 21
3.18213
  0
LINE
  8
0
 10
27.1173
 20
3.18213
 11
27.0455
 21
3.00798
  0
LINE
  8
0
 10
27.0455
 20
3.00798
 11
26.9524
 21
2.84419
  0
LINE
  8
0
 10
26.9524
 20
2.84419
 11
26.8396
 21
2.69336
  0
LINE
  8
0
 10
26.8396
 20
2.69336
 11
26.7087
 21
2.55786
  0
LINE
  8
0
 10
26.7087
 20
2.55786
 11
26.562
 21
2.43982
  0
LINE
  8
0
 10
26.562
 20
2.43982
 11
26.4015
 21
2.34111
  0
LINE
  8
0
 10
26.4015
 20
2.34111
 11
26.2299
 21
2.26331
  0
LINE
  8
0
 10
26.2299
 20
2.26331
 11
26.05
 21
2.2076
  0
LINE
  8
0
 10
26.05
 20
2.2076
 11
25.8645
 21
2.17488
  0
LINE
  8
0
 10
25.8645
 20
2.17488
 11
25.6763
 21
2.16568
  0
LINE
  8
0
 10
25.6763
 20
2.16568
 11
25.4885
 21
2.18015
  0
LINE
  8
0
 10
-25.8645
 20
2.17488
 11
-26.05
 21
2.2076
  0
LINE
  8
0
 10
-26.05
 20
2.2076
 11
-26.2299
 21
2.26331
  0
LINE
  8
0
 10
-26.2299
 20
2.26331
 11
-26.4015
 21
2.34111
  0
LINE
  8
0
 10
-26.4015
 20
2.34111
 11
-26.562
 21
2.43982
  0
LINE
  8
0
 10
-26.562
 20
2.43982
 11
-26.7087
 21
2.55786
  0
LINE
  8
0
 10
-26.7087
 20
2.55786
 11
-26.8396
 21
2.69336
  0
LINE
  8
0
 10
-26.8396
 20
2.69336
 11
-26.9524
 21
2.84419
  0
LINE
  8
0
 10
-26.9524
 20
2.84419
 11
-27.0455
 21
3.00798
  0
LINE
  8
0
 10
-27.0455
 20
3.00798
 11
-27.1173
 21
3.18213
  0
LINE
  8
0
 10
-27.1173
 20
3.18213
 11
-27.1666
 21
3.36391
  0
LINE
  8
0
 10
-27.1666
 20
3.36391
 11
-27.1929
 21
3.55046
  0
LINE
  8
0
 10
-27.1929
 20
3.55046
 11
-27.1955
 21
3.73882
  0
LINE
  8
0
 10
-27.1955
 20
3.73882
 11
-27.1745
 21
3.92601
  0
LINE
  8
0
 10
-27.1745
 20
3.92601
 11
-27.1302
 21
4.10909
  0
LINE
  8
0
 10
-27.1302
 20
4.10909
 11
-27.0633
 21
4.28519
  0
LINE
  8
0
 10
-27.0633
 20
4.28519
 11
-26.9749
 21
4.45151
  0
LINE
  8
0
 10
-26.9749
 20
4.45151
 11
-26.8663
 21
4.60544
  0
LINE
  8
0
 10
-26.8663
 20
4.60544
 11
-26.7393
 21
4.74452
  0
LINE
  8
0
 10
-26.7393
 20
4.74452
 11
-26.5958
 21
4.86662
  0
LINE
  8
0
 10
-26.5958
 20
4.86662
 11
-26.4382
 21
4.96976
  0
LINE
  8
0
 10
-26.4382
 20
4.96976
 11
-26.2689
 21
5.05234
  0
LINE
  8
0
 10
-26.2689
 20
5.05234
 11
-26.0906
 21
5.11305
  0
LINE
  8
0
 10
-26.0906
 20
5.11305
 11
-25.9061
 21
5.15092
  0
LINE
  8
0
 10
-25.9061
 20
5.15092
 11
-25.7182
 21
5.16537
  0
LINE
  8
0
 10
-25.7182
 20
5.16537
 11
-25.5301
 21
5.15617
  0
LINE
  8
0
 10
-25.5301
 20
5.15617
 11
-25.3446
 21
5.12347
  0
LINE
  8
0
 10
-25.3446
 20
5.12347
 11
-25.1646
 21
5.06775
  0
LINE
  8
0
 10
-25.1646
 20
5.06775
 11
-24.9931
 21
4.98994
  0
LINE
  8
0
 10
-24.9931
 20
4.98994
 11
-24.8326
 21
4.89125
  0
LINE
  8
0
 10
-24.8326
 20
4.89125
 11
-24.6858
 21
4.77321
  0
LINE
  8
0
 10
-24.6858
 20
4.77321
 11
-24.555
 21
4.6377
  0
LINE
  8
0
 10
-24.555
 20
4.6377
 11
-24.4421
 21
4.48686
  0
LINE
  8
0
 10
-24.4421
 20
4.48686
 11
-24.3491
 21
4.32307
  0
LINE
  8
0
 10
-24.3491
 20
4.32307
 11
-24.2773
 21
4.14893
  0
LINE
  8
0
 10
-24.2773
 20
4.14893
 11
-24.2279
 21
3.96715
  0
LINE
  8
0
 10
-24.2279
 20
3.96715
 11
-24.2017
 21
3.78061
  0
LINE
  8
0
 10
-24.2017
 20
3.78061
 11
-24.1991
 21
3.59224
  0
LINE
  8
0
 10
-24.1991
 20
3.59224
 11
-24.2201
 21
3.40506
  0
LINE
  8
0
 10
-24.2201
 20
3.40506
 11
-24.2644
 21
3.22198
  0
LINE
  8
0
 10
-24.2644
 20
3.22198
 11
-24.3313
 21
3.04588
  0
LINE
  8
0
 10
-24.3313
 20
3.04588
 11
-24.4197
 21
2.87955
  0
LINE
  8
0
 10
-24.4197
 20
2.87955
 11
-24.5283
 21
2.72563
  0
LINE
  8
0
 10
-24.5283
 20
2.72563
 11
-24.6553
 21
2.58653
  0
LINE
  8
0
 10
-24.6553
 20
2.58653
 11
-24.7988
 21
2.46445
  0
LINE
  8
0
 10
-24.7988
 20
2.46445
 11
-24.9564
 21
2.3613
  0
LINE
  8
0
 10
-24.9564
 20
2.3613
 11
-25.1257
 21
2.27872
  0
LINE
  8
0
 10
-25.1257
 20
2.27872
 11
-25.304
 21
2.218
  0
LINE
  8
0
 10
-25.304
 20
2.218
 11
-25.4885
 21
2.18015
  0
LINE
  8
0
 10
-25.4885
 20
2.18015
 11
-25.6763
 21
2.16568
  0
LINE
  8
0
 10
-25.6763
 20
2.16568
 11
-25.8645
 21
2.17488
  0
ENDSEC
  0
SECTION
  2
OBJECTS
  0
DICTIONARY
  0
ENDSEC
  0
EOF
