  0
SECTION
  2
BLOCKS
  0
ENDSEC
  0
SECTION
  2
ENTITIES
  0
LINE
  8
0
 10
22.4656
 20
113.756
 11
23.2077
 21
113.887
  0
LINE
  8
0
 10
23.2077
 20
113.887
 11
123.249
 21
134.573
  0
LINE
  8
0
 10
123.249
 20
134.573
 11
123.969
 21
134.796
  0
LINE
  8
0
 10
123.969
 20
134.796
 11
124.655
 21
135.107
  0
LINE
  8
0
 10
124.655
 20
135.107
 11
125.297
 21
135.502
  0
LINE
  8
0
 10
125.297
 20
135.502
 11
125.884
 21
135.974
  0
LINE
  8
0
 10
125.884
 20
135.974
 11
126.408
 21
136.516
  0
LINE
  8
0
 10
126.408
 20
136.516
 11
126.859
 21
137.12
  0
LINE
  8
0
 10
126.859
 20
137.12
 11
127.231
 21
137.775
  0
LINE
  8
0
 10
127.231
 20
137.775
 11
127.518
 21
138.471
  0
LINE
  8
0
 10
127.518
 20
138.471
 11
127.716
 21
139.198
  0
LINE
  8
0
 10
127.716
 20
139.198
 11
127.821
 21
139.945
  0
LINE
  8
0
 10
127.821
 20
139.945
 11
127.831
 21
140.698
  0
LINE
  8
0
 10
127.831
 20
140.698
 11
127.747
 21
141.447
  0
LINE
  8
0
 10
127.747
 20
141.447
 11
113.315
 21
223.298
  0
LINE
  8
0
 10
113.315
 20
223.298
 11
113.138
 21
224.03
  0
LINE
  8
0
 10
113.138
 20
224.03
 11
112.87
 21
224.735
  0
LINE
  8
0
 10
112.87
 20
224.735
 11
112.516
 21
225.4
  0
LINE
  8
0
 10
112.516
 20
225.4
 11
112.082
 21
226.016
  0
LINE
  8
0
 10
112.082
 20
226.016
 11
111.574
 21
226.572
  0
LINE
  8
0
 10
111.574
 20
226.572
 11
111
 21
227.061
  0
LINE
  8
0
 10
111
 20
227.061
 11
110.37
 21
227.473
  0
LINE
  8
0
 10
110.37
 20
227.473
 11
109.692
 21
227.803
  0
LINE
  8
0
 10
109.692
 20
227.803
 11
108.979
 21
228.046
  0
LINE
  8
0
 10
108.979
 20
228.046
 11
108.241
 21
228.198
  0
LINE
  8
0
 10
108.241
 20
228.198
 11
107.49
 21
228.256
  0
LINE
  8
0
 10
107.49
 20
228.256
 11
10
 21
228.256
  0
LINE
  8
0
 10
10
 20
228.256
 11
10
 21
169
  0
LINE
  8
0
 10
10
 20
169
 11
-10
 21
169
  0
LINE
  8
0
 10
-10
 20
169
 11
-10
 21
228.256
  0
LINE
  8
0
 10
-10
 20
228.256
 11
-107.49
 21
228.256
  0
LINE
  8
0
 10
-107.49
 20
228.256
 11
-108.241
 21
228.198
  0
LINE
  8
0
 10
-108.241
 20
228.198
 11
-108.979
 21
228.046
  0
LINE
  8
0
 10
-108.979
 20
228.046
 11
-109.692
 21
227.803
  0
LINE
  8
0
 10
-109.692
 20
227.803
 11
-110.37
 21
227.473
  0
LINE
  8
0
 10
-110.37
 20
227.473
 11
-111
 21
227.061
  0
LINE
  8
0
 10
-111
 20
227.061
 11
-111.574
 21
226.572
  0
LINE
  8
0
 10
-111.574
 20
226.572
 11
-112.082
 21
226.016
  0
LINE
  8
0
 10
-112.082
 20
226.016
 11
-112.516
 21
225.4
  0
LINE
  8
0
 10
-112.516
 20
225.4
 11
-112.87
 21
224.735
  0
LINE
  8
0
 10
-112.87
 20
224.735
 11
-113.138
 21
224.03
  0
LINE
  8
0
 10
-113.138
 20
224.03
 11
-113.315
 21
223.298
  0
LINE
  8
0
 10
-113.315
 20
223.298
 11
-127.747
 21
141.447
  0
LINE
  8
0
 10
-127.747
 20
141.447
 11
-127.831
 21
140.698
  0
LINE
  8
0
 10
-127.831
 20
140.698
 11
-127.821
 21
139.945
  0
LINE
  8
0
 10
-127.821
 20
139.945
 11
-127.716
 21
139.198
  0
LINE
  8
0
 10
-127.716
 20
139.198
 11
-127.518
 21
138.471
  0
LINE
  8
0
 10
-127.518
 20
138.471
 11
-127.231
 21
137.775
  0
LINE
  8
0
 10
-127.231
 20
137.775
 11
-126.859
 21
137.12
  0
LINE
  8
0
 10
-126.859
 20
137.12
 11
-126.408
 21
136.516
  0
LINE
  8
0
 10
-126.408
 20
136.516
 11
-125.884
 21
135.974
  0
LINE
  8
0
 10
-125.884
 20
135.974
 11
-125.297
 21
135.502
  0
LINE
  8
0
 10
-125.297
 20
135.502
 11
-124.655
 21
135.107
  0
LINE
  8
0
 10
-124.655
 20
135.107
 11
-123.969
 21
134.796
  0
LINE
  8
0
 10
-123.969
 20
134.796
 11
-123.249
 21
134.573
  0
LINE
  8
0
 10
-123.249
 20
134.573
 11
-23.2077
 21
113.887
  0
LINE
  8
0
 10
-23.2077
 20
113.887
 11
-22.4656
 21
113.756
  0
LINE
  8
0
 10
-22.4656
 20
113.756
 11
-21.713
 21
113.719
  0
LINE
  8
0
 10
-21.713
 20
113.719
 11
21.713
 21
113.719
  0
LINE
  8
0
 10
21.713
 20
113.719
 11
22.4656
 21
113.756
  0
LINE
  8
0
 10
-107.573
 20
220.766
 11
-107.759
 21
220.798
  0
LINE
  8
0
 10
-107.759
 20
220.798
 11
-107.939
 21
220.854
  0
LINE
  8
0
 10
-107.939
 20
220.854
 11
-108.11
 21
220.932
  0
LINE
  8
0
 10
-108.11
 20
220.932
 11
-108.271
 21
221.03
  0
LINE
  8
0
 10
-108.271
 20
221.03
 11
-108.417
 21
221.148
  0
LINE
  8
0
 10
-108.417
 20
221.148
 11
-108.548
 21
221.284
  0
LINE
  8
0
 10
-108.548
 20
221.284
 11
-108.661
 21
221.435
  0
LINE
  8
0
 10
-108.661
 20
221.435
 11
-108.754
 21
221.599
  0
LINE
  8
0
 10
-108.754
 20
221.599
 11
-108.826
 21
221.773
  0
LINE
  8
0
 10
-108.826
 20
221.773
 11
-108.875
 21
221.955
  0
LINE
  8
0
 10
-108.875
 20
221.955
 11
-108.901
 21
222.141
  0
LINE
  8
0
 10
-108.901
 20
222.141
 11
-108.904
 21
222.329
  0
LINE
  8
0
 10
-108.904
 20
222.329
 11
-108.883
 21
222.517
  0
LINE
  8
0
 10
-108.883
 20
222.517
 11
-108.839
 21
222.7
  0
LINE
  8
0
 10
-108.839
 20
222.7
 11
-108.772
 21
222.876
  0
LINE
  8
0
 10
-108.772
 20
222.876
 11
-108.684
 21
223.042
  0
LINE
  8
0
 10
-108.684
 20
223.042
 11
-108.575
 21
223.196
  0
LINE
  8
0
 10
-108.575
 20
223.196
 11
-108.448
 21
223.335
  0
LINE
  8
0
 10
-108.448
 20
223.335
 11
-108.304
 21
223.457
  0
LINE
  8
0
 10
-108.304
 20
223.457
 11
-108.147
 21
223.56
  0
LINE
  8
0
 10
-108.147
 20
223.56
 11
-107.978
 21
223.643
  0
LINE
  8
0
 10
-107.978
 20
223.643
 11
-107.799
 21
223.704
  0
LINE
  8
0
 10
-107.799
 20
223.704
 11
-107.615
 21
223.742
  0
LINE
  8
0
 10
-107.615
 20
223.742
 11
-107.427
 21
223.756
  0
LINE
  8
0
 10
-107.427
 20
223.756
 11
-107.239
 21
223.747
  0
LINE
  8
0
 10
-107.239
 20
223.747
 11
-107.053
 21
223.714
  0
LINE
  8
0
 10
-107.053
 20
223.714
 11
-106.873
 21
223.658
  0
LINE
  8
0
 10
-106.873
 20
223.658
 11
-106.702
 21
223.581
  0
LINE
  8
0
 10
-106.702
 20
223.581
 11
-106.541
 21
223.482
  0
LINE
  8
0
 10
-106.541
 20
223.482
 11
-106.394
 21
223.364
  0
LINE
  8
0
 10
-106.394
 20
223.364
 11
-106.264
 21
223.228
  0
LINE
  8
0
 10
-106.264
 20
223.228
 11
-106.151
 21
223.077
  0
LINE
  8
0
 10
-106.151
 20
223.077
 11
-106.058
 21
222.914
  0
LINE
  8
0
 10
-106.058
 20
222.914
 11
-105.986
 21
222.74
  0
LINE
  8
0
 10
-105.986
 20
222.74
 11
-105.937
 21
222.558
  0
LINE
  8
0
 10
-105.937
 20
222.558
 11
-105.91
 21
222.371
  0
LINE
  8
0
 10
-105.91
 20
222.371
 11
-105.908
 21
222.183
  0
LINE
  8
0
 10
-105.908
 20
222.183
 11
-105.929
 21
221.996
  0
LINE
  8
0
 10
-105.929
 20
221.996
 11
-105.973
 21
221.813
  0
LINE
  8
0
 10
-105.973
 20
221.813
 11
-106.04
 21
221.637
  0
LINE
  8
0
 10
-106.04
 20
221.637
 11
-106.128
 21
221.47
  0
LINE
  8
0
 10
-106.128
 20
221.47
 11
-106.237
 21
221.316
  0
LINE
  8
0
 10
-106.237
 20
221.316
 11
-106.364
 21
221.177
  0
LINE
  8
0
 10
-106.364
 20
221.177
 11
-106.507
 21
221.055
  0
LINE
  8
0
 10
-106.507
 20
221.055
 11
-106.665
 21
220.952
  0
LINE
  8
0
 10
-106.665
 20
220.952
 11
-106.834
 21
220.869
  0
LINE
  8
0
 10
-106.834
 20
220.869
 11
-107.013
 21
220.809
  0
LINE
  8
0
 10
-107.013
 20
220.809
 11
-107.197
 21
220.771
  0
LINE
  8
0
 10
-107.197
 20
220.771
 11
-107.385
 21
220.756
  0
LINE
  8
0
 10
-107.385
 20
220.756
 11
-107.573
 21
220.766
  0
LINE
  8
0
 10
107.197
 20
220.771
 11
107.013
 21
220.809
  0
LINE
  8
0
 10
107.013
 20
220.809
 11
106.834
 21
220.869
  0
LINE
  8
0
 10
106.834
 20
220.869
 11
106.665
 21
220.952
  0
LINE
  8
0
 10
106.665
 20
220.952
 11
106.507
 21
221.055
  0
LINE
  8
0
 10
106.507
 20
221.055
 11
106.364
 21
221.177
  0
LINE
  8
0
 10
106.364
 20
221.177
 11
106.237
 21
221.316
  0
LINE
  8
0
 10
106.237
 20
221.316
 11
106.128
 21
221.47
  0
LINE
  8
0
 10
106.128
 20
221.47
 11
106.04
 21
221.637
  0
LINE
  8
0
 10
106.04
 20
221.637
 11
105.973
 21
221.813
  0
LINE
  8
0
 10
105.973
 20
221.813
 11
105.929
 21
221.996
  0
LINE
  8
0
 10
105.929
 20
221.996
 11
105.908
 21
222.183
  0
LINE
  8
0
 10
105.908
 20
222.183
 11
105.91
 21
222.371
  0
LINE
  8
0
 10
105.91
 20
222.371
 11
105.937
 21
222.558
  0
LINE
  8
0
 10
105.937
 20
222.558
 11
105.986
 21
222.74
  0
LINE
  8
0
 10
105.986
 20
222.74
 11
106.058
 21
222.914
  0
LINE
  8
0
 10
106.058
 20
222.914
 11
106.151
 21
223.077
  0
LINE
  8
0
 10
106.151
 20
223.077
 11
106.264
 21
223.228
  0
LINE
  8
0
 10
106.264
 20
223.228
 11
106.394
 21
223.364
  0
LINE
  8
0
 10
106.394
 20
223.364
 11
106.541
 21
223.482
  0
LINE
  8
0
 10
106.541
 20
223.482
 11
106.702
 21
223.581
  0
LINE
  8
0
 10
106.702
 20
223.581
 11
106.873
 21
223.658
  0
LINE
  8
0
 10
106.873
 20
223.658
 11
107.053
 21
223.714
  0
LINE
  8
0
 10
107.053
 20
223.714
 11
107.239
 21
223.747
  0
LINE
  8
0
 10
107.239
 20
223.747
 11
107.427
 21
223.756
  0
LINE
  8
0
 10
107.427
 20
223.756
 11
107.615
 21
223.742
  0
LINE
  8
0
 10
107.615
 20
223.742
 11
107.799
 21
223.704
  0
LINE
  8
0
 10
107.799
 20
223.704
 11
107.978
 21
223.643
  0
LINE
  8
0
 10
107.978
 20
223.643
 11
108.147
 21
223.56
  0
LINE
  8
0
 10
108.147
 20
223.56
 11
108.304
 21
223.457
  0
LINE
  8
0
 10
108.304
 20
223.457
 11
108.448
 21
223.335
  0
LINE
  8
0
 10
108.448
 20
223.335
 11
108.575
 21
223.196
  0
LINE
  8
0
 10
108.575
 20
223.196
 11
108.684
 21
223.042
  0
LINE
  8
0
 10
108.684
 20
223.042
 11
108.772
 21
222.876
  0
LINE
  8
0
 10
108.772
 20
222.876
 11
108.839
 21
222.7
  0
LINE
  8
0
 10
108.839
 20
222.7
 11
108.883
 21
222.517
  0
LINE
  8
0
 10
108.883
 20
222.517
 11
108.904
 21
222.329
  0
LINE
  8
0
 10
108.904
 20
222.329
 11
108.901
 21
222.141
  0
LINE
  8
0
 10
108.901
 20
222.141
 11
108.875
 21
221.955
  0
LINE
  8
0
 10
108.875
 20
221.955
 11
108.826
 21
221.773
  0
LINE
  8
0
 10
108.826
 20
221.773
 11
108.754
 21
221.599
  0
LINE
  8
0
 10
108.754
 20
221.599
 11
108.661
 21
221.435
  0
LINE
  8
0
 10
108.661
 20
221.435
 11
108.548
 21
221.284
  0
LINE
  8
0
 10
108.548
 20
221.284
 11
108.417
 21
221.148
  0
LINE
  8
0
 10
108.417
 20
221.148
 11
108.271
 21
221.03
  0
LINE
  8
0
 10
108.271
 20
221.03
 11
108.11
 21
220.932
  0
LINE
  8
0
 10
108.11
 20
220.932
 11
107.939
 21
220.854
  0
LINE
  8
0
 10
107.939
 20
220.854
 11
107.759
 21
220.798
  0
LINE
  8
0
 10
107.759
 20
220.798
 11
107.573
 21
220.766
  0
LINE
  8
0
 10
107.573
 20
220.766
 11
107.385
 21
220.756
  0
LINE
  8
0
 10
107.385
 20
220.756
 11
107.197
 21
220.771
  0
LINE
  8
0
 10
-20.0942
 20
216.503
 11
-20.2811
 21
216.527
  0
LINE
  8
0
 10
-20.2811
 20
216.527
 11
-20.4635
 21
216.573
  0
LINE
  8
0
 10
-20.4635
 20
216.573
 11
-20.6387
 21
216.643
  0
LINE
  8
0
 10
-20.6387
 20
216.643
 11
-20.8037
 21
216.734
  0
LINE
  8
0
 10
-20.8037
 20
216.734
 11
-20.9561
 21
216.844
  0
LINE
  8
0
 10
-20.9561
 20
216.844
 11
-21.0934
 21
216.973
  0
LINE
  8
0
 10
-21.0934
 20
216.973
 11
-21.2135
 21
217.118
  0
LINE
  8
0
 10
-21.2135
 20
217.118
 11
-21.3145
 21
217.277
  0
LINE
  8
0
 10
-21.3145
 20
217.277
 11
-21.3947
 21
217.448
  0
LINE
  8
0
 10
-21.3947
 20
217.448
 11
-21.4529
 21
217.627
  0
LINE
  8
0
 10
-21.4529
 20
217.627
 11
-21.4882
 21
217.812
  0
LINE
  8
0
 10
-21.4882
 20
217.812
 11
-21.5
 21
218
  0
LINE
  8
0
 10
-21.5
 20
218
 11
-21.4882
 21
218.188
  0
LINE
  8
0
 10
-21.4882
 20
218.188
 11
-21.4529
 21
218.373
  0
LINE
  8
0
 10
-21.4529
 20
218.373
 11
-21.3947
 21
218.552
  0
LINE
  8
0
 10
-21.3947
 20
218.552
 11
-21.3145
 21
218.723
  0
LINE
  8
0
 10
-21.3145
 20
218.723
 11
-21.2135
 21
218.882
  0
LINE
  8
0
 10
-21.2135
 20
218.882
 11
-21.0934
 21
219.027
  0
LINE
  8
0
 10
-21.0934
 20
219.027
 11
-20.9561
 21
219.156
  0
LINE
  8
0
 10
-20.9561
 20
219.156
 11
-20.8037
 21
219.266
  0
LINE
  8
0
 10
-20.8037
 20
219.266
 11
-20.6387
 21
219.357
  0
LINE
  8
0
 10
-20.6387
 20
219.357
 11
-20.4635
 21
219.427
  0
LINE
  8
0
 10
-20.4635
 20
219.427
 11
-20.2811
 21
219.473
  0
LINE
  8
0
 10
-20.2811
 20
219.473
 11
-20.0942
 21
219.497
  0
LINE
  8
0
 10
-20.0942
 20
219.497
 11
-19.9058
 21
219.497
  0
LINE
  8
0
 10
-19.9058
 20
219.497
 11
-19.7189
 21
219.473
  0
LINE
  8
0
 10
-19.7189
 20
219.473
 11
-19.5365
 21
219.427
  0
LINE
  8
0
 10
-19.5365
 20
219.427
 11
-19.3613
 21
219.357
  0
LINE
  8
0
 10
-19.3613
 20
219.357
 11
-19.1963
 21
219.266
  0
LINE
  8
0
 10
-19.1963
 20
219.266
 11
-19.0439
 21
219.156
  0
LINE
  8
0
 10
-19.0439
 20
219.156
 11
-18.9065
 21
219.027
  0
LINE
  8
0
 10
-18.9065
 20
219.027
 11
-18.7865
 21
218.882
  0
LINE
  8
0
 10
-18.7865
 20
218.882
 11
-18.6855
 21
218.723
  0
LINE
  8
0
 10
-18.6855
 20
218.723
 11
-18.6053
 21
218.552
  0
LINE
  8
0
 10
-18.6053
 20
218.552
 11
-18.5471
 21
218.373
  0
LINE
  8
0
 10
-18.5471
 20
218.373
 11
-18.5118
 21
218.188
  0
LINE
  8
0
 10
-18.5118
 20
218.188
 11
-18.5
 21
218
  0
LINE
  8
0
 10
-18.5
 20
218
 11
-18.5118
 21
217.812
  0
LINE
  8
0
 10
-18.5118
 20
217.812
 11
-18.5471
 21
217.627
  0
LINE
  8
0
 10
-18.5471
 20
217.627
 11
-18.6053
 21
217.448
  0
LINE
  8
0
 10
-18.6053
 20
217.448
 11
-18.6855
 21
217.277
  0
LINE
  8
0
 10
-18.6855
 20
217.277
 11
-18.7865
 21
217.118
  0
LINE
  8
0
 10
-18.7865
 20
217.118
 11
-18.9065
 21
216.973
  0
LINE
  8
0
 10
-18.9065
 20
216.973
 11
-19.0439
 21
216.844
  0
LINE
  8
0
 10
-19.0439
 20
216.844
 11
-19.1963
 21
216.734
  0
LINE
  8
0
 10
-19.1963
 20
216.734
 11
-19.3613
 21
216.643
  0
LINE
  8
0
 10
-19.3613
 20
216.643
 11
-19.5365
 21
216.573
  0
LINE
  8
0
 10
-19.5365
 20
216.573
 11
-19.7189
 21
216.527
  0
LINE
  8
0
 10
-19.7189
 20
216.527
 11
-19.9058
 21
216.503
  0
LINE
  8
0
 10
-19.9058
 20
216.503
 11
-20.0942
 21
216.503
  0
LINE
  8
0
 10
19.9058
 20
216.503
 11
19.7189
 21
216.527
  0
LINE
  8
0
 10
19.7189
 20
216.527
 11
19.5365
 21
216.573
  0
LINE
  8
0
 10
19.5365
 20
216.573
 11
19.3613
 21
216.643
  0
LINE
  8
0
 10
19.3613
 20
216.643
 11
19.1963
 21
216.734
  0
LINE
  8
0
 10
19.1963
 20
216.734
 11
19.0439
 21
216.844
  0
LINE
  8
0
 10
19.0439
 20
216.844
 11
18.9065
 21
216.973
  0
LINE
  8
0
 10
18.9065
 20
216.973
 11
18.7865
 21
217.118
  0
LINE
  8
0
 10
18.7865
 20
217.118
 11
18.6855
 21
217.277
  0
LINE
  8
0
 10
18.6855
 20
217.277
 11
18.6053
 21
217.448
  0
LINE
  8
0
 10
18.6053
 20
217.448
 11
18.5471
 21
217.627
  0
LINE
  8
0
 10
18.5471
 20
217.627
 11
18.5118
 21
217.812
  0
LINE
  8
0
 10
18.5118
 20
217.812
 11
18.5
 21
218
  0
LINE
  8
0
 10
18.5
 20
218
 11
18.5118
 21
218.188
  0
LINE
  8
0
 10
18.5118
 20
218.188
 11
18.5471
 21
218.373
  0
LINE
  8
0
 10
18.5471
 20
218.373
 11
18.6053
 21
218.552
  0
LINE
  8
0
 10
18.6053
 20
218.552
 11
18.6855
 21
218.723
  0
LINE
  8
0
 10
18.6855
 20
218.723
 11
18.7865
 21
218.882
  0
LINE
  8
0
 10
18.7865
 20
218.882
 11
18.9065
 21
219.027
  0
LINE
  8
0
 10
18.9065
 20
219.027
 11
19.0439
 21
219.156
  0
LINE
  8
0
 10
19.0439
 20
219.156
 11
19.1963
 21
219.266
  0
LINE
  8
0
 10
19.1963
 20
219.266
 11
19.3613
 21
219.357
  0
LINE
  8
0
 10
19.3613
 20
219.357
 11
19.5365
 21
219.427
  0
LINE
  8
0
 10
19.5365
 20
219.427
 11
19.7189
 21
219.473
  0
LINE
  8
0
 10
19.7189
 20
219.473
 11
19.9058
 21
219.497
  0
LINE
  8
0
 10
19.9058
 20
219.497
 11
20.0942
 21
219.497
  0
LINE
  8
0
 10
20.0942
 20
219.497
 11
20.2811
 21
219.473
  0
LINE
  8
0
 10
20.2811
 20
219.473
 11
20.4635
 21
219.427
  0
LINE
  8
0
 10
20.4635
 20
219.427
 11
20.6387
 21
219.357
  0
LINE
  8
0
 10
20.6387
 20
219.357
 11
20.8037
 21
219.266
  0
LINE
  8
0
 10
20.8037
 20
219.266
 11
20.9561
 21
219.156
  0
LINE
  8
0
 10
20.9561
 20
219.156
 11
21.0934
 21
219.027
  0
LINE
  8
0
 10
21.0934
 20
219.027
 11
21.2135
 21
218.882
  0
LINE
  8
0
 10
21.2135
 20
218.882
 11
21.3145
 21
218.723
  0
LINE
  8
0
 10
21.3145
 20
218.723
 11
21.3947
 21
218.552
  0
LINE
  8
0
 10
21.3947
 20
218.552
 11
21.4529
 21
218.373
  0
LINE
  8
0
 10
21.4529
 20
218.373
 11
21.4882
 21
218.188
  0
LINE
  8
0
 10
21.4882
 20
218.188
 11
21.5
 21
218
  0
LINE
  8
0
 10
21.5
 20
218
 11
21.4882
 21
217.812
  0
LINE
  8
0
 10
21.4882
 20
217.812
 11
21.4529
 21
217.627
  0
LINE
  8
0
 10
21.4529
 20
217.627
 11
21.3947
 21
217.448
  0
LINE
  8
0
 10
21.3947
 20
217.448
 11
21.3145
 21
217.277
  0
LINE
  8
0
 10
21.3145
 20
217.277
 11
21.2135
 21
217.118
  0
LINE
  8
0
 10
21.2135
 20
217.118
 11
21.0934
 21
216.973
  0
LINE
  8
0
 10
21.0934
 20
216.973
 11
20.9561
 21
216.844
  0
LINE
  8
0
 10
20.9561
 20
216.844
 11
20.8037
 21
216.734
  0
LINE
  8
0
 10
20.8037
 20
216.734
 11
20.6387
 21
216.643
  0
LINE
  8
0
 10
20.6387
 20
216.643
 11
20.4635
 21
216.573
  0
LINE
  8
0
 10
20.4635
 20
216.573
 11
20.2811
 21
216.527
  0
LINE
  8
0
 10
20.2811
 20
216.527
 11
20.0942
 21
216.503
  0
LINE
  8
0
 10
20.0942
 20
216.503
 11
19.9058
 21
216.503
  0
LINE
  8
0
 10
49.9109
 20
214.076
 11
63.6687
 21
216.502
  0
LINE
  8
0
 10
63.6687
 20
216.502
 11
66.0945
 21
202.744
  0
LINE
  8
0
 10
66.0945
 20
202.744
 11
52.3368
 21
200.318
  0
LINE
  8
0
 10
52.3368
 20
200.318
 11
49.9109
 21
214.076
  0
LINE
  8
0
 10
-66.0945
 20
202.744
 11
-63.6687
 21
216.502
  0
LINE
  8
0
 10
-63.6687
 20
216.502
 11
-49.9109
 21
214.076
  0
LINE
  8
0
 10
-49.9109
 20
214.076
 11
-52.3368
 21
200.318
  0
LINE
  8
0
 10
-52.3368
 20
200.318
 11
-66.0945
 21
202.744
  0
LINE
  8
0
 10
-104.906
 20
201.464
 11
-102.481
 21
215.222
  0
LINE
  8
0
 10
-102.481
 20
215.222
 11
-88.7228
 21
212.796
  0
LINE
  8
0
 10
-88.7228
 20
212.796
 11
-91.1487
 21
199.038
  0
LINE
  8
0
 10
-91.1487
 20
199.038
 11
-104.906
 21
201.464
  0
LINE
  8
0
 10
88.7228
 20
212.796
 11
102.481
 21
215.222
  0
LINE
  8
0
 10
102.481
 20
215.222
 11
104.906
 21
201.464
  0
LINE
  8
0
 10
104.906
 20
201.464
 11
91.1487
 21
199.038
  0
LINE
  8
0
 10
91.1487
 20
199.038
 11
88.7228
 21
212.796
  0
LINE
  8
0
 10
-85.6741
 20
201.119
 11
-83.2483
 21
214.877
  0
LINE
  8
0
 10
-83.2483
 20
214.877
 11
-69.4905
 21
212.451
  0
LINE
  8
0
 10
-69.4905
 20
212.451
 11
-71.9164
 21
198.694
  0
LINE
  8
0
 10
-71.9164
 20
198.694
 11
-85.6741
 21
201.119
  0
LINE
  8
0
 10
69.4905
 20
212.451
 11
83.2483
 21
214.877
  0
LINE
  8
0
 10
83.2483
 20
214.877
 11
85.6741
 21
201.119
  0
LINE
  8
0
 10
85.6741
 20
201.119
 11
71.9164
 21
198.694
  0
LINE
  8
0
 10
71.9164
 20
198.694
 11
69.4905
 21
212.451
  0
LINE
  8
0
 10
32.2415
 20
204.868
 11
45.9992
 21
207.294
  0
LINE
  8
0
 10
45.9992
 20
207.294
 11
48.4251
 21
193.536
  0
LINE
  8
0
 10
48.4251
 20
193.536
 11
34.6673
 21
191.11
  0
LINE
  8
0
 10
34.6673
 20
191.11
 11
32.2415
 21
204.868
  0
LINE
  8
0
 10
-48.4251
 20
193.536
 11
-45.9992
 21
207.294
  0
LINE
  8
0
 10
-45.9992
 20
207.294
 11
-32.2415
 21
204.868
  0
LINE
  8
0
 10
-32.2415
 20
204.868
 11
-34.6673
 21
191.11
  0
LINE
  8
0
 10
-34.6673
 20
191.11
 11
-48.4251
 21
193.536
  0
LINE
  8
0
 10
14.3984
 20
196.644
 11
28.1561
 21
199.07
  0
LINE
  8
0
 10
28.1561
 20
199.07
 11
30.582
 21
185.313
  0
LINE
  8
0
 10
30.582
 20
185.313
 11
16.8242
 21
182.887
  0
LINE
  8
0
 10
16.8242
 20
182.887
 11
14.3984
 21
196.644
  0
LINE
  8
0
 10
-30.582
 20
185.313
 11
-28.1561
 21
199.07
  0
LINE
  8
0
 10
-28.1561
 20
199.07
 11
-14.3984
 21
196.644
  0
LINE
  8
0
 10
-14.3984
 20
196.644
 11
-16.8242
 21
182.887
  0
LINE
  8
0
 10
-16.8242
 20
182.887
 11
-30.582
 21
185.313
  0
LINE
  8
0
 10
53.2103
 20
195.365
 11
66.968
 21
197.791
  0
LINE
  8
0
 10
66.968
 20
197.791
 11
69.3938
 21
184.033
  0
LINE
  8
0
 10
69.3938
 20
184.033
 11
55.6361
 21
181.607
  0
LINE
  8
0
 10
55.6361
 20
181.607
 11
53.2103
 21
195.365
  0
LINE
  8
0
 10
-69.3938
 20
184.033
 11
-66.968
 21
197.791
  0
LINE
  8
0
 10
-66.968
 20
197.791
 11
-53.2103
 21
195.365
  0
LINE
  8
0
 10
-53.2103
 20
195.365
 11
-55.6361
 21
181.607
  0
LINE
  8
0
 10
-55.6361
 20
181.607
 11
-69.3938
 21
184.033
  0
LINE
  8
0
 10
92.0221
 20
194.085
 11
105.78
 21
196.511
  0
LINE
  8
0
 10
105.78
 20
196.511
 11
108.206
 21
182.753
  0
LINE
  8
0
 10
108.206
 20
182.753
 11
94.448
 21
180.327
  0
LINE
  8
0
 10
94.448
 20
180.327
 11
92.0221
 21
194.085
  0
LINE
  8
0
 10
-108.206
 20
182.753
 11
-105.78
 21
196.511
  0
LINE
  8
0
 10
-105.78
 20
196.511
 11
-92.0221
 21
194.085
  0
LINE
  8
0
 10
-92.0221
 20
194.085
 11
-94.448
 21
180.327
  0
LINE
  8
0
 10
-94.448
 20
180.327
 11
-108.206
 21
182.753
  0
LINE
  8
0
 10
-88.9734
 20
182.408
 11
-86.5476
 21
196.166
  0
LINE
  8
0
 10
-86.5476
 20
196.166
 11
-72.7898
 21
193.74
  0
LINE
  8
0
 10
-72.7898
 20
193.74
 11
-75.2157
 21
179.982
  0
LINE
  8
0
 10
-75.2157
 20
179.982
 11
-88.9734
 21
182.408
  0
LINE
  8
0
 10
72.7898
 20
193.74
 11
86.5476
 21
196.166
  0
LINE
  8
0
 10
86.5476
 20
196.166
 11
88.9734
 21
182.408
  0
LINE
  8
0
 10
88.9734
 20
182.408
 11
75.2157
 21
179.982
  0
LINE
  8
0
 10
75.2157
 20
179.982
 11
72.7898
 21
193.74
  0
LINE
  8
0
 10
-51.7244
 20
174.825
 11
-49.2985
 21
188.582
  0
LINE
  8
0
 10
-49.2985
 20
188.582
 11
-35.5408
 21
186.156
  0
LINE
  8
0
 10
-35.5408
 20
186.156
 11
-37.9667
 21
172.399
  0
LINE
  8
0
 10
-37.9667
 20
172.399
 11
-51.7244
 21
174.825
  0
LINE
  8
0
 10
35.5408
 20
186.156
 11
49.2985
 21
188.582
  0
LINE
  8
0
 10
49.2985
 20
188.582
 11
51.7244
 21
174.825
  0
LINE
  8
0
 10
51.7244
 20
174.825
 11
37.9667
 21
172.399
  0
LINE
  8
0
 10
37.9667
 20
172.399
 11
35.5408
 21
186.156
  0
LINE
  8
0
 10
-33.8813
 20
166.601
 11
-31.4554
 21
180.359
  0
LINE
  8
0
 10
-31.4554
 20
180.359
 11
-17.6977
 21
177.933
  0
LINE
  8
0
 10
-17.6977
 20
177.933
 11
-20.1236
 21
164.175
  0
LINE
  8
0
 10
-20.1236
 20
164.175
 11
-33.8813
 21
166.601
  0
LINE
  8
0
 10
17.6977
 20
177.933
 11
31.4554
 21
180.359
  0
LINE
  8
0
 10
31.4554
 20
180.359
 11
33.8813
 21
166.601
  0
LINE
  8
0
 10
33.8813
 20
166.601
 11
20.1236
 21
164.175
  0
LINE
  8
0
 10
20.1236
 20
164.175
 11
17.6977
 21
177.933
  0
LINE
  8
0
 10
-72.6932
 20
165.321
 11
-70.2673
 21
179.079
  0
LINE
  8
0
 10
-70.2673
 20
179.079
 11
-56.5096
 21
176.653
  0
LINE
  8
0
 10
-56.5096
 20
176.653
 11
-58.9354
 21
162.896
  0
LINE
  8
0
 10
-58.9354
 20
162.896
 11
-72.6932
 21
165.321
  0
LINE
  8
0
 10
56.5096
 20
176.653
 11
70.2673
 21
179.079
  0
LINE
  8
0
 10
70.2673
 20
179.079
 11
72.6932
 21
165.321
  0
LINE
  8
0
 10
72.6932
 20
165.321
 11
58.9354
 21
162.896
  0
LINE
  8
0
 10
58.9354
 20
162.896
 11
56.5096
 21
176.653
  0
LINE
  8
0
 10
-111.505
 20
164.042
 11
-109.079
 21
177.799
  0
LINE
  8
0
 10
-109.079
 20
177.799
 11
-95.3214
 21
175.373
  0
LINE
  8
0
 10
-95.3214
 20
175.373
 11
-97.7473
 21
161.616
  0
LINE
  8
0
 10
-97.7473
 20
161.616
 11
-111.505
 21
164.042
  0
LINE
  8
0
 10
95.3214
 20
175.373
 11
109.079
 21
177.799
  0
LINE
  8
0
 10
109.079
 20
177.799
 11
111.505
 21
164.042
  0
LINE
  8
0
 10
111.505
 20
164.042
 11
97.7473
 21
161.616
  0
LINE
  8
0
 10
97.7473
 20
161.616
 11
95.3214
 21
175.373
  0
LINE
  8
0
 10
-92.2728
 20
163.697
 11
-89.8469
 21
177.454
  0
LINE
  8
0
 10
-89.8469
 20
177.454
 11
-76.0892
 21
175.029
  0
LINE
  8
0
 10
-76.0892
 20
175.029
 11
-78.515
 21
161.271
  0
LINE
  8
0
 10
-78.515
 20
161.271
 11
-92.2728
 21
163.697
  0
LINE
  8
0
 10
76.0892
 20
175.029
 11
89.8469
 21
177.454
  0
LINE
  8
0
 10
89.8469
 20
177.454
 11
92.2728
 21
163.697
  0
LINE
  8
0
 10
92.2728
 20
163.697
 11
78.515
 21
161.271
  0
LINE
  8
0
 10
78.515
 20
161.271
 11
76.0892
 21
175.029
  0
LINE
  8
0
 10
-55.0237
 20
156.113
 11
-52.5978
 21
169.871
  0
LINE
  8
0
 10
-52.5978
 20
169.871
 11
-38.8401
 21
167.445
  0
LINE
  8
0
 10
-38.8401
 20
167.445
 11
-41.266
 21
153.687
  0
LINE
  8
0
 10
-41.266
 20
153.687
 11
-55.0237
 21
156.113
  0
LINE
  8
0
 10
38.8401
 20
167.445
 11
52.5978
 21
169.871
  0
LINE
  8
0
 10
52.5978
 20
169.871
 11
55.0237
 21
156.113
  0
LINE
  8
0
 10
55.0237
 20
156.113
 11
41.266
 21
153.687
  0
LINE
  8
0
 10
41.266
 20
153.687
 11
38.8401
 21
167.445
  0
LINE
  8
0
 10
-37.1806
 20
147.89
 11
-34.7547
 21
161.648
  0
LINE
  8
0
 10
-34.7547
 20
161.648
 11
-20.997
 21
159.222
  0
LINE
  8
0
 10
-20.997
 20
159.222
 11
-23.4229
 21
145.464
  0
LINE
  8
0
 10
-23.4229
 20
145.464
 11
-37.1806
 21
147.89
  0
LINE
  8
0
 10
20.997
 20
159.222
 11
34.7547
 21
161.648
  0
LINE
  8
0
 10
34.7547
 20
161.648
 11
37.1806
 21
147.89
  0
LINE
  8
0
 10
37.1806
 20
147.89
 11
23.4229
 21
145.464
  0
LINE
  8
0
 10
23.4229
 20
145.464
 11
20.997
 21
159.222
  0
LINE
  8
0
 10
59.8089
 20
157.942
 11
73.5666
 21
160.368
  0
LINE
  8
0
 10
73.5666
 20
160.368
 11
75.9925
 21
146.61
  0
LINE
  8
0
 10
75.9925
 20
146.61
 11
62.2347
 21
144.184
  0
LINE
  8
0
 10
62.2347
 20
144.184
 11
59.8089
 21
157.942
  0
LINE
  8
0
 10
-75.9925
 20
146.61
 11
-73.5666
 21
160.368
  0
LINE
  8
0
 10
-73.5666
 20
160.368
 11
-59.8089
 21
157.942
  0
LINE
  8
0
 10
-59.8089
 20
157.942
 11
-62.2347
 21
144.184
  0
LINE
  8
0
 10
-62.2347
 20
144.184
 11
-75.9925
 21
146.61
  0
LINE
  8
0
 10
-114.804
 20
145.33
 11
-112.378
 21
159.088
  0
LINE
  8
0
 10
-112.378
 20
159.088
 11
-98.6208
 21
156.662
  0
LINE
  8
0
 10
-98.6208
 20
156.662
 11
-101.047
 21
142.904
  0
LINE
  8
0
 10
-101.047
 20
142.904
 11
-114.804
 21
145.33
  0
LINE
  8
0
 10
98.6208
 20
156.662
 11
112.378
 21
159.088
  0
LINE
  8
0
 10
112.378
 20
159.088
 11
114.804
 21
145.33
  0
LINE
  8
0
 10
114.804
 20
145.33
 11
101.047
 21
142.904
  0
LINE
  8
0
 10
101.047
 20
142.904
 11
98.6208
 21
156.662
  0
LINE
  8
0
 10
79.3885
 20
156.317
 11
93.1462
 21
158.743
  0
LINE
  8
0
 10
93.1462
 20
158.743
 11
95.5721
 21
144.985
  0
LINE
  8
0
 10
95.5721
 20
144.985
 11
81.8143
 21
142.56
  0
LINE
  8
0
 10
81.8143
 20
142.56
 11
79.3885
 21
156.317
  0
LINE
  8
0
 10
-95.5721
 20
144.985
 11
-93.1462
 21
158.743
  0
LINE
  8
0
 10
-93.1462
 20
158.743
 11
-79.3885
 21
156.317
  0
LINE
  8
0
 10
-79.3885
 20
156.317
 11
-81.8143
 21
142.56
  0
LINE
  8
0
 10
-81.8143
 20
142.56
 11
-95.5721
 21
144.985
  0
LINE
  8
0
 10
42.1394
 20
148.734
 11
55.8972
 21
151.16
  0
LINE
  8
0
 10
55.8972
 20
151.16
 11
58.323
 21
137.402
  0
LINE
  8
0
 10
58.323
 20
137.402
 11
44.5653
 21
134.976
  0
LINE
  8
0
 10
44.5653
 20
134.976
 11
42.1394
 21
148.734
  0
LINE
  8
0
 10
-58.323
 20
137.402
 11
-55.8972
 21
151.16
  0
LINE
  8
0
 10
-55.8972
 20
151.16
 11
-42.1394
 21
148.734
  0
LINE
  8
0
 10
-42.1394
 20
148.734
 11
-44.5653
 21
134.976
  0
LINE
  8
0
 10
-44.5653
 20
134.976
 11
-58.323
 21
137.402
  0
LINE
  8
0
 10
24.2963
 20
140.51
 11
38.054
 21
142.936
  0
LINE
  8
0
 10
38.054
 20
142.936
 11
40.4799
 21
129.179
  0
LINE
  8
0
 10
40.4799
 20
129.179
 11
26.7222
 21
126.753
  0
LINE
  8
0
 10
26.7222
 20
126.753
 11
24.2963
 21
140.51
  0
LINE
  8
0
 10
-40.4799
 20
129.179
 11
-38.054
 21
142.936
  0
LINE
  8
0
 10
-38.054
 20
142.936
 11
-24.2963
 21
140.51
  0
LINE
  8
0
 10
-24.2963
 20
140.51
 11
-26.7222
 21
126.753
  0
LINE
  8
0
 10
-26.7222
 20
126.753
 11
-40.4799
 21
129.179
  0
LINE
  8
0
 10
5.06401
 20
140.166
 11
18.8218
 21
142.591
  0
LINE
  8
0
 10
18.8218
 20
142.591
 11
21.2476
 21
128.834
  0
LINE
  8
0
 10
21.2476
 20
128.834
 11
7.48987
 21
126.408
  0
LINE
  8
0
 10
7.48987
 20
126.408
 11
5.06401
 21
140.166
  0
LINE
  8
0
 10
-21.2476
 20
128.834
 11
-18.8218
 21
142.591
  0
LINE
  8
0
 10
-18.8218
 20
142.591
 11
-5.06401
 21
140.166
  0
LINE
  8
0
 10
-5.06401
 20
140.166
 11
-7.48987
 21
126.408
  0
LINE
  8
0
 10
-7.48987
 20
126.408
 11
-21.2476
 21
128.834
  0
LINE
  8
0
 10
121.63
 20
138.92
 11
121.445
 21
138.957
  0
LINE
  8
0
 10
121.445
 20
138.957
 11
121.267
 21
139.018
  0
LINE
  8
0
 10
121.267
 20
139.018
 11
121.098
 21
139.101
  0
LINE
  8
0
 10
121.098
 20
139.101
 11
120.94
 21
139.204
  0
LINE
  8
0
 10
120.94
 20
139.204
 11
120.796
 21
139.326
  0
LINE
  8
0
 10
120.796
 20
139.326
 11
120.669
 21
139.465
  0
LINE
  8
0
 10
120.669
 20
139.465
 11
120.561
 21
139.619
  0
LINE
  8
0
 10
120.561
 20
139.619
 11
120.472
 21
139.785
  0
LINE
  8
0
 10
120.472
 20
139.785
 11
120.406
 21
139.961
  0
LINE
  8
0
 10
120.406
 20
139.961
 11
120.361
 21
140.144
  0
LINE
  8
0
 10
120.361
 20
140.144
 11
120.34
 21
140.332
  0
LINE
  8
0
 10
120.34
 20
140.332
 11
120.343
 21
140.52
  0
LINE
  8
0
 10
120.343
 20
140.52
 11
120.369
 21
140.707
  0
LINE
  8
0
 10
120.369
 20
140.707
 11
120.419
 21
140.888
  0
LINE
  8
0
 10
120.419
 20
140.888
 11
120.49
 21
141.062
  0
LINE
  8
0
 10
120.49
 20
141.062
 11
120.583
 21
141.226
  0
LINE
  8
0
 10
120.583
 20
141.226
 11
120.696
 21
141.377
  0
LINE
  8
0
 10
120.696
 20
141.377
 11
120.827
 21
141.513
  0
LINE
  8
0
 10
120.827
 20
141.513
 11
120.974
 21
141.631
  0
LINE
  8
0
 10
120.974
 20
141.631
 11
121.134
 21
141.729
  0
LINE
  8
0
 10
121.134
 20
141.729
 11
121.306
 21
141.807
  0
LINE
  8
0
 10
121.306
 20
141.807
 11
121.486
 21
141.863
  0
LINE
  8
0
 10
121.486
 20
141.863
 11
121.671
 21
141.896
  0
LINE
  8
0
 10
121.671
 20
141.896
 11
121.859
 21
141.905
  0
LINE
  8
0
 10
121.859
 20
141.905
 11
122.047
 21
141.89
  0
LINE
  8
0
 10
122.047
 20
141.89
 11
122.232
 21
141.852
  0
LINE
  8
0
 10
122.232
 20
141.852
 11
122.41
 21
141.792
  0
LINE
  8
0
 10
122.41
 20
141.792
 11
122.579
 21
141.709
  0
LINE
  8
0
 10
122.579
 20
141.709
 11
122.737
 21
141.606
  0
LINE
  8
0
 10
122.737
 20
141.606
 11
122.88
 21
141.484
  0
LINE
  8
0
 10
122.88
 20
141.484
 11
123.007
 21
141.345
  0
LINE
  8
0
 10
123.007
 20
141.345
 11
123.116
 21
141.191
  0
LINE
  8
0
 10
123.116
 20
141.191
 11
123.205
 21
141.025
  0
LINE
  8
0
 10
123.205
 20
141.025
 11
123.271
 21
140.848
  0
LINE
  8
0
 10
123.271
 20
140.848
 11
123.316
 21
140.665
  0
LINE
  8
0
 10
123.316
 20
140.665
 11
123.337
 21
140.478
  0
LINE
  8
0
 10
123.337
 20
140.478
 11
123.334
 21
140.29
  0
LINE
  8
0
 10
123.334
 20
140.29
 11
123.308
 21
140.103
  0
LINE
  8
0
 10
123.308
 20
140.103
 11
123.258
 21
139.922
  0
LINE
  8
0
 10
123.258
 20
139.922
 11
123.187
 21
139.747
  0
LINE
  8
0
 10
123.187
 20
139.747
 11
123.094
 21
139.584
  0
LINE
  8
0
 10
123.094
 20
139.584
 11
122.981
 21
139.433
  0
LINE
  8
0
 10
122.981
 20
139.433
 11
122.85
 21
139.297
  0
LINE
  8
0
 10
122.85
 20
139.297
 11
122.703
 21
139.179
  0
LINE
  8
0
 10
122.703
 20
139.179
 11
122.543
 21
139.08
  0
LINE
  8
0
 10
122.543
 20
139.08
 11
122.371
 21
139.003
  0
LINE
  8
0
 10
122.371
 20
139.003
 11
122.191
 21
138.947
  0
LINE
  8
0
 10
122.191
 20
138.947
 11
122.006
 21
138.914
  0
LINE
  8
0
 10
122.006
 20
138.914
 11
121.818
 21
138.905
  0
LINE
  8
0
 10
121.818
 20
138.905
 11
121.63
 21
138.92
  0
LINE
  8
0
 10
-122.006
 20
138.914
 11
-122.191
 21
138.947
  0
LINE
  8
0
 10
-122.191
 20
138.947
 11
-122.371
 21
139.003
  0
LINE
  8
0
 10
-122.371
 20
139.003
 11
-122.543
 21
139.08
  0
LINE
  8
0
 10
-122.543
 20
139.08
 11
-122.703
 21
139.179
  0
LINE
  8
0
 10
-122.703
 20
139.179
 11
-122.85
 21
139.297
  0
LINE
  8
0
 10
-122.85
 20
139.297
 11
-122.981
 21
139.433
  0
LINE
  8
0
 10
-122.981
 20
139.433
 11
-123.094
 21
139.584
  0
LINE
  8
0
 10
-123.094
 20
139.584
 11
-123.187
 21
139.747
  0
LINE
  8
0
 10
-123.187
 20
139.747
 11
-123.258
 21
139.922
  0
LINE
  8
0
 10
-123.258
 20
139.922
 11
-123.308
 21
140.103
  0
LINE
  8
0
 10
-123.308
 20
140.103
 11
-123.334
 21
140.29
  0
LINE
  8
0
 10
-123.334
 20
140.29
 11
-123.337
 21
140.478
  0
LINE
  8
0
 10
-123.337
 20
140.478
 11
-123.316
 21
140.665
  0
LINE
  8
0
 10
-123.316
 20
140.665
 11
-123.271
 21
140.848
  0
LINE
  8
0
 10
-123.271
 20
140.848
 11
-123.205
 21
141.025
  0
LINE
  8
0
 10
-123.205
 20
141.025
 11
-123.116
 21
141.191
  0
LINE
  8
0
 10
-123.116
 20
141.191
 11
-123.007
 21
141.345
  0
LINE
  8
0
 10
-123.007
 20
141.345
 11
-122.88
 21
141.484
  0
LINE
  8
0
 10
-122.88
 20
141.484
 11
-122.737
 21
141.606
  0
LINE
  8
0
 10
-122.737
 20
141.606
 11
-122.579
 21
141.709
  0
LINE
  8
0
 10
-122.579
 20
141.709
 11
-122.41
 21
141.792
  0
LINE
  8
0
 10
-122.41
 20
141.792
 11
-122.232
 21
141.852
  0
LINE
  8
0
 10
-122.232
 20
141.852
 11
-122.047
 21
141.89
  0
LINE
  8
0
 10
-122.047
 20
141.89
 11
-121.859
 21
141.905
  0
LINE
  8
0
 10
-121.859
 20
141.905
 11
-121.671
 21
141.896
  0
LINE
  8
0
 10
-121.671
 20
141.896
 11
-121.486
 21
141.863
  0
LINE
  8
0
 10
-121.486
 20
141.863
 11
-121.306
 21
141.807
  0
LINE
  8
0
 10
-121.306
 20
141.807
 11
-121.134
 21
141.729
  0
LINE
  8
0
 10
-121.134
 20
141.729
 11
-120.974
 21
141.631
  0
LINE
  8
0
 10
-120.974
 20
141.631
 11
-120.827
 21
141.513
  0
LINE
  8
0
 10
-120.827
 20
141.513
 11
-120.696
 21
141.377
  0
LINE
  8
0
 10
-120.696
 20
141.377
 11
-120.583
 21
141.226
  0
LINE
  8
0
 10
-120.583
 20
141.226
 11
-120.49
 21
141.062
  0
LINE
  8
0
 10
-120.49
 20
141.062
 11
-120.419
 21
140.888
  0
LINE
  8
0
 10
-120.419
 20
140.888
 11
-120.369
 21
140.707
  0
LINE
  8
0
 10
-120.369
 20
140.707
 11
-120.343
 21
140.52
  0
LINE
  8
0
 10
-120.343
 20
140.52
 11
-120.34
 21
140.332
  0
LINE
  8
0
 10
-120.34
 20
140.332
 11
-120.361
 21
140.144
  0
LINE
  8
0
 10
-120.361
 20
140.144
 11
-120.406
 21
139.961
  0
LINE
  8
0
 10
-120.406
 20
139.961
 11
-120.472
 21
139.785
  0
LINE
  8
0
 10
-120.472
 20
139.785
 11
-120.561
 21
139.619
  0
LINE
  8
0
 10
-120.561
 20
139.619
 11
-120.669
 21
139.465
  0
LINE
  8
0
 10
-120.669
 20
139.465
 11
-120.796
 21
139.326
  0
LINE
  8
0
 10
-120.796
 20
139.326
 11
-120.94
 21
139.204
  0
LINE
  8
0
 10
-120.94
 20
139.204
 11
-121.098
 21
139.101
  0
LINE
  8
0
 10
-121.098
 20
139.101
 11
-121.267
 21
139.018
  0
LINE
  8
0
 10
-121.267
 20
139.018
 11
-121.445
 21
138.957
  0
LINE
  8
0
 10
-121.445
 20
138.957
 11
-121.63
 21
138.92
  0
LINE
  8
0
 10
-121.63
 20
138.92
 11
-121.818
 21
138.905
  0
LINE
  8
0
 10
-121.818
 20
138.905
 11
-122.006
 21
138.914
  0
LINE
  8
0
 10
-21.964
 20
118.228
 11
-22.1495
 21
118.261
  0
LINE
  8
0
 10
-22.1495
 20
118.261
 11
-22.3295
 21
118.316
  0
LINE
  8
0
 10
-22.3295
 20
118.316
 11
-22.501
 21
118.394
  0
LINE
  8
0
 10
-22.501
 20
118.394
 11
-22.6615
 21
118.493
  0
LINE
  8
0
 10
-22.6615
 20
118.493
 11
-22.8083
 21
118.611
  0
LINE
  8
0
 10
-22.8083
 20
118.611
 11
-22.9391
 21
118.746
  0
LINE
  8
0
 10
-22.9391
 20
118.746
 11
-23.052
 21
118.897
  0
LINE
  8
0
 10
-23.052
 20
118.897
 11
-23.145
 21
119.061
  0
LINE
  8
0
 10
-23.145
 20
119.061
 11
-23.2168
 21
119.235
  0
LINE
  8
0
 10
-23.2168
 20
119.235
 11
-23.2662
 21
119.417
  0
LINE
  8
0
 10
-23.2662
 20
119.417
 11
-23.2924
 21
119.604
  0
LINE
  8
0
 10
-23.2924
 20
119.604
 11
-23.295
 21
119.792
  0
LINE
  8
0
 10
-23.295
 20
119.792
 11
-23.274
 21
119.979
  0
LINE
  8
0
 10
-23.274
 20
119.979
 11
-23.2297
 21
120.162
  0
LINE
  8
0
 10
-23.2297
 20
120.162
 11
-23.1628
 21
120.338
  0
LINE
  8
0
 10
-23.1628
 20
120.338
 11
-23.0744
 21
120.505
  0
LINE
  8
0
 10
-23.0744
 20
120.505
 11
-22.9658
 21
120.658
  0
LINE
  8
0
 10
-22.9658
 20
120.658
 11
-22.8388
 21
120.798
  0
LINE
  8
0
 10
-22.8388
 20
120.798
 11
-22.6954
 21
120.92
  0
LINE
  8
0
 10
-22.6954
 20
120.92
 11
-22.5377
 21
121.023
  0
LINE
  8
0
 10
-22.5377
 20
121.023
 11
-22.3684
 21
121.105
  0
LINE
  8
0
 10
-22.3684
 20
121.105
 11
-22.1901
 21
121.166
  0
LINE
  8
0
 10
-22.1901
 20
121.166
 11
-22.0056
 21
121.204
  0
LINE
  8
0
 10
-22.0056
 20
121.204
 11
-21.8178
 21
121.218
  0
LINE
  8
0
 10
-21.8178
 20
121.218
 11
-21.6296
 21
121.209
  0
LINE
  8
0
 10
-21.6296
 20
121.209
 11
-21.4441
 21
121.177
  0
LINE
  8
0
 10
-21.4441
 20
121.177
 11
-21.2642
 21
121.121
  0
LINE
  8
0
 10
-21.2642
 20
121.121
 11
-21.0926
 21
121.043
  0
LINE
  8
0
 10
-21.0926
 20
121.043
 11
-20.9322
 21
120.944
  0
LINE
  8
0
 10
-20.9322
 20
120.944
 11
-20.7854
 21
120.826
  0
LINE
  8
0
 10
-20.7854
 20
120.826
 11
-20.6545
 21
120.691
  0
LINE
  8
0
 10
-20.6545
 20
120.691
 11
-20.5417
 21
120.54
  0
LINE
  8
0
 10
-20.5417
 20
120.54
 11
-20.4486
 21
120.376
  0
LINE
  8
0
 10
-20.4486
 20
120.376
 11
-20.3768
 21
120.202
  0
LINE
  8
0
 10
-20.3768
 20
120.202
 11
-20.3275
 21
120.02
  0
LINE
  8
0
 10
-20.3275
 20
120.02
 11
-20.3012
 21
119.834
  0
LINE
  8
0
 10
-20.3012
 20
119.834
 11
-20.2986
 21
119.645
  0
LINE
  8
0
 10
-20.2986
 20
119.645
 11
-20.3196
 21
119.458
  0
LINE
  8
0
 10
-20.3196
 20
119.458
 11
-20.3639
 21
119.275
  0
LINE
  8
0
 10
-20.3639
 20
119.275
 11
-20.4308
 21
119.099
  0
LINE
  8
0
 10
-20.4308
 20
119.099
 11
-20.5192
 21
118.933
  0
LINE
  8
0
 10
-20.5192
 20
118.933
 11
-20.6278
 21
118.779
  0
LINE
  8
0
 10
-20.6278
 20
118.779
 11
-20.7548
 21
118.64
  0
LINE
  8
0
 10
-20.7548
 20
118.64
 11
-20.8983
 21
118.518
  0
LINE
  8
0
 10
-20.8983
 20
118.518
 11
-21.0559
 21
118.414
  0
LINE
  8
0
 10
-21.0559
 20
118.414
 11
-21.2252
 21
118.332
  0
LINE
  8
0
 10
-21.2252
 20
118.332
 11
-21.4035
 21
118.271
  0
LINE
  8
0
 10
-21.4035
 20
118.271
 11
-21.5881
 21
118.233
  0
LINE
  8
0
 10
-21.5881
 20
118.233
 11
-21.7759
 21
118.219
  0
LINE
  8
0
 10
-21.7759
 20
118.219
 11
-21.964
 21
118.228
  0
LINE
  8
0
 10
21.5881
 20
118.233
 11
21.4035
 21
118.271
  0
LINE
  8
0
 10
21.4035
 20
118.271
 11
21.2252
 21
118.332
  0
LINE
  8
0
 10
21.2252
 20
118.332
 11
21.0559
 21
118.414
  0
LINE
  8
0
 10
21.0559
 20
118.414
 11
20.8983
 21
118.518
  0
LINE
  8
0
 10
20.8983
 20
118.518
 11
20.7548
 21
118.64
  0
LINE
  8
0
 10
20.7548
 20
118.64
 11
20.6278
 21
118.779
  0
LINE
  8
0
 10
20.6278
 20
118.779
 11
20.5192
 21
118.933
  0
LINE
  8
0
 10
20.5192
 20
118.933
 11
20.4308
 21
119.099
  0
LINE
  8
0
 10
20.4308
 20
119.099
 11
20.3639
 21
119.275
  0
LINE
  8
0
 10
20.3639
 20
119.275
 11
20.3196
 21
119.458
  0
LINE
  8
0
 10
20.3196
 20
119.458
 11
20.2986
 21
119.645
  0
LINE
  8
0
 10
20.2986
 20
119.645
 11
20.3012
 21
119.834
  0
LINE
  8
0
 10
20.3012
 20
119.834
 11
20.3275
 21
120.02
  0
LINE
  8
0
 10
20.3275
 20
120.02
 11
20.3768
 21
120.202
  0
LINE
  8
0
 10
20.3768
 20
120.202
 11
20.4486
 21
120.376
  0
LINE
  8
0
 10
20.4486
 20
120.376
 11
20.5417
 21
120.54
  0
LINE
  8
0
 10
20.5417
 20
120.54
 11
20.6545
 21
120.691
  0
LINE
  8
0
 10
20.6545
 20
120.691
 11
20.7854
 21
120.826
  0
LINE
  8
0
 10
20.7854
 20
120.826
 11
20.9322
 21
120.944
  0
LINE
  8
0
 10
20.9322
 20
120.944
 11
21.0926
 21
121.043
  0
LINE
  8
0
 10
21.0926
 20
121.043
 11
21.2642
 21
121.121
  0
LINE
  8
0
 10
21.2642
 20
121.121
 11
21.4441
 21
121.177
  0
LINE
  8
0
 10
21.4441
 20
121.177
 11
21.6296
 21
121.209
  0
LINE
  8
0
 10
21.6296
 20
121.209
 11
21.8178
 21
121.218
  0
LINE
  8
0
 10
21.8178
 20
121.218
 11
22.0056
 21
121.204
  0
LINE
  8
0
 10
22.0056
 20
121.204
 11
22.1901
 21
121.166
  0
LINE
  8
0
 10
22.1901
 20
121.166
 11
22.3684
 21
121.105
  0
LINE
  8
0
 10
22.3684
 20
121.105
 11
22.5377
 21
121.023
  0
LINE
  8
0
 10
22.5377
 20
121.023
 11
22.6954
 21
120.92
  0
LINE
  8
0
 10
22.6954
 20
120.92
 11
22.8388
 21
120.798
  0
LINE
  8
0
 10
22.8388
 20
120.798
 11
22.9658
 21
120.658
  0
LINE
  8
0
 10
22.9658
 20
120.658
 11
23.0744
 21
120.505
  0
LINE
  8
0
 10
23.0744
 20
120.505
 11
23.1628
 21
120.338
  0
LINE
  8
0
 10
23.1628
 20
120.338
 11
23.2297
 21
120.162
  0
LINE
  8
0
 10
23.2297
 20
120.162
 11
23.274
 21
119.979
  0
LINE
  8
0
 10
23.274
 20
119.979
 11
23.295
 21
119.792
  0
LINE
  8
0
 10
23.295
 20
119.792
 11
23.2924
 21
119.604
  0
LINE
  8
0
 10
23.2924
 20
119.604
 11
23.2662
 21
119.417
  0
LINE
  8
0
 10
23.2662
 20
119.417
 11
23.2168
 21
119.235
  0
LINE
  8
0
 10
23.2168
 20
119.235
 11
23.145
 21
119.061
  0
LINE
  8
0
 10
23.145
 20
119.061
 11
23.052
 21
118.897
  0
LINE
  8
0
 10
23.052
 20
118.897
 11
22.9391
 21
118.746
  0
LINE
  8
0
 10
22.9391
 20
118.746
 11
22.8083
 21
118.611
  0
LINE
  8
0
 10
22.8083
 20
118.611
 11
22.6615
 21
118.493
  0
LINE
  8
0
 10
22.6615
 20
118.493
 11
22.501
 21
118.394
  0
LINE
  8
0
 10
22.501
 20
118.394
 11
22.3295
 21
118.316
  0
LINE
  8
0
 10
22.3295
 20
118.316
 11
22.1495
 21
118.261
  0
LINE
  8
0
 10
22.1495
 20
118.261
 11
21.964
 21
118.228
  0
LINE
  8
0
 10
21.964
 20
118.228
 11
21.7759
 21
118.219
  0
LINE
  8
0
 10
21.7759
 20
118.219
 11
21.5881
 21
118.233
  0
LINE
  8
0
 10
302.466
 20
113.756
 11
303.208
 21
113.887
  0
LINE
  8
0
 10
303.208
 20
113.887
 11
403.249
 21
134.573
  0
LINE
  8
0
 10
403.249
 20
134.573
 11
403.969
 21
134.796
  0
LINE
  8
0
 10
403.969
 20
134.796
 11
404.655
 21
135.107
  0
LINE
  8
0
 10
404.655
 20
135.107
 11
405.297
 21
135.502
  0
LINE
  8
0
 10
405.297
 20
135.502
 11
405.884
 21
135.974
  0
LINE
  8
0
 10
405.884
 20
135.974
 11
406.408
 21
136.516
  0
LINE
  8
0
 10
406.408
 20
136.516
 11
406.859
 21
137.12
  0
LINE
  8
0
 10
406.859
 20
137.12
 11
407.231
 21
137.775
  0
LINE
  8
0
 10
407.231
 20
137.775
 11
407.518
 21
138.471
  0
LINE
  8
0
 10
407.518
 20
138.471
 11
407.716
 21
139.198
  0
LINE
  8
0
 10
407.716
 20
139.198
 11
407.821
 21
139.945
  0
LINE
  8
0
 10
407.821
 20
139.945
 11
407.831
 21
140.698
  0
LINE
  8
0
 10
407.831
 20
140.698
 11
407.747
 21
141.447
  0
LINE
  8
0
 10
407.747
 20
141.447
 11
393.315
 21
223.298
  0
LINE
  8
0
 10
393.315
 20
223.298
 11
393.138
 21
224.03
  0
LINE
  8
0
 10
393.138
 20
224.03
 11
392.87
 21
224.735
  0
LINE
  8
0
 10
392.87
 20
224.735
 11
392.516
 21
225.4
  0
LINE
  8
0
 10
392.516
 20
225.4
 11
392.082
 21
226.016
  0
LINE
  8
0
 10
392.082
 20
226.016
 11
391.574
 21
226.572
  0
LINE
  8
0
 10
391.574
 20
226.572
 11
391
 21
227.061
  0
LINE
  8
0
 10
391
 20
227.061
 11
390.37
 21
227.473
  0
LINE
  8
0
 10
390.37
 20
227.473
 11
389.692
 21
227.803
  0
LINE
  8
0
 10
389.692
 20
227.803
 11
388.979
 21
228.046
  0
LINE
  8
0
 10
388.979
 20
228.046
 11
388.241
 21
228.198
  0
LINE
  8
0
 10
388.241
 20
228.198
 11
387.49
 21
228.256
  0
LINE
  8
0
 10
387.49
 20
228.256
 11
286
 21
228.256
  0
LINE
  8
0
 10
286
 20
228.256
 11
286
 21
218.257
  0
LINE
  8
0
 10
286
 20
218.257
 11
298.525
 21
218.257
  0
LINE
  8
0
 10
298.525
 20
218.257
 11
298.547
 21
218.373
  0
LINE
  8
0
 10
298.547
 20
218.373
 11
298.605
 21
218.552
  0
LINE
  8
0
 10
298.605
 20
218.552
 11
298.686
 21
218.723
  0
LINE
  8
0
 10
298.686
 20
218.723
 11
298.786
 21
218.882
  0
LINE
  8
0
 10
298.786
 20
218.882
 11
298.907
 21
219.027
  0
LINE
  8
0
 10
298.907
 20
219.027
 11
299.044
 21
219.156
  0
LINE
  8
0
 10
299.044
 20
219.156
 11
299.196
 21
219.266
  0
LINE
  8
0
 10
299.196
 20
219.266
 11
299.361
 21
219.357
  0
LINE
  8
0
 10
299.361
 20
219.357
 11
299.536
 21
219.427
  0
LINE
  8
0
 10
299.536
 20
219.427
 11
299.719
 21
219.473
  0
LINE
  8
0
 10
299.719
 20
219.473
 11
299.906
 21
219.497
  0
LINE
  8
0
 10
299.906
 20
219.497
 11
300.094
 21
219.497
  0
LINE
  8
0
 10
300.094
 20
219.497
 11
300.281
 21
219.473
  0
LINE
  8
0
 10
300.281
 20
219.473
 11
300.464
 21
219.427
  0
LINE
  8
0
 10
300.464
 20
219.427
 11
300.639
 21
219.357
  0
LINE
  8
0
 10
300.639
 20
219.357
 11
300.804
 21
219.266
  0
LINE
  8
0
 10
300.804
 20
219.266
 11
300.956
 21
219.156
  0
LINE
  8
0
 10
300.956
 20
219.156
 11
301.093
 21
219.027
  0
LINE
  8
0
 10
301.093
 20
219.027
 11
301.214
 21
218.882
  0
LINE
  8
0
 10
301.214
 20
218.882
 11
301.314
 21
218.723
  0
LINE
  8
0
 10
301.314
 20
218.723
 11
301.395
 21
218.552
  0
LINE
  8
0
 10
301.395
 20
218.552
 11
301.453
 21
218.373
  0
LINE
  8
0
 10
301.453
 20
218.373
 11
301.475
 21
218.257
  0
LINE
  8
0
 10
301.475
 20
218.257
 11
344.898
 21
218.257
  0
LINE
  8
0
 10
344.898
 20
218.257
 11
383.709
 21
216.977
  0
LINE
  8
0
 10
383.709
 20
216.977
 11
396.559
 21
144.101
  0
LINE
  8
0
 10
396.559
 20
144.101
 11
306.056
 21
123.935
  0
LINE
  8
0
 10
306.056
 20
123.935
 11
305.965
 21
124.035
  0
LINE
  8
0
 10
305.965
 20
124.035
 11
305.391
 21
124.523
  0
LINE
  8
0
 10
305.391
 20
124.523
 11
304.76
 21
124.936
  0
LINE
  8
0
 10
304.76
 20
124.936
 11
304.083
 21
125.266
  0
LINE
  8
0
 10
304.083
 20
125.266
 11
303.37
 21
125.509
  0
LINE
  8
0
 10
303.37
 20
125.509
 11
302.632
 21
125.66
  0
LINE
  8
0
 10
302.632
 20
125.66
 11
301.881
 21
125.718
  0
LINE
  8
0
 10
301.881
 20
125.718
 11
301.128
 21
125.681
  0
LINE
  8
0
 10
301.128
 20
125.681
 11
300.386
 21
125.55
  0
LINE
  8
0
 10
300.386
 20
125.55
 11
299.666
 21
125.328
  0
LINE
  8
0
 10
299.666
 20
125.328
 11
298.98
 21
125.016
  0
LINE
  8
0
 10
298.98
 20
125.016
 11
298.338
 21
124.621
  0
LINE
  8
0
 10
298.338
 20
124.621
 11
297.751
 21
124.149
  0
LINE
  8
0
 10
297.751
 20
124.149
 11
297.228
 21
123.607
  0
LINE
  8
0
 10
297.228
 20
123.607
 11
296.776
 21
123.004
  0
LINE
  8
0
 10
296.776
 20
123.004
 11
296.404
 21
122.349
  0
LINE
  8
0
 10
296.404
 20
122.349
 11
296.305
 21
122.108
  0
LINE
  8
0
 10
296.305
 20
122.108
 11
286.999
 21
120.467
  0
LINE
  8
0
 10
286.999
 20
120.467
 11
273.001
 21
120.467
  0
LINE
  8
0
 10
273.001
 20
120.467
 11
263.695
 21
122.108
  0
LINE
  8
0
 10
263.695
 20
122.108
 11
263.596
 21
122.349
  0
LINE
  8
0
 10
263.596
 20
122.349
 11
263.224
 21
123.004
  0
LINE
  8
0
 10
263.224
 20
123.004
 11
262.772
 21
123.607
  0
LINE
  8
0
 10
262.772
 20
123.607
 11
262.249
 21
124.149
  0
LINE
  8
0
 10
262.249
 20
124.149
 11
261.662
 21
124.621
  0
LINE
  8
0
 10
261.662
 20
124.621
 11
261.02
 21
125.016
  0
LINE
  8
0
 10
261.02
 20
125.016
 11
260.334
 21
125.328
  0
LINE
  8
0
 10
260.334
 20
125.328
 11
259.614
 21
125.55
  0
LINE
  8
0
 10
259.614
 20
125.55
 11
258.872
 21
125.681
  0
LINE
  8
0
 10
258.872
 20
125.681
 11
258.119
 21
125.718
  0
LINE
  8
0
 10
258.119
 20
125.718
 11
257.368
 21
125.66
  0
LINE
  8
0
 10
257.368
 20
125.66
 11
256.63
 21
125.509
  0
LINE
  8
0
 10
256.63
 20
125.509
 11
255.917
 21
125.266
  0
LINE
  8
0
 10
255.917
 20
125.266
 11
255.24
 21
124.936
  0
LINE
  8
0
 10
255.24
 20
124.936
 11
254.609
 21
124.523
  0
LINE
  8
0
 10
254.609
 20
124.523
 11
254.035
 21
124.035
  0
LINE
  8
0
 10
254.035
 20
124.035
 11
253.944
 21
123.935
  0
LINE
  8
0
 10
253.944
 20
123.935
 11
163.441
 21
144.101
  0
LINE
  8
0
 10
163.441
 20
144.101
 11
176.291
 21
216.977
  0
LINE
  8
0
 10
176.291
 20
216.977
 11
215.102
 21
218.257
  0
LINE
  8
0
 10
215.102
 20
218.257
 11
258.525
 21
218.257
  0
LINE
  8
0
 10
258.525
 20
218.257
 11
258.547
 21
218.373
  0
LINE
  8
0
 10
258.547
 20
218.373
 11
258.605
 21
218.552
  0
LINE
  8
0
 10
258.605
 20
218.552
 11
258.686
 21
218.723
  0
LINE
  8
0
 10
258.686
 20
218.723
 11
258.786
 21
218.882
  0
LINE
  8
0
 10
258.786
 20
218.882
 11
258.907
 21
219.027
  0
LINE
  8
0
 10
258.907
 20
219.027
 11
259.044
 21
219.156
  0
LINE
  8
0
 10
259.044
 20
219.156
 11
259.196
 21
219.266
  0
LINE
  8
0
 10
259.196
 20
219.266
 11
259.361
 21
219.357
  0
LINE
  8
0
 10
259.361
 20
219.357
 11
259.536
 21
219.427
  0
LINE
  8
0
 10
259.536
 20
219.427
 11
259.719
 21
219.473
  0
LINE
  8
0
 10
259.719
 20
219.473
 11
259.906
 21
219.497
  0
LINE
  8
0
 10
259.906
 20
219.497
 11
260.094
 21
219.497
  0
LINE
  8
0
 10
260.094
 20
219.497
 11
260.281
 21
219.473
  0
LINE
  8
0
 10
260.281
 20
219.473
 11
260.464
 21
219.427
  0
LINE
  8
0
 10
260.464
 20
219.427
 11
260.639
 21
219.357
  0
LINE
  8
0
 10
260.639
 20
219.357
 11
260.804
 21
219.266
  0
LINE
  8
0
 10
260.804
 20
219.266
 11
260.956
 21
219.156
  0
LINE
  8
0
 10
260.956
 20
219.156
 11
261.093
 21
219.027
  0
LINE
  8
0
 10
261.093
 20
219.027
 11
261.214
 21
218.882
  0
LINE
  8
0
 10
261.214
 20
218.882
 11
261.314
 21
218.723
  0
LINE
  8
0
 10
261.314
 20
218.723
 11
261.395
 21
218.552
  0
LINE
  8
0
 10
261.395
 20
218.552
 11
261.453
 21
218.373
  0
LINE
  8
0
 10
261.453
 20
218.373
 11
261.475
 21
218.257
  0
LINE
  8
0
 10
261.475
 20
218.257
 11
274
 21
218.257
  0
LINE
  8
0
 10
274
 20
218.257
 11
274
 21
228.256
  0
LINE
  8
0
 10
274
 20
228.256
 11
172.51
 21
228.256
  0
LINE
  8
0
 10
172.51
 20
228.256
 11
171.759
 21
228.198
  0
LINE
  8
0
 10
171.759
 20
228.198
 11
171.021
 21
228.046
  0
LINE
  8
0
 10
171.021
 20
228.046
 11
170.308
 21
227.803
  0
LINE
  8
0
 10
170.308
 20
227.803
 11
169.63
 21
227.473
  0
LINE
  8
0
 10
169.63
 20
227.473
 11
169
 21
227.061
  0
LINE
  8
0
 10
169
 20
227.061
 11
168.426
 21
226.572
  0
LINE
  8
0
 10
168.426
 20
226.572
 11
167.918
 21
226.016
  0
LINE
  8
0
 10
167.918
 20
226.016
 11
167.484
 21
225.4
  0
LINE
  8
0
 10
167.484
 20
225.4
 11
167.13
 21
224.735
  0
LINE
  8
0
 10
167.13
 20
224.735
 11
166.862
 21
224.03
  0
LINE
  8
0
 10
166.862
 20
224.03
 11
166.685
 21
223.298
  0
LINE
  8
0
 10
166.685
 20
223.298
 11
152.253
 21
141.447
  0
LINE
  8
0
 10
152.253
 20
141.447
 11
152.169
 21
140.698
  0
LINE
  8
0
 10
152.169
 20
140.698
 11
152.179
 21
139.945
  0
LINE
  8
0
 10
152.179
 20
139.945
 11
152.284
 21
139.198
  0
LINE
  8
0
 10
152.284
 20
139.198
 11
152.482
 21
138.471
  0
LINE
  8
0
 10
152.482
 20
138.471
 11
152.769
 21
137.775
  0
LINE
  8
0
 10
152.769
 20
137.775
 11
153.141
 21
137.12
  0
LINE
  8
0
 10
153.141
 20
137.12
 11
153.592
 21
136.516
  0
LINE
  8
0
 10
153.592
 20
136.516
 11
154.116
 21
135.974
  0
LINE
  8
0
 10
154.116
 20
135.974
 11
154.703
 21
135.502
  0
LINE
  8
0
 10
154.703
 20
135.502
 11
155.345
 21
135.107
  0
LINE
  8
0
 10
155.345
 20
135.107
 11
156.031
 21
134.796
  0
LINE
  8
0
 10
156.031
 20
134.796
 11
156.751
 21
134.573
  0
LINE
  8
0
 10
156.751
 20
134.573
 11
256.792
 21
113.887
  0
LINE
  8
0
 10
256.792
 20
113.887
 11
257.534
 21
113.756
  0
LINE
  8
0
 10
257.534
 20
113.756
 11
258.287
 21
113.719
  0
LINE
  8
0
 10
258.287
 20
113.719
 11
301.713
 21
113.719
  0
LINE
  8
0
 10
301.713
 20
113.719
 11
302.466
 21
113.756
  0
LINE
  8
0
 10
172.427
 20
220.766
 11
172.241
 21
220.798
  0
LINE
  8
0
 10
172.241
 20
220.798
 11
172.061
 21
220.854
  0
LINE
  8
0
 10
172.061
 20
220.854
 11
171.89
 21
220.932
  0
LINE
  8
0
 10
171.89
 20
220.932
 11
171.729
 21
221.03
  0
LINE
  8
0
 10
171.729
 20
221.03
 11
171.583
 21
221.148
  0
LINE
  8
0
 10
171.583
 20
221.148
 11
171.452
 21
221.284
  0
LINE
  8
0
 10
171.452
 20
221.284
 11
171.339
 21
221.435
  0
LINE
  8
0
 10
171.339
 20
221.435
 11
171.246
 21
221.599
  0
LINE
  8
0
 10
171.246
 20
221.599
 11
171.174
 21
221.773
  0
LINE
  8
0
 10
171.174
 20
221.773
 11
171.125
 21
221.955
  0
LINE
  8
0
 10
171.125
 20
221.955
 11
171.099
 21
222.141
  0
LINE
  8
0
 10
171.099
 20
222.141
 11
171.096
 21
222.329
  0
LINE
  8
0
 10
171.096
 20
222.329
 11
171.117
 21
222.517
  0
LINE
  8
0
 10
171.117
 20
222.517
 11
171.161
 21
222.7
  0
LINE
  8
0
 10
171.161
 20
222.7
 11
171.228
 21
222.876
  0
LINE
  8
0
 10
171.228
 20
222.876
 11
171.316
 21
223.042
  0
LINE
  8
0
 10
171.316
 20
223.042
 11
171.425
 21
223.196
  0
LINE
  8
0
 10
171.425
 20
223.196
 11
171.552
 21
223.335
  0
LINE
  8
0
 10
171.552
 20
223.335
 11
171.696
 21
223.457
  0
LINE
  8
0
 10
171.696
 20
223.457
 11
171.853
 21
223.56
  0
LINE
  8
0
 10
171.853
 20
223.56
 11
172.022
 21
223.643
  0
LINE
  8
0
 10
172.022
 20
223.643
 11
172.201
 21
223.704
  0
LINE
  8
0
 10
172.201
 20
223.704
 11
172.385
 21
223.742
  0
LINE
  8
0
 10
172.385
 20
223.742
 11
172.573
 21
223.756
  0
LINE
  8
0
 10
172.573
 20
223.756
 11
172.761
 21
223.747
  0
LINE
  8
0
 10
172.761
 20
223.747
 11
172.947
 21
223.714
  0
LINE
  8
0
 10
172.947
 20
223.714
 11
173.127
 21
223.658
  0
LINE
  8
0
 10
173.127
 20
223.658
 11
173.298
 21
223.581
  0
LINE
  8
0
 10
173.298
 20
223.581
 11
173.459
 21
223.482
  0
LINE
  8
0
 10
173.459
 20
223.482
 11
173.606
 21
223.364
  0
LINE
  8
0
 10
173.606
 20
223.364
 11
173.736
 21
223.228
  0
LINE
  8
0
 10
173.736
 20
223.228
 11
173.849
 21
223.077
  0
LINE
  8
0
 10
173.849
 20
223.077
 11
173.942
 21
222.914
  0
LINE
  8
0
 10
173.942
 20
222.914
 11
174.014
 21
222.74
  0
LINE
  8
0
 10
174.014
 20
222.74
 11
174.063
 21
222.558
  0
LINE
  8
0
 10
174.063
 20
222.558
 11
174.09
 21
222.371
  0
LINE
  8
0
 10
174.09
 20
222.371
 11
174.092
 21
222.183
  0
LINE
  8
0
 10
174.092
 20
222.183
 11
174.071
 21
221.996
  0
LINE
  8
0
 10
174.071
 20
221.996
 11
174.027
 21
221.813
  0
LINE
  8
0
 10
174.027
 20
221.813
 11
173.96
 21
221.637
  0
LINE
  8
0
 10
173.96
 20
221.637
 11
173.872
 21
221.47
  0
LINE
  8
0
 10
173.872
 20
221.47
 11
173.763
 21
221.316
  0
LINE
  8
0
 10
173.763
 20
221.316
 11
173.636
 21
221.177
  0
LINE
  8
0
 10
173.636
 20
221.177
 11
173.493
 21
221.055
  0
LINE
  8
0
 10
173.493
 20
221.055
 11
173.335
 21
220.952
  0
LINE
  8
0
 10
173.335
 20
220.952
 11
173.166
 21
220.869
  0
LINE
  8
0
 10
173.166
 20
220.869
 11
172.987
 21
220.809
  0
LINE
  8
0
 10
172.987
 20
220.809
 11
172.803
 21
220.771
  0
LINE
  8
0
 10
172.803
 20
220.771
 11
172.615
 21
220.756
  0
LINE
  8
0
 10
172.615
 20
220.756
 11
172.427
 21
220.766
  0
LINE
  8
0
 10
387.197
 20
220.771
 11
387.013
 21
220.809
  0
LINE
  8
0
 10
387.013
 20
220.809
 11
386.834
 21
220.869
  0
LINE
  8
0
 10
386.834
 20
220.869
 11
386.665
 21
220.952
  0
LINE
  8
0
 10
386.665
 20
220.952
 11
386.507
 21
221.055
  0
LINE
  8
0
 10
386.507
 20
221.055
 11
386.364
 21
221.177
  0
LINE
  8
0
 10
386.364
 20
221.177
 11
386.237
 21
221.316
  0
LINE
  8
0
 10
386.237
 20
221.316
 11
386.128
 21
221.47
  0
LINE
  8
0
 10
386.128
 20
221.47
 11
386.04
 21
221.637
  0
LINE
  8
0
 10
386.04
 20
221.637
 11
385.973
 21
221.813
  0
LINE
  8
0
 10
385.973
 20
221.813
 11
385.929
 21
221.996
  0
LINE
  8
0
 10
385.929
 20
221.996
 11
385.908
 21
222.183
  0
LINE
  8
0
 10
385.908
 20
222.183
 11
385.91
 21
222.371
  0
LINE
  8
0
 10
385.91
 20
222.371
 11
385.937
 21
222.558
  0
LINE
  8
0
 10
385.937
 20
222.558
 11
385.986
 21
222.74
  0
LINE
  8
0
 10
385.986
 20
222.74
 11
386.058
 21
222.914
  0
LINE
  8
0
 10
386.058
 20
222.914
 11
386.151
 21
223.077
  0
LINE
  8
0
 10
386.151
 20
223.077
 11
386.264
 21
223.228
  0
LINE
  8
0
 10
386.264
 20
223.228
 11
386.394
 21
223.364
  0
LINE
  8
0
 10
386.394
 20
223.364
 11
386.541
 21
223.482
  0
LINE
  8
0
 10
386.541
 20
223.482
 11
386.702
 21
223.581
  0
LINE
  8
0
 10
386.702
 20
223.581
 11
386.873
 21
223.658
  0
LINE
  8
0
 10
386.873
 20
223.658
 11
387.053
 21
223.714
  0
LINE
  8
0
 10
387.053
 20
223.714
 11
387.239
 21
223.747
  0
LINE
  8
0
 10
387.239
 20
223.747
 11
387.427
 21
223.756
  0
LINE
  8
0
 10
387.427
 20
223.756
 11
387.615
 21
223.742
  0
LINE
  8
0
 10
387.615
 20
223.742
 11
387.799
 21
223.704
  0
LINE
  8
0
 10
387.799
 20
223.704
 11
387.978
 21
223.643
  0
LINE
  8
0
 10
387.978
 20
223.643
 11
388.147
 21
223.56
  0
LINE
  8
0
 10
388.147
 20
223.56
 11
388.304
 21
223.457
  0
LINE
  8
0
 10
388.304
 20
223.457
 11
388.448
 21
223.335
  0
LINE
  8
0
 10
388.448
 20
223.335
 11
388.575
 21
223.196
  0
LINE
  8
0
 10
388.575
 20
223.196
 11
388.684
 21
223.042
  0
LINE
  8
0
 10
388.684
 20
223.042
 11
388.772
 21
222.876
  0
LINE
  8
0
 10
388.772
 20
222.876
 11
388.839
 21
222.7
  0
LINE
  8
0
 10
388.839
 20
222.7
 11
388.883
 21
222.517
  0
LINE
  8
0
 10
388.883
 20
222.517
 11
388.904
 21
222.329
  0
LINE
  8
0
 10
388.904
 20
222.329
 11
388.901
 21
222.141
  0
LINE
  8
0
 10
388.901
 20
222.141
 11
388.875
 21
221.955
  0
LINE
  8
0
 10
388.875
 20
221.955
 11
388.826
 21
221.773
  0
LINE
  8
0
 10
388.826
 20
221.773
 11
388.754
 21
221.599
  0
LINE
  8
0
 10
388.754
 20
221.599
 11
388.661
 21
221.435
  0
LINE
  8
0
 10
388.661
 20
221.435
 11
388.548
 21
221.284
  0
LINE
  8
0
 10
388.548
 20
221.284
 11
388.417
 21
221.148
  0
LINE
  8
0
 10
388.417
 20
221.148
 11
388.271
 21
221.03
  0
LINE
  8
0
 10
388.271
 20
221.03
 11
388.11
 21
220.932
  0
LINE
  8
0
 10
388.11
 20
220.932
 11
387.939
 21
220.854
  0
LINE
  8
0
 10
387.939
 20
220.854
 11
387.759
 21
220.798
  0
LINE
  8
0
 10
387.759
 20
220.798
 11
387.573
 21
220.766
  0
LINE
  8
0
 10
387.573
 20
220.766
 11
387.385
 21
220.756
  0
LINE
  8
0
 10
387.385
 20
220.756
 11
387.197
 21
220.771
  0
LINE
  8
0
 10
401.63
 20
138.92
 11
401.445
 21
138.957
  0
LINE
  8
0
 10
401.445
 20
138.957
 11
401.267
 21
139.018
  0
LINE
  8
0
 10
401.267
 20
139.018
 11
401.098
 21
139.101
  0
LINE
  8
0
 10
401.098
 20
139.101
 11
400.94
 21
139.204
  0
LINE
  8
0
 10
400.94
 20
139.204
 11
400.796
 21
139.326
  0
LINE
  8
0
 10
400.796
 20
139.326
 11
400.669
 21
139.465
  0
LINE
  8
0
 10
400.669
 20
139.465
 11
400.561
 21
139.619
  0
LINE
  8
0
 10
400.561
 20
139.619
 11
400.472
 21
139.785
  0
LINE
  8
0
 10
400.472
 20
139.785
 11
400.406
 21
139.961
  0
LINE
  8
0
 10
400.406
 20
139.961
 11
400.361
 21
140.144
  0
LINE
  8
0
 10
400.361
 20
140.144
 11
400.34
 21
140.332
  0
LINE
  8
0
 10
400.34
 20
140.332
 11
400.343
 21
140.52
  0
LINE
  8
0
 10
400.343
 20
140.52
 11
400.369
 21
140.707
  0
LINE
  8
0
 10
400.369
 20
140.707
 11
400.419
 21
140.888
  0
LINE
  8
0
 10
400.419
 20
140.888
 11
400.49
 21
141.062
  0
LINE
  8
0
 10
400.49
 20
141.062
 11
400.583
 21
141.226
  0
LINE
  8
0
 10
400.583
 20
141.226
 11
400.696
 21
141.377
  0
LINE
  8
0
 10
400.696
 20
141.377
 11
400.827
 21
141.513
  0
LINE
  8
0
 10
400.827
 20
141.513
 11
400.974
 21
141.631
  0
LINE
  8
0
 10
400.974
 20
141.631
 11
401.134
 21
141.729
  0
LINE
  8
0
 10
401.134
 20
141.729
 11
401.306
 21
141.807
  0
LINE
  8
0
 10
401.306
 20
141.807
 11
401.486
 21
141.863
  0
LINE
  8
0
 10
401.486
 20
141.863
 11
401.671
 21
141.896
  0
LINE
  8
0
 10
401.671
 20
141.896
 11
401.859
 21
141.905
  0
LINE
  8
0
 10
401.859
 20
141.905
 11
402.047
 21
141.89
  0
LINE
  8
0
 10
402.047
 20
141.89
 11
402.232
 21
141.852
  0
LINE
  8
0
 10
402.232
 20
141.852
 11
402.41
 21
141.792
  0
LINE
  8
0
 10
402.41
 20
141.792
 11
402.579
 21
141.709
  0
LINE
  8
0
 10
402.579
 20
141.709
 11
402.737
 21
141.606
  0
LINE
  8
0
 10
402.737
 20
141.606
 11
402.88
 21
141.484
  0
LINE
  8
0
 10
402.88
 20
141.484
 11
403.007
 21
141.345
  0
LINE
  8
0
 10
403.007
 20
141.345
 11
403.116
 21
141.191
  0
LINE
  8
0
 10
403.116
 20
141.191
 11
403.205
 21
141.025
  0
LINE
  8
0
 10
403.205
 20
141.025
 11
403.271
 21
140.848
  0
LINE
  8
0
 10
403.271
 20
140.848
 11
403.316
 21
140.665
  0
LINE
  8
0
 10
403.316
 20
140.665
 11
403.337
 21
140.478
  0
LINE
  8
0
 10
403.337
 20
140.478
 11
403.334
 21
140.29
  0
LINE
  8
0
 10
403.334
 20
140.29
 11
403.308
 21
140.103
  0
LINE
  8
0
 10
403.308
 20
140.103
 11
403.258
 21
139.922
  0
LINE
  8
0
 10
403.258
 20
139.922
 11
403.187
 21
139.747
  0
LINE
  8
0
 10
403.187
 20
139.747
 11
403.094
 21
139.584
  0
LINE
  8
0
 10
403.094
 20
139.584
 11
402.981
 21
139.433
  0
LINE
  8
0
 10
402.981
 20
139.433
 11
402.85
 21
139.297
  0
LINE
  8
0
 10
402.85
 20
139.297
 11
402.703
 21
139.179
  0
LINE
  8
0
 10
402.703
 20
139.179
 11
402.543
 21
139.08
  0
LINE
  8
0
 10
402.543
 20
139.08
 11
402.371
 21
139.003
  0
LINE
  8
0
 10
402.371
 20
139.003
 11
402.191
 21
138.947
  0
LINE
  8
0
 10
402.191
 20
138.947
 11
402.006
 21
138.914
  0
LINE
  8
0
 10
402.006
 20
138.914
 11
401.818
 21
138.905
  0
LINE
  8
0
 10
401.818
 20
138.905
 11
401.63
 21
138.92
  0
LINE
  8
0
 10
157.994
 20
138.914
 11
157.809
 21
138.947
  0
LINE
  8
0
 10
157.809
 20
138.947
 11
157.629
 21
139.003
  0
LINE
  8
0
 10
157.629
 20
139.003
 11
157.457
 21
139.08
  0
LINE
  8
0
 10
157.457
 20
139.08
 11
157.297
 21
139.179
  0
LINE
  8
0
 10
157.297
 20
139.179
 11
157.15
 21
139.297
  0
LINE
  8
0
 10
157.15
 20
139.297
 11
157.019
 21
139.433
  0
LINE
  8
0
 10
157.019
 20
139.433
 11
156.906
 21
139.584
  0
LINE
  8
0
 10
156.906
 20
139.584
 11
156.813
 21
139.747
  0
LINE
  8
0
 10
156.813
 20
139.747
 11
156.742
 21
139.922
  0
LINE
  8
0
 10
156.742
 20
139.922
 11
156.692
 21
140.103
  0
LINE
  8
0
 10
156.692
 20
140.103
 11
156.666
 21
140.29
  0
LINE
  8
0
 10
156.666
 20
140.29
 11
156.663
 21
140.478
  0
LINE
  8
0
 10
156.663
 20
140.478
 11
156.684
 21
140.665
  0
LINE
  8
0
 10
156.684
 20
140.665
 11
156.729
 21
140.848
  0
LINE
  8
0
 10
156.729
 20
140.848
 11
156.795
 21
141.025
  0
LINE
  8
0
 10
156.795
 20
141.025
 11
156.884
 21
141.191
  0
LINE
  8
0
 10
156.884
 20
141.191
 11
156.993
 21
141.345
  0
LINE
  8
0
 10
156.993
 20
141.345
 11
157.12
 21
141.484
  0
LINE
  8
0
 10
157.12
 20
141.484
 11
157.263
 21
141.606
  0
LINE
  8
0
 10
157.263
 20
141.606
 11
157.421
 21
141.709
  0
LINE
  8
0
 10
157.421
 20
141.709
 11
157.59
 21
141.792
  0
LINE
  8
0
 10
157.59
 20
141.792
 11
157.768
 21
141.852
  0
LINE
  8
0
 10
157.768
 20
141.852
 11
157.953
 21
141.89
  0
LINE
  8
0
 10
157.953
 20
141.89
 11
158.141
 21
141.905
  0
LINE
  8
0
 10
158.141
 20
141.905
 11
158.329
 21
141.896
  0
LINE
  8
0
 10
158.329
 20
141.896
 11
158.514
 21
141.863
  0
LINE
  8
0
 10
158.514
 20
141.863
 11
158.694
 21
141.807
  0
LINE
  8
0
 10
158.694
 20
141.807
 11
158.866
 21
141.729
  0
LINE
  8
0
 10
158.866
 20
141.729
 11
159.026
 21
141.631
  0
LINE
  8
0
 10
159.026
 20
141.631
 11
159.173
 21
141.513
  0
LINE
  8
0
 10
159.173
 20
141.513
 11
159.304
 21
141.377
  0
LINE
  8
0
 10
159.304
 20
141.377
 11
159.417
 21
141.226
  0
LINE
  8
0
 10
159.417
 20
141.226
 11
159.51
 21
141.062
  0
LINE
  8
0
 10
159.51
 20
141.062
 11
159.581
 21
140.888
  0
LINE
  8
0
 10
159.581
 20
140.888
 11
159.631
 21
140.707
  0
LINE
  8
0
 10
159.631
 20
140.707
 11
159.657
 21
140.52
  0
LINE
  8
0
 10
159.657
 20
140.52
 11
159.66
 21
140.332
  0
LINE
  8
0
 10
159.66
 20
140.332
 11
159.639
 21
140.144
  0
LINE
  8
0
 10
159.639
 20
140.144
 11
159.594
 21
139.961
  0
LINE
  8
0
 10
159.594
 20
139.961
 11
159.528
 21
139.785
  0
LINE
  8
0
 10
159.528
 20
139.785
 11
159.439
 21
139.619
  0
LINE
  8
0
 10
159.439
 20
139.619
 11
159.331
 21
139.465
  0
LINE
  8
0
 10
159.331
 20
139.465
 11
159.204
 21
139.326
  0
LINE
  8
0
 10
159.204
 20
139.326
 11
159.06
 21
139.204
  0
LINE
  8
0
 10
159.06
 20
139.204
 11
158.902
 21
139.101
  0
LINE
  8
0
 10
158.902
 20
139.101
 11
158.733
 21
139.018
  0
LINE
  8
0
 10
158.733
 20
139.018
 11
158.555
 21
138.957
  0
LINE
  8
0
 10
158.555
 20
138.957
 11
158.37
 21
138.92
  0
LINE
  8
0
 10
158.37
 20
138.92
 11
158.182
 21
138.905
  0
LINE
  8
0
 10
158.182
 20
138.905
 11
157.994
 21
138.914
  0
LINE
  8
0
 10
301.588
 20
118.233
 11
301.404
 21
118.271
  0
LINE
  8
0
 10
301.404
 20
118.271
 11
301.225
 21
118.332
  0
LINE
  8
0
 10
301.225
 20
118.332
 11
301.056
 21
118.414
  0
LINE
  8
0
 10
301.056
 20
118.414
 11
300.898
 21
118.518
  0
LINE
  8
0
 10
300.898
 20
118.518
 11
300.755
 21
118.64
  0
LINE
  8
0
 10
300.755
 20
118.64
 11
300.628
 21
118.779
  0
LINE
  8
0
 10
300.628
 20
118.779
 11
300.519
 21
118.933
  0
LINE
  8
0
 10
300.519
 20
118.933
 11
300.431
 21
119.099
  0
LINE
  8
0
 10
300.431
 20
119.099
 11
300.364
 21
119.275
  0
LINE
  8
0
 10
300.364
 20
119.275
 11
300.32
 21
119.458
  0
LINE
  8
0
 10
300.32
 20
119.458
 11
300.299
 21
119.645
  0
LINE
  8
0
 10
300.299
 20
119.645
 11
300.301
 21
119.834
  0
LINE
  8
0
 10
300.301
 20
119.834
 11
300.327
 21
120.02
  0
LINE
  8
0
 10
300.327
 20
120.02
 11
300.377
 21
120.202
  0
LINE
  8
0
 10
300.377
 20
120.202
 11
300.449
 21
120.376
  0
LINE
  8
0
 10
300.449
 20
120.376
 11
300.542
 21
120.54
  0
LINE
  8
0
 10
300.542
 20
120.54
 11
300.655
 21
120.691
  0
LINE
  8
0
 10
300.655
 20
120.691
 11
300.785
 21
120.826
  0
LINE
  8
0
 10
300.785
 20
120.826
 11
300.932
 21
120.944
  0
LINE
  8
0
 10
300.932
 20
120.944
 11
301.093
 21
121.043
  0
LINE
  8
0
 10
301.093
 20
121.043
 11
301.264
 21
121.121
  0
LINE
  8
0
 10
301.264
 20
121.121
 11
301.444
 21
121.177
  0
LINE
  8
0
 10
301.444
 20
121.177
 11
301.63
 21
121.209
  0
LINE
  8
0
 10
301.63
 20
121.209
 11
301.818
 21
121.218
  0
LINE
  8
0
 10
301.818
 20
121.218
 11
302.006
 21
121.204
  0
LINE
  8
0
 10
302.006
 20
121.204
 11
302.19
 21
121.166
  0
LINE
  8
0
 10
302.19
 20
121.166
 11
302.368
 21
121.105
  0
LINE
  8
0
 10
302.368
 20
121.105
 11
302.538
 21
121.023
  0
LINE
  8
0
 10
302.538
 20
121.023
 11
302.695
 21
120.92
  0
LINE
  8
0
 10
302.695
 20
120.92
 11
302.839
 21
120.798
  0
LINE
  8
0
 10
302.839
 20
120.798
 11
302.966
 21
120.658
  0
LINE
  8
0
 10
302.966
 20
120.658
 11
303.074
 21
120.505
  0
LINE
  8
0
 10
303.074
 20
120.505
 11
303.163
 21
120.338
  0
LINE
  8
0
 10
303.163
 20
120.338
 11
303.23
 21
120.162
  0
LINE
  8
0
 10
303.23
 20
120.162
 11
303.274
 21
119.979
  0
LINE
  8
0
 10
303.274
 20
119.979
 11
303.295
 21
119.792
  0
LINE
  8
0
 10
303.295
 20
119.792
 11
303.292
 21
119.604
  0
LINE
  8
0
 10
303.292
 20
119.604
 11
303.266
 21
119.417
  0
LINE
  8
0
 10
303.266
 20
119.417
 11
303.217
 21
119.235
  0
LINE
  8
0
 10
303.217
 20
119.235
 11
303.145
 21
119.061
  0
LINE
  8
0
 10
303.145
 20
119.061
 11
303.052
 21
118.897
  0
LINE
  8
0
 10
303.052
 20
118.897
 11
302.939
 21
118.746
  0
LINE
  8
0
 10
302.939
 20
118.746
 11
302.808
 21
118.611
  0
LINE
  8
0
 10
302.808
 20
118.611
 11
302.661
 21
118.493
  0
LINE
  8
0
 10
302.661
 20
118.493
 11
302.501
 21
118.394
  0
LINE
  8
0
 10
302.501
 20
118.394
 11
302.329
 21
118.316
  0
LINE
  8
0
 10
302.329
 20
118.316
 11
302.15
 21
118.261
  0
LINE
  8
0
 10
302.15
 20
118.261
 11
301.964
 21
118.228
  0
LINE
  8
0
 10
301.964
 20
118.228
 11
301.776
 21
118.219
  0
LINE
  8
0
 10
301.776
 20
118.219
 11
301.588
 21
118.233
  0
LINE
  8
0
 10
258.036
 20
118.228
 11
257.85
 21
118.261
  0
LINE
  8
0
 10
257.85
 20
118.261
 11
257.671
 21
118.316
  0
LINE
  8
0
 10
257.671
 20
118.316
 11
257.499
 21
118.394
  0
LINE
  8
0
 10
257.499
 20
118.394
 11
257.339
 21
118.493
  0
LINE
  8
0
 10
257.339
 20
118.493
 11
257.192
 21
118.611
  0
LINE
  8
0
 10
257.192
 20
118.611
 11
257.061
 21
118.746
  0
LINE
  8
0
 10
257.061
 20
118.746
 11
256.948
 21
118.897
  0
LINE
  8
0
 10
256.948
 20
118.897
 11
256.855
 21
119.061
  0
LINE
  8
0
 10
256.855
 20
119.061
 11
256.783
 21
119.235
  0
LINE
  8
0
 10
256.783
 20
119.235
 11
256.734
 21
119.417
  0
LINE
  8
0
 10
256.734
 20
119.417
 11
256.708
 21
119.604
  0
LINE
  8
0
 10
256.708
 20
119.604
 11
256.705
 21
119.792
  0
LINE
  8
0
 10
256.705
 20
119.792
 11
256.726
 21
119.979
  0
LINE
  8
0
 10
256.726
 20
119.979
 11
256.77
 21
120.162
  0
LINE
  8
0
 10
256.77
 20
120.162
 11
256.837
 21
120.338
  0
LINE
  8
0
 10
256.837
 20
120.338
 11
256.926
 21
120.505
  0
LINE
  8
0
 10
256.926
 20
120.505
 11
257.034
 21
120.658
  0
LINE
  8
0
 10
257.034
 20
120.658
 11
257.161
 21
120.798
  0
LINE
  8
0
 10
257.161
 20
120.798
 11
257.305
 21
120.92
  0
LINE
  8
0
 10
257.305
 20
120.92
 11
257.462
 21
121.023
  0
LINE
  8
0
 10
257.462
 20
121.023
 11
257.632
 21
121.105
  0
LINE
  8
0
 10
257.632
 20
121.105
 11
257.81
 21
121.166
  0
LINE
  8
0
 10
257.81
 20
121.166
 11
257.994
 21
121.204
  0
LINE
  8
0
 10
257.994
 20
121.204
 11
258.182
 21
121.218
  0
LINE
  8
0
 10
258.182
 20
121.218
 11
258.37
 21
121.209
  0
LINE
  8
0
 10
258.37
 20
121.209
 11
258.556
 21
121.177
  0
LINE
  8
0
 10
258.556
 20
121.177
 11
258.736
 21
121.121
  0
LINE
  8
0
 10
258.736
 20
121.121
 11
258.907
 21
121.043
  0
LINE
  8
0
 10
258.907
 20
121.043
 11
259.068
 21
120.944
  0
LINE
  8
0
 10
259.068
 20
120.944
 11
259.215
 21
120.826
  0
LINE
  8
0
 10
259.215
 20
120.826
 11
259.345
 21
120.691
  0
LINE
  8
0
 10
259.345
 20
120.691
 11
259.458
 21
120.54
  0
LINE
  8
0
 10
259.458
 20
120.54
 11
259.551
 21
120.376
  0
LINE
  8
0
 10
259.551
 20
120.376
 11
259.623
 21
120.202
  0
LINE
  8
0
 10
259.623
 20
120.202
 11
259.673
 21
120.02
  0
LINE
  8
0
 10
259.673
 20
120.02
 11
259.699
 21
119.834
  0
LINE
  8
0
 10
259.699
 20
119.834
 11
259.701
 21
119.645
  0
LINE
  8
0
 10
259.701
 20
119.645
 11
259.68
 21
119.458
  0
LINE
  8
0
 10
259.68
 20
119.458
 11
259.636
 21
119.275
  0
LINE
  8
0
 10
259.636
 20
119.275
 11
259.569
 21
119.099
  0
LINE
  8
0
 10
259.569
 20
119.099
 11
259.481
 21
118.933
  0
LINE
  8
0
 10
259.481
 20
118.933
 11
259.372
 21
118.779
  0
LINE
  8
0
 10
259.372
 20
118.779
 11
259.245
 21
118.64
  0
LINE
  8
0
 10
259.245
 20
118.64
 11
259.102
 21
118.518
  0
LINE
  8
0
 10
259.102
 20
118.518
 11
258.944
 21
118.414
  0
LINE
  8
0
 10
258.944
 20
118.414
 11
258.775
 21
118.332
  0
LINE
  8
0
 10
258.775
 20
118.332
 11
258.596
 21
118.271
  0
LINE
  8
0
 10
258.596
 20
118.271
 11
258.412
 21
118.233
  0
LINE
  8
0
 10
258.412
 20
118.233
 11
258.224
 21
118.219
  0
LINE
  8
0
 10
258.224
 20
118.219
 11
258.036
 21
118.228
  0
LINE
  8
0
 10
302.466
 20
-6.24402
 11
303.208
 21
-6.11317
  0
LINE
  8
0
 10
303.208
 20
-6.11317
 11
403.249
 21
14.5731
  0
LINE
  8
0
 10
403.249
 20
14.5731
 11
403.969
 21
14.7959
  0
LINE
  8
0
 10
403.969
 20
14.7959
 11
404.655
 21
15.1072
  0
LINE
  8
0
 10
404.655
 20
15.1072
 11
405.297
 21
15.502
  0
LINE
  8
0
 10
405.297
 20
15.502
 11
405.884
 21
15.9742
  0
LINE
  8
0
 10
405.884
 20
15.9742
 11
406.408
 21
16.5162
  0
LINE
  8
0
 10
406.408
 20
16.5162
 11
406.859
 21
17.1195
  0
LINE
  8
0
 10
406.859
 20
17.1195
 11
407.231
 21
17.7747
  0
LINE
  8
0
 10
407.231
 20
17.7747
 11
407.518
 21
18.4713
  0
LINE
  8
0
 10
407.518
 20
18.4713
 11
407.716
 21
19.1984
  0
LINE
  8
0
 10
407.716
 20
19.1984
 11
407.821
 21
19.9446
  0
LINE
  8
0
 10
407.821
 20
19.9446
 11
407.831
 21
20.698
  0
LINE
  8
0
 10
407.831
 20
20.698
 11
407.747
 21
21.4468
  0
LINE
  8
0
 10
407.747
 20
21.4468
 11
393.315
 21
103.298
  0
LINE
  8
0
 10
393.315
 20
103.298
 11
393.138
 21
104.03
  0
LINE
  8
0
 10
393.138
 20
104.03
 11
392.87
 21
104.735
  0
LINE
  8
0
 10
392.87
 20
104.735
 11
392.516
 21
105.4
  0
LINE
  8
0
 10
392.516
 20
105.4
 11
392.082
 21
106.016
  0
LINE
  8
0
 10
392.082
 20
106.016
 11
391.574
 21
106.572
  0
LINE
  8
0
 10
391.574
 20
106.572
 11
391
 21
107.061
  0
LINE
  8
0
 10
391
 20
107.061
 11
390.37
 21
107.473
  0
LINE
  8
0
 10
390.37
 20
107.473
 11
389.692
 21
107.803
  0
LINE
  8
0
 10
389.692
 20
107.803
 11
388.979
 21
108.046
  0
LINE
  8
0
 10
388.979
 20
108.046
 11
388.241
 21
108.198
  0
LINE
  8
0
 10
388.241
 20
108.198
 11
387.49
 21
108.256
  0
LINE
  8
0
 10
387.49
 20
108.256
 11
172.51
 21
108.256
  0
LINE
  8
0
 10
172.51
 20
108.256
 11
171.759
 21
108.198
  0
LINE
  8
0
 10
171.759
 20
108.198
 11
171.021
 21
108.046
  0
LINE
  8
0
 10
171.021
 20
108.046
 11
170.308
 21
107.803
  0
LINE
  8
0
 10
170.308
 20
107.803
 11
169.63
 21
107.473
  0
LINE
  8
0
 10
169.63
 20
107.473
 11
169
 21
107.061
  0
LINE
  8
0
 10
169
 20
107.061
 11
168.426
 21
106.572
  0
LINE
  8
0
 10
168.426
 20
106.572
 11
167.918
 21
106.016
  0
LINE
  8
0
 10
167.918
 20
106.016
 11
167.484
 21
105.4
  0
LINE
  8
0
 10
167.484
 20
105.4
 11
167.13
 21
104.735
  0
LINE
  8
0
 10
167.13
 20
104.735
 11
166.862
 21
104.03
  0
LINE
  8
0
 10
166.862
 20
104.03
 11
166.685
 21
103.298
  0
LINE
  8
0
 10
166.685
 20
103.298
 11
152.253
 21
21.4468
  0
LINE
  8
0
 10
152.253
 20
21.4468
 11
152.169
 21
20.698
  0
LINE
  8
0
 10
152.169
 20
20.698
 11
152.179
 21
19.9446
  0
LINE
  8
0
 10
152.179
 20
19.9446
 11
152.284
 21
19.1984
  0
LINE
  8
0
 10
152.284
 20
19.1984
 11
152.482
 21
18.4713
  0
LINE
  8
0
 10
152.482
 20
18.4713
 11
152.769
 21
17.7747
  0
LINE
  8
0
 10
152.769
 20
17.7747
 11
153.141
 21
17.1195
  0
LINE
  8
0
 10
153.141
 20
17.1195
 11
153.592
 21
16.5162
  0
LINE
  8
0
 10
153.592
 20
16.5162
 11
154.116
 21
15.9742
  0
LINE
  8
0
 10
154.116
 20
15.9742
 11
154.703
 21
15.502
  0
LINE
  8
0
 10
154.703
 20
15.502
 11
155.345
 21
15.1072
  0
LINE
  8
0
 10
155.345
 20
15.1072
 11
156.031
 21
14.7959
  0
LINE
  8
0
 10
156.031
 20
14.7959
 11
156.751
 21
14.5731
  0
LINE
  8
0
 10
156.751
 20
14.5731
 11
256.792
 21
-6.11317
  0
LINE
  8
0
 10
256.792
 20
-6.11317
 11
257.534
 21
-6.24402
  0
LINE
  8
0
 10
257.534
 20
-6.24402
 11
258.287
 21
-6.28082
  0
LINE
  8
0
 10
258.287
 20
-6.28082
 11
301.713
 21
-6.28082
  0
LINE
  8
0
 10
301.713
 20
-6.28082
 11
302.466
 21
-6.24402
  0
LINE
  8
0
 10
172.427
 20
100.766
 11
172.241
 21
100.798
  0
LINE
  8
0
 10
172.241
 20
100.798
 11
172.061
 21
100.854
  0
LINE
  8
0
 10
172.061
 20
100.854
 11
171.89
 21
100.932
  0
LINE
  8
0
 10
171.89
 20
100.932
 11
171.729
 21
101.03
  0
LINE
  8
0
 10
171.729
 20
101.03
 11
171.583
 21
101.148
  0
LINE
  8
0
 10
171.583
 20
101.148
 11
171.452
 21
101.284
  0
LINE
  8
0
 10
171.452
 20
101.284
 11
171.339
 21
101.435
  0
LINE
  8
0
 10
171.339
 20
101.435
 11
171.246
 21
101.599
  0
LINE
  8
0
 10
171.246
 20
101.599
 11
171.174
 21
101.773
  0
LINE
  8
0
 10
171.174
 20
101.773
 11
171.125
 21
101.955
  0
LINE
  8
0
 10
171.125
 20
101.955
 11
171.099
 21
102.141
  0
LINE
  8
0
 10
171.099
 20
102.141
 11
171.096
 21
102.329
  0
LINE
  8
0
 10
171.096
 20
102.329
 11
171.117
 21
102.517
  0
LINE
  8
0
 10
171.117
 20
102.517
 11
171.161
 21
102.7
  0
LINE
  8
0
 10
171.161
 20
102.7
 11
171.228
 21
102.876
  0
LINE
  8
0
 10
171.228
 20
102.876
 11
171.316
 21
103.042
  0
LINE
  8
0
 10
171.316
 20
103.042
 11
171.425
 21
103.196
  0
LINE
  8
0
 10
171.425
 20
103.196
 11
171.552
 21
103.335
  0
LINE
  8
0
 10
171.552
 20
103.335
 11
171.696
 21
103.457
  0
LINE
  8
0
 10
171.696
 20
103.457
 11
171.853
 21
103.56
  0
LINE
  8
0
 10
171.853
 20
103.56
 11
172.022
 21
103.643
  0
LINE
  8
0
 10
172.022
 20
103.643
 11
172.201
 21
103.704
  0
LINE
  8
0
 10
172.201
 20
103.704
 11
172.385
 21
103.742
  0
LINE
  8
0
 10
172.385
 20
103.742
 11
172.573
 21
103.756
  0
LINE
  8
0
 10
172.573
 20
103.756
 11
172.761
 21
103.747
  0
LINE
  8
0
 10
172.761
 20
103.747
 11
172.947
 21
103.714
  0
LINE
  8
0
 10
172.947
 20
103.714
 11
173.127
 21
103.658
  0
LINE
  8
0
 10
173.127
 20
103.658
 11
173.298
 21
103.581
  0
LINE
  8
0
 10
173.298
 20
103.581
 11
173.459
 21
103.482
  0
LINE
  8
0
 10
173.459
 20
103.482
 11
173.606
 21
103.364
  0
LINE
  8
0
 10
173.606
 20
103.364
 11
173.736
 21
103.228
  0
LINE
  8
0
 10
173.736
 20
103.228
 11
173.849
 21
103.077
  0
LINE
  8
0
 10
173.849
 20
103.077
 11
173.942
 21
102.914
  0
LINE
  8
0
 10
173.942
 20
102.914
 11
174.014
 21
102.74
  0
LINE
  8
0
 10
174.014
 20
102.74
 11
174.063
 21
102.558
  0
LINE
  8
0
 10
174.063
 20
102.558
 11
174.09
 21
102.371
  0
LINE
  8
0
 10
174.09
 20
102.371
 11
174.092
 21
102.183
  0
LINE
  8
0
 10
174.092
 20
102.183
 11
174.071
 21
101.996
  0
LINE
  8
0
 10
174.071
 20
101.996
 11
174.027
 21
101.813
  0
LINE
  8
0
 10
174.027
 20
101.813
 11
173.96
 21
101.637
  0
LINE
  8
0
 10
173.96
 20
101.637
 11
173.872
 21
101.47
  0
LINE
  8
0
 10
173.872
 20
101.47
 11
173.763
 21
101.316
  0
LINE
  8
0
 10
173.763
 20
101.316
 11
173.636
 21
101.177
  0
LINE
  8
0
 10
173.636
 20
101.177
 11
173.493
 21
101.055
  0
LINE
  8
0
 10
173.493
 20
101.055
 11
173.335
 21
100.952
  0
LINE
  8
0
 10
173.335
 20
100.952
 11
173.166
 21
100.869
  0
LINE
  8
0
 10
173.166
 20
100.869
 11
172.987
 21
100.809
  0
LINE
  8
0
 10
172.987
 20
100.809
 11
172.803
 21
100.771
  0
LINE
  8
0
 10
172.803
 20
100.771
 11
172.615
 21
100.756
  0
LINE
  8
0
 10
172.615
 20
100.756
 11
172.427
 21
100.766
  0
LINE
  8
0
 10
387.197
 20
100.771
 11
387.013
 21
100.809
  0
LINE
  8
0
 10
387.013
 20
100.809
 11
386.834
 21
100.869
  0
LINE
  8
0
 10
386.834
 20
100.869
 11
386.665
 21
100.952
  0
LINE
  8
0
 10
386.665
 20
100.952
 11
386.507
 21
101.055
  0
LINE
  8
0
 10
386.507
 20
101.055
 11
386.364
 21
101.177
  0
LINE
  8
0
 10
386.364
 20
101.177
 11
386.237
 21
101.316
  0
LINE
  8
0
 10
386.237
 20
101.316
 11
386.128
 21
101.47
  0
LINE
  8
0
 10
386.128
 20
101.47
 11
386.04
 21
101.637
  0
LINE
  8
0
 10
386.04
 20
101.637
 11
385.973
 21
101.813
  0
LINE
  8
0
 10
385.973
 20
101.813
 11
385.929
 21
101.996
  0
LINE
  8
0
 10
385.929
 20
101.996
 11
385.908
 21
102.183
  0
LINE
  8
0
 10
385.908
 20
102.183
 11
385.91
 21
102.371
  0
LINE
  8
0
 10
385.91
 20
102.371
 11
385.937
 21
102.558
  0
LINE
  8
0
 10
385.937
 20
102.558
 11
385.986
 21
102.74
  0
LINE
  8
0
 10
385.986
 20
102.74
 11
386.058
 21
102.914
  0
LINE
  8
0
 10
386.058
 20
102.914
 11
386.151
 21
103.077
  0
LINE
  8
0
 10
386.151
 20
103.077
 11
386.264
 21
103.228
  0
LINE
  8
0
 10
386.264
 20
103.228
 11
386.394
 21
103.364
  0
LINE
  8
0
 10
386.394
 20
103.364
 11
386.541
 21
103.482
  0
LINE
  8
0
 10
386.541
 20
103.482
 11
386.702
 21
103.581
  0
LINE
  8
0
 10
386.702
 20
103.581
 11
386.873
 21
103.658
  0
LINE
  8
0
 10
386.873
 20
103.658
 11
387.053
 21
103.714
  0
LINE
  8
0
 10
387.053
 20
103.714
 11
387.239
 21
103.747
  0
LINE
  8
0
 10
387.239
 20
103.747
 11
387.427
 21
103.756
  0
LINE
  8
0
 10
387.427
 20
103.756
 11
387.615
 21
103.742
  0
LINE
  8
0
 10
387.615
 20
103.742
 11
387.799
 21
103.704
  0
LINE
  8
0
 10
387.799
 20
103.704
 11
387.978
 21
103.643
  0
LINE
  8
0
 10
387.978
 20
103.643
 11
388.147
 21
103.56
  0
LINE
  8
0
 10
388.147
 20
103.56
 11
388.304
 21
103.457
  0
LINE
  8
0
 10
388.304
 20
103.457
 11
388.448
 21
103.335
  0
LINE
  8
0
 10
388.448
 20
103.335
 11
388.575
 21
103.196
  0
LINE
  8
0
 10
388.575
 20
103.196
 11
388.684
 21
103.042
  0
LINE
  8
0
 10
388.684
 20
103.042
 11
388.772
 21
102.876
  0
LINE
  8
0
 10
388.772
 20
102.876
 11
388.839
 21
102.7
  0
LINE
  8
0
 10
388.839
 20
102.7
 11
388.883
 21
102.517
  0
LINE
  8
0
 10
388.883
 20
102.517
 11
388.904
 21
102.329
  0
LINE
  8
0
 10
388.904
 20
102.329
 11
388.901
 21
102.141
  0
LINE
  8
0
 10
388.901
 20
102.141
 11
388.875
 21
101.955
  0
LINE
  8
0
 10
388.875
 20
101.955
 11
388.826
 21
101.773
  0
LINE
  8
0
 10
388.826
 20
101.773
 11
388.754
 21
101.599
  0
LINE
  8
0
 10
388.754
 20
101.599
 11
388.661
 21
101.435
  0
LINE
  8
0
 10
388.661
 20
101.435
 11
388.548
 21
101.284
  0
LINE
  8
0
 10
388.548
 20
101.284
 11
388.417
 21
101.148
  0
LINE
  8
0
 10
388.417
 20
101.148
 11
388.271
 21
101.03
  0
LINE
  8
0
 10
388.271
 20
101.03
 11
388.11
 21
100.932
  0
LINE
  8
0
 10
388.11
 20
100.932
 11
387.939
 21
100.854
  0
LINE
  8
0
 10
387.939
 20
100.854
 11
387.759
 21
100.798
  0
LINE
  8
0
 10
387.759
 20
100.798
 11
387.573
 21
100.766
  0
LINE
  8
0
 10
387.573
 20
100.766
 11
387.385
 21
100.756
  0
LINE
  8
0
 10
387.385
 20
100.756
 11
387.197
 21
100.771
  0
LINE
  8
0
 10
280.703
 20
27.5353
 11
299.414
 21
30.8346
  0
LINE
  8
0
 10
299.414
 20
30.8346
 11
290.906
 21
79.0901
  0
LINE
  8
0
 10
290.906
 20
79.0901
 11
309.617
 21
82.3895
  0
LINE
  8
0
 10
309.617
 20
82.3895
 11
308.749
 21
87.3135
  0
LINE
  8
0
 10
308.749
 20
87.3135
 11
327.46
 21
90.6128
  0
LINE
  8
0
 10
327.46
 20
90.6128
 11
326.418
 21
96.5217
  0
LINE
  8
0
 10
326.418
 20
96.5217
 11
346.114
 21
99.9946
  0
LINE
  8
0
 10
346.114
 20
99.9946
 11
346.983
 21
95.0706
  0
LINE
  8
0
 10
346.983
 20
95.0706
 11
365.694
 21
98.3699
  0
LINE
  8
0
 10
365.694
 20
98.3699
 11
366.215
 21
95.4155
  0
LINE
  8
0
 10
366.215
 20
95.4155
 11
384.926
 21
98.7148
  0
LINE
  8
0
 10
384.926
 20
98.7148
 11
398.297
 21
22.8846
  0
LINE
  8
0
 10
398.297
 20
22.8846
 11
378.601
 21
19.4116
  0
LINE
  8
0
 10
378.601
 20
19.4116
 11
378.08
 21
22.3661
  0
LINE
  8
0
 10
378.08
 20
22.3661
 11
359.369
 21
19.0667
  0
LINE
  8
0
 10
359.369
 20
19.0667
 11
358.5
 21
23.9908
  0
LINE
  8
0
 10
358.5
 20
23.9908
 11
340.774
 21
20.8651
  0
LINE
  8
0
 10
340.774
 20
20.8651
 11
341.816
 21
14.9563
  0
LINE
  8
0
 10
341.816
 20
14.9563
 11
323.104
 21
11.657
  0
LINE
  8
0
 10
323.104
 20
11.657
 11
323.973
 21
6.73291
  0
LINE
  8
0
 10
323.973
 20
6.73291
 11
305.261
 21
3.43359
  0
LINE
  8
0
 10
305.261
 20
3.43359
 11
305.609
 21
1.46399
  0
LINE
  8
0
 10
305.609
 20
1.46399
 11
302.658
 21
0.943802
  0
LINE
  8
0
 10
302.658
 20
0.943802
 11
302.695
 21
0.919678
  0
LINE
  8
0
 10
302.695
 20
0.919678
 11
302.839
 21
0.797592
  0
LINE
  8
0
 10
302.839
 20
0.797592
 11
302.966
 21
0.658493
  0
LINE
  8
0
 10
302.966
 20
0.658493
 11
303.074
 21
0.504547
  0
LINE
  8
0
 10
303.074
 20
0.504547
 11
303.163
 21
0.338226
  0
LINE
  8
0
 10
303.163
 20
0.338226
 11
303.23
 21
0.16214
  0
LINE
  8
0
 10
303.23
 20
0.16214
 11
303.274
 21
-0.0209351
  0
LINE
  8
0
 10
303.274
 20
-0.0209351
 11
303.295
 21
-0.20813
  0
LINE
  8
0
 10
303.295
 20
-0.20813
 11
303.292
 21
-0.396484
  0
LINE
  8
0
 10
303.292
 20
-0.396484
 11
303.266
 21
-0.583023
  0
LINE
  8
0
 10
303.266
 20
-0.583023
 11
303.217
 21
-0.764801
  0
LINE
  8
0
 10
303.217
 20
-0.764801
 11
303.145
 21
-0.93895
  0
LINE
  8
0
 10
303.145
 20
-0.93895
 11
303.052
 21
-1.10274
  0
LINE
  8
0
 10
303.052
 20
-1.10274
 11
302.939
 21
-1.25359
  0
LINE
  8
0
 10
302.939
 20
-1.25359
 11
302.808
 21
-1.3891
  0
LINE
  8
0
 10
302.808
 20
-1.3891
 11
302.661
 21
-1.50713
  0
LINE
  8
0
 10
302.661
 20
-1.50713
 11
302.501
 21
-1.60582
  0
LINE
  8
0
 10
302.501
 20
-1.60582
 11
302.329
 21
-1.68365
  0
LINE
  8
0
 10
302.329
 20
-1.68365
 11
302.15
 21
-1.73935
  0
LINE
  8
0
 10
302.15
 20
-1.73935
 11
301.964
 21
-1.77206
  0
LINE
  8
0
 10
301.964
 20
-1.77206
 11
301.776
 21
-1.78127
  0
LINE
  8
0
 10
301.776
 20
-1.78127
 11
301.588
 21
-1.7668
  0
LINE
  8
0
 10
301.588
 20
-1.7668
 11
301.404
 21
-1.72893
  0
LINE
  8
0
 10
301.404
 20
-1.72893
 11
301.225
 21
-1.66823
  0
LINE
  8
0
 10
301.225
 20
-1.66823
 11
301.056
 21
-1.58565
  0
LINE
  8
0
 10
301.056
 20
-1.58565
 11
300.898
 21
-1.4825
  0
LINE
  8
0
 10
300.898
 20
-1.4825
 11
300.755
 21
-1.36041
  0
LINE
  8
0
 10
300.755
 20
-1.36041
 11
300.628
 21
-1.22131
  0
LINE
  8
0
 10
300.628
 20
-1.22131
 11
300.519
 21
-1.06738
  0
LINE
  8
0
 10
300.519
 20
-1.06738
 11
300.431
 21
-0.901062
  0
LINE
  8
0
 10
300.431
 20
-0.901062
 11
300.364
 21
-0.724976
  0
LINE
  8
0
 10
300.364
 20
-0.724976
 11
300.32
 21
-0.541885
  0
LINE
  8
0
 10
300.32
 20
-0.541885
 11
300.299
 21
-0.354675
  0
LINE
  8
0
 10
300.299
 20
-0.354675
 11
300.301
 21
-0.166336
  0
LINE
  8
0
 10
300.301
 20
-0.166336
 11
300.327
 21
0.0201874
  0
LINE
  8
0
 10
300.327
 20
0.0201874
 11
300.377
 21
0.201981
  0
LINE
  8
0
 10
300.377
 20
0.201981
 11
300.449
 21
0.376144
  0
LINE
  8
0
 10
300.449
 20
0.376144
 11
300.542
 21
0.539932
  0
LINE
  8
0
 10
300.542
 20
0.539932
 11
300.568
 21
0.575211
  0
LINE
  8
0
 10
300.568
 20
0.575211
 11
285.912
 21
-2.00896
  0
LINE
  8
0
 10
285.912
 20
-2.00896
 11
280.703
 21
27.5353
  0
LINE
  8
0
 10
259.432
 20
0.575211
 11
259.458
 21
0.539932
  0
LINE
  8
0
 10
259.458
 20
0.539932
 11
259.551
 21
0.376144
  0
LINE
  8
0
 10
259.551
 20
0.376144
 11
259.623
 21
0.201981
  0
LINE
  8
0
 10
259.623
 20
0.201981
 11
259.673
 21
0.0201874
  0
LINE
  8
0
 10
259.673
 20
0.0201874
 11
259.699
 21
-0.166336
  0
LINE
  8
0
 10
259.699
 20
-0.166336
 11
259.701
 21
-0.354675
  0
LINE
  8
0
 10
259.701
 20
-0.354675
 11
259.68
 21
-0.541885
  0
LINE
  8
0
 10
259.68
 20
-0.541885
 11
259.636
 21
-0.724976
  0
LINE
  8
0
 10
259.636
 20
-0.724976
 11
259.569
 21
-0.901062
  0
LINE
  8
0
 10
259.569
 20
-0.901062
 11
259.481
 21
-1.06738
  0
LINE
  8
0
 10
259.481
 20
-1.06738
 11
259.372
 21
-1.22131
  0
LINE
  8
0
 10
259.372
 20
-1.22131
 11
259.245
 21
-1.36041
  0
LINE
  8
0
 10
259.245
 20
-1.36041
 11
259.102
 21
-1.4825
  0
LINE
  8
0
 10
259.102
 20
-1.4825
 11
258.944
 21
-1.58565
  0
LINE
  8
0
 10
258.944
 20
-1.58565
 11
258.775
 21
-1.66823
  0
LINE
  8
0
 10
258.775
 20
-1.66823
 11
258.596
 21
-1.72893
  0
LINE
  8
0
 10
258.596
 20
-1.72893
 11
258.412
 21
-1.7668
  0
LINE
  8
0
 10
258.412
 20
-1.7668
 11
258.224
 21
-1.78127
  0
LINE
  8
0
 10
258.224
 20
-1.78127
 11
258.036
 21
-1.77206
  0
LINE
  8
0
 10
258.036
 20
-1.77206
 11
257.85
 21
-1.73935
  0
LINE
  8
0
 10
257.85
 20
-1.73935
 11
257.671
 21
-1.68365
  0
LINE
  8
0
 10
257.671
 20
-1.68365
 11
257.499
 21
-1.60582
  0
LINE
  8
0
 10
257.499
 20
-1.60582
 11
257.339
 21
-1.50713
  0
LINE
  8
0
 10
257.339
 20
-1.50713
 11
257.192
 21
-1.3891
  0
LINE
  8
0
 10
257.192
 20
-1.3891
 11
257.061
 21
-1.25359
  0
LINE
  8
0
 10
257.061
 20
-1.25359
 11
256.948
 21
-1.10274
  0
LINE
  8
0
 10
256.948
 20
-1.10274
 11
256.855
 21
-0.93895
  0
LINE
  8
0
 10
256.855
 20
-0.93895
 11
256.783
 21
-0.764801
  0
LINE
  8
0
 10
256.783
 20
-0.764801
 11
256.734
 21
-0.583023
  0
LINE
  8
0
 10
256.734
 20
-0.583023
 11
256.708
 21
-0.396484
  0
LINE
  8
0
 10
256.708
 20
-0.396484
 11
256.705
 21
-0.20813
  0
LINE
  8
0
 10
256.705
 20
-0.20813
 11
256.726
 21
-0.0209351
  0
LINE
  8
0
 10
256.726
 20
-0.0209351
 11
256.77
 21
0.16214
  0
LINE
  8
0
 10
256.77
 20
0.16214
 11
256.837
 21
0.338226
  0
LINE
  8
0
 10
256.837
 20
0.338226
 11
256.926
 21
0.504547
  0
LINE
  8
0
 10
256.926
 20
0.504547
 11
257.034
 21
0.658493
  0
LINE
  8
0
 10
257.034
 20
0.658493
 11
257.161
 21
0.797592
  0
LINE
  8
0
 10
257.161
 20
0.797592
 11
257.305
 21
0.919678
  0
LINE
  8
0
 10
257.305
 20
0.919678
 11
257.342
 21
0.943802
  0
LINE
  8
0
 10
257.342
 20
0.943802
 11
254.391
 21
1.46399
  0
LINE
  8
0
 10
254.391
 20
1.46399
 11
254.739
 21
3.43359
  0
LINE
  8
0
 10
254.739
 20
3.43359
 11
236.027
 21
6.73291
  0
LINE
  8
0
 10
236.027
 20
6.73291
 11
236.896
 21
11.657
  0
LINE
  8
0
 10
236.896
 20
11.657
 11
218.184
 21
14.9563
  0
LINE
  8
0
 10
218.184
 20
14.9563
 11
219.226
 21
20.8651
  0
LINE
  8
0
 10
219.226
 20
20.8651
 11
201.5
 21
23.9908
  0
LINE
  8
0
 10
201.5
 20
23.9908
 11
200.631
 21
19.0667
  0
LINE
  8
0
 10
200.631
 20
19.0667
 11
181.92
 21
22.3661
  0
LINE
  8
0
 10
181.92
 20
22.3661
 11
181.399
 21
19.4116
  0
LINE
  8
0
 10
181.399
 20
19.4116
 11
161.703
 21
22.8846
  0
LINE
  8
0
 10
161.703
 20
22.8846
 11
175.074
 21
98.7148
  0
LINE
  8
0
 10
175.074
 20
98.7148
 11
193.785
 21
95.4155
  0
LINE
  8
0
 10
193.785
 20
95.4155
 11
194.306
 21
98.3699
  0
LINE
  8
0
 10
194.306
 20
98.3699
 11
213.017
 21
95.0706
  0
LINE
  8
0
 10
213.017
 20
95.0706
 11
213.886
 21
99.9946
  0
LINE
  8
0
 10
213.886
 20
99.9946
 11
233.582
 21
96.5217
  0
LINE
  8
0
 10
233.582
 20
96.5217
 11
232.54
 21
90.6128
  0
LINE
  8
0
 10
232.54
 20
90.6128
 11
251.251
 21
87.3135
  0
LINE
  8
0
 10
251.251
 20
87.3135
 11
250.383
 21
82.3895
  0
LINE
  8
0
 10
250.383
 20
82.3895
 11
269.094
 21
79.0901
  0
LINE
  8
0
 10
269.094
 20
79.0901
 11
260.586
 21
30.8346
  0
LINE
  8
0
 10
260.586
 20
30.8346
 11
279.297
 21
27.5353
  0
LINE
  8
0
 10
279.297
 20
27.5353
 11
274.088
 21
-2.00896
  0
LINE
  8
0
 10
274.088
 20
-2.00896
 11
259.432
 21
0.575211
  0
LINE
  8
0
 10
259.906
 20
96.5029
 11
259.719
 21
96.5266
  0
LINE
  8
0
 10
259.719
 20
96.5266
 11
259.536
 21
96.5734
  0
LINE
  8
0
 10
259.536
 20
96.5734
 11
259.361
 21
96.6427
  0
LINE
  8
0
 10
259.361
 20
96.6427
 11
259.196
 21
96.7335
  0
LINE
  8
0
 10
259.196
 20
96.7335
 11
259.044
 21
96.8442
  0
LINE
  8
0
 10
259.044
 20
96.8442
 11
258.907
 21
96.9732
  0
LINE
  8
0
 10
258.907
 20
96.9732
 11
258.786
 21
97.1183
  0
LINE
  8
0
 10
258.786
 20
97.1183
 11
258.686
 21
97.2774
  0
LINE
  8
0
 10
258.686
 20
97.2774
 11
258.605
 21
97.4478
  0
LINE
  8
0
 10
258.605
 20
97.4478
 11
258.547
 21
97.627
  0
LINE
  8
0
 10
258.547
 20
97.627
 11
258.512
 21
97.812
  0
LINE
  8
0
 10
258.512
 20
97.812
 11
258.5
 21
98
  0
LINE
  8
0
 10
258.5
 20
98
 11
258.512
 21
98.188
  0
LINE
  8
0
 10
258.512
 20
98.188
 11
258.547
 21
98.373
  0
LINE
  8
0
 10
258.547
 20
98.373
 11
258.605
 21
98.5522
  0
LINE
  8
0
 10
258.605
 20
98.5522
 11
258.686
 21
98.7226
  0
LINE
  8
0
 10
258.686
 20
98.7226
 11
258.786
 21
98.8817
  0
LINE
  8
0
 10
258.786
 20
98.8817
 11
258.907
 21
99.0268
  0
LINE
  8
0
 10
258.907
 20
99.0268
 11
259.044
 21
99.1558
  0
LINE
  8
0
 10
259.044
 20
99.1558
 11
259.196
 21
99.2665
  0
LINE
  8
0
 10
259.196
 20
99.2665
 11
259.361
 21
99.3572
  0
LINE
  8
0
 10
259.361
 20
99.3572
 11
259.536
 21
99.4266
  0
LINE
  8
0
 10
259.536
 20
99.4266
 11
259.719
 21
99.4734
  0
LINE
  8
0
 10
259.719
 20
99.4734
 11
259.906
 21
99.497
  0
LINE
  8
0
 10
259.906
 20
99.497
 11
260.094
 21
99.497
  0
LINE
  8
0
 10
260.094
 20
99.497
 11
260.281
 21
99.4734
  0
LINE
  8
0
 10
260.281
 20
99.4734
 11
260.464
 21
99.4266
  0
LINE
  8
0
 10
260.464
 20
99.4266
 11
260.639
 21
99.3572
  0
LINE
  8
0
 10
260.639
 20
99.3572
 11
260.804
 21
99.2665
  0
LINE
  8
0
 10
260.804
 20
99.2665
 11
260.956
 21
99.1558
  0
LINE
  8
0
 10
260.956
 20
99.1558
 11
261.093
 21
99.0268
  0
LINE
  8
0
 10
261.093
 20
99.0268
 11
261.214
 21
98.8817
  0
LINE
  8
0
 10
261.214
 20
98.8817
 11
261.314
 21
98.7226
  0
LINE
  8
0
 10
261.314
 20
98.7226
 11
261.395
 21
98.5522
  0
LINE
  8
0
 10
261.395
 20
98.5522
 11
261.453
 21
98.373
  0
LINE
  8
0
 10
261.453
 20
98.373
 11
261.488
 21
98.188
  0
LINE
  8
0
 10
261.488
 20
98.188
 11
261.5
 21
98
  0
LINE
  8
0
 10
261.5
 20
98
 11
261.488
 21
97.812
  0
LINE
  8
0
 10
261.488
 20
97.812
 11
261.453
 21
97.627
  0
LINE
  8
0
 10
261.453
 20
97.627
 11
261.395
 21
97.4478
  0
LINE
  8
0
 10
261.395
 20
97.4478
 11
261.314
 21
97.2774
  0
LINE
  8
0
 10
261.314
 20
97.2774
 11
261.214
 21
97.1183
  0
LINE
  8
0
 10
261.214
 20
97.1183
 11
261.093
 21
96.9732
  0
LINE
  8
0
 10
261.093
 20
96.9732
 11
260.956
 21
96.8442
  0
LINE
  8
0
 10
260.956
 20
96.8442
 11
260.804
 21
96.7335
  0
LINE
  8
0
 10
260.804
 20
96.7335
 11
260.639
 21
96.6427
  0
LINE
  8
0
 10
260.639
 20
96.6427
 11
260.464
 21
96.5734
  0
LINE
  8
0
 10
260.464
 20
96.5734
 11
260.281
 21
96.5266
  0
LINE
  8
0
 10
260.281
 20
96.5266
 11
260.094
 21
96.5029
  0
LINE
  8
0
 10
260.094
 20
96.5029
 11
259.906
 21
96.5029
  0
LINE
  8
0
 10
299.906
 20
96.5029
 11
299.719
 21
96.5266
  0
LINE
  8
0
 10
299.719
 20
96.5266
 11
299.536
 21
96.5734
  0
LINE
  8
0
 10
299.536
 20
96.5734
 11
299.361
 21
96.6427
  0
LINE
  8
0
 10
299.361
 20
96.6427
 11
299.196
 21
96.7335
  0
LINE
  8
0
 10
299.196
 20
96.7335
 11
299.044
 21
96.8442
  0
LINE
  8
0
 10
299.044
 20
96.8442
 11
298.907
 21
96.9732
  0
LINE
  8
0
 10
298.907
 20
96.9732
 11
298.786
 21
97.1183
  0
LINE
  8
0
 10
298.786
 20
97.1183
 11
298.686
 21
97.2774
  0
LINE
  8
0
 10
298.686
 20
97.2774
 11
298.605
 21
97.4478
  0
LINE
  8
0
 10
298.605
 20
97.4478
 11
298.547
 21
97.627
  0
LINE
  8
0
 10
298.547
 20
97.627
 11
298.512
 21
97.812
  0
LINE
  8
0
 10
298.512
 20
97.812
 11
298.5
 21
98
  0
LINE
  8
0
 10
298.5
 20
98
 11
298.512
 21
98.188
  0
LINE
  8
0
 10
298.512
 20
98.188
 11
298.547
 21
98.373
  0
LINE
  8
0
 10
298.547
 20
98.373
 11
298.605
 21
98.5522
  0
LINE
  8
0
 10
298.605
 20
98.5522
 11
298.686
 21
98.7226
  0
LINE
  8
0
 10
298.686
 20
98.7226
 11
298.786
 21
98.8817
  0
LINE
  8
0
 10
298.786
 20
98.8817
 11
298.907
 21
99.0268
  0
LINE
  8
0
 10
298.907
 20
99.0268
 11
299.044
 21
99.1558
  0
LINE
  8
0
 10
299.044
 20
99.1558
 11
299.196
 21
99.2665
  0
LINE
  8
0
 10
299.196
 20
99.2665
 11
299.361
 21
99.3572
  0
LINE
  8
0
 10
299.361
 20
99.3572
 11
299.536
 21
99.4266
  0
LINE
  8
0
 10
299.536
 20
99.4266
 11
299.719
 21
99.4734
  0
LINE
  8
0
 10
299.719
 20
99.4734
 11
299.906
 21
99.497
  0
LINE
  8
0
 10
299.906
 20
99.497
 11
300.094
 21
99.497
  0
LINE
  8
0
 10
300.094
 20
99.497
 11
300.281
 21
99.4734
  0
LINE
  8
0
 10
300.281
 20
99.4734
 11
300.464
 21
99.4266
  0
LINE
  8
0
 10
300.464
 20
99.4266
 11
300.639
 21
99.3572
  0
LINE
  8
0
 10
300.639
 20
99.3572
 11
300.804
 21
99.2665
  0
LINE
  8
0
 10
300.804
 20
99.2665
 11
300.956
 21
99.1558
  0
LINE
  8
0
 10
300.956
 20
99.1558
 11
301.093
 21
99.0268
  0
LINE
  8
0
 10
301.093
 20
99.0268
 11
301.214
 21
98.8817
  0
LINE
  8
0
 10
301.214
 20
98.8817
 11
301.314
 21
98.7226
  0
LINE
  8
0
 10
301.314
 20
98.7226
 11
301.395
 21
98.5522
  0
LINE
  8
0
 10
301.395
 20
98.5522
 11
301.453
 21
98.373
  0
LINE
  8
0
 10
301.453
 20
98.373
 11
301.488
 21
98.188
  0
LINE
  8
0
 10
301.488
 20
98.188
 11
301.5
 21
98
  0
LINE
  8
0
 10
301.5
 20
98
 11
301.488
 21
97.812
  0
LINE
  8
0
 10
301.488
 20
97.812
 11
301.453
 21
97.627
  0
LINE
  8
0
 10
301.453
 20
97.627
 11
301.395
 21
97.4478
  0
LINE
  8
0
 10
301.395
 20
97.4478
 11
301.314
 21
97.2774
  0
LINE
  8
0
 10
301.314
 20
97.2774
 11
301.214
 21
97.1183
  0
LINE
  8
0
 10
301.214
 20
97.1183
 11
301.093
 21
96.9732
  0
LINE
  8
0
 10
301.093
 20
96.9732
 11
300.956
 21
96.8442
  0
LINE
  8
0
 10
300.956
 20
96.8442
 11
300.804
 21
96.7335
  0
LINE
  8
0
 10
300.804
 20
96.7335
 11
300.639
 21
96.6427
  0
LINE
  8
0
 10
300.639
 20
96.6427
 11
300.464
 21
96.5734
  0
LINE
  8
0
 10
300.464
 20
96.5734
 11
300.281
 21
96.5266
  0
LINE
  8
0
 10
300.281
 20
96.5266
 11
300.094
 21
96.5029
  0
LINE
  8
0
 10
300.094
 20
96.5029
 11
299.906
 21
96.5029
  0
LINE
  8
0
 10
157.994
 20
18.9142
 11
157.809
 21
18.947
  0
LINE
  8
0
 10
157.809
 20
18.947
 11
157.629
 21
19.0027
  0
LINE
  8
0
 10
157.629
 20
19.0027
 11
157.457
 21
19.0805
  0
LINE
  8
0
 10
157.457
 20
19.0805
 11
157.297
 21
19.1792
  0
LINE
  8
0
 10
157.297
 20
19.1792
 11
157.15
 21
19.2972
  0
LINE
  8
0
 10
157.15
 20
19.2972
 11
157.019
 21
19.4327
  0
LINE
  8
0
 10
157.019
 20
19.4327
 11
156.906
 21
19.5836
  0
LINE
  8
0
 10
156.906
 20
19.5836
 11
156.813
 21
19.7474
  0
LINE
  8
0
 10
156.813
 20
19.7474
 11
156.742
 21
19.9215
  0
LINE
  8
0
 10
156.742
 20
19.9215
 11
156.692
 21
20.1033
  0
LINE
  8
0
 10
156.692
 20
20.1033
 11
156.666
 21
20.2898
  0
LINE
  8
0
 10
156.666
 20
20.2898
 11
156.663
 21
20.4782
  0
LINE
  8
0
 10
156.663
 20
20.4782
 11
156.684
 21
20.6654
  0
LINE
  8
0
 10
156.684
 20
20.6654
 11
156.729
 21
20.8485
  0
LINE
  8
0
 10
156.729
 20
20.8485
 11
156.795
 21
21.0246
  0
LINE
  8
0
 10
156.795
 20
21.0246
 11
156.884
 21
21.1909
  0
LINE
  8
0
 10
156.884
 20
21.1909
 11
156.993
 21
21.3448
  0
LINE
  8
0
 10
156.993
 20
21.3448
 11
157.12
 21
21.4839
  0
LINE
  8
0
 10
157.12
 20
21.4839
 11
157.263
 21
21.606
  0
LINE
  8
0
 10
157.263
 20
21.606
 11
157.421
 21
21.7091
  0
LINE
  8
0
 10
157.421
 20
21.7091
 11
157.59
 21
21.7917
  0
LINE
  8
0
 10
157.59
 20
21.7917
 11
157.768
 21
21.8524
  0
LINE
  8
0
 10
157.768
 20
21.8524
 11
157.953
 21
21.8903
  0
LINE
  8
0
 10
157.953
 20
21.8903
 11
158.141
 21
21.9047
  0
LINE
  8
0
 10
158.141
 20
21.9047
 11
158.329
 21
21.8955
  0
LINE
  8
0
 10
158.329
 20
21.8955
 11
158.514
 21
21.8628
  0
LINE
  8
0
 10
158.514
 20
21.8628
 11
158.694
 21
21.8071
  0
LINE
  8
0
 10
158.694
 20
21.8071
 11
158.866
 21
21.7293
  0
LINE
  8
0
 10
158.866
 20
21.7293
 11
159.026
 21
21.6306
  0
LINE
  8
0
 10
159.026
 20
21.6306
 11
159.173
 21
21.5126
  0
LINE
  8
0
 10
159.173
 20
21.5126
 11
159.304
 21
21.3771
  0
LINE
  8
0
 10
159.304
 20
21.3771
 11
159.417
 21
21.2262
  0
LINE
  8
0
 10
159.417
 20
21.2262
 11
159.51
 21
21.0625
  0
LINE
  8
0
 10
159.51
 20
21.0625
 11
159.581
 21
20.8883
  0
LINE
  8
0
 10
159.581
 20
20.8883
 11
159.631
 21
20.7065
  0
LINE
  8
0
 10
159.631
 20
20.7065
 11
159.657
 21
20.52
  0
LINE
  8
0
 10
159.657
 20
20.52
 11
159.66
 21
20.3316
  0
LINE
  8
0
 10
159.66
 20
20.3316
 11
159.639
 21
20.1444
  0
LINE
  8
0
 10
159.639
 20
20.1444
 11
159.594
 21
19.9613
  0
LINE
  8
0
 10
159.594
 20
19.9613
 11
159.528
 21
19.7852
  0
LINE
  8
0
 10
159.528
 20
19.7852
 11
159.439
 21
19.6189
  0
LINE
  8
0
 10
159.439
 20
19.6189
 11
159.331
 21
19.465
  0
LINE
  8
0
 10
159.331
 20
19.465
 11
159.204
 21
19.3259
  0
LINE
  8
0
 10
159.204
 20
19.3259
 11
159.06
 21
19.2038
  0
LINE
  8
0
 10
159.06
 20
19.2038
 11
158.902
 21
19.1007
  0
LINE
  8
0
 10
158.902
 20
19.1007
 11
158.733
 21
19.0181
  0
LINE
  8
0
 10
158.733
 20
19.0181
 11
158.555
 21
18.9574
  0
LINE
  8
0
 10
158.555
 20
18.9574
 11
158.37
 21
18.9195
  0
LINE
  8
0
 10
158.37
 20
18.9195
 11
158.182
 21
18.905
  0
LINE
  8
0
 10
158.182
 20
18.905
 11
157.994
 21
18.9142
  0
LINE
  8
0
 10
401.63
 20
18.9195
 11
401.445
 21
18.9574
  0
LINE
  8
0
 10
401.445
 20
18.9574
 11
401.267
 21
19.0181
  0
LINE
  8
0
 10
401.267
 20
19.0181
 11
401.098
 21
19.1007
  0
LINE
  8
0
 10
401.098
 20
19.1007
 11
400.94
 21
19.2038
  0
LINE
  8
0
 10
400.94
 20
19.2038
 11
400.796
 21
19.3259
  0
LINE
  8
0
 10
400.796
 20
19.3259
 11
400.669
 21
19.465
  0
LINE
  8
0
 10
400.669
 20
19.465
 11
400.561
 21
19.6189
  0
LINE
  8
0
 10
400.561
 20
19.6189
 11
400.472
 21
19.7852
  0
LINE
  8
0
 10
400.472
 20
19.7852
 11
400.406
 21
19.9613
  0
LINE
  8
0
 10
400.406
 20
19.9613
 11
400.361
 21
20.1444
  0
LINE
  8
0
 10
400.361
 20
20.1444
 11
400.34
 21
20.3316
  0
LINE
  8
0
 10
400.34
 20
20.3316
 11
400.343
 21
20.52
  0
LINE
  8
0
 10
400.343
 20
20.52
 11
400.369
 21
20.7065
  0
LINE
  8
0
 10
400.369
 20
20.7065
 11
400.419
 21
20.8883
  0
LINE
  8
0
 10
400.419
 20
20.8883
 11
400.49
 21
21.0625
  0
LINE
  8
0
 10
400.49
 20
21.0625
 11
400.583
 21
21.2262
  0
LINE
  8
0
 10
400.583
 20
21.2262
 11
400.696
 21
21.3771
  0
LINE
  8
0
 10
400.696
 20
21.3771
 11
400.827
 21
21.5126
  0
LINE
  8
0
 10
400.827
 20
21.5126
 11
400.974
 21
21.6306
  0
LINE
  8
0
 10
400.974
 20
21.6306
 11
401.134
 21
21.7293
  0
LINE
  8
0
 10
401.134
 20
21.7293
 11
401.306
 21
21.8071
  0
LINE
  8
0
 10
401.306
 20
21.8071
 11
401.486
 21
21.8628
  0
LINE
  8
0
 10
401.486
 20
21.8628
 11
401.671
 21
21.8955
  0
LINE
  8
0
 10
401.671
 20
21.8955
 11
401.859
 21
21.9047
  0
LINE
  8
0
 10
401.859
 20
21.9047
 11
402.047
 21
21.8903
  0
LINE
  8
0
 10
402.047
 20
21.8903
 11
402.232
 21
21.8524
  0
LINE
  8
0
 10
402.232
 20
21.8524
 11
402.41
 21
21.7917
  0
LINE
  8
0
 10
402.41
 20
21.7917
 11
402.579
 21
21.7091
  0
LINE
  8
0
 10
402.579
 20
21.7091
 11
402.737
 21
21.606
  0
LINE
  8
0
 10
402.737
 20
21.606
 11
402.88
 21
21.4839
  0
LINE
  8
0
 10
402.88
 20
21.4839
 11
403.007
 21
21.3448
  0
LINE
  8
0
 10
403.007
 20
21.3448
 11
403.116
 21
21.1909
  0
LINE
  8
0
 10
403.116
 20
21.1909
 11
403.205
 21
21.0246
  0
LINE
  8
0
 10
403.205
 20
21.0246
 11
403.271
 21
20.8485
  0
LINE
  8
0
 10
403.271
 20
20.8485
 11
403.316
 21
20.6654
  0
LINE
  8
0
 10
403.316
 20
20.6654
 11
403.337
 21
20.4782
  0
LINE
  8
0
 10
403.337
 20
20.4782
 11
403.334
 21
20.2898
  0
LINE
  8
0
 10
403.334
 20
20.2898
 11
403.308
 21
20.1033
  0
LINE
  8
0
 10
403.308
 20
20.1033
 11
403.258
 21
19.9215
  0
LINE
  8
0
 10
403.258
 20
19.9215
 11
403.187
 21
19.7474
  0
LINE
  8
0
 10
403.187
 20
19.7474
 11
403.094
 21
19.5836
  0
LINE
  8
0
 10
403.094
 20
19.5836
 11
402.981
 21
19.4327
  0
LINE
  8
0
 10
402.981
 20
19.4327
 11
402.85
 21
19.2972
  0
LINE
  8
0
 10
402.85
 20
19.2972
 11
402.703
 21
19.1792
  0
LINE
  8
0
 10
402.703
 20
19.1792
 11
402.543
 21
19.0805
  0
LINE
  8
0
 10
402.543
 20
19.0805
 11
402.371
 21
19.0027
  0
LINE
  8
0
 10
402.371
 20
19.0027
 11
402.191
 21
18.947
  0
LINE
  8
0
 10
402.191
 20
18.947
 11
402.006
 21
18.9142
  0
LINE
  8
0
 10
402.006
 20
18.9142
 11
401.818
 21
18.905
  0
LINE
  8
0
 10
401.818
 20
18.905
 11
401.63
 21
18.9195
  0
LINE
  8
0
 10
22.4656
 20
-6.24402
 11
23.2077
 21
-6.11317
  0
LINE
  8
0
 10
23.2077
 20
-6.11317
 11
123.249
 21
14.5731
  0
LINE
  8
0
 10
123.249
 20
14.5731
 11
123.969
 21
14.7959
  0
LINE
  8
0
 10
123.969
 20
14.7959
 11
124.655
 21
15.1072
  0
LINE
  8
0
 10
124.655
 20
15.1072
 11
125.297
 21
15.502
  0
LINE
  8
0
 10
125.297
 20
15.502
 11
125.884
 21
15.9742
  0
LINE
  8
0
 10
125.884
 20
15.9742
 11
126.408
 21
16.5162
  0
LINE
  8
0
 10
126.408
 20
16.5162
 11
126.859
 21
17.1195
  0
LINE
  8
0
 10
126.859
 20
17.1195
 11
127.231
 21
17.7747
  0
LINE
  8
0
 10
127.231
 20
17.7747
 11
127.518
 21
18.4713
  0
LINE
  8
0
 10
127.518
 20
18.4713
 11
127.716
 21
19.1984
  0
LINE
  8
0
 10
127.716
 20
19.1984
 11
127.821
 21
19.9446
  0
LINE
  8
0
 10
127.821
 20
19.9446
 11
127.831
 21
20.698
  0
LINE
  8
0
 10
127.831
 20
20.698
 11
127.747
 21
21.4468
  0
LINE
  8
0
 10
127.747
 20
21.4468
 11
113.315
 21
103.298
  0
LINE
  8
0
 10
113.315
 20
103.298
 11
113.138
 21
104.03
  0
LINE
  8
0
 10
113.138
 20
104.03
 11
112.87
 21
104.735
  0
LINE
  8
0
 10
112.87
 20
104.735
 11
112.516
 21
105.4
  0
LINE
  8
0
 10
112.516
 20
105.4
 11
112.082
 21
106.016
  0
LINE
  8
0
 10
112.082
 20
106.016
 11
111.574
 21
106.572
  0
LINE
  8
0
 10
111.574
 20
106.572
 11
111
 21
107.061
  0
LINE
  8
0
 10
111
 20
107.061
 11
110.37
 21
107.473
  0
LINE
  8
0
 10
110.37
 20
107.473
 11
109.692
 21
107.803
  0
LINE
  8
0
 10
109.692
 20
107.803
 11
108.979
 21
108.046
  0
LINE
  8
0
 10
108.979
 20
108.046
 11
108.241
 21
108.198
  0
LINE
  8
0
 10
108.241
 20
108.198
 11
107.49
 21
108.256
  0
LINE
  8
0
 10
107.49
 20
108.256
 11
-107.49
 21
108.256
  0
LINE
  8
0
 10
-107.49
 20
108.256
 11
-108.241
 21
108.198
  0
LINE
  8
0
 10
-108.241
 20
108.198
 11
-108.979
 21
108.046
  0
LINE
  8
0
 10
-108.979
 20
108.046
 11
-109.692
 21
107.803
  0
LINE
  8
0
 10
-109.692
 20
107.803
 11
-110.37
 21
107.473
  0
LINE
  8
0
 10
-110.37
 20
107.473
 11
-111
 21
107.061
  0
LINE
  8
0
 10
-111
 20
107.061
 11
-111.574
 21
106.572
  0
LINE
  8
0
 10
-111.574
 20
106.572
 11
-112.082
 21
106.016
  0
LINE
  8
0
 10
-112.082
 20
106.016
 11
-112.516
 21
105.4
  0
LINE
  8
0
 10
-112.516
 20
105.4
 11
-112.87
 21
104.735
  0
LINE
  8
0
 10
-112.87
 20
104.735
 11
-113.138
 21
104.03
  0
LINE
  8
0
 10
-113.138
 20
104.03
 11
-113.315
 21
103.298
  0
LINE
  8
0
 10
-113.315
 20
103.298
 11
-127.747
 21
21.4468
  0
LINE
  8
0
 10
-127.747
 20
21.4468
 11
-127.831
 21
20.698
  0
LINE
  8
0
 10
-127.831
 20
20.698
 11
-127.821
 21
19.9446
  0
LINE
  8
0
 10
-127.821
 20
19.9446
 11
-127.716
 21
19.1984
  0
LINE
  8
0
 10
-127.716
 20
19.1984
 11
-127.518
 21
18.4713
  0
LINE
  8
0
 10
-127.518
 20
18.4713
 11
-127.231
 21
17.7747
  0
LINE
  8
0
 10
-127.231
 20
17.7747
 11
-126.859
 21
17.1195
  0
LINE
  8
0
 10
-126.859
 20
17.1195
 11
-126.408
 21
16.5162
  0
LINE
  8
0
 10
-126.408
 20
16.5162
 11
-125.884
 21
15.9742
  0
LINE
  8
0
 10
-125.884
 20
15.9742
 11
-125.297
 21
15.502
  0
LINE
  8
0
 10
-125.297
 20
15.502
 11
-124.655
 21
15.1072
  0
LINE
  8
0
 10
-124.655
 20
15.1072
 11
-123.969
 21
14.7959
  0
LINE
  8
0
 10
-123.969
 20
14.7959
 11
-123.249
 21
14.5731
  0
LINE
  8
0
 10
-123.249
 20
14.5731
 11
-23.2077
 21
-6.11317
  0
LINE
  8
0
 10
-23.2077
 20
-6.11317
 11
-22.4656
 21
-6.24402
  0
LINE
  8
0
 10
-22.4656
 20
-6.24402
 11
-21.713
 21
-6.28082
  0
LINE
  8
0
 10
-21.713
 20
-6.28082
 11
21.713
 21
-6.28082
  0
LINE
  8
0
 10
21.713
 20
-6.28082
 11
22.4656
 21
-6.24402
  0
LINE
  8
0
 10
-107.573
 20
100.766
 11
-107.759
 21
100.798
  0
LINE
  8
0
 10
-107.759
 20
100.798
 11
-107.939
 21
100.854
  0
LINE
  8
0
 10
-107.939
 20
100.854
 11
-108.11
 21
100.932
  0
LINE
  8
0
 10
-108.11
 20
100.932
 11
-108.271
 21
101.03
  0
LINE
  8
0
 10
-108.271
 20
101.03
 11
-108.417
 21
101.148
  0
LINE
  8
0
 10
-108.417
 20
101.148
 11
-108.548
 21
101.284
  0
LINE
  8
0
 10
-108.548
 20
101.284
 11
-108.661
 21
101.435
  0
LINE
  8
0
 10
-108.661
 20
101.435
 11
-108.754
 21
101.599
  0
LINE
  8
0
 10
-108.754
 20
101.599
 11
-108.826
 21
101.773
  0
LINE
  8
0
 10
-108.826
 20
101.773
 11
-108.875
 21
101.955
  0
LINE
  8
0
 10
-108.875
 20
101.955
 11
-108.901
 21
102.141
  0
LINE
  8
0
 10
-108.901
 20
102.141
 11
-108.904
 21
102.329
  0
LINE
  8
0
 10
-108.904
 20
102.329
 11
-108.883
 21
102.517
  0
LINE
  8
0
 10
-108.883
 20
102.517
 11
-108.839
 21
102.7
  0
LINE
  8
0
 10
-108.839
 20
102.7
 11
-108.772
 21
102.876
  0
LINE
  8
0
 10
-108.772
 20
102.876
 11
-108.684
 21
103.042
  0
LINE
  8
0
 10
-108.684
 20
103.042
 11
-108.575
 21
103.196
  0
LINE
  8
0
 10
-108.575
 20
103.196
 11
-108.448
 21
103.335
  0
LINE
  8
0
 10
-108.448
 20
103.335
 11
-108.304
 21
103.457
  0
LINE
  8
0
 10
-108.304
 20
103.457
 11
-108.147
 21
103.56
  0
LINE
  8
0
 10
-108.147
 20
103.56
 11
-107.978
 21
103.643
  0
LINE
  8
0
 10
-107.978
 20
103.643
 11
-107.799
 21
103.704
  0
LINE
  8
0
 10
-107.799
 20
103.704
 11
-107.615
 21
103.742
  0
LINE
  8
0
 10
-107.615
 20
103.742
 11
-107.427
 21
103.756
  0
LINE
  8
0
 10
-107.427
 20
103.756
 11
-107.239
 21
103.747
  0
LINE
  8
0
 10
-107.239
 20
103.747
 11
-107.053
 21
103.714
  0
LINE
  8
0
 10
-107.053
 20
103.714
 11
-106.873
 21
103.658
  0
LINE
  8
0
 10
-106.873
 20
103.658
 11
-106.702
 21
103.581
  0
LINE
  8
0
 10
-106.702
 20
103.581
 11
-106.541
 21
103.482
  0
LINE
  8
0
 10
-106.541
 20
103.482
 11
-106.394
 21
103.364
  0
LINE
  8
0
 10
-106.394
 20
103.364
 11
-106.264
 21
103.228
  0
LINE
  8
0
 10
-106.264
 20
103.228
 11
-106.151
 21
103.077
  0
LINE
  8
0
 10
-106.151
 20
103.077
 11
-106.058
 21
102.914
  0
LINE
  8
0
 10
-106.058
 20
102.914
 11
-105.986
 21
102.74
  0
LINE
  8
0
 10
-105.986
 20
102.74
 11
-105.937
 21
102.558
  0
LINE
  8
0
 10
-105.937
 20
102.558
 11
-105.91
 21
102.371
  0
LINE
  8
0
 10
-105.91
 20
102.371
 11
-105.908
 21
102.183
  0
LINE
  8
0
 10
-105.908
 20
102.183
 11
-105.929
 21
101.996
  0
LINE
  8
0
 10
-105.929
 20
101.996
 11
-105.973
 21
101.813
  0
LINE
  8
0
 10
-105.973
 20
101.813
 11
-106.04
 21
101.637
  0
LINE
  8
0
 10
-106.04
 20
101.637
 11
-106.128
 21
101.47
  0
LINE
  8
0
 10
-106.128
 20
101.47
 11
-106.237
 21
101.316
  0
LINE
  8
0
 10
-106.237
 20
101.316
 11
-106.364
 21
101.177
  0
LINE
  8
0
 10
-106.364
 20
101.177
 11
-106.507
 21
101.055
  0
LINE
  8
0
 10
-106.507
 20
101.055
 11
-106.665
 21
100.952
  0
LINE
  8
0
 10
-106.665
 20
100.952
 11
-106.834
 21
100.869
  0
LINE
  8
0
 10
-106.834
 20
100.869
 11
-107.013
 21
100.809
  0
LINE
  8
0
 10
-107.013
 20
100.809
 11
-107.197
 21
100.771
  0
LINE
  8
0
 10
-107.197
 20
100.771
 11
-107.385
 21
100.756
  0
LINE
  8
0
 10
-107.385
 20
100.756
 11
-107.573
 21
100.766
  0
LINE
  8
0
 10
107.197
 20
100.771
 11
107.013
 21
100.809
  0
LINE
  8
0
 10
107.013
 20
100.809
 11
106.834
 21
100.869
  0
LINE
  8
0
 10
106.834
 20
100.869
 11
106.665
 21
100.952
  0
LINE
  8
0
 10
106.665
 20
100.952
 11
106.507
 21
101.055
  0
LINE
  8
0
 10
106.507
 20
101.055
 11
106.364
 21
101.177
  0
LINE
  8
0
 10
106.364
 20
101.177
 11
106.237
 21
101.316
  0
LINE
  8
0
 10
106.237
 20
101.316
 11
106.128
 21
101.47
  0
LINE
  8
0
 10
106.128
 20
101.47
 11
106.04
 21
101.637
  0
LINE
  8
0
 10
106.04
 20
101.637
 11
105.973
 21
101.813
  0
LINE
  8
0
 10
105.973
 20
101.813
 11
105.929
 21
101.996
  0
LINE
  8
0
 10
105.929
 20
101.996
 11
105.908
 21
102.183
  0
LINE
  8
0
 10
105.908
 20
102.183
 11
105.91
 21
102.371
  0
LINE
  8
0
 10
105.91
 20
102.371
 11
105.937
 21
102.558
  0
LINE
  8
0
 10
105.937
 20
102.558
 11
105.986
 21
102.74
  0
LINE
  8
0
 10
105.986
 20
102.74
 11
106.058
 21
102.914
  0
LINE
  8
0
 10
106.058
 20
102.914
 11
106.151
 21
103.077
  0
LINE
  8
0
 10
106.151
 20
103.077
 11
106.264
 21
103.228
  0
LINE
  8
0
 10
106.264
 20
103.228
 11
106.394
 21
103.364
  0
LINE
  8
0
 10
106.394
 20
103.364
 11
106.541
 21
103.482
  0
LINE
  8
0
 10
106.541
 20
103.482
 11
106.702
 21
103.581
  0
LINE
  8
0
 10
106.702
 20
103.581
 11
106.873
 21
103.658
  0
LINE
  8
0
 10
106.873
 20
103.658
 11
107.053
 21
103.714
  0
LINE
  8
0
 10
107.053
 20
103.714
 11
107.239
 21
103.747
  0
LINE
  8
0
 10
107.239
 20
103.747
 11
107.427
 21
103.756
  0
LINE
  8
0
 10
107.427
 20
103.756
 11
107.615
 21
103.742
  0
LINE
  8
0
 10
107.615
 20
103.742
 11
107.799
 21
103.704
  0
LINE
  8
0
 10
107.799
 20
103.704
 11
107.978
 21
103.643
  0
LINE
  8
0
 10
107.978
 20
103.643
 11
108.147
 21
103.56
  0
LINE
  8
0
 10
108.147
 20
103.56
 11
108.304
 21
103.457
  0
LINE
  8
0
 10
108.304
 20
103.457
 11
108.448
 21
103.335
  0
LINE
  8
0
 10
108.448
 20
103.335
 11
108.575
 21
103.196
  0
LINE
  8
0
 10
108.575
 20
103.196
 11
108.684
 21
103.042
  0
LINE
  8
0
 10
108.684
 20
103.042
 11
108.772
 21
102.876
  0
LINE
  8
0
 10
108.772
 20
102.876
 11
108.839
 21
102.7
  0
LINE
  8
0
 10
108.839
 20
102.7
 11
108.883
 21
102.517
  0
LINE
  8
0
 10
108.883
 20
102.517
 11
108.904
 21
102.329
  0
LINE
  8
0
 10
108.904
 20
102.329
 11
108.901
 21
102.141
  0
LINE
  8
0
 10
108.901
 20
102.141
 11
108.875
 21
101.955
  0
LINE
  8
0
 10
108.875
 20
101.955
 11
108.826
 21
101.773
  0
LINE
  8
0
 10
108.826
 20
101.773
 11
108.754
 21
101.599
  0
LINE
  8
0
 10
108.754
 20
101.599
 11
108.661
 21
101.435
  0
LINE
  8
0
 10
108.661
 20
101.435
 11
108.548
 21
101.284
  0
LINE
  8
0
 10
108.548
 20
101.284
 11
108.417
 21
101.148
  0
LINE
  8
0
 10
108.417
 20
101.148
 11
108.271
 21
101.03
  0
LINE
  8
0
 10
108.271
 20
101.03
 11
108.11
 21
100.932
  0
LINE
  8
0
 10
108.11
 20
100.932
 11
107.939
 21
100.854
  0
LINE
  8
0
 10
107.939
 20
100.854
 11
107.759
 21
100.798
  0
LINE
  8
0
 10
107.759
 20
100.798
 11
107.573
 21
100.766
  0
LINE
  8
0
 10
107.573
 20
100.766
 11
107.385
 21
100.756
  0
LINE
  8
0
 10
107.385
 20
100.756
 11
107.197
 21
100.771
  0
LINE
  8
0
 10
-20.0942
 20
96.5029
 11
-20.2811
 21
96.5266
  0
LINE
  8
0
 10
-20.2811
 20
96.5266
 11
-20.4635
 21
96.5734
  0
LINE
  8
0
 10
-20.4635
 20
96.5734
 11
-20.6387
 21
96.6427
  0
LINE
  8
0
 10
-20.6387
 20
96.6427
 11
-20.8037
 21
96.7335
  0
LINE
  8
0
 10
-20.8037
 20
96.7335
 11
-20.9561
 21
96.8442
  0
LINE
  8
0
 10
-20.9561
 20
96.8442
 11
-21.0934
 21
96.9732
  0
LINE
  8
0
 10
-21.0934
 20
96.9732
 11
-21.2135
 21
97.1183
  0
LINE
  8
0
 10
-21.2135
 20
97.1183
 11
-21.3145
 21
97.2774
  0
LINE
  8
0
 10
-21.3145
 20
97.2774
 11
-21.3947
 21
97.4478
  0
LINE
  8
0
 10
-21.3947
 20
97.4478
 11
-21.4529
 21
97.627
  0
LINE
  8
0
 10
-21.4529
 20
97.627
 11
-21.4882
 21
97.812
  0
LINE
  8
0
 10
-21.4882
 20
97.812
 11
-21.5
 21
98
  0
LINE
  8
0
 10
-21.5
 20
98
 11
-21.4882
 21
98.188
  0
LINE
  8
0
 10
-21.4882
 20
98.188
 11
-21.4529
 21
98.373
  0
LINE
  8
0
 10
-21.4529
 20
98.373
 11
-21.3947
 21
98.5522
  0
LINE
  8
0
 10
-21.3947
 20
98.5522
 11
-21.3145
 21
98.7226
  0
LINE
  8
0
 10
-21.3145
 20
98.7226
 11
-21.2135
 21
98.8817
  0
LINE
  8
0
 10
-21.2135
 20
98.8817
 11
-21.0934
 21
99.0268
  0
LINE
  8
0
 10
-21.0934
 20
99.0268
 11
-20.9561
 21
99.1558
  0
LINE
  8
0
 10
-20.9561
 20
99.1558
 11
-20.8037
 21
99.2665
  0
LINE
  8
0
 10
-20.8037
 20
99.2665
 11
-20.6387
 21
99.3572
  0
LINE
  8
0
 10
-20.6387
 20
99.3572
 11
-20.4635
 21
99.4266
  0
LINE
  8
0
 10
-20.4635
 20
99.4266
 11
-20.2811
 21
99.4734
  0
LINE
  8
0
 10
-20.2811
 20
99.4734
 11
-20.0942
 21
99.497
  0
LINE
  8
0
 10
-20.0942
 20
99.497
 11
-19.9058
 21
99.497
  0
LINE
  8
0
 10
-19.9058
 20
99.497
 11
-19.7189
 21
99.4734
  0
LINE
  8
0
 10
-19.7189
 20
99.4734
 11
-19.5365
 21
99.4266
  0
LINE
  8
0
 10
-19.5365
 20
99.4266
 11
-19.3613
 21
99.3572
  0
LINE
  8
0
 10
-19.3613
 20
99.3572
 11
-19.1963
 21
99.2665
  0
LINE
  8
0
 10
-19.1963
 20
99.2665
 11
-19.0439
 21
99.1558
  0
LINE
  8
0
 10
-19.0439
 20
99.1558
 11
-18.9065
 21
99.0268
  0
LINE
  8
0
 10
-18.9065
 20
99.0268
 11
-18.7865
 21
98.8817
  0
LINE
  8
0
 10
-18.7865
 20
98.8817
 11
-18.6855
 21
98.7226
  0
LINE
  8
0
 10
-18.6855
 20
98.7226
 11
-18.6053
 21
98.5522
  0
LINE
  8
0
 10
-18.6053
 20
98.5522
 11
-18.5471
 21
98.373
  0
LINE
  8
0
 10
-18.5471
 20
98.373
 11
-18.5118
 21
98.188
  0
LINE
  8
0
 10
-18.5118
 20
98.188
 11
-18.5
 21
98
  0
LINE
  8
0
 10
-18.5
 20
98
 11
-18.5118
 21
97.812
  0
LINE
  8
0
 10
-18.5118
 20
97.812
 11
-18.5471
 21
97.627
  0
LINE
  8
0
 10
-18.5471
 20
97.627
 11
-18.6053
 21
97.4478
  0
LINE
  8
0
 10
-18.6053
 20
97.4478
 11
-18.6855
 21
97.2774
  0
LINE
  8
0
 10
-18.6855
 20
97.2774
 11
-18.7865
 21
97.1183
  0
LINE
  8
0
 10
-18.7865
 20
97.1183
 11
-18.9065
 21
96.9732
  0
LINE
  8
0
 10
-18.9065
 20
96.9732
 11
-19.0439
 21
96.8442
  0
LINE
  8
0
 10
-19.0439
 20
96.8442
 11
-19.1963
 21
96.7335
  0
LINE
  8
0
 10
-19.1963
 20
96.7335
 11
-19.3613
 21
96.6427
  0
LINE
  8
0
 10
-19.3613
 20
96.6427
 11
-19.5365
 21
96.5734
  0
LINE
  8
0
 10
-19.5365
 20
96.5734
 11
-19.7189
 21
96.5266
  0
LINE
  8
0
 10
-19.7189
 20
96.5266
 11
-19.9058
 21
96.5029
  0
LINE
  8
0
 10
-19.9058
 20
96.5029
 11
-20.0942
 21
96.5029
  0
LINE
  8
0
 10
19.9058
 20
96.5029
 11
19.7189
 21
96.5266
  0
LINE
  8
0
 10
19.7189
 20
96.5266
 11
19.5365
 21
96.5734
  0
LINE
  8
0
 10
19.5365
 20
96.5734
 11
19.3613
 21
96.6427
  0
LINE
  8
0
 10
19.3613
 20
96.6427
 11
19.1963
 21
96.7335
  0
LINE
  8
0
 10
19.1963
 20
96.7335
 11
19.0439
 21
96.8442
  0
LINE
  8
0
 10
19.0439
 20
96.8442
 11
18.9065
 21
96.9732
  0
LINE
  8
0
 10
18.9065
 20
96.9732
 11
18.7865
 21
97.1183
  0
LINE
  8
0
 10
18.7865
 20
97.1183
 11
18.6855
 21
97.2774
  0
LINE
  8
0
 10
18.6855
 20
97.2774
 11
18.6053
 21
97.4478
  0
LINE
  8
0
 10
18.6053
 20
97.4478
 11
18.5471
 21
97.627
  0
LINE
  8
0
 10
18.5471
 20
97.627
 11
18.5118
 21
97.812
  0
LINE
  8
0
 10
18.5118
 20
97.812
 11
18.5
 21
98
  0
LINE
  8
0
 10
18.5
 20
98
 11
18.5118
 21
98.188
  0
LINE
  8
0
 10
18.5118
 20
98.188
 11
18.5471
 21
98.373
  0
LINE
  8
0
 10
18.5471
 20
98.373
 11
18.6053
 21
98.5522
  0
LINE
  8
0
 10
18.6053
 20
98.5522
 11
18.6855
 21
98.7226
  0
LINE
  8
0
 10
18.6855
 20
98.7226
 11
18.7865
 21
98.8817
  0
LINE
  8
0
 10
18.7865
 20
98.8817
 11
18.9065
 21
99.0268
  0
LINE
  8
0
 10
18.9065
 20
99.0268
 11
19.0439
 21
99.1558
  0
LINE
  8
0
 10
19.0439
 20
99.1558
 11
19.1963
 21
99.2665
  0
LINE
  8
0
 10
19.1963
 20
99.2665
 11
19.3613
 21
99.3572
  0
LINE
  8
0
 10
19.3613
 20
99.3572
 11
19.5365
 21
99.4266
  0
LINE
  8
0
 10
19.5365
 20
99.4266
 11
19.7189
 21
99.4734
  0
LINE
  8
0
 10
19.7189
 20
99.4734
 11
19.9058
 21
99.497
  0
LINE
  8
0
 10
19.9058
 20
99.497
 11
20.0942
 21
99.497
  0
LINE
  8
0
 10
20.0942
 20
99.497
 11
20.2811
 21
99.4734
  0
LINE
  8
0
 10
20.2811
 20
99.4734
 11
20.4635
 21
99.4266
  0
LINE
  8
0
 10
20.4635
 20
99.4266
 11
20.6387
 21
99.3572
  0
LINE
  8
0
 10
20.6387
 20
99.3572
 11
20.8037
 21
99.2665
  0
LINE
  8
0
 10
20.8037
 20
99.2665
 11
20.9561
 21
99.1558
  0
LINE
  8
0
 10
20.9561
 20
99.1558
 11
21.0934
 21
99.0268
  0
LINE
  8
0
 10
21.0934
 20
99.0268
 11
21.2135
 21
98.8817
  0
LINE
  8
0
 10
21.2135
 20
98.8817
 11
21.3145
 21
98.7226
  0
LINE
  8
0
 10
21.3145
 20
98.7226
 11
21.3947
 21
98.5522
  0
LINE
  8
0
 10
21.3947
 20
98.5522
 11
21.4529
 21
98.373
  0
LINE
  8
0
 10
21.4529
 20
98.373
 11
21.4882
 21
98.188
  0
LINE
  8
0
 10
21.4882
 20
98.188
 11
21.5
 21
98
  0
LINE
  8
0
 10
21.5
 20
98
 11
21.4882
 21
97.812
  0
LINE
  8
0
 10
21.4882
 20
97.812
 11
21.4529
 21
97.627
  0
LINE
  8
0
 10
21.4529
 20
97.627
 11
21.3947
 21
97.4478
  0
LINE
  8
0
 10
21.3947
 20
97.4478
 11
21.3145
 21
97.2774
  0
LINE
  8
0
 10
21.3145
 20
97.2774
 11
21.2135
 21
97.1183
  0
LINE
  8
0
 10
21.2135
 20
97.1183
 11
21.0934
 21
96.9732
  0
LINE
  8
0
 10
21.0934
 20
96.9732
 11
20.9561
 21
96.8442
  0
LINE
  8
0
 10
20.9561
 20
96.8442
 11
20.8037
 21
96.7335
  0
LINE
  8
0
 10
20.8037
 20
96.7335
 11
20.6387
 21
96.6427
  0
LINE
  8
0
 10
20.6387
 20
96.6427
 11
20.4635
 21
96.5734
  0
LINE
  8
0
 10
20.4635
 20
96.5734
 11
20.2811
 21
96.5266
  0
LINE
  8
0
 10
20.2811
 20
96.5266
 11
20.0942
 21
96.5029
  0
LINE
  8
0
 10
20.0942
 20
96.5029
 11
19.9058
 21
96.5029
  0
LINE
  8
0
 10
-122.006
 20
18.9142
 11
-122.191
 21
18.947
  0
LINE
  8
0
 10
-122.191
 20
18.947
 11
-122.371
 21
19.0027
  0
LINE
  8
0
 10
-122.371
 20
19.0027
 11
-122.543
 21
19.0805
  0
LINE
  8
0
 10
-122.543
 20
19.0805
 11
-122.703
 21
19.1792
  0
LINE
  8
0
 10
-122.703
 20
19.1792
 11
-122.85
 21
19.2972
  0
LINE
  8
0
 10
-122.85
 20
19.2972
 11
-122.981
 21
19.4327
  0
LINE
  8
0
 10
-122.981
 20
19.4327
 11
-123.094
 21
19.5836
  0
LINE
  8
0
 10
-123.094
 20
19.5836
 11
-123.187
 21
19.7474
  0
LINE
  8
0
 10
-123.187
 20
19.7474
 11
-123.258
 21
19.9215
  0
LINE
  8
0
 10
-123.258
 20
19.9215
 11
-123.308
 21
20.1033
  0
LINE
  8
0
 10
-123.308
 20
20.1033
 11
-123.334
 21
20.2898
  0
LINE
  8
0
 10
-123.334
 20
20.2898
 11
-123.337
 21
20.4782
  0
LINE
  8
0
 10
-123.337
 20
20.4782
 11
-123.316
 21
20.6654
  0
LINE
  8
0
 10
-123.316
 20
20.6654
 11
-123.271
 21
20.8485
  0
LINE
  8
0
 10
-123.271
 20
20.8485
 11
-123.205
 21
21.0246
  0
LINE
  8
0
 10
-123.205
 20
21.0246
 11
-123.116
 21
21.1909
  0
LINE
  8
0
 10
-123.116
 20
21.1909
 11
-123.007
 21
21.3448
  0
LINE
  8
0
 10
-123.007
 20
21.3448
 11
-122.88
 21
21.4839
  0
LINE
  8
0
 10
-122.88
 20
21.4839
 11
-122.737
 21
21.606
  0
LINE
  8
0
 10
-122.737
 20
21.606
 11
-122.579
 21
21.7091
  0
LINE
  8
0
 10
-122.579
 20
21.7091
 11
-122.41
 21
21.7917
  0
LINE
  8
0
 10
-122.41
 20
21.7917
 11
-122.232
 21
21.8524
  0
LINE
  8
0
 10
-122.232
 20
21.8524
 11
-122.047
 21
21.8903
  0
LINE
  8
0
 10
-122.047
 20
21.8903
 11
-121.859
 21
21.9047
  0
LINE
  8
0
 10
-121.859
 20
21.9047
 11
-121.671
 21
21.8955
  0
LINE
  8
0
 10
-121.671
 20
21.8955
 11
-121.486
 21
21.8628
  0
LINE
  8
0
 10
-121.486
 20
21.8628
 11
-121.306
 21
21.8071
  0
LINE
  8
0
 10
-121.306
 20
21.8071
 11
-121.134
 21
21.7293
  0
LINE
  8
0
 10
-121.134
 20
21.7293
 11
-120.974
 21
21.6306
  0
LINE
  8
0
 10
-120.974
 20
21.6306
 11
-120.827
 21
21.5126
  0
LINE
  8
0
 10
-120.827
 20
21.5126
 11
-120.696
 21
21.3771
  0
LINE
  8
0
 10
-120.696
 20
21.3771
 11
-120.583
 21
21.2262
  0
LINE
  8
0
 10
-120.583
 20
21.2262
 11
-120.49
 21
21.0625
  0
LINE
  8
0
 10
-120.49
 20
21.0625
 11
-120.419
 21
20.8883
  0
LINE
  8
0
 10
-120.419
 20
20.8883
 11
-120.369
 21
20.7065
  0
LINE
  8
0
 10
-120.369
 20
20.7065
 11
-120.343
 21
20.52
  0
LINE
  8
0
 10
-120.343
 20
20.52
 11
-120.34
 21
20.3316
  0
LINE
  8
0
 10
-120.34
 20
20.3316
 11
-120.361
 21
20.1444
  0
LINE
  8
0
 10
-120.361
 20
20.1444
 11
-120.406
 21
19.9613
  0
LINE
  8
0
 10
-120.406
 20
19.9613
 11
-120.472
 21
19.7852
  0
LINE
  8
0
 10
-120.472
 20
19.7852
 11
-120.561
 21
19.6189
  0
LINE
  8
0
 10
-120.561
 20
19.6189
 11
-120.669
 21
19.465
  0
LINE
  8
0
 10
-120.669
 20
19.465
 11
-120.796
 21
19.3259
  0
LINE
  8
0
 10
-120.796
 20
19.3259
 11
-120.94
 21
19.2038
  0
LINE
  8
0
 10
-120.94
 20
19.2038
 11
-121.098
 21
19.1007
  0
LINE
  8
0
 10
-121.098
 20
19.1007
 11
-121.267
 21
19.0181
  0
LINE
  8
0
 10
-121.267
 20
19.0181
 11
-121.445
 21
18.9574
  0
LINE
  8
0
 10
-121.445
 20
18.9574
 11
-121.63
 21
18.9195
  0
LINE
  8
0
 10
-121.63
 20
18.9195
 11
-121.818
 21
18.905
  0
LINE
  8
0
 10
-121.818
 20
18.905
 11
-122.006
 21
18.9142
  0
LINE
  8
0
 10
121.63
 20
18.9195
 11
121.445
 21
18.9574
  0
LINE
  8
0
 10
121.445
 20
18.9574
 11
121.267
 21
19.0181
  0
LINE
  8
0
 10
121.267
 20
19.0181
 11
121.098
 21
19.1007
  0
LINE
  8
0
 10
121.098
 20
19.1007
 11
120.94
 21
19.2038
  0
LINE
  8
0
 10
120.94
 20
19.2038
 11
120.796
 21
19.3259
  0
LINE
  8
0
 10
120.796
 20
19.3259
 11
120.669
 21
19.465
  0
LINE
  8
0
 10
120.669
 20
19.465
 11
120.561
 21
19.6189
  0
LINE
  8
0
 10
120.561
 20
19.6189
 11
120.472
 21
19.7852
  0
LINE
  8
0
 10
120.472
 20
19.7852
 11
120.406
 21
19.9613
  0
LINE
  8
0
 10
120.406
 20
19.9613
 11
120.361
 21
20.1444
  0
LINE
  8
0
 10
120.361
 20
20.1444
 11
120.34
 21
20.3316
  0
LINE
  8
0
 10
120.34
 20
20.3316
 11
120.343
 21
20.52
  0
LINE
  8
0
 10
120.343
 20
20.52
 11
120.369
 21
20.7065
  0
LINE
  8
0
 10
120.369
 20
20.7065
 11
120.419
 21
20.8883
  0
LINE
  8
0
 10
120.419
 20
20.8883
 11
120.49
 21
21.0625
  0
LINE
  8
0
 10
120.49
 20
21.0625
 11
120.583
 21
21.2262
  0
LINE
  8
0
 10
120.583
 20
21.2262
 11
120.696
 21
21.3771
  0
LINE
  8
0
 10
120.696
 20
21.3771
 11
120.827
 21
21.5126
  0
LINE
  8
0
 10
120.827
 20
21.5126
 11
120.974
 21
21.6306
  0
LINE
  8
0
 10
120.974
 20
21.6306
 11
121.134
 21
21.7293
  0
LINE
  8
0
 10
121.134
 20
21.7293
 11
121.306
 21
21.8071
  0
LINE
  8
0
 10
121.306
 20
21.8071
 11
121.486
 21
21.8628
  0
LINE
  8
0
 10
121.486
 20
21.8628
 11
121.671
 21
21.8955
  0
LINE
  8
0
 10
121.671
 20
21.8955
 11
121.859
 21
21.9047
  0
LINE
  8
0
 10
121.859
 20
21.9047
 11
122.047
 21
21.8903
  0
LINE
  8
0
 10
122.047
 20
21.8903
 11
122.232
 21
21.8524
  0
LINE
  8
0
 10
122.232
 20
21.8524
 11
122.41
 21
21.7917
  0
LINE
  8
0
 10
122.41
 20
21.7917
 11
122.579
 21
21.7091
  0
LINE
  8
0
 10
122.579
 20
21.7091
 11
122.737
 21
21.606
  0
LINE
  8
0
 10
122.737
 20
21.606
 11
122.88
 21
21.4839
  0
LINE
  8
0
 10
122.88
 20
21.4839
 11
123.007
 21
21.3448
  0
LINE
  8
0
 10
123.007
 20
21.3448
 11
123.116
 21
21.1909
  0
LINE
  8
0
 10
123.116
 20
21.1909
 11
123.205
 21
21.0246
  0
LINE
  8
0
 10
123.205
 20
21.0246
 11
123.271
 21
20.8485
  0
LINE
  8
0
 10
123.271
 20
20.8485
 11
123.316
 21
20.6654
  0
LINE
  8
0
 10
123.316
 20
20.6654
 11
123.337
 21
20.4782
  0
LINE
  8
0
 10
123.337
 20
20.4782
 11
123.334
 21
20.2898
  0
LINE
  8
0
 10
123.334
 20
20.2898
 11
123.308
 21
20.1033
  0
LINE
  8
0
 10
123.308
 20
20.1033
 11
123.258
 21
19.9215
  0
LINE
  8
0
 10
123.258
 20
19.9215
 11
123.187
 21
19.7474
  0
LINE
  8
0
 10
123.187
 20
19.7474
 11
123.094
 21
19.5836
  0
LINE
  8
0
 10
123.094
 20
19.5836
 11
122.981
 21
19.4327
  0
LINE
  8
0
 10
122.981
 20
19.4327
 11
122.85
 21
19.2972
  0
LINE
  8
0
 10
122.85
 20
19.2972
 11
122.703
 21
19.1792
  0
LINE
  8
0
 10
122.703
 20
19.1792
 11
122.543
 21
19.0805
  0
LINE
  8
0
 10
122.543
 20
19.0805
 11
122.371
 21
19.0027
  0
LINE
  8
0
 10
122.371
 20
19.0027
 11
122.191
 21
18.947
  0
LINE
  8
0
 10
122.191
 20
18.947
 11
122.006
 21
18.9142
  0
LINE
  8
0
 10
122.006
 20
18.9142
 11
121.818
 21
18.905
  0
LINE
  8
0
 10
121.818
 20
18.905
 11
121.63
 21
18.9195
  0
LINE
  8
0
 10
-21.964
 20
-1.77206
 11
-22.1495
 21
-1.73935
  0
LINE
  8
0
 10
-22.1495
 20
-1.73935
 11
-22.3295
 21
-1.68365
  0
LINE
  8
0
 10
-22.3295
 20
-1.68365
 11
-22.501
 21
-1.60582
  0
LINE
  8
0
 10
-22.501
 20
-1.60582
 11
-22.6615
 21
-1.50713
  0
LINE
  8
0
 10
-22.6615
 20
-1.50713
 11
-22.8083
 21
-1.3891
  0
LINE
  8
0
 10
-22.8083
 20
-1.3891
 11
-22.9391
 21
-1.25359
  0
LINE
  8
0
 10
-22.9391
 20
-1.25359
 11
-23.052
 21
-1.10274
  0
LINE
  8
0
 10
-23.052
 20
-1.10274
 11
-23.145
 21
-0.93895
  0
LINE
  8
0
 10
-23.145
 20
-0.93895
 11
-23.2168
 21
-0.764801
  0
LINE
  8
0
 10
-23.2168
 20
-0.764801
 11
-23.2662
 21
-0.583023
  0
LINE
  8
0
 10
-23.2662
 20
-0.583023
 11
-23.2924
 21
-0.396484
  0
LINE
  8
0
 10
-23.2924
 20
-0.396484
 11
-23.295
 21
-0.20813
  0
LINE
  8
0
 10
-23.295
 20
-0.20813
 11
-23.274
 21
-0.0209351
  0
LINE
  8
0
 10
-23.274
 20
-0.0209351
 11
-23.2297
 21
0.16214
  0
LINE
  8
0
 10
-23.2297
 20
0.16214
 11
-23.1628
 21
0.338226
  0
LINE
  8
0
 10
-23.1628
 20
0.338226
 11
-23.0744
 21
0.504547
  0
LINE
  8
0
 10
-23.0744
 20
0.504547
 11
-22.9658
 21
0.658493
  0
LINE
  8
0
 10
-22.9658
 20
0.658493
 11
-22.8388
 21
0.797592
  0
LINE
  8
0
 10
-22.8388
 20
0.797592
 11
-22.6954
 21
0.919678
  0
LINE
  8
0
 10
-22.6954
 20
0.919678
 11
-22.5377
 21
1.02283
  0
LINE
  8
0
 10
-22.5377
 20
1.02283
 11
-22.3684
 21
1.10539
  0
LINE
  8
0
 10
-22.3684
 20
1.10539
 11
-22.1901
 21
1.16611
  0
LINE
  8
0
 10
-22.1901
 20
1.16611
 11
-22.0056
 21
1.20398
  0
LINE
  8
0
 10
-22.0056
 20
1.20398
 11
-21.8178
 21
1.21843
  0
LINE
  8
0
 10
-21.8178
 20
1.21843
 11
-21.6296
 21
1.20923
  0
LINE
  8
0
 10
-21.6296
 20
1.20923
 11
-21.4441
 21
1.17651
  0
LINE
  8
0
 10
-21.4441
 20
1.17651
 11
-21.2642
 21
1.12082
  0
LINE
  8
0
 10
-21.2642
 20
1.12082
 11
-21.0926
 21
1.043
  0
LINE
  8
0
 10
-21.0926
 20
1.043
 11
-20.9322
 21
0.94429
  0
LINE
  8
0
 10
-20.9322
 20
0.94429
 11
-20.7854
 21
0.826263
  0
LINE
  8
0
 10
-20.7854
 20
0.826263
 11
-20.6545
 21
0.690765
  0
LINE
  8
0
 10
-20.6545
 20
0.690765
 11
-20.5417
 21
0.539932
  0
LINE
  8
0
 10
-20.5417
 20
0.539932
 11
-20.4486
 21
0.376144
  0
LINE
  8
0
 10
-20.4486
 20
0.376144
 11
-20.3768
 21
0.201981
  0
LINE
  8
0
 10
-20.3768
 20
0.201981
 11
-20.3275
 21
0.0201874
  0
LINE
  8
0
 10
-20.3275
 20
0.0201874
 11
-20.3012
 21
-0.166336
  0
LINE
  8
0
 10
-20.3012
 20
-0.166336
 11
-20.2986
 21
-0.354675
  0
LINE
  8
0
 10
-20.2986
 20
-0.354675
 11
-20.3196
 21
-0.541885
  0
LINE
  8
0
 10
-20.3196
 20
-0.541885
 11
-20.3639
 21
-0.724976
  0
LINE
  8
0
 10
-20.3639
 20
-0.724976
 11
-20.4308
 21
-0.901062
  0
LINE
  8
0
 10
-20.4308
 20
-0.901062
 11
-20.5192
 21
-1.06738
  0
LINE
  8
0
 10
-20.5192
 20
-1.06738
 11
-20.6278
 21
-1.22131
  0
LINE
  8
0
 10
-20.6278
 20
-1.22131
 11
-20.7548
 21
-1.36041
  0
LINE
  8
0
 10
-20.7548
 20
-1.36041
 11
-20.8983
 21
-1.4825
  0
LINE
  8
0
 10
-20.8983
 20
-1.4825
 11
-21.0559
 21
-1.58565
  0
LINE
  8
0
 10
-21.0559
 20
-1.58565
 11
-21.2252
 21
-1.66823
  0
LINE
  8
0
 10
-21.2252
 20
-1.66823
 11
-21.4035
 21
-1.72893
  0
LINE
  8
0
 10
-21.4035
 20
-1.72893
 11
-21.5881
 21
-1.7668
  0
LINE
  8
0
 10
-21.5881
 20
-1.7668
 11
-21.7759
 21
-1.78127
  0
LINE
  8
0
 10
-21.7759
 20
-1.78127
 11
-21.964
 21
-1.77206
  0
LINE
  8
0
 10
21.5881
 20
-1.7668
 11
21.4035
 21
-1.72893
  0
LINE
  8
0
 10
21.4035
 20
-1.72893
 11
21.2252
 21
-1.66823
  0
LINE
  8
0
 10
21.2252
 20
-1.66823
 11
21.0559
 21
-1.58565
  0
LINE
  8
0
 10
21.0559
 20
-1.58565
 11
20.8983
 21
-1.4825
  0
LINE
  8
0
 10
20.8983
 20
-1.4825
 11
20.7548
 21
-1.36041
  0
LINE
  8
0
 10
20.7548
 20
-1.36041
 11
20.6278
 21
-1.22131
  0
LINE
  8
0
 10
20.6278
 20
-1.22131
 11
20.5192
 21
-1.06738
  0
LINE
  8
0
 10
20.5192
 20
-1.06738
 11
20.4308
 21
-0.901062
  0
LINE
  8
0
 10
20.4308
 20
-0.901062
 11
20.3639
 21
-0.724976
  0
LINE
  8
0
 10
20.3639
 20
-0.724976
 11
20.3196
 21
-0.541885
  0
LINE
  8
0
 10
20.3196
 20
-0.541885
 11
20.2986
 21
-0.354675
  0
LINE
  8
0
 10
20.2986
 20
-0.354675
 11
20.3012
 21
-0.166336
  0
LINE
  8
0
 10
20.3012
 20
-0.166336
 11
20.3275
 21
0.0201874
  0
LINE
  8
0
 10
20.3275
 20
0.0201874
 11
20.3768
 21
0.201981
  0
LINE
  8
0
 10
20.3768
 20
0.201981
 11
20.4486
 21
0.376144
  0
LINE
  8
0
 10
20.4486
 20
0.376144
 11
20.5417
 21
0.539932
  0
LINE
  8
0
 10
20.5417
 20
0.539932
 11
20.6545
 21
0.690765
  0
LINE
  8
0
 10
20.6545
 20
0.690765
 11
20.7854
 21
0.826263
  0
LINE
  8
0
 10
20.7854
 20
0.826263
 11
20.9322
 21
0.94429
  0
LINE
  8
0
 10
20.9322
 20
0.94429
 11
21.0926
 21
1.043
  0
LINE
  8
0
 10
21.0926
 20
1.043
 11
21.2642
 21
1.12082
  0
LINE
  8
0
 10
21.2642
 20
1.12082
 11
21.4441
 21
1.17651
  0
LINE
  8
0
 10
21.4441
 20
1.17651
 11
21.6296
 21
1.20923
  0
LINE
  8
0
 10
21.6296
 20
1.20923
 11
21.8178
 21
1.21843
  0
LINE
  8
0
 10
21.8178
 20
1.21843
 11
22.0056
 21
1.20398
  0
LINE
  8
0
 10
22.0056
 20
1.20398
 11
22.1901
 21
1.16611
  0
LINE
  8
0
 10
22.1901
 20
1.16611
 11
22.3684
 21
1.10539
  0
LINE
  8
0
 10
22.3684
 20
1.10539
 11
22.5377
 21
1.02283
  0
LINE
  8
0
 10
22.5377
 20
1.02283
 11
22.6954
 21
0.919678
  0
LINE
  8
0
 10
22.6954
 20
0.919678
 11
22.8388
 21
0.797592
  0
LINE
  8
0
 10
22.8388
 20
0.797592
 11
22.9658
 21
0.658493
  0
LINE
  8
0
 10
22.9658
 20
0.658493
 11
23.0744
 21
0.504547
  0
LINE
  8
0
 10
23.0744
 20
0.504547
 11
23.1628
 21
0.338226
  0
LINE
  8
0
 10
23.1628
 20
0.338226
 11
23.2297
 21
0.16214
  0
LINE
  8
0
 10
23.2297
 20
0.16214
 11
23.274
 21
-0.0209351
  0
LINE
  8
0
 10
23.274
 20
-0.0209351
 11
23.295
 21
-0.20813
  0
LINE
  8
0
 10
23.295
 20
-0.20813
 11
23.2924
 21
-0.396484
  0
LINE
  8
0
 10
23.2924
 20
-0.396484
 11
23.2662
 21
-0.583023
  0
LINE
  8
0
 10
23.2662
 20
-0.583023
 11
23.2168
 21
-0.764801
  0
LINE
  8
0
 10
23.2168
 20
-0.764801
 11
23.145
 21
-0.93895
  0
LINE
  8
0
 10
23.145
 20
-0.93895
 11
23.052
 21
-1.10274
  0
LINE
  8
0
 10
23.052
 20
-1.10274
 11
22.9391
 21
-1.25359
  0
LINE
  8
0
 10
22.9391
 20
-1.25359
 11
22.8083
 21
-1.3891
  0
LINE
  8
0
 10
22.8083
 20
-1.3891
 11
22.6615
 21
-1.50713
  0
LINE
  8
0
 10
22.6615
 20
-1.50713
 11
22.501
 21
-1.60582
  0
LINE
  8
0
 10
22.501
 20
-1.60582
 11
22.3295
 21
-1.68365
  0
LINE
  8
0
 10
22.3295
 20
-1.68365
 11
22.1495
 21
-1.73935
  0
LINE
  8
0
 10
22.1495
 20
-1.73935
 11
21.964
 21
-1.77206
  0
LINE
  8
0
 10
21.964
 20
-1.77206
 11
21.7759
 21
-1.78127
  0
LINE
  8
0
 10
21.7759
 20
-1.78127
 11
21.5881
 21
-1.7668
  0
LINE
  8
0
 10
32.8845
 20
-75.3325
 11
33.6266
 21
-75.2016
  0
LINE
  8
0
 10
33.6266
 20
-75.2016
 11
133.668
 21
-54.5153
  0
LINE
  8
0
 10
133.668
 20
-54.5153
 11
134.388
 21
-54.2925
  0
LINE
  8
0
 10
134.388
 20
-54.2925
 11
135.074
 21
-53.9812
  0
LINE
  8
0
 10
135.074
 20
-53.9812
 11
135.716
 21
-53.5864
  0
LINE
  8
0
 10
135.716
 20
-53.5864
 11
136.303
 21
-53.1143
  0
LINE
  8
0
 10
136.303
 20
-53.1143
 11
136.827
 21
-52.5723
  0
LINE
  8
0
 10
136.827
 20
-52.5723
 11
137.278
 21
-51.9689
  0
LINE
  8
0
 10
137.278
 20
-51.9689
 11
137.65
 21
-51.3138
  0
LINE
  8
0
 10
137.65
 20
-51.3138
 11
137.937
 21
-50.6171
  0
LINE
  8
0
 10
137.937
 20
-50.6171
 11
138.135
 21
-49.89
  0
LINE
  8
0
 10
138.135
 20
-49.89
 11
138.24
 21
-49.1439
  0
LINE
  8
0
 10
138.24
 20
-49.1439
 11
138.25
 21
-48.3904
  0
LINE
  8
0
 10
138.25
 20
-48.3904
 11
138.166
 21
-47.6417
  0
LINE
  8
0
 10
138.166
 20
-47.6417
 11
127.747
 21
11.4468
  0
LINE
  8
0
 10
127.747
 20
11.4468
 11
127.831
 21
10.698
  0
LINE
  8
0
 10
127.831
 20
10.698
 11
127.821
 21
9.94458
  0
LINE
  8
0
 10
127.821
 20
9.94458
 11
127.716
 21
9.19844
  0
LINE
  8
0
 10
127.716
 20
9.19844
 11
127.518
 21
8.47131
  0
LINE
  8
0
 10
127.518
 20
8.47131
 11
127.231
 21
7.77469
  0
LINE
  8
0
 10
127.231
 20
7.77469
 11
126.859
 21
7.11952
  0
LINE
  8
0
 10
126.859
 20
7.11952
 11
126.408
 21
6.51619
  0
LINE
  8
0
 10
126.408
 20
6.51619
 11
125.884
 21
5.97418
  0
LINE
  8
0
 10
125.884
 20
5.97418
 11
125.297
 21
5.50204
  0
LINE
  8
0
 10
125.297
 20
5.50204
 11
124.655
 21
5.10722
  0
LINE
  8
0
 10
124.655
 20
5.10722
 11
123.969
 21
4.79594
  0
LINE
  8
0
 10
123.969
 20
4.79594
 11
123.249
 21
4.57314
  0
LINE
  8
0
 10
123.249
 20
4.57314
 11
23.2077
 21
-16.1132
  0
LINE
  8
0
 10
23.2077
 20
-16.1132
 11
22.4656
 21
-16.244
  0
LINE
  8
0
 10
22.4656
 20
-16.244
 11
21.713
 21
-16.2808
  0
LINE
  8
0
 10
21.713
 20
-16.2808
 11
-21.713
 21
-16.2808
  0
LINE
  8
0
 10
-21.713
 20
-16.2808
 11
-22.4656
 21
-16.244
  0
LINE
  8
0
 10
-22.4656
 20
-16.244
 11
-23.2077
 21
-16.1132
  0
LINE
  8
0
 10
-23.2077
 20
-16.1132
 11
-123.249
 21
4.57314
  0
LINE
  8
0
 10
-123.249
 20
4.57314
 11
-123.969
 21
4.79594
  0
LINE
  8
0
 10
-123.969
 20
4.79594
 11
-124.655
 21
5.10722
  0
LINE
  8
0
 10
-124.655
 20
5.10722
 11
-125.297
 21
5.50204
  0
LINE
  8
0
 10
-125.297
 20
5.50204
 11
-125.884
 21
5.97418
  0
LINE
  8
0
 10
-125.884
 20
5.97418
 11
-126.408
 21
6.51619
  0
LINE
  8
0
 10
-126.408
 20
6.51619
 11
-126.859
 21
7.11952
  0
LINE
  8
0
 10
-126.859
 20
7.11952
 11
-127.231
 21
7.77469
  0
LINE
  8
0
 10
-127.231
 20
7.77469
 11
-127.518
 21
8.47131
  0
LINE
  8
0
 10
-127.518
 20
8.47131
 11
-127.716
 21
9.19844
  0
LINE
  8
0
 10
-127.716
 20
9.19844
 11
-127.821
 21
9.94458
  0
LINE
  8
0
 10
-127.821
 20
9.94458
 11
-127.831
 21
10.698
  0
LINE
  8
0
 10
-127.831
 20
10.698
 11
-127.747
 21
11.4468
  0
LINE
  8
0
 10
-127.747
 20
11.4468
 11
-138.166
 21
-47.6417
  0
LINE
  8
0
 10
-138.166
 20
-47.6417
 11
-138.25
 21
-48.3904
  0
LINE
  8
0
 10
-138.25
 20
-48.3904
 11
-138.24
 21
-49.1439
  0
LINE
  8
0
 10
-138.24
 20
-49.1439
 11
-138.135
 21
-49.89
  0
LINE
  8
0
 10
-138.135
 20
-49.89
 11
-137.937
 21
-50.6171
  0
LINE
  8
0
 10
-137.937
 20
-50.6171
 11
-137.65
 21
-51.3138
  0
LINE
  8
0
 10
-137.65
 20
-51.3138
 11
-137.278
 21
-51.9689
  0
LINE
  8
0
 10
-137.278
 20
-51.9689
 11
-136.827
 21
-52.5723
  0
LINE
  8
0
 10
-136.827
 20
-52.5723
 11
-136.303
 21
-53.1143
  0
LINE
  8
0
 10
-136.303
 20
-53.1143
 11
-135.716
 21
-53.5864
  0
LINE
  8
0
 10
-135.716
 20
-53.5864
 11
-135.074
 21
-53.9812
  0
LINE
  8
0
 10
-135.074
 20
-53.9812
 11
-134.388
 21
-54.2925
  0
LINE
  8
0
 10
-134.388
 20
-54.2925
 11
-133.668
 21
-54.5153
  0
LINE
  8
0
 10
-133.668
 20
-54.5153
 11
-33.6266
 21
-75.2016
  0
LINE
  8
0
 10
-33.6266
 20
-75.2016
 11
-32.8845
 21
-75.3325
  0
LINE
  8
0
 10
-32.8845
 20
-75.3325
 11
-32.1319
 21
-75.3693
  0
LINE
  8
0
 10
-32.1319
 20
-75.3693
 11
32.1319
 21
-75.3693
  0
LINE
  8
0
 10
32.1319
 20
-75.3693
 11
32.8845
 21
-75.3325
  0
ENDSEC
  0
SECTION
  2
OBJECTS
  0
DICTIONARY
  0
ENDSEC
  0
EOF
