  0
SECTION
  2
BLOCKS
  0
ENDSEC
  0
SECTION
  2
ENTITIES
  0
LINE
  8
0
 10
22.2687
 20
-6.27875
 11
23.0107
 21
-6.1479
  0
LINE
  8
0
 10
23.0107
 20
-6.1479
 11
123.052
 21
14.5384
  0
LINE
  8
0
 10
123.052
 20
14.5384
 11
123.772
 21
14.7612
  0
LINE
  8
0
 10
123.772
 20
14.7612
 11
124.458
 21
15.0725
  0
LINE
  8
0
 10
124.458
 20
15.0725
 11
125.1
 21
15.4673
  0
LINE
  8
0
 10
125.1
 20
15.4673
 11
125.687
 21
15.9394
  0
LINE
  8
0
 10
125.687
 20
15.9394
 11
126.211
 21
16.4815
  0
LINE
  8
0
 10
126.211
 20
16.4815
 11
126.662
 21
17.0848
  0
LINE
  8
0
 10
126.662
 20
17.0848
 11
127.034
 21
17.74
  0
LINE
  8
0
 10
127.034
 20
17.74
 11
127.321
 21
18.4366
  0
LINE
  8
0
 10
127.321
 20
18.4366
 11
127.519
 21
19.1637
  0
LINE
  8
0
 10
127.519
 20
19.1637
 11
127.624
 21
19.9099
  0
LINE
  8
0
 10
127.624
 20
19.9099
 11
127.634
 21
20.6633
  0
LINE
  8
0
 10
127.634
 20
20.6633
 11
127.55
 21
21.4121
  0
LINE
  8
0
 10
127.55
 20
21.4121
 11
113.118
 21
103.263
  0
LINE
  8
0
 10
113.118
 20
103.263
 11
112.941
 21
103.996
  0
LINE
  8
0
 10
112.941
 20
103.996
 11
112.673
 21
104.7
  0
LINE
  8
0
 10
112.673
 20
104.7
 11
112.319
 21
105.365
  0
LINE
  8
0
 10
112.319
 20
105.365
 11
111.885
 21
105.981
  0
LINE
  8
0
 10
111.885
 20
105.981
 11
111.377
 21
106.537
  0
LINE
  8
0
 10
111.377
 20
106.537
 11
110.803
 21
107.026
  0
LINE
  8
0
 10
110.803
 20
107.026
 11
110.173
 21
107.438
  0
LINE
  8
0
 10
110.173
 20
107.438
 11
109.495
 21
107.769
  0
LINE
  8
0
 10
109.495
 20
107.769
 11
108.782
 21
108.012
  0
LINE
  8
0
 10
108.782
 20
108.012
 11
108.044
 21
108.163
  0
LINE
  8
0
 10
108.044
 20
108.163
 11
107.293
 21
108.221
  0
LINE
  8
0
 10
107.293
 20
108.221
 11
-107.293
 21
108.221
  0
LINE
  8
0
 10
-107.293
 20
108.221
 11
-108.044
 21
108.163
  0
LINE
  8
0
 10
-108.044
 20
108.163
 11
-108.782
 21
108.012
  0
LINE
  8
0
 10
-108.782
 20
108.012
 11
-109.495
 21
107.769
  0
LINE
  8
0
 10
-109.495
 20
107.769
 11
-110.173
 21
107.438
  0
LINE
  8
0
 10
-110.173
 20
107.438
 11
-110.803
 21
107.026
  0
LINE
  8
0
 10
-110.803
 20
107.026
 11
-111.377
 21
106.537
  0
LINE
  8
0
 10
-111.377
 20
106.537
 11
-111.885
 21
105.981
  0
LINE
  8
0
 10
-111.885
 20
105.981
 11
-112.319
 21
105.365
  0
LINE
  8
0
 10
-112.319
 20
105.365
 11
-112.673
 21
104.7
  0
LINE
  8
0
 10
-112.673
 20
104.7
 11
-112.941
 21
103.996
  0
LINE
  8
0
 10
-112.941
 20
103.996
 11
-113.118
 21
103.263
  0
LINE
  8
0
 10
-113.118
 20
103.263
 11
-127.55
 21
21.4121
  0
LINE
  8
0
 10
-127.55
 20
21.4121
 11
-127.634
 21
20.6633
  0
LINE
  8
0
 10
-127.634
 20
20.6633
 11
-127.624
 21
19.9099
  0
LINE
  8
0
 10
-127.624
 20
19.9099
 11
-127.519
 21
19.1637
  0
LINE
  8
0
 10
-127.519
 20
19.1637
 11
-127.321
 21
18.4366
  0
LINE
  8
0
 10
-127.321
 20
18.4366
 11
-127.034
 21
17.74
  0
LINE
  8
0
 10
-127.034
 20
17.74
 11
-126.662
 21
17.0848
  0
LINE
  8
0
 10
-126.662
 20
17.0848
 11
-126.211
 21
16.4815
  0
LINE
  8
0
 10
-126.211
 20
16.4815
 11
-125.687
 21
15.9394
  0
LINE
  8
0
 10
-125.687
 20
15.9394
 11
-125.1
 21
15.4673
  0
LINE
  8
0
 10
-125.1
 20
15.4673
 11
-124.458
 21
15.0725
  0
LINE
  8
0
 10
-124.458
 20
15.0725
 11
-123.772
 21
14.7612
  0
LINE
  8
0
 10
-123.772
 20
14.7612
 11
-123.052
 21
14.5384
  0
LINE
  8
0
 10
-123.052
 20
14.5384
 11
-23.0107
 21
-6.1479
  0
LINE
  8
0
 10
-23.0107
 20
-6.1479
 11
-22.2687
 21
-6.27875
  0
LINE
  8
0
 10
-22.2687
 20
-6.27875
 11
-21.5161
 21
-6.31555
  0
LINE
  8
0
 10
-21.5161
 20
-6.31555
 11
21.5161
 21
-6.31555
  0
LINE
  8
0
 10
21.5161
 20
-6.31555
 11
22.2687
 21
-6.27875
  0
LINE
  8
0
 10
107
 20
100.736
 11
106.816
 21
100.774
  0
LINE
  8
0
 10
106.816
 20
100.774
 11
106.637
 21
100.835
  0
LINE
  8
0
 10
106.637
 20
100.835
 11
106.468
 21
100.917
  0
LINE
  8
0
 10
106.468
 20
100.917
 11
106.31
 21
101.02
  0
LINE
  8
0
 10
106.31
 20
101.02
 11
106.167
 21
101.142
  0
LINE
  8
0
 10
106.167
 20
101.142
 11
106.04
 21
101.282
  0
LINE
  8
0
 10
106.04
 20
101.282
 11
105.931
 21
101.435
  0
LINE
  8
0
 10
105.931
 20
101.435
 11
105.843
 21
101.602
  0
LINE
  8
0
 10
105.843
 20
101.602
 11
105.776
 21
101.778
  0
LINE
  8
0
 10
105.776
 20
101.778
 11
105.732
 21
101.961
  0
LINE
  8
0
 10
105.732
 20
101.961
 11
105.711
 21
102.148
  0
LINE
  8
0
 10
105.711
 20
102.148
 11
105.713
 21
102.337
  0
LINE
  8
0
 10
105.713
 20
102.337
 11
105.74
 21
102.523
  0
LINE
  8
0
 10
105.74
 20
102.523
 11
105.789
 21
102.705
  0
LINE
  8
0
 10
105.789
 20
102.705
 11
105.861
 21
102.879
  0
LINE
  8
0
 10
105.861
 20
102.879
 11
105.954
 21
103.043
  0
LINE
  8
0
 10
105.954
 20
103.043
 11
106.067
 21
103.194
  0
LINE
  8
0
 10
106.067
 20
103.194
 11
106.197
 21
103.329
  0
LINE
  8
0
 10
106.197
 20
103.329
 11
106.344
 21
103.447
  0
LINE
  8
0
 10
106.344
 20
103.447
 11
106.505
 21
103.546
  0
LINE
  8
0
 10
106.505
 20
103.546
 11
106.676
 21
103.624
  0
LINE
  8
0
 10
106.676
 20
103.624
 11
106.856
 21
103.679
  0
LINE
  8
0
 10
106.856
 20
103.679
 11
107.042
 21
103.712
  0
LINE
  8
0
 10
107.042
 20
103.712
 11
107.23
 21
103.721
  0
LINE
  8
0
 10
107.23
 20
103.721
 11
107.418
 21
103.707
  0
LINE
  8
0
 10
107.418
 20
103.707
 11
107.602
 21
103.669
  0
LINE
  8
0
 10
107.602
 20
103.669
 11
107.781
 21
103.608
  0
LINE
  8
0
 10
107.781
 20
103.608
 11
107.95
 21
103.526
  0
LINE
  8
0
 10
107.95
 20
103.526
 11
108.107
 21
103.423
  0
LINE
  8
0
 10
108.107
 20
103.423
 11
108.251
 21
103.3
  0
LINE
  8
0
 10
108.251
 20
103.3
 11
108.378
 21
103.161
  0
LINE
  8
0
 10
108.378
 20
103.161
 11
108.487
 21
103.007
  0
LINE
  8
0
 10
108.487
 20
103.007
 11
108.575
 21
102.841
  0
LINE
  8
0
 10
108.575
 20
102.841
 11
108.642
 21
102.665
  0
LINE
  8
0
 10
108.642
 20
102.665
 11
108.686
 21
102.482
  0
LINE
  8
0
 10
108.686
 20
102.482
 11
108.707
 21
102.295
  0
LINE
  8
0
 10
108.707
 20
102.295
 11
108.705
 21
102.106
  0
LINE
  8
0
 10
108.705
 20
102.106
 11
108.678
 21
101.92
  0
LINE
  8
0
 10
108.678
 20
101.92
 11
108.629
 21
101.738
  0
LINE
  8
0
 10
108.629
 20
101.738
 11
108.557
 21
101.564
  0
LINE
  8
0
 10
108.557
 20
101.564
 11
108.464
 21
101.4
  0
LINE
  8
0
 10
108.464
 20
101.4
 11
108.351
 21
101.249
  0
LINE
  8
0
 10
108.351
 20
101.249
 11
108.22
 21
101.114
  0
LINE
  8
0
 10
108.22
 20
101.114
 11
108.074
 21
100.996
  0
LINE
  8
0
 10
108.074
 20
100.996
 11
107.913
 21
100.897
  0
LINE
  8
0
 10
107.913
 20
100.897
 11
107.742
 21
100.819
  0
LINE
  8
0
 10
107.742
 20
100.819
 11
107.562
 21
100.764
  0
LINE
  8
0
 10
107.562
 20
100.764
 11
107.376
 21
100.731
  0
LINE
  8
0
 10
107.376
 20
100.731
 11
107.188
 21
100.722
  0
LINE
  8
0
 10
107.188
 20
100.722
 11
107
 21
100.736
  0
LINE
  8
0
 10
-7.40282
 20
100.731
 11
-7.58833
 21
100.764
  0
LINE
  8
0
 10
-7.58833
 20
100.764
 11
-7.76828
 21
100.819
  0
LINE
  8
0
 10
-7.76828
 20
100.819
 11
-7.93982
 21
100.897
  0
LINE
  8
0
 10
-7.93982
 20
100.897
 11
-8.10027
 21
100.996
  0
LINE
  8
0
 10
-8.10027
 20
100.996
 11
-8.24707
 21
101.114
  0
LINE
  8
0
 10
-8.24707
 20
101.114
 11
-8.37791
 21
101.249
  0
LINE
  8
0
 10
-8.37791
 20
101.249
 11
-8.49075
 21
101.4
  0
LINE
  8
0
 10
-8.49075
 20
101.4
 11
-8.5838
 21
101.564
  0
LINE
  8
0
 10
-8.5838
 20
101.564
 11
-8.65559
 21
101.738
  0
LINE
  8
0
 10
-8.65559
 20
101.738
 11
-8.70497
 21
101.92
  0
LINE
  8
0
 10
-8.70497
 20
101.92
 11
-8.73119
 21
102.106
  0
LINE
  8
0
 10
-8.73119
 20
102.106
 11
-8.73383
 21
102.295
  0
LINE
  8
0
 10
-8.73383
 20
102.295
 11
-8.71283
 21
102.482
  0
LINE
  8
0
 10
-8.71283
 20
102.482
 11
-8.66853
 21
102.665
  0
LINE
  8
0
 10
-8.66853
 20
102.665
 11
-8.60164
 21
102.841
  0
LINE
  8
0
 10
-8.60164
 20
102.841
 11
-8.5132
 21
103.007
  0
LINE
  8
0
 10
-8.5132
 20
103.007
 11
-8.40462
 21
103.161
  0
LINE
  8
0
 10
-8.40462
 20
103.161
 11
-8.2776
 21
103.3
  0
LINE
  8
0
 10
-8.2776
 20
103.3
 11
-8.13416
 21
103.423
  0
LINE
  8
0
 10
-8.13416
 20
103.423
 11
-7.97653
 21
103.526
  0
LINE
  8
0
 10
-7.97653
 20
103.526
 11
-7.80722
 21
103.608
  0
LINE
  8
0
 10
-7.80722
 20
103.608
 11
-7.62889
 21
103.669
  0
LINE
  8
0
 10
-7.62889
 20
103.669
 11
-7.44437
 21
103.707
  0
LINE
  8
0
 10
-7.44437
 20
103.707
 11
-7.25656
 21
103.721
  0
LINE
  8
0
 10
-7.25656
 20
103.721
 11
-7.06841
 21
103.712
  0
LINE
  8
0
 10
-7.06841
 20
103.712
 11
-6.8829
 21
103.679
  0
LINE
  8
0
 10
-6.8829
 20
103.679
 11
-6.70296
 21
103.624
  0
LINE
  8
0
 10
-6.70296
 20
103.624
 11
-6.5314
 21
103.546
  0
LINE
  8
0
 10
-6.5314
 20
103.546
 11
-6.37097
 21
103.447
  0
LINE
  8
0
 10
-6.37097
 20
103.447
 11
-6.22417
 21
103.329
  0
LINE
  8
0
 10
-6.22417
 20
103.329
 11
-6.09331
 21
103.194
  0
LINE
  8
0
 10
-6.09331
 20
103.194
 11
-5.98047
 21
103.043
  0
LINE
  8
0
 10
-5.98047
 20
103.043
 11
-5.88742
 21
102.879
  0
LINE
  8
0
 10
-5.88742
 20
102.879
 11
-5.81564
 21
102.705
  0
LINE
  8
0
 10
-5.81564
 20
102.705
 11
-5.76625
 21
102.523
  0
LINE
  8
0
 10
-5.76625
 20
102.523
 11
-5.74004
 21
102.337
  0
LINE
  8
0
 10
-5.74004
 20
102.337
 11
-5.73741
 21
102.148
  0
LINE
  8
0
 10
-5.73741
 20
102.148
 11
-5.75841
 21
101.961
  0
LINE
  8
0
 10
-5.75841
 20
101.961
 11
-5.80269
 21
101.778
  0
LINE
  8
0
 10
-5.80269
 20
101.778
 11
-5.86958
 21
101.602
  0
LINE
  8
0
 10
-5.86958
 20
101.602
 11
-5.95802
 21
101.435
  0
LINE
  8
0
 10
-5.95802
 20
101.435
 11
-6.0666
 21
101.282
  0
LINE
  8
0
 10
-6.0666
 20
101.282
 11
-6.19362
 21
101.142
  0
LINE
  8
0
 10
-6.19362
 20
101.142
 11
-6.33708
 21
101.02
  0
LINE
  8
0
 10
-6.33708
 20
101.02
 11
-6.49471
 21
100.917
  0
LINE
  8
0
 10
-6.49471
 20
100.917
 11
-6.664
 21
100.835
  0
LINE
  8
0
 10
-6.664
 20
100.835
 11
-6.84233
 21
100.774
  0
LINE
  8
0
 10
-6.84233
 20
100.774
 11
-7.02686
 21
100.736
  0
LINE
  8
0
 10
-7.02686
 20
100.736
 11
-7.21468
 21
100.722
  0
LINE
  8
0
 10
-7.21468
 20
100.722
 11
-7.40282
 21
100.731
  0
LINE
  8
0
 10
7.02686
 20
100.736
 11
6.84233
 21
100.774
  0
LINE
  8
0
 10
6.84233
 20
100.774
 11
6.664
 21
100.835
  0
LINE
  8
0
 10
6.664
 20
100.835
 11
6.49471
 21
100.917
  0
LINE
  8
0
 10
6.49471
 20
100.917
 11
6.33708
 21
101.02
  0
LINE
  8
0
 10
6.33708
 20
101.02
 11
6.19362
 21
101.142
  0
LINE
  8
0
 10
6.19362
 20
101.142
 11
6.0666
 21
101.282
  0
LINE
  8
0
 10
6.0666
 20
101.282
 11
5.95802
 21
101.435
  0
LINE
  8
0
 10
5.95802
 20
101.435
 11
5.86958
 21
101.602
  0
LINE
  8
0
 10
5.86958
 20
101.602
 11
5.80269
 21
101.778
  0
LINE
  8
0
 10
5.80269
 20
101.778
 11
5.75841
 21
101.961
  0
LINE
  8
0
 10
5.75841
 20
101.961
 11
5.73741
 21
102.148
  0
LINE
  8
0
 10
5.73741
 20
102.148
 11
5.74004
 21
102.337
  0
LINE
  8
0
 10
5.74004
 20
102.337
 11
5.76625
 21
102.523
  0
LINE
  8
0
 10
5.76625
 20
102.523
 11
5.81564
 21
102.705
  0
LINE
  8
0
 10
5.81564
 20
102.705
 11
5.88742
 21
102.879
  0
LINE
  8
0
 10
5.88742
 20
102.879
 11
5.98047
 21
103.043
  0
LINE
  8
0
 10
5.98047
 20
103.043
 11
6.09331
 21
103.194
  0
LINE
  8
0
 10
6.09331
 20
103.194
 11
6.22417
 21
103.329
  0
LINE
  8
0
 10
6.22417
 20
103.329
 11
6.37097
 21
103.447
  0
LINE
  8
0
 10
6.37097
 20
103.447
 11
6.5314
 21
103.546
  0
LINE
  8
0
 10
6.5314
 20
103.546
 11
6.70296
 21
103.624
  0
LINE
  8
0
 10
6.70296
 20
103.624
 11
6.8829
 21
103.679
  0
LINE
  8
0
 10
6.8829
 20
103.679
 11
7.06841
 21
103.712
  0
LINE
  8
0
 10
7.06841
 20
103.712
 11
7.25656
 21
103.721
  0
LINE
  8
0
 10
7.25656
 20
103.721
 11
7.44437
 21
103.707
  0
LINE
  8
0
 10
7.44437
 20
103.707
 11
7.62889
 21
103.669
  0
LINE
  8
0
 10
7.62889
 20
103.669
 11
7.80722
 21
103.608
  0
LINE
  8
0
 10
7.80722
 20
103.608
 11
7.97653
 21
103.526
  0
LINE
  8
0
 10
7.97653
 20
103.526
 11
8.13416
 21
103.423
  0
LINE
  8
0
 10
8.13416
 20
103.423
 11
8.2776
 21
103.3
  0
LINE
  8
0
 10
8.2776
 20
103.3
 11
8.40462
 21
103.161
  0
LINE
  8
0
 10
8.40462
 20
103.161
 11
8.5132
 21
103.007
  0
LINE
  8
0
 10
8.5132
 20
103.007
 11
8.60164
 21
102.841
  0
LINE
  8
0
 10
8.60164
 20
102.841
 11
8.66853
 21
102.665
  0
LINE
  8
0
 10
8.66853
 20
102.665
 11
8.71283
 21
102.482
  0
LINE
  8
0
 10
8.71283
 20
102.482
 11
8.73383
 21
102.295
  0
LINE
  8
0
 10
8.73383
 20
102.295
 11
8.73119
 21
102.106
  0
LINE
  8
0
 10
8.73119
 20
102.106
 11
8.70497
 21
101.92
  0
LINE
  8
0
 10
8.70497
 20
101.92
 11
8.65559
 21
101.738
  0
LINE
  8
0
 10
8.65559
 20
101.738
 11
8.5838
 21
101.564
  0
LINE
  8
0
 10
8.5838
 20
101.564
 11
8.49075
 21
101.4
  0
LINE
  8
0
 10
8.49075
 20
101.4
 11
8.37791
 21
101.249
  0
LINE
  8
0
 10
8.37791
 20
101.249
 11
8.24707
 21
101.114
  0
LINE
  8
0
 10
8.24707
 20
101.114
 11
8.10027
 21
100.996
  0
LINE
  8
0
 10
8.10027
 20
100.996
 11
7.93982
 21
100.897
  0
LINE
  8
0
 10
7.93982
 20
100.897
 11
7.76828
 21
100.819
  0
LINE
  8
0
 10
7.76828
 20
100.819
 11
7.58833
 21
100.764
  0
LINE
  8
0
 10
7.58833
 20
100.764
 11
7.40282
 21
100.731
  0
LINE
  8
0
 10
7.40282
 20
100.731
 11
7.21468
 21
100.722
  0
LINE
  8
0
 10
7.21468
 20
100.722
 11
7.02686
 21
100.736
  0
LINE
  8
0
 10
-107.376
 20
100.731
 11
-107.562
 21
100.764
  0
LINE
  8
0
 10
-107.562
 20
100.764
 11
-107.742
 21
100.819
  0
LINE
  8
0
 10
-107.742
 20
100.819
 11
-107.913
 21
100.897
  0
LINE
  8
0
 10
-107.913
 20
100.897
 11
-108.074
 21
100.996
  0
LINE
  8
0
 10
-108.074
 20
100.996
 11
-108.22
 21
101.114
  0
LINE
  8
0
 10
-108.22
 20
101.114
 11
-108.351
 21
101.249
  0
LINE
  8
0
 10
-108.351
 20
101.249
 11
-108.464
 21
101.4
  0
LINE
  8
0
 10
-108.464
 20
101.4
 11
-108.557
 21
101.564
  0
LINE
  8
0
 10
-108.557
 20
101.564
 11
-108.629
 21
101.738
  0
LINE
  8
0
 10
-108.629
 20
101.738
 11
-108.678
 21
101.92
  0
LINE
  8
0
 10
-108.678
 20
101.92
 11
-108.705
 21
102.106
  0
LINE
  8
0
 10
-108.705
 20
102.106
 11
-108.707
 21
102.295
  0
LINE
  8
0
 10
-108.707
 20
102.295
 11
-108.686
 21
102.482
  0
LINE
  8
0
 10
-108.686
 20
102.482
 11
-108.642
 21
102.665
  0
LINE
  8
0
 10
-108.642
 20
102.665
 11
-108.575
 21
102.841
  0
LINE
  8
0
 10
-108.575
 20
102.841
 11
-108.487
 21
103.007
  0
LINE
  8
0
 10
-108.487
 20
103.007
 11
-108.378
 21
103.161
  0
LINE
  8
0
 10
-108.378
 20
103.161
 11
-108.251
 21
103.3
  0
LINE
  8
0
 10
-108.251
 20
103.3
 11
-108.107
 21
103.423
  0
LINE
  8
0
 10
-108.107
 20
103.423
 11
-107.95
 21
103.526
  0
LINE
  8
0
 10
-107.95
 20
103.526
 11
-107.781
 21
103.608
  0
LINE
  8
0
 10
-107.781
 20
103.608
 11
-107.602
 21
103.669
  0
LINE
  8
0
 10
-107.602
 20
103.669
 11
-107.418
 21
103.707
  0
LINE
  8
0
 10
-107.418
 20
103.707
 11
-107.23
 21
103.721
  0
LINE
  8
0
 10
-107.23
 20
103.721
 11
-107.042
 21
103.712
  0
LINE
  8
0
 10
-107.042
 20
103.712
 11
-106.856
 21
103.679
  0
LINE
  8
0
 10
-106.856
 20
103.679
 11
-106.676
 21
103.624
  0
LINE
  8
0
 10
-106.676
 20
103.624
 11
-106.505
 21
103.546
  0
LINE
  8
0
 10
-106.505
 20
103.546
 11
-106.344
 21
103.447
  0
LINE
  8
0
 10
-106.344
 20
103.447
 11
-106.197
 21
103.329
  0
LINE
  8
0
 10
-106.197
 20
103.329
 11
-106.067
 21
103.194
  0
LINE
  8
0
 10
-106.067
 20
103.194
 11
-105.954
 21
103.043
  0
LINE
  8
0
 10
-105.954
 20
103.043
 11
-105.861
 21
102.879
  0
LINE
  8
0
 10
-105.861
 20
102.879
 11
-105.789
 21
102.705
  0
LINE
  8
0
 10
-105.789
 20
102.705
 11
-105.74
 21
102.523
  0
LINE
  8
0
 10
-105.74
 20
102.523
 11
-105.713
 21
102.337
  0
LINE
  8
0
 10
-105.713
 20
102.337
 11
-105.711
 21
102.148
  0
LINE
  8
0
 10
-105.711
 20
102.148
 11
-105.732
 21
101.961
  0
LINE
  8
0
 10
-105.732
 20
101.961
 11
-105.776
 21
101.778
  0
LINE
  8
0
 10
-105.776
 20
101.778
 11
-105.843
 21
101.602
  0
LINE
  8
0
 10
-105.843
 20
101.602
 11
-105.931
 21
101.435
  0
LINE
  8
0
 10
-105.931
 20
101.435
 11
-106.04
 21
101.282
  0
LINE
  8
0
 10
-106.04
 20
101.282
 11
-106.167
 21
101.142
  0
LINE
  8
0
 10
-106.167
 20
101.142
 11
-106.31
 21
101.02
  0
LINE
  8
0
 10
-106.31
 20
101.02
 11
-106.468
 21
100.917
  0
LINE
  8
0
 10
-106.468
 20
100.917
 11
-106.637
 21
100.835
  0
LINE
  8
0
 10
-106.637
 20
100.835
 11
-106.816
 21
100.774
  0
LINE
  8
0
 10
-106.816
 20
100.774
 11
-107
 21
100.736
  0
LINE
  8
0
 10
-107
 20
100.736
 11
-107.188
 21
100.722
  0
LINE
  8
0
 10
-107.188
 20
100.722
 11
-107.376
 21
100.731
  0
LINE
  8
0
 10
-65.8976
 20
82.7094
 11
-63.4717
 21
96.4671
  0
LINE
  8
0
 10
-63.4717
 20
96.4671
 11
-49.714
 21
94.0413
  0
LINE
  8
0
 10
-49.714
 20
94.0413
 11
-52.1398
 21
80.2835
  0
LINE
  8
0
 10
-52.1398
 20
80.2835
 11
-65.8976
 21
82.7094
  0
LINE
  8
0
 10
49.714
 20
94.0413
 11
63.4717
 21
96.4671
  0
LINE
  8
0
 10
63.4717
 20
96.4671
 11
65.8976
 21
82.7094
  0
LINE
  8
0
 10
65.8976
 20
82.7094
 11
52.1398
 21
80.2835
  0
LINE
  8
0
 10
52.1398
 20
80.2835
 11
49.714
 21
94.0413
  0
LINE
  8
0
 10
-104.709
 20
81.4296
 11
-102.284
 21
95.1873
  0
LINE
  8
0
 10
-102.284
 20
95.1873
 11
-88.5259
 21
92.7614
  0
LINE
  8
0
 10
-88.5259
 20
92.7614
 11
-90.9517
 21
79.0037
  0
LINE
  8
0
 10
-90.9517
 20
79.0037
 11
-104.709
 21
81.4296
  0
LINE
  8
0
 10
88.5259
 20
92.7614
 11
102.284
 21
95.1873
  0
LINE
  8
0
 10
102.284
 20
95.1873
 11
104.709
 21
81.4296
  0
LINE
  8
0
 10
104.709
 20
81.4296
 11
90.9517
 21
79.0037
  0
LINE
  8
0
 10
90.9517
 20
79.0037
 11
88.5259
 21
92.7614
  0
LINE
  8
0
 10
-85.4772
 20
81.0847
 11
-83.0513
 21
94.8424
  0
LINE
  8
0
 10
-83.0513
 20
94.8424
 11
-69.2936
 21
92.4165
  0
LINE
  8
0
 10
-69.2936
 20
92.4165
 11
-71.7194
 21
78.6588
  0
LINE
  8
0
 10
-71.7194
 20
78.6588
 11
-85.4772
 21
81.0847
  0
LINE
  8
0
 10
69.2936
 20
92.4165
 11
83.0513
 21
94.8424
  0
LINE
  8
0
 10
83.0513
 20
94.8424
 11
85.4772
 21
81.0847
  0
LINE
  8
0
 10
85.4772
 20
81.0847
 11
71.7194
 21
78.6588
  0
LINE
  8
0
 10
71.7194
 20
78.6588
 11
69.2936
 21
92.4165
  0
LINE
  8
0
 10
-48.2281
 20
73.5012
 11
-45.8023
 21
87.259
  0
LINE
  8
0
 10
-45.8023
 20
87.259
 11
-32.0445
 21
84.8331
  0
LINE
  8
0
 10
-32.0445
 20
84.8331
 11
-34.4704
 21
71.0754
  0
LINE
  8
0
 10
-34.4704
 20
71.0754
 11
-48.2281
 21
73.5012
  0
LINE
  8
0
 10
32.0445
 20
84.8331
 11
45.8023
 21
87.259
  0
LINE
  8
0
 10
45.8023
 20
87.259
 11
48.2281
 21
73.5012
  0
LINE
  8
0
 10
48.2281
 20
73.5012
 11
34.4704
 21
71.0754
  0
LINE
  8
0
 10
34.4704
 20
71.0754
 11
32.0445
 21
84.8331
  0
LINE
  8
0
 10
14.2014
 20
76.6098
 11
27.9592
 21
79.0356
  0
LINE
  8
0
 10
27.9592
 20
79.0356
 11
30.385
 21
65.2779
  0
LINE
  8
0
 10
30.385
 20
65.2779
 11
16.6273
 21
62.852
  0
LINE
  8
0
 10
16.6273
 20
62.852
 11
14.2014
 21
76.6098
  0
LINE
  8
0
 10
-30.385
 20
65.2779
 11
-27.9592
 21
79.0356
  0
LINE
  8
0
 10
-27.9592
 20
79.0356
 11
-14.2014
 21
76.6098
  0
LINE
  8
0
 10
-14.2014
 20
76.6098
 11
-16.6273
 21
62.852
  0
LINE
  8
0
 10
-16.6273
 20
62.852
 11
-30.385
 21
65.2779
  0
LINE
  8
0
 10
53.0133
 20
75.3299
 11
66.771
 21
77.7558
  0
LINE
  8
0
 10
66.771
 20
77.7558
 11
69.1969
 21
63.998
  0
LINE
  8
0
 10
69.1969
 20
63.998
 11
55.4392
 21
61.5722
  0
LINE
  8
0
 10
55.4392
 20
61.5722
 11
53.0133
 21
75.3299
  0
LINE
  8
0
 10
-69.1969
 20
63.998
 11
-66.771
 21
77.7558
  0
LINE
  8
0
 10
-66.771
 20
77.7558
 11
-53.0133
 21
75.3299
  0
LINE
  8
0
 10
-53.0133
 20
75.3299
 11
-55.4392
 21
61.5722
  0
LINE
  8
0
 10
-55.4392
 20
61.5722
 11
-69.1969
 21
63.998
  0
LINE
  8
0
 10
91.8252
 20
74.0501
 11
105.583
 21
76.476
  0
LINE
  8
0
 10
105.583
 20
76.476
 11
108.009
 21
62.7182
  0
LINE
  8
0
 10
108.009
 20
62.7182
 11
94.251
 21
60.2923
  0
LINE
  8
0
 10
94.251
 20
60.2923
 11
91.8252
 21
74.0501
  0
LINE
  8
0
 10
-108.009
 20
62.7182
 11
-105.583
 21
76.476
  0
LINE
  8
0
 10
-105.583
 20
76.476
 11
-91.8252
 21
74.0501
  0
LINE
  8
0
 10
-91.8252
 20
74.0501
 11
-94.251
 21
60.2923
  0
LINE
  8
0
 10
-94.251
 20
60.2923
 11
-108.009
 21
62.7182
  0
LINE
  8
0
 10
72.5929
 20
73.7052
 11
86.3506
 21
76.1311
  0
LINE
  8
0
 10
86.3506
 20
76.1311
 11
88.7765
 21
62.3733
  0
LINE
  8
0
 10
88.7765
 20
62.3733
 11
75.0187
 21
59.9474
  0
LINE
  8
0
 10
75.0187
 20
59.9474
 11
72.5929
 21
73.7052
  0
LINE
  8
0
 10
-88.7765
 20
62.3733
 11
-86.3506
 21
76.1311
  0
LINE
  8
0
 10
-86.3506
 20
76.1311
 11
-72.5929
 21
73.7052
  0
LINE
  8
0
 10
-72.5929
 20
73.7052
 11
-75.0187
 21
59.9474
  0
LINE
  8
0
 10
-75.0187
 20
59.9474
 11
-88.7765
 21
62.3733
  0
LINE
  8
0
 10
35.3438
 20
66.1218
 11
49.1016
 21
68.5476
  0
LINE
  8
0
 10
49.1016
 20
68.5476
 11
51.5274
 21
54.7899
  0
LINE
  8
0
 10
51.5274
 20
54.7899
 11
37.7697
 21
52.364
  0
LINE
  8
0
 10
37.7697
 20
52.364
 11
35.3438
 21
66.1218
  0
LINE
  8
0
 10
-51.5274
 20
54.7899
 11
-49.1016
 21
68.5476
  0
LINE
  8
0
 10
-49.1016
 20
68.5476
 11
-35.3438
 21
66.1218
  0
LINE
  8
0
 10
-35.3438
 20
66.1218
 11
-37.7697
 21
52.364
  0
LINE
  8
0
 10
-37.7697
 20
52.364
 11
-51.5274
 21
54.7899
  0
LINE
  8
0
 10
17.5007
 20
57.8984
 11
31.2585
 21
60.3243
  0
LINE
  8
0
 10
31.2585
 20
60.3243
 11
33.6843
 21
46.5665
  0
LINE
  8
0
 10
33.6843
 20
46.5665
 11
19.9266
 21
44.1407
  0
LINE
  8
0
 10
19.9266
 20
44.1407
 11
17.5007
 21
57.8984
  0
LINE
  8
0
 10
-33.6843
 20
46.5665
 11
-31.2585
 21
60.3243
  0
LINE
  8
0
 10
-31.2585
 20
60.3243
 11
-17.5007
 21
57.8984
  0
LINE
  8
0
 10
-17.5007
 20
57.8984
 11
-19.9266
 21
44.1407
  0
LINE
  8
0
 10
-19.9266
 20
44.1407
 11
-33.6843
 21
46.5665
  0
LINE
  8
0
 10
-72.4962
 20
45.2867
 11
-70.0703
 21
59.0444
  0
LINE
  8
0
 10
-70.0703
 20
59.0444
 11
-56.3126
 21
56.6186
  0
LINE
  8
0
 10
-56.3126
 20
56.6186
 11
-58.7385
 21
42.8608
  0
LINE
  8
0
 10
-58.7385
 20
42.8608
 11
-72.4962
 21
45.2867
  0
LINE
  8
0
 10
56.3126
 20
56.6186
 11
70.0703
 21
59.0444
  0
LINE
  8
0
 10
70.0703
 20
59.0444
 11
72.4962
 21
45.2867
  0
LINE
  8
0
 10
72.4962
 20
45.2867
 11
58.7385
 21
42.8608
  0
LINE
  8
0
 10
58.7385
 20
42.8608
 11
56.3126
 21
56.6186
  0
LINE
  8
0
 10
-111.308
 20
44.0069
 11
-108.882
 21
57.7646
  0
LINE
  8
0
 10
-108.882
 20
57.7646
 11
-95.1245
 21
55.3387
  0
LINE
  8
0
 10
-95.1245
 20
55.3387
 11
-97.5504
 21
41.581
  0
LINE
  8
0
 10
-97.5504
 20
41.581
 11
-111.308
 21
44.0069
  0
LINE
  8
0
 10
95.1245
 20
55.3387
 11
108.882
 21
57.7646
  0
LINE
  8
0
 10
108.882
 20
57.7646
 11
111.308
 21
44.0069
  0
LINE
  8
0
 10
111.308
 20
44.0069
 11
97.5504
 21
41.581
  0
LINE
  8
0
 10
97.5504
 20
41.581
 11
95.1245
 21
55.3387
  0
LINE
  8
0
 10
-92.0758
 20
43.662
 11
-89.6499
 21
57.4197
  0
LINE
  8
0
 10
-89.6499
 20
57.4197
 11
-75.8922
 21
54.9939
  0
LINE
  8
0
 10
-75.8922
 20
54.9939
 11
-78.3181
 21
41.2361
  0
LINE
  8
0
 10
-78.3181
 20
41.2361
 11
-92.0758
 21
43.662
  0
LINE
  8
0
 10
75.8922
 20
54.9939
 11
89.6499
 21
57.4197
  0
LINE
  8
0
 10
89.6499
 20
57.4197
 11
92.0758
 21
43.662
  0
LINE
  8
0
 10
92.0758
 20
43.662
 11
78.3181
 21
41.2361
  0
LINE
  8
0
 10
78.3181
 20
41.2361
 11
75.8922
 21
54.9939
  0
LINE
  8
0
 10
-54.8268
 20
36.0785
 11
-52.4009
 21
49.8363
  0
LINE
  8
0
 10
-52.4009
 20
49.8363
 11
-38.6432
 21
47.4104
  0
LINE
  8
0
 10
-38.6432
 20
47.4104
 11
-41.069
 21
33.6527
  0
LINE
  8
0
 10
-41.069
 20
33.6527
 11
-54.8268
 21
36.0785
  0
LINE
  8
0
 10
38.6432
 20
47.4104
 11
52.4009
 21
49.8363
  0
LINE
  8
0
 10
52.4009
 20
49.8363
 11
54.8268
 21
36.0785
  0
LINE
  8
0
 10
54.8268
 20
36.0785
 11
41.069
 21
33.6527
  0
LINE
  8
0
 10
41.069
 20
33.6527
 11
38.6432
 21
47.4104
  0
LINE
  8
0
 10
20.8
 20
39.1871
 11
34.5578
 21
41.6129
  0
LINE
  8
0
 10
34.5578
 20
41.6129
 11
36.9836
 21
27.8552
  0
LINE
  8
0
 10
36.9836
 20
27.8552
 11
23.2259
 21
25.4293
  0
LINE
  8
0
 10
23.2259
 20
25.4293
 11
20.8
 21
39.1871
  0
LINE
  8
0
 10
-36.9836
 20
27.8552
 11
-34.5578
 21
41.6129
  0
LINE
  8
0
 10
-34.5578
 20
41.6129
 11
-20.8
 21
39.1871
  0
LINE
  8
0
 10
-20.8
 20
39.1871
 11
-23.2259
 21
25.4293
  0
LINE
  8
0
 10
-23.2259
 20
25.4293
 11
-36.9836
 21
27.8552
  0
LINE
  8
0
 10
59.6119
 20
37.9072
 11
73.3697
 21
40.3331
  0
LINE
  8
0
 10
73.3697
 20
40.3331
 11
75.7955
 21
26.5754
  0
LINE
  8
0
 10
75.7955
 20
26.5754
 11
62.0378
 21
24.1495
  0
LINE
  8
0
 10
62.0378
 20
24.1495
 11
59.6119
 21
37.9072
  0
LINE
  8
0
 10
-75.7955
 20
26.5754
 11
-73.3697
 21
40.3331
  0
LINE
  8
0
 10
-73.3697
 20
40.3331
 11
-59.6119
 21
37.9072
  0
LINE
  8
0
 10
-59.6119
 20
37.9072
 11
-62.0378
 21
24.1495
  0
LINE
  8
0
 10
-62.0378
 20
24.1495
 11
-75.7955
 21
26.5754
  0
LINE
  8
0
 10
98.4238
 20
36.6274
 11
112.182
 21
39.0533
  0
LINE
  8
0
 10
112.182
 20
39.0533
 11
114.607
 21
25.2955
  0
LINE
  8
0
 10
114.607
 20
25.2955
 11
100.85
 21
22.8697
  0
LINE
  8
0
 10
100.85
 20
22.8697
 11
98.4238
 21
36.6274
  0
LINE
  8
0
 10
-114.607
 20
25.2955
 11
-112.182
 21
39.0533
  0
LINE
  8
0
 10
-112.182
 20
39.0533
 11
-98.4238
 21
36.6274
  0
LINE
  8
0
 10
-98.4238
 20
36.6274
 11
-100.85
 21
22.8697
  0
LINE
  8
0
 10
-100.85
 20
22.8697
 11
-114.607
 21
25.2955
  0
LINE
  8
0
 10
-95.3751
 20
24.9506
 11
-92.9492
 21
38.7084
  0
LINE
  8
0
 10
-92.9492
 20
38.7084
 11
-79.1915
 21
36.2825
  0
LINE
  8
0
 10
-79.1915
 20
36.2825
 11
-81.6174
 21
22.5248
  0
LINE
  8
0
 10
-81.6174
 20
22.5248
 11
-95.3751
 21
24.9506
  0
LINE
  8
0
 10
79.1915
 20
36.2825
 11
92.9492
 21
38.7084
  0
LINE
  8
0
 10
92.9492
 20
38.7084
 11
95.3751
 21
24.9506
  0
LINE
  8
0
 10
95.3751
 20
24.9506
 11
81.6174
 21
22.5248
  0
LINE
  8
0
 10
81.6174
 20
22.5248
 11
79.1915
 21
36.2825
  0
LINE
  8
0
 10
41.9425
 20
28.6991
 11
55.7002
 21
31.1249
  0
LINE
  8
0
 10
55.7002
 20
31.1249
 11
58.1261
 21
17.3672
  0
LINE
  8
0
 10
58.1261
 20
17.3672
 11
44.3683
 21
14.9413
  0
LINE
  8
0
 10
44.3683
 20
14.9413
 11
41.9425
 21
28.6991
  0
LINE
  8
0
 10
-58.1261
 20
17.3672
 11
-55.7002
 21
31.1249
  0
LINE
  8
0
 10
-55.7002
 20
31.1249
 11
-41.9425
 21
28.6991
  0
LINE
  8
0
 10
-41.9425
 20
28.6991
 11
-44.3683
 21
14.9413
  0
LINE
  8
0
 10
-44.3683
 20
14.9413
 11
-58.1261
 21
17.3672
  0
LINE
  8
0
 10
24.0994
 20
20.4757
 11
37.8571
 21
22.9016
  0
LINE
  8
0
 10
37.8571
 20
22.9016
 11
40.283
 21
9.14384
  0
LINE
  8
0
 10
40.283
 20
9.14384
 11
26.5252
 21
6.71799
  0
LINE
  8
0
 10
26.5252
 20
6.71799
 11
24.0994
 21
20.4757
  0
LINE
  8
0
 10
-40.283
 20
9.14384
 11
-37.8571
 21
22.9016
  0
LINE
  8
0
 10
-37.8571
 20
22.9016
 11
-24.0994
 21
20.4757
  0
LINE
  8
0
 10
-24.0994
 20
20.4757
 11
-26.5252
 21
6.71799
  0
LINE
  8
0
 10
-26.5252
 20
6.71799
 11
-40.283
 21
9.14384
  0
LINE
  8
0
 10
4.86705
 20
20.1308
 11
18.6248
 21
22.5567
  0
LINE
  8
0
 10
18.6248
 20
22.5567
 11
21.0507
 21
8.79893
  0
LINE
  8
0
 10
21.0507
 20
8.79893
 11
7.29292
 21
6.37308
  0
LINE
  8
0
 10
7.29292
 20
6.37308
 11
4.86705
 21
20.1308
  0
LINE
  8
0
 10
-21.0507
 20
8.79893
 11
-18.6248
 21
22.5567
  0
LINE
  8
0
 10
-18.6248
 20
22.5567
 11
-4.86705
 21
20.1308
  0
LINE
  8
0
 10
-4.86705
 20
20.1308
 11
-7.29292
 21
6.37308
  0
LINE
  8
0
 10
-7.29292
 20
6.37308
 11
-21.0507
 21
8.79893
  0
LINE
  8
0
 10
-121.809
 20
18.8795
 11
-121.994
 21
18.9122
  0
LINE
  8
0
 10
-121.994
 20
18.9122
 11
-122.174
 21
18.9679
  0
LINE
  8
0
 10
-122.174
 20
18.9679
 11
-122.346
 21
19.0458
  0
LINE
  8
0
 10
-122.346
 20
19.0458
 11
-122.506
 21
19.1445
  0
LINE
  8
0
 10
-122.506
 20
19.1445
 11
-122.653
 21
19.2625
  0
LINE
  8
0
 10
-122.653
 20
19.2625
 11
-122.784
 21
19.398
  0
LINE
  8
0
 10
-122.784
 20
19.398
 11
-122.897
 21
19.5488
  0
LINE
  8
0
 10
-122.897
 20
19.5488
 11
-122.99
 21
19.7126
  0
LINE
  8
0
 10
-122.99
 20
19.7126
 11
-123.061
 21
19.8868
  0
LINE
  8
0
 10
-123.061
 20
19.8868
 11
-123.111
 21
20.0686
  0
LINE
  8
0
 10
-123.111
 20
20.0686
 11
-123.137
 21
20.2551
  0
LINE
  8
0
 10
-123.137
 20
20.2551
 11
-123.14
 21
20.4435
  0
LINE
  8
0
 10
-123.14
 20
20.4435
 11
-123.119
 21
20.6306
  0
LINE
  8
0
 10
-123.119
 20
20.6306
 11
-123.074
 21
20.8137
  0
LINE
  8
0
 10
-123.074
 20
20.8137
 11
-123.008
 21
20.9898
  0
LINE
  8
0
 10
-123.008
 20
20.9898
 11
-122.919
 21
21.1562
  0
LINE
  8
0
 10
-122.919
 20
21.1562
 11
-122.811
 21
21.3101
  0
LINE
  8
0
 10
-122.811
 20
21.3101
 11
-122.684
 21
21.4492
  0
LINE
  8
0
 10
-122.684
 20
21.4492
 11
-122.54
 21
21.5713
  0
LINE
  8
0
 10
-122.54
 20
21.5713
 11
-122.382
 21
21.6744
  0
LINE
  8
0
 10
-122.382
 20
21.6744
 11
-122.213
 21
21.757
  0
LINE
  8
0
 10
-122.213
 20
21.757
 11
-122.035
 21
21.8177
  0
LINE
  8
0
 10
-122.035
 20
21.8177
 11
-121.85
 21
21.8556
  0
LINE
  8
0
 10
-121.85
 20
21.8556
 11
-121.662
 21
21.87
  0
LINE
  8
0
 10
-121.662
 20
21.87
 11
-121.474
 21
21.8608
  0
LINE
  8
0
 10
-121.474
 20
21.8608
 11
-121.289
 21
21.8281
  0
LINE
  8
0
 10
-121.289
 20
21.8281
 11
-121.109
 21
21.7724
  0
LINE
  8
0
 10
-121.109
 20
21.7724
 11
-120.937
 21
21.6946
  0
LINE
  8
0
 10
-120.937
 20
21.6946
 11
-120.777
 21
21.5959
  0
LINE
  8
0
 10
-120.777
 20
21.5959
 11
-120.63
 21
21.4778
  0
LINE
  8
0
 10
-120.63
 20
21.4778
 11
-120.499
 21
21.3423
  0
LINE
  8
0
 10
-120.499
 20
21.3423
 11
-120.386
 21
21.1915
  0
LINE
  8
0
 10
-120.386
 20
21.1915
 11
-120.293
 21
21.0277
  0
LINE
  8
0
 10
-120.293
 20
21.0277
 11
-120.222
 21
20.8536
  0
LINE
  8
0
 10
-120.222
 20
20.8536
 11
-120.172
 21
20.6718
  0
LINE
  8
0
 10
-120.172
 20
20.6718
 11
-120.146
 21
20.4852
  0
LINE
  8
0
 10
-120.146
 20
20.4852
 11
-120.143
 21
20.2969
  0
LINE
  8
0
 10
-120.143
 20
20.2969
 11
-120.164
 21
20.1097
  0
LINE
  8
0
 10
-120.164
 20
20.1097
 11
-120.209
 21
19.9266
  0
LINE
  8
0
 10
-120.209
 20
19.9266
 11
-120.275
 21
19.7505
  0
LINE
  8
0
 10
-120.275
 20
19.7505
 11
-120.364
 21
19.5842
  0
LINE
  8
0
 10
-120.364
 20
19.5842
 11
-120.473
 21
19.4303
  0
LINE
  8
0
 10
-120.473
 20
19.4303
 11
-120.6
 21
19.2912
  0
LINE
  8
0
 10
-120.6
 20
19.2912
 11
-120.743
 21
19.1691
  0
LINE
  8
0
 10
-120.743
 20
19.1691
 11
-120.901
 21
19.0659
  0
LINE
  8
0
 10
-120.901
 20
19.0659
 11
-121.07
 21
18.9834
  0
LINE
  8
0
 10
-121.07
 20
18.9834
 11
-121.248
 21
18.9227
  0
LINE
  8
0
 10
-121.248
 20
18.9227
 11
-121.433
 21
18.8848
  0
LINE
  8
0
 10
-121.433
 20
18.8848
 11
-121.621
 21
18.8703
  0
LINE
  8
0
 10
-121.621
 20
18.8703
 11
-121.809
 21
18.8795
  0
LINE
  8
0
 10
121.433
 20
18.8848
 11
121.248
 21
18.9227
  0
LINE
  8
0
 10
121.248
 20
18.9227
 11
121.07
 21
18.9834
  0
LINE
  8
0
 10
121.07
 20
18.9834
 11
120.901
 21
19.0659
  0
LINE
  8
0
 10
120.901
 20
19.0659
 11
120.743
 21
19.1691
  0
LINE
  8
0
 10
120.743
 20
19.1691
 11
120.6
 21
19.2912
  0
LINE
  8
0
 10
120.6
 20
19.2912
 11
120.473
 21
19.4303
  0
LINE
  8
0
 10
120.473
 20
19.4303
 11
120.364
 21
19.5842
  0
LINE
  8
0
 10
120.364
 20
19.5842
 11
120.275
 21
19.7505
  0
LINE
  8
0
 10
120.275
 20
19.7505
 11
120.209
 21
19.9266
  0
LINE
  8
0
 10
120.209
 20
19.9266
 11
120.164
 21
20.1097
  0
LINE
  8
0
 10
120.164
 20
20.1097
 11
120.143
 21
20.2969
  0
LINE
  8
0
 10
120.143
 20
20.2969
 11
120.146
 21
20.4852
  0
LINE
  8
0
 10
120.146
 20
20.4852
 11
120.172
 21
20.6718
  0
LINE
  8
0
 10
120.172
 20
20.6718
 11
120.222
 21
20.8536
  0
LINE
  8
0
 10
120.222
 20
20.8536
 11
120.293
 21
21.0277
  0
LINE
  8
0
 10
120.293
 20
21.0277
 11
120.386
 21
21.1915
  0
LINE
  8
0
 10
120.386
 20
21.1915
 11
120.499
 21
21.3423
  0
LINE
  8
0
 10
120.499
 20
21.3423
 11
120.63
 21
21.4778
  0
LINE
  8
0
 10
120.63
 20
21.4778
 11
120.777
 21
21.5959
  0
LINE
  8
0
 10
120.777
 20
21.5959
 11
120.937
 21
21.6946
  0
LINE
  8
0
 10
120.937
 20
21.6946
 11
121.109
 21
21.7724
  0
LINE
  8
0
 10
121.109
 20
21.7724
 11
121.289
 21
21.8281
  0
LINE
  8
0
 10
121.289
 20
21.8281
 11
121.474
 21
21.8608
  0
LINE
  8
0
 10
121.474
 20
21.8608
 11
121.662
 21
21.87
  0
LINE
  8
0
 10
121.662
 20
21.87
 11
121.85
 21
21.8556
  0
LINE
  8
0
 10
121.85
 20
21.8556
 11
122.035
 21
21.8177
  0
LINE
  8
0
 10
122.035
 20
21.8177
 11
122.213
 21
21.757
  0
LINE
  8
0
 10
122.213
 20
21.757
 11
122.382
 21
21.6744
  0
LINE
  8
0
 10
122.382
 20
21.6744
 11
122.54
 21
21.5713
  0
LINE
  8
0
 10
122.54
 20
21.5713
 11
122.684
 21
21.4492
  0
LINE
  8
0
 10
122.684
 20
21.4492
 11
122.811
 21
21.3101
  0
LINE
  8
0
 10
122.811
 20
21.3101
 11
122.919
 21
21.1562
  0
LINE
  8
0
 10
122.919
 20
21.1562
 11
123.008
 21
20.9898
  0
LINE
  8
0
 10
123.008
 20
20.9898
 11
123.074
 21
20.8137
  0
LINE
  8
0
 10
123.074
 20
20.8137
 11
123.119
 21
20.6306
  0
LINE
  8
0
 10
123.119
 20
20.6306
 11
123.14
 21
20.4435
  0
LINE
  8
0
 10
123.14
 20
20.4435
 11
123.137
 21
20.2551
  0
LINE
  8
0
 10
123.137
 20
20.2551
 11
123.111
 21
20.0686
  0
LINE
  8
0
 10
123.111
 20
20.0686
 11
123.061
 21
19.8868
  0
LINE
  8
0
 10
123.061
 20
19.8868
 11
122.99
 21
19.7126
  0
LINE
  8
0
 10
122.99
 20
19.7126
 11
122.897
 21
19.5488
  0
LINE
  8
0
 10
122.897
 20
19.5488
 11
122.784
 21
19.398
  0
LINE
  8
0
 10
122.784
 20
19.398
 11
122.653
 21
19.2625
  0
LINE
  8
0
 10
122.653
 20
19.2625
 11
122.506
 21
19.1445
  0
LINE
  8
0
 10
122.506
 20
19.1445
 11
122.346
 21
19.0458
  0
LINE
  8
0
 10
122.346
 20
19.0458
 11
122.174
 21
18.9679
  0
LINE
  8
0
 10
122.174
 20
18.9679
 11
121.994
 21
18.9122
  0
LINE
  8
0
 10
121.994
 20
18.9122
 11
121.809
 21
18.8795
  0
LINE
  8
0
 10
121.809
 20
18.8795
 11
121.621
 21
18.8703
  0
LINE
  8
0
 10
121.621
 20
18.8703
 11
121.433
 21
18.8848
  0
LINE
  8
0
 10
-21.7671
 20
-1.80679
 11
-21.9526
 21
-1.77408
  0
LINE
  8
0
 10
-21.9526
 20
-1.77408
 11
-22.1325
 21
-1.71838
  0
LINE
  8
0
 10
-22.1325
 20
-1.71838
 11
-22.3041
 21
-1.64055
  0
LINE
  8
0
 10
-22.3041
 20
-1.64055
 11
-22.4645
 21
-1.54185
  0
LINE
  8
0
 10
-22.4645
 20
-1.54185
 11
-22.6113
 21
-1.42383
  0
LINE
  8
0
 10
-22.6113
 20
-1.42383
 11
-22.7422
 21
-1.28831
  0
LINE
  8
0
 10
-22.7422
 20
-1.28831
 11
-22.855
 21
-1.13747
  0
LINE
  8
0
 10
-22.855
 20
-1.13747
 11
-22.948
 21
-0.973679
  0
LINE
  8
0
 10
-22.948
 20
-0.973679
 11
-23.0198
 21
-0.79953
  0
LINE
  8
0
 10
-23.0198
 20
-0.79953
 11
-23.0692
 21
-0.617752
  0
LINE
  8
0
 10
-23.0692
 20
-0.617752
 11
-23.0954
 21
-0.431213
  0
LINE
  8
0
 10
-23.0954
 20
-0.431213
 11
-23.0981
 21
-0.242859
  0
LINE
  8
0
 10
-23.0981
 20
-0.242859
 11
-23.0771
 21
-0.0556641
  0
LINE
  8
0
 10
-23.0771
 20
-0.0556641
 11
-23.0328
 21
0.127411
  0
LINE
  8
0
 10
-23.0328
 20
0.127411
 11
-22.9659
 21
0.303497
  0
LINE
  8
0
 10
-22.9659
 20
0.303497
 11
-22.8774
 21
0.469818
  0
LINE
  8
0
 10
-22.8774
 20
0.469818
 11
-22.7689
 21
0.623764
  0
LINE
  8
0
 10
-22.7689
 20
0.623764
 11
-22.6418
 21
0.762863
  0
LINE
  8
0
 10
-22.6418
 20
0.762863
 11
-22.4984
 21
0.884949
  0
LINE
  8
0
 10
-22.4984
 20
0.884949
 11
-22.3408
 21
0.988098
  0
LINE
  8
0
 10
-22.3408
 20
0.988098
 11
-22.1715
 21
1.07066
  0
LINE
  8
0
 10
-22.1715
 20
1.07066
 11
-21.9931
 21
1.13136
  0
LINE
  8
0
 10
-21.9931
 20
1.13136
 11
-21.8086
 21
1.16925
  0
LINE
  8
0
 10
-21.8086
 20
1.16925
 11
-21.6208
 21
1.1837
  0
LINE
  8
0
 10
-21.6208
 20
1.1837
 11
-21.4326
 21
1.1745
  0
LINE
  8
0
 10
-21.4326
 20
1.1745
 11
-21.2471
 21
1.14178
  0
LINE
  8
0
 10
-21.2471
 20
1.14178
 11
-21.0672
 21
1.08609
  0
LINE
  8
0
 10
-21.0672
 20
1.08609
 11
-20.8956
 21
1.00827
  0
LINE
  8
0
 10
-20.8956
 20
1.00827
 11
-20.7352
 21
0.909561
  0
LINE
  8
0
 10
-20.7352
 20
0.909561
 11
-20.5884
 21
0.791534
  0
LINE
  8
0
 10
-20.5884
 20
0.791534
 11
-20.4576
 21
0.656036
  0
LINE
  8
0
 10
-20.4576
 20
0.656036
 11
-20.3447
 21
0.505203
  0
LINE
  8
0
 10
-20.3447
 20
0.505203
 11
-20.2517
 21
0.341415
  0
LINE
  8
0
 10
-20.2517
 20
0.341415
 11
-20.1799
 21
0.167252
  0
LINE
  8
0
 10
-20.1799
 20
0.167252
 11
-20.1305
 21
-0.0145264
  0
LINE
  8
0
 10
-20.1305
 20
-0.0145264
 11
-20.1043
 21
-0.201065
  0
LINE
  8
0
 10
-20.1043
 20
-0.201065
 11
-20.1016
 21
-0.389404
  0
LINE
  8
0
 10
-20.1016
 20
-0.389404
 11
-20.1226
 21
-0.576614
  0
LINE
  8
0
 10
-20.1226
 20
-0.576614
 11
-20.1669
 21
-0.759705
  0
LINE
  8
0
 10
-20.1669
 20
-0.759705
 11
-20.2338
 21
-0.935791
  0
LINE
  8
0
 10
-20.2338
 20
-0.935791
 11
-20.3223
 21
-1.10211
  0
LINE
  8
0
 10
-20.3223
 20
-1.10211
 11
-20.4308
 21
-1.25604
  0
LINE
  8
0
 10
-20.4308
 20
-1.25604
 11
-20.5579
 21
-1.39514
  0
LINE
  8
0
 10
-20.5579
 20
-1.39514
 11
-20.7013
 21
-1.51723
  0
LINE
  8
0
 10
-20.7013
 20
-1.51723
 11
-20.8589
 21
-1.62038
  0
LINE
  8
0
 10
-20.8589
 20
-1.62038
 11
-21.0282
 21
-1.70296
  0
LINE
  8
0
 10
-21.0282
 20
-1.70296
 11
-21.2066
 21
-1.76366
  0
LINE
  8
0
 10
-21.2066
 20
-1.76366
 11
-21.3911
 21
-1.80153
  0
LINE
  8
0
 10
-21.3911
 20
-1.80153
 11
-21.5789
 21
-1.81599
  0
LINE
  8
0
 10
-21.5789
 20
-1.81599
 11
-21.7671
 21
-1.80679
  0
LINE
  8
0
 10
21.3911
 20
-1.80153
 11
21.2066
 21
-1.76366
  0
LINE
  8
0
 10
21.2066
 20
-1.76366
 11
21.0282
 21
-1.70296
  0
LINE
  8
0
 10
21.0282
 20
-1.70296
 11
20.8589
 21
-1.62038
  0
LINE
  8
0
 10
20.8589
 20
-1.62038
 11
20.7013
 21
-1.51723
  0
LINE
  8
0
 10
20.7013
 20
-1.51723
 11
20.5579
 21
-1.39514
  0
LINE
  8
0
 10
20.5579
 20
-1.39514
 11
20.4308
 21
-1.25604
  0
LINE
  8
0
 10
20.4308
 20
-1.25604
 11
20.3223
 21
-1.10211
  0
LINE
  8
0
 10
20.3223
 20
-1.10211
 11
20.2338
 21
-0.935791
  0
LINE
  8
0
 10
20.2338
 20
-0.935791
 11
20.1669
 21
-0.759705
  0
LINE
  8
0
 10
20.1669
 20
-0.759705
 11
20.1226
 21
-0.576614
  0
LINE
  8
0
 10
20.1226
 20
-0.576614
 11
20.1016
 21
-0.389404
  0
LINE
  8
0
 10
20.1016
 20
-0.389404
 11
20.1043
 21
-0.201065
  0
LINE
  8
0
 10
20.1043
 20
-0.201065
 11
20.1305
 21
-0.0145264
  0
LINE
  8
0
 10
20.1305
 20
-0.0145264
 11
20.1799
 21
0.167252
  0
LINE
  8
0
 10
20.1799
 20
0.167252
 11
20.2517
 21
0.341415
  0
LINE
  8
0
 10
20.2517
 20
0.341415
 11
20.3447
 21
0.505203
  0
LINE
  8
0
 10
20.3447
 20
0.505203
 11
20.4576
 21
0.656036
  0
LINE
  8
0
 10
20.4576
 20
0.656036
 11
20.5884
 21
0.791534
  0
LINE
  8
0
 10
20.5884
 20
0.791534
 11
20.7352
 21
0.909561
  0
LINE
  8
0
 10
20.7352
 20
0.909561
 11
20.8956
 21
1.00827
  0
LINE
  8
0
 10
20.8956
 20
1.00827
 11
21.0672
 21
1.08609
  0
LINE
  8
0
 10
21.0672
 20
1.08609
 11
21.2471
 21
1.14178
  0
LINE
  8
0
 10
21.2471
 20
1.14178
 11
21.4326
 21
1.1745
  0
LINE
  8
0
 10
21.4326
 20
1.1745
 11
21.6208
 21
1.1837
  0
LINE
  8
0
 10
21.6208
 20
1.1837
 11
21.8086
 21
1.16925
  0
LINE
  8
0
 10
21.8086
 20
1.16925
 11
21.9931
 21
1.13136
  0
LINE
  8
0
 10
21.9931
 20
1.13136
 11
22.1715
 21
1.07066
  0
LINE
  8
0
 10
22.1715
 20
1.07066
 11
22.3408
 21
0.988098
  0
LINE
  8
0
 10
22.3408
 20
0.988098
 11
22.4984
 21
0.884949
  0
LINE
  8
0
 10
22.4984
 20
0.884949
 11
22.6418
 21
0.762863
  0
LINE
  8
0
 10
22.6418
 20
0.762863
 11
22.7689
 21
0.623764
  0
LINE
  8
0
 10
22.7689
 20
0.623764
 11
22.8774
 21
0.469818
  0
LINE
  8
0
 10
22.8774
 20
0.469818
 11
22.9659
 21
0.303497
  0
LINE
  8
0
 10
22.9659
 20
0.303497
 11
23.0328
 21
0.127411
  0
LINE
  8
0
 10
23.0328
 20
0.127411
 11
23.0771
 21
-0.0556641
  0
LINE
  8
0
 10
23.0771
 20
-0.0556641
 11
23.0981
 21
-0.242859
  0
LINE
  8
0
 10
23.0981
 20
-0.242859
 11
23.0954
 21
-0.431213
  0
LINE
  8
0
 10
23.0954
 20
-0.431213
 11
23.0692
 21
-0.617752
  0
LINE
  8
0
 10
23.0692
 20
-0.617752
 11
23.0198
 21
-0.79953
  0
LINE
  8
0
 10
23.0198
 20
-0.79953
 11
22.948
 21
-0.973679
  0
LINE
  8
0
 10
22.948
 20
-0.973679
 11
22.855
 21
-1.13747
  0
LINE
  8
0
 10
22.855
 20
-1.13747
 11
22.7422
 21
-1.28831
  0
LINE
  8
0
 10
22.7422
 20
-1.28831
 11
22.6113
 21
-1.42383
  0
LINE
  8
0
 10
22.6113
 20
-1.42383
 11
22.4645
 21
-1.54185
  0
LINE
  8
0
 10
22.4645
 20
-1.54185
 11
22.3041
 21
-1.64055
  0
LINE
  8
0
 10
22.3041
 20
-1.64055
 11
22.1325
 21
-1.71838
  0
LINE
  8
0
 10
22.1325
 20
-1.71838
 11
21.9526
 21
-1.77408
  0
LINE
  8
0
 10
21.9526
 20
-1.77408
 11
21.7671
 21
-1.80679
  0
LINE
  8
0
 10
21.7671
 20
-1.80679
 11
21.5789
 21
-1.81599
  0
LINE
  8
0
 10
21.5789
 20
-1.81599
 11
21.3911
 21
-1.80153
  0
ENDSEC
  0
SECTION
  2
OBJECTS
  0
DICTIONARY
  0
ENDSEC
  0
EOF
